<?xml version="1.0" encoding="UTF-8"?>
<svg id="Icons" xmlns="http://www.w3.org/2000/svg" viewBox="0 0 200 200">
  <defs>
    <style>
      .cls-1 {
        fill: none;
        stroke: #fff;
        stroke-linecap: round;
        stroke-linejoin: round;
        stroke-width: 3px;
      }
    </style>
  </defs>
  <path class="cls-1" d="M134.3,140.08h-68.59c-5.15,0-9.32-4.18-9.32-9.32V62.16c0-5.14,4.17-9.32,9.32-9.32h68.59c5.15,0,9.32,4.18,9.32,9.32v68.59c0,5.15-4.18,9.32-9.32,9.32Z"/>
  <path class="cls-1" d="M80.99,153.16h-9.71c-2.14,0-3.87-1.73-3.87-3.87v-9.22h17.45v9.22c0,2.14-1.73,3.87-3.86,3.87Z"/>
  <path class="cls-1" d="M130.05,153.16h-9.71c-2.14,0-3.87-1.73-3.87-3.87v-9.22h17.45v9.22c0,2.14-1.73,3.87-3.87,3.87Z"/>
  <circle class="cls-1" cx="71.64" cy="123" r="6.54"/>
  <circle class="cls-1" cx="128.35" cy="123" r="6.54"/>
  <path class="cls-1" d="M47.66,83.81v-9.71c0-2.14,1.73-3.87,3.87-3.87h4.86v17.45h-4.86c-2.14,0-3.87-1.73-3.87-3.87Z"/>
  <path class="cls-1" d="M152.34,83.81v-9.71c0-2.14-1.73-3.87-3.87-3.87h-4.86v17.45h4.86c2.14,0,3.87-1.73,3.87-3.87Z"/>
  <path class="cls-1" d="M134.89,105.12v-34.89h-69.79v34.9s30.17,8.78,69.79,0Z"/>
  <line class="cls-1" x1="91.27" y1="61.56" x2="108.73" y2="61.56"/>
</svg>