<?xml version="1.0" encoding="UTF-8"?>
<svg id="Icons" xmlns="http://www.w3.org/2000/svg" viewBox="0 0 200 200">
  <defs>
    <style>
      .cls-1 {
        fill: none;
        stroke: #fff;
        stroke-linecap: round;
        stroke-linejoin: round;
        stroke-width: 3px;
      }
    </style>
  </defs>
  <g>
    <path class="cls-1" d="M108.38,136.2v-4.34c0-4.99-4.05-9.04-9.04-9.04s-9.04,4.05-9.04,9.04v4.34"/>
    <rect class="cls-1" x="88.49" y="136.2" width="21.69" height="5.42"/>
    <path class="cls-1" d="M102.15,141.62h4.66v7.73c0,.72-.59,1.31-1.31,1.31h-2.04c-.72,0-1.31-.59-1.31-1.31v-7.73Z"/>
    <path class="cls-1" d="M91.63,141.62h4.66v7.73c0,.72-.59,1.31-1.31,1.31h-2.04c-.72,0-1.31-.59-1.31-1.31v-7.73h0Z"/>
  </g>
  <circle class="cls-1" cx="53.16" cy="111.39" r="27.5"/>
  <circle class="cls-1" cx="146.84" cy="111.39" r="27.5"/>
  <polyline class="cls-1" points="77.3 83.89 53.16 111.39 99.31 111.39 130.11 76.37 83.26 78.68"/>
  <line class="cls-1" x1="69.9" y1="64" x2="87.92" y2="64"/>
  <line class="cls-1" x1="75.82" y1="64" x2="96.2" y2="105.19"/>
  <path class="cls-1" d="M146.84,111.39l-20.5-43.54s-1.73-5.67-14.36-5.35"/>
  <path class="cls-1" d="M59.76,103.88c-1.76-1.55-4.07-2.49-6.6-2.49-5.52,0-10,4.48-10,10s4.48,10,10,10c3.24,0,6.11-1.54,7.94-3.92"/>
  <path class="cls-1" d="M138.93,105.28c-1.31,1.69-2.09,3.81-2.09,6.12,0,5.52,4.48,10,10,10s10-4.48,10-10c0-5.12-3.85-9.34-8.82-9.93-.39-.05-.78-.07-1.18-.07"/>
  <line class="cls-1" x1="99.31" y1="111.39" x2="99.34" y2="122.82"/>
</svg>