<?xml version="1.0" encoding="UTF-8"?>
<svg id="Icons" xmlns="http://www.w3.org/2000/svg" viewBox="0 0 200 200">
  <defs>
    <style>
      .cls-1 {
        fill: none;
        stroke: #fff;
        stroke-linecap: round;
        stroke-linejoin: round;
        stroke-width: 3px;
      }
    </style>
  </defs>
  <path class="cls-1" d="M148.87,83.11l4.61,21.84h-75.41l4.12-21.69c.7-4.04,4.2-6.99,8.29-6.99h50.13c4.03,0,7.5,2.87,8.25,6.83Z"/>
  <path class="cls-1" d="M161.86,138.47h-92.16v-25.13c0-4.63,3.75-8.39,8.39-8.39h75.39c4.63,0,8.39,3.75,8.39,8.39v25.13Z"/>
  <circle class="cls-1" cx="84.58" cy="121.02" r="6.51"/>
  <circle class="cls-1" cx="146.98" cy="121.02" r="6.51"/>
  <path class="cls-1" d="M87.99,151.68h-10.39c-1.93,0-3.5-1.57-3.5-3.5v-9.54h17.38v9.54c0,1.93-1.56,3.5-3.49,3.5Z"/>
  <path class="cls-1" d="M153.95,151.68h-10.38c-1.93,0-3.5-1.57-3.5-3.5v-9.54h17.38v9.54c0,1.93-1.57,3.5-3.5,3.5Z"/>
  <rect class="cls-1" x="103.21" y="122.35" width="25.14" height="8.38"/>
  <path class="cls-1" d="M32.98,73.05v7.42c0,8.54,6.92,15.46,15.46,15.46s15.46-6.92,15.46-15.46v-7.42"/>
  <rect class="cls-1" x="29.89" y="63.78" width="37.1" height="9.27"/>
  <path class="cls-1" d="M38.88,48.32h1.52c1.78,0,3.22,1.44,3.22,3.22v12.23h-7.97v-12.23c0-1.78,1.44-3.22,3.22-3.22Z"/>
  <path class="cls-1" d="M56.88,48.32h1.52c1.78,0,3.22,1.44,3.22,3.22v12.23h-7.97v-12.23c0-1.78,1.44-3.22,3.22-3.22Z"/>
  <polyline class="cls-1" points="48.43 96.87 48.43 126.54 69.7 126.54"/>
</svg>