<?xml version="1.0" encoding="UTF-8"?>
<svg id="Icons" xmlns="http://www.w3.org/2000/svg" viewBox="0 0 200 200">
  <defs>
    <style>
      .cls-1 {
        fill: none;
        stroke: #fff;
        stroke-linecap: round;
        stroke-linejoin: round;
        stroke-width: 3px;
      }
    </style>
  </defs>
  <path class="cls-1" d="M151.33,91.98c9.34,0,16.91,7.57,16.91,16.91s-7.57,16.91-16.91,16.91h-85.68v-33.82h85.68Z"/>
  <rect class="cls-1" x="31.25" y="81.14" width="34.4" height="44.67" transform="translate(96.9 206.94) rotate(-180)"/>
  <rect class="cls-1" x="40.17" y="90.29" width="17.07" height="17.07" transform="translate(97.41 197.66) rotate(-180)"/>
  <rect class="cls-1" x="131.25" y="82.83" width="12.5" height="9.15" transform="translate(275 174.81) rotate(-180)"/>
  <circle class="cls-1" cx="65.65" cy="151.58" r="7.5"/>
  <circle class="cls-1" cx="100.87" cy="151.2" r="7.5"/>
  <circle class="cls-1" cx="136.35" cy="151.07" r="7.5"/>
  <path class="cls-1" d="M154.37,125.52v3.83s6.35,0,6.35,0c4.43,0,8.03,3.6,8.03,8.03s-3.59,8.03-8.03,8.03h-6.35s0,5.77,0,5.77h-5.62c0,6.9-5.6,12.5-12.5,12.5s-12.5-5.6-12.5-12.5h-10.3c0,6.9-5.6,12.5-12.5,12.5s-12.5-5.6-12.5-12.5h-10.3c0,6.9-5.6,12.5-12.5,12.5-6.9,0-12.5-5.6-12.5-12.5h-21.9v-25.66h123.12Z"/>
  <path class="cls-1" d="M93.98,36.31c7.65,0,14.2,4.7,16.94,11.37,7.51.13,13.65,5.86,14.42,13.2,4.39.33,7.98,3.52,8.93,7.71.72-.24,1.48-.37,2.28-.37,4.03,0,7.3,3.27,7.3,7.3,0,4.03-3.27,7.3-7.3,7.3-2.76,0-5.17-1.54-6.41-3.8-1.59,1.07-3.5,1.7-5.56,1.7-3.53,0-6.61-1.84-8.38-4.61-1.71.69-3.58,1.09-5.54,1.09-4.46,0-8.46-1.99-11.17-5.12-1.74.55-3.59.85-5.51.85-10.11,0-18.31-8.2-18.31-18.31,0-10.11,8.2-18.31,18.31-18.31Z"/>
</svg>