<?xml version="1.0" encoding="UTF-8"?>
<svg id="Icons" xmlns="http://www.w3.org/2000/svg" viewBox="0 0 200 200">
  <defs>
    <style>
      .cls-1 {
        fill: none;
        stroke: #fff;
        stroke-linecap: round;
        stroke-linejoin: round;
        stroke-width: 3px;
      }
    </style>
  </defs>
  <path class="cls-1" d="M78.55,79.32v10.67c0,12.28,9.95,22.23,22.23,22.23s22.23-9.95,22.23-22.23v-10.67"/>
  <rect class="cls-1" x="74.1" y="65.98" width="53.35" height="13.34"/>
  <path class="cls-1" d="M85.63,43.75h5.02c1.78,0,3.22,1.44,3.22,3.22v19.01h-11.46v-19.01c0-1.78,1.44-3.22,3.22-3.22Z"/>
  <path class="cls-1" d="M111.51,43.75h5.02c1.78,0,3.22,1.44,3.22,3.22v19.01h-11.46v-19.01c0-1.78,1.44-3.22,3.22-3.22Z"/>
  <line class="cls-1" x1="100.78" y1="113.57" x2="100.78" y2="156.25"/>
  <path class="cls-1" d="M68.44,88.41s-10.28-4.74-22.39-3.16c0,0-6.45,58.23,54.74,53.75"/>
  <path class="cls-1" d="M108.64,128.17s-.85-25.09,45.51-17.02c0,0-7.5,46.75-45.51,27.01"/>
  <path class="cls-1" d="M133.61,123.17s-25.95,7.9-32.47,25.82"/>
</svg>