<?xml version="1.0" encoding="UTF-8"?>
<svg id="Icons" xmlns="http://www.w3.org/2000/svg" viewBox="0 0 200 200">
  <defs>
    <style>
      .cls-1 {
        fill: none;
        stroke: #fff;
        stroke-linecap: round;
        stroke-linejoin: round;
        stroke-width: 3px;
      }
    </style>
  </defs>
  <path class="cls-1" d="M77.59,115.7s20.86,17.91,16.36,40.35"/>
  <path class="cls-1" d="M90.73,133.39s15.56-14.73-8.49-34.26c-7.54-6.39-18.5-10.08-22.74-17.71,0,0-25.09,47.66,20.28,54.96"/>
  <path class="cls-1" d="M98.02,114.9c4.79-4.57,12.94-8.16,26.63-8.63,0,0,3.51,33.75-32.31,30.92"/>
  <path class="cls-1" d="M121.47,123.77c15.05-4.87,25.94-19.01,25.94-35.69,0-14.68-8.44-27.39-20.73-33.55"/>
  <path class="cls-1" d="M93.2,54.5c-12.32,6.15-20.78,18.87-20.78,33.58"/>
  <line class="cls-1" x1="109.91" y1="76.79" x2="109.91" y2="43.95"/>
</svg>