<?xml version="1.0" encoding="UTF-8"?>
<svg id="Icons" xmlns="http://www.w3.org/2000/svg" viewBox="0 0 200 200">
  <defs>
    <style>
      .cls-1 {
        stroke-miterlimit: 10;
      }

      .cls-1, .cls-2 {
        fill: none;
        stroke: #fff;
        stroke-width: 3px;
      }

      .cls-2 {
        stroke-linecap: round;
        stroke-linejoin: round;
      }
    </style>
  </defs>
  <path class="cls-2" d="M70.66,64.95s24.47,11.37,26.19,33.77"/>
  <path class="cls-2" d="M131.26,114.48c-3.65-3.64-8.68-5.9-14.24-5.9-.47,0-.92.04-1.38.07-3.51-5.94-9.96-9.94-17.36-9.94s-13.95,4.06-17.44,10.08c-.89-.12-1.8-.2-2.72-.2-4.61,0-8.87,1.55-12.26,4.16"/>
  <path class="cls-2" d="M87.79,78.17s10.78-18.05-17.13-30.11c-8.82-4.03-20.16-4.6-26.18-10.68,0,0-11.03,51.69,33.77,46.52"/>
  <path class="cls-2" d="M104.78,84.26s-8.61-28.96,31.7-30.34c0,0,3.44,33.12-31.7,30.34Z"/>
  <path class="cls-1" d="M39.84,135.51l14.44-13.69s5.25-4.32,9.19-4.32h19.69l9.19,6.57h20.44s6.94.56,6.94,7.69-6.19,8.44-6.19,8.44h-30.38"/>
  <path class="cls-1" d="M65.9,160.95l3.45-3.05h47.2s17.26-9.82,28.13-22.57c10.87-12.75,14.26-23.25,14.26-23.25,0,0-.37-5.06-9-4.88-8.62.19-13.13,4.69-15.94,12.94l-11.01,5.65"/>
</svg>