<?xml version="1.0" encoding="UTF-8"?>
<svg id="Icons" xmlns="http://www.w3.org/2000/svg" viewBox="0 0 200 200">
  <defs>
    <style>
      .cls-1 {
        stroke-miterlimit: 10;
      }

      .cls-1, .cls-2 {
        stroke-linecap: round;
      }

      .cls-1, .cls-2, .cls-3 {
        fill: none;
        stroke: #fff;
        stroke-width: 3px;
      }

      .cls-2, .cls-3 {
        stroke-linejoin: round;
      }
    </style>
  </defs>
  <path class="cls-2" d="M94.56,98.17s13.96,11.99,10.95,27.01"/>
  <path class="cls-2" d="M103.36,110.03s10.41-9.85-5.68-22.93c-5.05-4.27-12.38-6.75-15.22-11.85,0,0-16.79,31.89,13.57,36.78"/>
  <path class="cls-2" d="M108.23,97.65c3.2-3.06,8.66-5.46,17.82-5.78,0,0,2.35,22.58-21.62,20.69"/>
  <g>
    <line class="cls-3" x1="100" y1="53.12" x2="100" y2="40.62"/>
    <line class="cls-3" x1="56.25" y1="96.88" x2="43.75" y2="96.88"/>
    <line class="cls-3" x1="156.25" y1="96.88" x2="143.75" y2="96.88"/>
    <line class="cls-3" x1="69.06" y1="65.93" x2="60.23" y2="57.1"/>
    <line class="cls-3" x1="139.77" y1="136.64" x2="130.94" y2="127.82"/>
    <line class="cls-3" x1="69.06" y1="127.81" x2="60.22" y2="136.65"/>
    <line class="cls-3" x1="139.78" y1="57.09" x2="130.93" y2="65.94"/>
    <path class="cls-1" d="M137.5,96.88c0-20.71-16.79-37.5-37.5-37.5s-37.5,16.79-37.5,37.5c0,17.25,11.65,31.76,27.5,36.14v21.36h3.75v5h12.5v-5h3.75v-21.36c15.85-4.38,27.5-18.89,27.5-36.14Z"/>
    <line class="cls-2" x1="90" y1="140.38" x2="110" y2="140.38"/>
    <line class="cls-2" x1="90" y1="147.42" x2="110" y2="147.42"/>
  </g>
</svg>