<?xml version="1.0" encoding="UTF-8"?>
<svg id="Icons" xmlns="http://www.w3.org/2000/svg" viewBox="0 0 200 200">
  <defs>
    <style>
      .cls-1 {
        stroke-miterlimit: 10;
      }

      .cls-1, .cls-2 {
        fill: none;
        stroke: #fff;
        stroke-width: 3px;
      }

      .cls-2 {
        stroke-linecap: round;
        stroke-linejoin: round;
      }
    </style>
  </defs>
  <path class="cls-2" d="M137.05,111.27c-3.3-3.3-7.87-5.34-12.9-5.34-.42,0-.83.03-1.25.06-3.18-5.38-9.02-9-15.72-9s-12.64,3.67-15.79,9.12c-.81-.11-1.63-.17-2.46-.19-4.09-.07-6.06,1.42-11.11,5.28"/>
  <polygon class="cls-2" points="132.37 186.27 82.17 186.27 69.87 111.27 144.87 111.27 132.37 186.27"/>
  <line class="cls-2" x1="107.37" y1="123.27" x2="142.87" y2="123.27"/>
  <path class="cls-1" d="M109.87,68.59c.74,1.85,1.15,3.86,1.15,5.98,0,8.82-7.15,15.97-15.97,15.97s-15.97-7.15-15.97-15.97c0-2.11.41-4.13,1.15-5.98l14.82-29.97,14.82,29.97Z"/>
  <path class="cls-2" d="M84.62,75.23c0,5.88,4.77,10.65,10.65,10.65"/>
  <path class="cls-1" d="M129.63,41.88c.45,1.12.7,2.33.7,3.61,0,5.33-4.32,9.65-9.65,9.65s-9.65-4.32-9.65-9.65c0-1.28.25-2.49.7-3.61l8.95-18.11,8.95,18.11Z"/>
</svg>