<?xml version="1.0" encoding="UTF-8"?>
<svg id="Icons" xmlns="http://www.w3.org/2000/svg" viewBox="0 0 200 200">
  <defs>
    <style>
      .cls-1 {
        stroke-miterlimit: 10;
      }

      .cls-1, .cls-2, .cls-3 {
        fill: none;
        stroke: #fff;
        stroke-width: 3px;
      }

      .cls-2 {
        stroke-linecap: round;
      }

      .cls-2, .cls-3 {
        stroke-linejoin: round;
      }
    </style>
  </defs>
  <g>
    <line class="cls-1" x1="71.08" y1="140.6" x2="82.64" y2="140.6"/>
    <path class="cls-1" d="M44.83,140.06s-.18-7.58-2.84-13.52c-2.66-5.94.93-9.75.93-9.75,0,0,6.13-14.07,5.93-20.11-.19-6.04,3.31-5.82,3.31-5.82,0,0,4.16-.59,4.16,5.09"/>
    <path class="cls-1" d="M87.78,145.95s-2.49,7.22-10.92,10.29c0,0-4.42,1.59-6.43,3.38"/>
    <polyline class="cls-3" points="36.67 147.24 44.68 139.93 68.29 165.07 60.27 172.37"/>
    <path class="cls-3" d="M103.03,99.55c1.97-1.05,4.42-.29,5.46,1.68s.29,4.42-1.68,5.46l-6.18,2.97c-1.97,1.05-4.42.29-5.46-1.68s-.29-4.42,1.68-5.46l6.53-3.13"/>
    <path class="cls-3" d="M102.24,110.82c1.83-.67,3.88.35,4.58,2.26.7,1.92-.22,4.01-2.06,4.67l-5.71,1.81c-1.83.67-3.88-.35-4.58-2.26s.22-4.01,2.06-4.67l6.03-1.91"/>
    <path class="cls-3" d="M101.61,120.79c2.12-.23,4.01,1.23,4.23,3.26.22,2.03-1.33,3.85-3.45,4.08l-2.65.03c-2.12.23-4.01-1.23-4.23-3.26s1.33-3.85,3.45-4.08l3.02-.06"/>
    <path class="cls-1" d="M97.38,127.68v14.7c0,1.97-1.6,3.57-3.57,3.57h-33.9c-1.97,0-3.57-1.6-3.57-3.57v-64.25c0-1.97,1.6-3.57,3.57-3.57h33.9c1.97,0,3.57,1.6,3.57,4.61v22.91"/>
    <path class="cls-1" d="M93.09,118.82v14.33c0,1-.81,1.81-1.81,1.81h-28.51c-1,0-1.81-.81-1.81-1.81v-49.93c0-1,.81-1.81,1.81-1.81h28.51c1,0,1.81.81,1.81,1.81v36.55"/>
  </g>
  <g>
    <path class="cls-2" d="M149.94,34.67l4.75,22.51h-77.7l4.25-22.35c.72-4.16,4.32-7.2,8.54-7.2h51.66c4.15,0,7.73,2.95,8.5,7.04Z"/>
    <path class="cls-2" d="M68.36,69.21v-3.4c0-4.77,3.87-8.64,8.64-8.64h77.69c4.77,0,8.64,3.87,8.64,8.64v25.9h-59.97"/>
    <path class="cls-2" d="M76.99,73.73c0-3.71,3.01-6.71,6.71-6.71s6.71,3.01,6.71,6.71"/>
    <circle class="cls-2" cx="148" cy="73.73" r="6.71"/>
    <path class="cls-2" d="M155.18,105.33h-10.7c-1.99,0-3.61-1.61-3.61-3.61v-9.83h17.91v9.83c0,1.99-1.61,3.61-3.61,3.61Z"/>
    <rect class="cls-2" x="102.89" y="75.11" width="25.9" height="8.63"/>
  </g>
  <g>
    <rect class="cls-1" x="66.46" y="97.99" width="5.58" height="5.58"/>
    <rect class="cls-1" x="66.46" y="112.48" width="5.58" height="5.58"/>
    <rect class="cls-1" x="82.35" y="97.99" width="5.58" height="5.58"/>
    <polyline class="cls-1" points="72.04 108.22 75.96 108.22 75.96 102.02 78.53 102.02 78.53 97"/>
    <polyline class="cls-1" points="76.04 119.26 76.04 115.77 79.58 115.77 79.58 112.48"/>
    <polyline class="cls-1" points="79.58 108.22 83.92 108.22 83.92 110.91 88.7 110.91"/>
    <line class="cls-1" x1="65.49" y1="108.22" x2="69.25" y2="108.22"/>
    <line class="cls-1" x1="82.91" y1="115.56" x2="88.62" y2="115.56"/>
  </g>
</svg>