<?xml version="1.0" encoding="UTF-8"?>
<svg id="Icons" xmlns="http://www.w3.org/2000/svg" viewBox="0 0 200 200">
  <defs>
    <style>
      .cls-1 {
        stroke-miterlimit: 10;
      }

      .cls-1, .cls-2, .cls-3 {
        fill: none;
        stroke: #fff;
        stroke-width: 3px;
      }

      .cls-2 {
        stroke-linecap: round;
      }

      .cls-2, .cls-3 {
        stroke-linejoin: round;
      }
    </style>
  </defs>
  <line class="cls-1" x1="97.34" y1="126.23" x2="115.03" y2="126.23"/>
  <path class="cls-1" d="M57.17,125.4s-.27-11.6-4.34-20.7c-4.08-9.1,1.43-14.93,1.43-14.93,0,0,9.38-21.54,9.08-30.79s5.07-8.91,5.07-8.91c0,0,6.36-.91,6.36,7.8"/>
  <path class="cls-1" d="M122.9,134.43s-3.81,11.05-16.72,15.75c0,0-6.76,2.43-9.84,5.18"/>
  <polyline class="cls-3" points="44.66 136.39 56.93 125.21 93.07 163.68 80.8 174.87"/>
  <path class="cls-3" d="M146.25,63.39c3.02-1.6,6.76-.45,8.36,2.57,1.6,3.02.45,6.76-2.57,8.36l-9.47,4.55c-3.02,1.6-6.76.45-8.36-2.57-1.6-3.02-.45-6.76,2.57-8.36l10-4.8"/>
  <path class="cls-3" d="M145.04,80.65c2.8-1.02,5.94.53,7.01,3.46,1.07,2.93-.34,6.14-3.15,7.15l-8.74,2.77c-2.8,1.02-5.94-.53-7.01-3.46-1.07-2.93.34-6.14,3.15-7.15l9.23-2.92"/>
  <path class="cls-3" d="M144.08,95.9c3.24-.35,6.14,1.89,6.47,4.99s-2.03,5.9-5.27,6.24l-4.06.05c-3.24.35-6.14-1.89-6.47-4.99s2.03-5.9,5.27-6.24l4.63-.09"/>
  <line class="cls-3" x1="137.61" y1="44.02" x2="142.62" y2="40.35"/>
  <path class="cls-3" d="M142.14,40.69c2.67-2.13,6.56-1.69,8.69.98s1.69,6.56-.98,8.69l-8.47,6.21c-1.12.89-2.45,1.33-3.78,1.35"/>
  <path class="cls-1" d="M137.61,106.45v22.51c0,3.02-2.45,5.47-5.47,5.47h-51.9c-3.02,0-5.47-2.45-5.47-5.47V30.61c0-3.02,2.45-5.47,5.47-5.47h51.9c3.02,0,5.47,2.45,5.47,7.05v35.07"/>
  <path class="cls-1" d="M131.04,92.9v21.94c0,1.53-1.24,2.77-2.77,2.77h-43.65c-1.53,0-2.77-1.24-2.77-2.77V38.4c0-1.53,1.24-2.77,2.77-2.77h43.65c1.53,0,2.77,1.24,2.77,2.77v55.95"/>
  <g>
    <path class="cls-2" d="M120.52,60.36l1.95,9.25h-31.93l1.74-9.19c.3-1.71,1.78-2.96,3.51-2.96h21.23c1.71,0,3.18,1.21,3.49,2.89Z"/>
    <path class="cls-2" d="M126.02,83.81h-39.03v-10.64c0-1.96,1.59-3.55,3.55-3.55h31.93c1.96,0,3.55,1.59,3.55,3.55v10.64Z"/>
    <circle class="cls-2" cx="93.3" cy="76.42" r="2.76"/>
    <circle class="cls-2" cx="119.72" cy="76.42" r="2.76"/>
    <path class="cls-2" d="M94.74,89.4h-4.4c-.82,0-1.48-.66-1.48-1.48v-4.04h7.36v4.04c0,.82-.66,1.48-1.48,1.48Z"/>
    <path class="cls-2" d="M122.67,89.4h-4.4c-.82,0-1.48-.66-1.48-1.48v-4.04h7.36v4.04c0,.82-.66,1.48-1.48,1.48Z"/>
    <rect class="cls-2" x="101.18" y="76.98" width="10.64" height="3.55"/>
  </g>
</svg>