<?xml version="1.0" encoding="UTF-8"?>
<svg id="Icons" xmlns="http://www.w3.org/2000/svg" viewBox="0 0 200 200">
  <defs>
    <style>
      .cls-1 {
        fill: none;
        stroke: #fff;
        stroke-linecap: round;
        stroke-linejoin: round;
        stroke-width: 3px;
      }
    </style>
  </defs>
  <circle class="cls-1" cx="100.25" cy="100.66" r="37.5"/>
  <path class="cls-1" d="M100.31,25.72s-21.2,20.96-.06,37.44c0,0,22.26-16.45.06-37.44Z"/>
  <path class="cls-1" d="M134.73,34.09s-28.46,8.89-17.24,33.23c0,0,27.32-4.39,17.24-33.23Z"/>
  <path class="cls-1" d="M161.48,57.33s-29.36-5.17-30.57,21.61c0,0,26.29,8.64,30.57-21.61Z"/>
  <path class="cls-1" d="M174.57,90.25s-23.71-18.07-37.08,5.17c0,0,19.39,19.74,37.08-5.17Z"/>
  <path class="cls-1" d="M171.1,125.5s-12.77-26.94-35.32-12.43c0,0,8.17,26.44,35.32,12.43Z"/>
  <path class="cls-1" d="M151.82,155.23s1.02-29.79-25.67-27.25c0,0-4.88,27.24,25.67,27.25Z"/>
  <path class="cls-1" d="M121.05,172.8s14.58-26-10.3-35.99c0,0-16.84,21.96,10.3,35.99Z"/>
  <path class="cls-1" d="M85.66,174.28s24.89-16.41,7.37-36.71c0,0-25.04,11.78-7.37,36.71Z"/>
  <path class="cls-1" d="M53.53,159.35s29.64-3.16,23.4-29.23c0,0-27.66-1.03-23.4,29.23Z"/>
  <path class="cls-1" d="M31.84,131.33s27.79,10.8,34.2-15.22c0,0-24.1-13.61-34.2,15.22Z"/>
  <path class="cls-1" d="M25.43,96.49s19.73,22.35,37.38,2.17c0,0-15.16-23.15-37.38-2.17Z"/>
  <path class="cls-1" d="M35.73,62.59s7.27,28.91,32.21,19.09c0,0-2.84-27.53-32.21-19.09Z"/>
  <path class="cls-1" d="M62.43,36.2s-6.82,29.02,19.85,31.74c0,0,10.11-25.76-19.85-31.74Z"/>
</svg>