<?xml version="1.0" encoding="UTF-8"?>
<svg id="Icons" xmlns="http://www.w3.org/2000/svg" viewBox="0 0 200 200">
  <defs>
    <style>
      .cls-1 {
        stroke-miterlimit: 10;
      }

      .cls-1, .cls-2 {
        fill: none;
        stroke: #fff;
        stroke-linecap: round;
        stroke-width: 3px;
      }

      .cls-2 {
        stroke-linejoin: round;
      }
    </style>
  </defs>
  <g>
    <polyline class="cls-1" points="134.81 51.84 142.01 36.27 155.86 70.29 142.01 70.29"/>
    <path class="cls-1" d="M134.82,51.84c-9.96-7.21-22.21-11.46-35.45-11.46-33.43,0-60.53,27.1-60.53,60.53,0,4.91.58,9.68,1.69,14.25"/>
  </g>
  <g>
    <polyline class="cls-1" points="65.19 148.16 57.99 163.73 44.14 129.71 57.99 129.71"/>
    <path class="cls-1" d="M65.18,148.16c9.96,7.21,22.21,11.46,35.45,11.46,33.43,0,60.53-27.1,60.53-60.53,0-4.91-.58-9.68-1.69-14.25"/>
  </g>
  <g>
    <circle class="cls-2" cx="99.69" cy="99.69" r="37.5"/>
    <path class="cls-2" d="M112.99,71.58h-4l-3.56,6.67s-.87,2.97,1.58,4.09h5.98l3.78,2.8-1.44,3.57h-6.34l-3.71-1.35-4.57,7.11,4.72,11.78,4.06,1.72,7.28,16.22,1.94,1.17,4.56-3.61v-6.39l7.72-10.22-4-12s-.67-2.44,2-3.11"/>
    <polyline class="cls-2" points="90.53 69.75 86.86 72.68 86.86 77.33 80.26 78.85 72.68 86.37 69.75 90.28 73.9 97.86 78.73 98.65 84.17 104.22 90.53 104.22 90.53 107.64 90.53 114.73 86.37 116.68 85.39 123.77 85.15 127.44 86.13 129.64 78.73 124.75 76.84 115.95 68.53 106.42"/>
  </g>
</svg>