<?xml version="1.0" encoding="UTF-8"?>
<svg id="Icons" xmlns="http://www.w3.org/2000/svg" viewBox="0 0 200 200">
  <defs>
    <style>
      .cls-1 {
        fill: none;
        stroke: #fff;
        stroke-linecap: round;
        stroke-linejoin: round;
        stroke-width: 3px;
      }
    </style>
  </defs>
  <g>
    <circle class="cls-1" cx="100" cy="126.89" r="50"/>
    <path class="cls-1" d="M117.73,89.41h-5.33l-4.74,8.89s-1.16,3.97,2.1,5.46h7.97l5.04,3.73-1.92,4.76h-8.45l-4.94-1.8-6.1,9.48,6.3,15.7,5.41,2.3,9.7,21.63,2.59,1.56,6.07-4.81v-8.52l10.3-13.63-5.33-16s-.89-3.26,2.67-4.15"/>
    <polyline class="cls-1" points="87.78 86.97 82.89 90.88 82.89 97.07 74.09 99.11 63.99 109.13 60.07 114.35 65.61 124.45 72.05 125.51 79.3 132.92 87.78 132.92 87.78 137.49 87.78 146.94 82.24 149.55 80.93 159 80.61 163.89 81.91 166.82 72.05 160.3 69.53 148.57 58.44 135.86"/>
  </g>
  <g>
    <path class="cls-1" d="M87.97,53.3s18.38,15.78,14.41,35.55"/>
    <path class="cls-1" d="M99.55,68.89s13.71-12.97-7.48-30.18c-6.64-5.63-16.3-8.88-20.03-15.6,0,0-22.11,41.99,17.87,48.42"/>
    <path class="cls-1" d="M105.97,52.6c4.22-4.03,11.4-7.19,23.46-7.6,0,0,3.1,29.74-28.46,27.24"/>
  </g>
</svg>