<?xml version="1.0" encoding="UTF-8"?>
<svg id="Icons" xmlns="http://www.w3.org/2000/svg" viewBox="0 0 200 200">
  <defs>
    <style>
      .cls-1, .cls-2 {
        fill: none;
        stroke: #fff;
        stroke-miterlimit: 10;
        stroke-width: 3px;
      }

      .cls-2 {
        stroke-linecap: round;
      }
    </style>
  </defs>
  <path class="cls-1" d="M117.78,129.44v7.08h-35.53v-7.08h-44.97v4.51c0,6.38,5.18,9.65,11.55,9.65h102.35c6.38,0,11.55-3.27,11.55-9.65v-4.51h-44.95Z"/>
  <path class="cls-1" d="M159.63,129.46V63.6c0-3.94-3.2-7.14-7.14-7.14h-24.82"/>
  <path class="cls-1" d="M40.37,129.44V63.6c0-3.94,3.2-7.14,7.14-7.14h25.88"/>
  <polyline class="cls-1" points="50.23 129.44 50.23 66.03 73.39 66.03"/>
  <polyline class="cls-1" points="149.77 123.81 149.77 66.03 127.68 66.03"/>
  <path class="cls-2" d="M80.57,58.93s-4.17,4.64,2.09,10.09c0,0,4.96,15.22,17.45,15.22"/>
  <path class="cls-2" d="M119.39,58.9s4.19,4.9-2.1,10.26c0,0-5.13,15.16-17.59,15.01"/>
  <g>
    <path class="cls-2" d="M89.7,79.97l-.75,8.59-20.49,8.32s-4.78,1.36-6.55,11.04l-1.94,14.69"/>
    <polyline class="cls-2" points="88.91 88.52 99.99 100 111.43 88.78"/>
  </g>
  <path class="cls-2" d="M110.72,79.52l.71,9.26,20.4,8.55s4.78,1.42,6.43,11.1l1.77,14.75"/>
  <path class="cls-2" d="M79.52,57.8v-12.49s.58-11.59,13.13-11.04c0,0,1.36-3.04,9.91-2.72,0,0,15.91.32,17.91,14.96v11.85s-2.75,2.96-5.1-4.75l-8.81.12s-8.81.09-17.51-7.68c0,0-.72,5.56-5.28,12,0,0-.72.87-2.09.87-.03.03-2.17.26-2.17-1.1Z"/>
  <circle class="cls-2" cx="115.87" cy="109.32" r="4.58"/>
  <line class="cls-2" x1="115.87" y1="90.71" x2="115.87" y2="104.74"/>
  <path class="cls-2" d="M74.68,122.61c0-12.21,4.82-22.11,10.77-22.11s10.77,9.9,10.77,22.11"/>
  <line class="cls-2" x1="85.44" y1="100.49" x2="85.44" y2="90.71"/>
  <line class="cls-2" x1="74.68" y1="123.07" x2="77.55" y2="123.07"/>
  <line class="cls-2" x1="93.34" y1="123.07" x2="96.21" y2="123.07"/>
</svg>