<?xml version="1.0" encoding="UTF-8"?>
<svg id="Icons" xmlns="http://www.w3.org/2000/svg" viewBox="0 0 200 200">
  <defs>
    <style>
      .cls-1, .cls-2 {
        stroke-miterlimit: 10;
      }

      .cls-1, .cls-2, .cls-3, .cls-4 {
        fill: none;
        stroke: #fff;
        stroke-width: 3px;
      }

      .cls-2, .cls-3 {
        stroke-linecap: round;
      }

      .cls-3, .cls-4 {
        stroke-linejoin: round;
      }
    </style>
  </defs>
  <g>
    <polyline class="cls-2" points="61.1 126.35 61.1 175 138.94 175 138.94 126.35"/>
    <polyline class="cls-2" points="52.09 126.35 100.02 88 147.96 126.35"/>
    <polyline class="cls-2" points="119.2 97.59 119.2 93.14 138.37 93.14 138.37 109.74"/>
  </g>
  <g>
    <path class="cls-3" d="M144.4,74.44l-11.75-2.99h0c-5.07,2.75-11.19,4.36-17.78,4.36-17.51,0-31.7-11.36-31.7-25.36,0-14.01,14.19-25.36,31.7-25.36,17.51,0,31.7,11.36,31.7,25.36,0,4.92-1.76,9.51-4.78,13.39l2.61,10.6Z"/>
    <path class="cls-4" d="M80.23,40.53c-2.79-.7-5.75-1.07-8.83-1.07-16.3,0-29.51,10.57-29.51,23.61,0,4.58,1.63,8.85,4.45,12.47l-2.43,9.87,10.94-2.78h0c4.72,2.56,10.42,4.06,16.56,4.06,10.43,0,19.6-4.33,24.85-10.87"/>
  </g>
  <g>
    <path class="cls-1" d="M71.8,154.61l7.09-6.72s2.58-2.12,4.51-2.12h9.67l4.51,3.23h10.04s3.41.28,3.41,3.78-3.04,4.15-3.04,4.15h-14.92"/>
    <path class="cls-1" d="M84.6,167.1l1.69-1.5h23.19s8.48-4.82,13.82-11.09c5.34-6.26,7-11.42,7-11.42,0,0-.18-2.49-4.42-2.4-4.23.09-6.45,2.3-7.83,6.36l-5.41,2.78"/>
    <path class="cls-1" d="M128.25,127.7l-7.09,6.72s-2.58,2.12-4.51,2.12h-9.67l-4.51-3.23h-10.04s-3.41-.28-3.41-3.78,3.04-4.15,3.04-4.15h14.92"/>
    <path class="cls-1" d="M115.45,115.21l-1.69,1.5h-23.19s-8.48,4.82-13.82,11.09-7,11.42-7,11.42c0,0,.18,2.49,4.42,2.4,4.23-.09,6.45-2.3,7.83-6.36l5.41-2.78"/>
  </g>
</svg>