<?xml version="1.0" encoding="UTF-8"?>
<svg id="Icons" xmlns="http://www.w3.org/2000/svg" viewBox="0 0 200 200">
  <defs>
    <style>
      .cls-1, .cls-2 {
        fill: none;
        stroke: #fff;
        stroke-miterlimit: 10;
        stroke-width: 3px;
      }

      .cls-2 {
        stroke-linecap: round;
      }
    </style>
  </defs>
  <path class="cls-1" d="M42.7,147.96l13.89-13.17s5.05-4.16,8.84-4.16h18.94l8.84,6.32h19.67s6.68.54,6.68,7.4-5.96,8.12-5.96,8.12h-29.23"/>
  <path class="cls-1" d="M67.78,172.44l3.32-2.93h45.41s16.61-9.45,27.06-21.72c10.46-12.27,13.72-22.37,13.72-22.37,0,0-.36-4.87-8.66-4.7-8.29.18-12.63,4.51-15.34,12.45l-10.59,5.44"/>
  <polygon class="cls-2" points="125 90 110 90 110 75 90 75 90 90 75 90 75 110 90 110 90 125 110 125 110 110 125 110 125 90"/>
</svg>