<?xml version="1.0" encoding="UTF-8"?>
<svg id="Icons" xmlns="http://www.w3.org/2000/svg" viewBox="0 0 200 200">
  <defs>
    <style>
      .cls-1 {
        fill: none;
        stroke: #fff;
        stroke-linecap: round;
        stroke-miterlimit: 10;
        stroke-width: 3px;
      }
    </style>
  </defs>
  <polyline class="cls-1" points="25 100.17 63.58 100.17 71.02 79.3 82.98 114.97 94.48 91.37 99.3 100.17 119.79 100.17"/>
  <path class="cls-1" d="M51.26,107.89c6.45,10.25,21.74,30.22,48.67,42.14h.03s.03,0,.03,0c37.41-16.56,52.35-48.64,52.35-48.64,4.5-8.9,5.29-16.45,4.67-22.33-.71-16.89-14.63-30.37-31.69-30.37-10.37,0-19.57,4.97-25.36,12.66-5.79-7.69-14.99-12.66-25.36-12.66-17.07,0-30.98,13.48-31.69,30.37-.6,5.61.1,12.74,4.07,21.11"/>
</svg>