<?xml version="1.0" encoding="UTF-8"?>
<svg id="Icons" xmlns="http://www.w3.org/2000/svg" viewBox="0 0 200 200">
  <defs>
    <style>
      .cls-1, .cls-2 {
        fill: none;
        stroke: #fff;
        stroke-miterlimit: 10;
        stroke-width: 3px;
      }

      .cls-2 {
        stroke-linecap: round;
      }
    </style>
  </defs>
  <rect class="cls-1" x="37.56" y="62.5" width="124.94" height="74.02" rx="10" ry="10"/>
  <g>
    <path class="cls-2" d="M120.72,93.93s-2.01,2.23,1,4.86c0,0,2.39,7.33,8.4,7.33"/>
    <path class="cls-2" d="M139.41,93.91s2.02,2.36-1.01,4.94c0,0-2.47,7.3-8.47,7.23"/>
    <g>
      <path class="cls-2" d="M125.11,104.06l-.36,4.13-9.87,4.01s-2.3.66-3.15,5.32l-.94,7.08"/>
      <polyline class="cls-2" points="124.73 108.18 130.07 113.7 135.58 108.3"/>
    </g>
    <path class="cls-2" d="M135.24,103.84l.34,4.46,9.82,4.12s2.3.68,3.1,5.34l.85,7.1"/>
    <path class="cls-2" d="M120.21,93.38v-6.01s.28-5.58,6.32-5.32c0,0,.66-1.47,4.77-1.31,0,0,7.66.15,8.62,7.2v5.71s-1.33,1.42-2.46-2.29l-4.24.06s-4.24.04-8.43-3.7c0,0-.35,2.68-2.54,5.78,0,0-.35.42-1,.42-.01.01-1.05.13-1.05-.53Z"/>
  </g>
  <rect class="cls-2" x="110.79" y="75" width="38.56" height="50"/>
  <rect class="cls-2" x="50" y="80.78" width="30" height="20"/>
  <line class="cls-2" x1="72.63" y1="80.78" x2="72.63" y2="100.78"/>
  <line class="cls-2" x1="72.63" y1="88" x2="50.04" y2="88"/>
  <line class="cls-2" x1="72.63" y1="94.06" x2="51.72" y2="94.06"/>
  <line class="cls-2" x1="50" y1="112.89" x2="75" y2="112.89"/>
  <line class="cls-2" x1="50" y1="125" x2="100" y2="125"/>
</svg>