<?xml version="1.0" encoding="UTF-8"?>
<svg id="Icons" xmlns="http://www.w3.org/2000/svg" viewBox="0 0 200 200">
  <defs>
    <style>
      .cls-1 {
        stroke-miterlimit: 10;
      }

      .cls-1, .cls-2 {
        fill: none;
        stroke: #fff;
        stroke-linecap: round;
        stroke-width: 3px;
      }

      .cls-2 {
        stroke-linejoin: round;
      }
    </style>
  </defs>
  <path class="cls-1" d="M73.31,100.17s-5.69,6.32,2.85,13.75c0,0,6.76,20.75,23.79,20.75"/>
  <path class="cls-1" d="M126.25,100.13s5.71,6.68-2.86,13.99c0,0-7,20.67-23.99,20.47"/>
  <g>
    <path class="cls-1" d="M85.75,128.86l-1.03,11.71-27.94,11.34"/>
    <polyline class="cls-1" points="84.69 140.52 99.79 156.18 115.39 140.88"/>
  </g>
  <path class="cls-1" d="M114.43,128.25l.97,12.63,27.82,11.66"/>
  <path class="cls-1" d="M117.3,67.01c4.81,2.91,9.28,7.85,10.42,16.2v16.16s-3.75,4.03-6.96-6.48l-12.01.16s-12.01.12-23.87-10.47c0,0-.99,7.59-7.19,16.36,0,0-.99,1.19-2.85,1.19-.04.04-2.96.36-2.96-1.5v-17.03s.5-9.93,9.22-13.68"/>
  <path class="cls-2" d="M113.46,66.11l4.72-14.67c0-4.21-8.49-7.62-18.96-7.62s-18.96,3.41-18.96,7.62v.73l4.72,13.94s12.51-4.91,28.48,0Z"/>
  <line class="cls-1" x1="100.12" y1="48.84" x2="100.12" y2="58.84"/>
  <line class="cls-1" x1="95.12" y1="53.84" x2="105.12" y2="53.84"/>
</svg>