<?xml version="1.0" encoding="UTF-8"?>
<svg id="Icons" xmlns="http://www.w3.org/2000/svg" viewBox="0 0 200 200">
  <defs>
    <style>
      .cls-1 {
        stroke-miterlimit: 10;
      }

      .cls-1, .cls-2 {
        fill: none;
        stroke: #fff;
        stroke-linecap: round;
        stroke-width: 3px;
      }

      .cls-2 {
        stroke-linejoin: round;
      }
    </style>
  </defs>
  <g>
    <path class="cls-1" d="M112.76,81.03c-12.81,18.31-35.58,16.78-35.58,16.78,0,21.42,10.23,38.72,22.81,38.72s22.81-17.35,22.81-38.72c.14.05-6.56-3.15-10.05-16.78Z"/>
    <path class="cls-1" d="M118.11,72.43c8.49,6.32,14.06,16.96,14.06,29.01,0,0,.35,14.73-2.75,26.66l-.48,6.38s-1.79,2.53-5.33,3.85"/>
    <path class="cls-1" d="M76.18,137.74c-3.72-.74-5.42-3.37-5.42-3.37v-6.49c-2.97-17.35-2.97-16.26-2.93-26.45,0-12.07,5.56-22.7,14.04-29.01"/>
    <path class="cls-1" d="M110.53,132.17l2.84,8.87,28.93,11.32"/>
    <path class="cls-1" d="M86.63,141.04l12.33,9.93s1.83,1.72,3.99,0l10.38-9.93"/>
    <path class="cls-1" d="M57.7,152.36l28.93-11.32,2.84-8.87"/>
  </g>
  <path class="cls-2" d="M114.24,69.93l4.72-14.67c0-4.21-8.49-7.62-18.96-7.62s-18.96,3.41-18.96,7.62v.73l4.72,13.94s12.51-4.91,28.48,0Z"/>
  <line class="cls-1" x1="100" y1="52.66" x2="100" y2="62.66"/>
  <line class="cls-1" x1="95" y1="57.66" x2="105" y2="57.66"/>
</svg>