<?xml version="1.0" encoding="UTF-8"?>
<svg id="Icons" xmlns="http://www.w3.org/2000/svg" viewBox="0 0 200 200">
  <defs>
    <style>
      .cls-1 {
        fill: #fff;
      }

      .cls-2 {
        stroke-miterlimit: 10;
      }

      .cls-2, .cls-3 {
        fill: none;
        stroke: #fff;
        stroke-linecap: round;
        stroke-width: 3px;
      }

      .cls-3 {
        stroke-linejoin: round;
      }
    </style>
  </defs>
  <path class="cls-2" d="M38.21,102.2s-6.53,7.26,3.27,15.79c0,0,7.76,23.82,27.32,23.82"/>
  <path class="cls-2" d="M98.99,102.15s6.56,7.67-3.29,16.07c0,0-8.03,23.73-27.54,23.5"/>
  <g>
    <path class="cls-2" d="M52.49,135.13l-1.18,13.44-32.08,13.02"/>
    <polyline class="cls-2" points="51.27 148.53 68.61 166.5 86.53 148.94"/>
  </g>
  <path class="cls-2" d="M85.41,134.43l1.11,14.5,31.94,13.39"/>
  <path class="cls-2" d="M88.72,64.13c5.52,3.34,10.65,9.01,11.96,18.6v18.56s-4.31,4.63-7.99-7.44l-13.79.18s-13.79.14-27.41-12.02c0,0-1.13,8.71-8.26,18.79,0,0-1.13,1.36-3.27,1.36-.05.05-3.4.41-3.4-1.72v-19.56s.57-11.4,10.59-15.7"/>
  <path class="cls-3" d="M84.3,63.09l5.42-16.85c0-4.83-9.75-8.75-21.77-8.75s-21.77,3.92-21.77,8.75v.84l5.42,16.01s14.36-5.63,32.7,0Z"/>
  <line class="cls-2" x1="68.99" y1="43.26" x2="68.99" y2="54.74"/>
  <line class="cls-2" x1="63.25" y1="49" x2="74.73" y2="49"/>
  <g>
    <path class="cls-3" d="M156.1,76.02l3.47-10.8c0-3.1-6.25-5.61-13.96-5.61s-13.96,2.51-13.96,5.61v.54l3.47,10.26h20.96Z"/>
    <line class="cls-2" x1="146.29" y1="63.31" x2="146.29" y2="70.67"/>
    <line class="cls-2" x1="142.61" y1="66.99" x2="149.97" y2="66.99"/>
    <rect class="cls-2" x="118.52" y="79.88" width="55.2" height="46" rx="23" ry="23"/>
    <rect class="cls-2" x="125.16" y="89.53" width="42.26" height="30.03" rx="15.02" ry="15.02"/>
    <circle class="cls-1" cx="137.18" cy="99.88" r="3"/>
    <circle class="cls-1" cx="154.91" cy="99.88" r="3"/>
    <path class="cls-2" d="M118.52,153.48v-8.96h0c0-7.58,6.14-13.72,13.72-13.72h27.76c7.58,0,13.72,6.14,13.72,13.72h0v8.96"/>
    <path class="cls-1" d="M151.55,106.3h-10.5c-.98,0-1.68.94-1.42,1.88.82,2.91,3.5,5.05,6.67,5.05s5.85-2.13,6.67-5.05c.27-.94-.44-1.88-1.42-1.88ZM149.29,110.98h-.01c-.4.69-1.64,1.2-3.11,1.2s-2.71-.51-3.11-1.2h-.01s0,0,0,0c0,0,0,0,0,0h.01c.4-.69,1.64-1.2,3.11-1.2s2.71.51,3.11,1.2h.01s0,0,0,0c0,0,0,0,0,0Z"/>
    <circle class="cls-3" cx="146.29" cy="49.99" r="3.05"/>
    <line class="cls-3" x1="146.29" y1="59.61" x2="146.29" y2="53.03"/>
    <path class="cls-2" d="M118.52,111.67h0c-3.47,0-6.28-2.37-6.28-5.29v-7.01c0-2.92,2.81-5.29,6.28-5.29h0"/>
    <path class="cls-2" d="M173.72,111.67h0c3.47,0,6.28-2.37,6.28-5.29v-7.01c0-2.92-2.81-5.29-6.28-5.29h0"/>
  </g>
</svg>