<?xml version="1.0" encoding="UTF-8"?>
<svg id="Icons" xmlns="http://www.w3.org/2000/svg" viewBox="0 0 200 200">
  <defs>
    <style>
      .cls-1 {
        fill: #fff;
      }

      .cls-2 {
        stroke-miterlimit: 10;
      }

      .cls-2, .cls-3 {
        fill: none;
        stroke: #fff;
        stroke-linecap: round;
        stroke-width: 3px;
      }

      .cls-3 {
        stroke-linejoin: round;
      }
    </style>
  </defs>
  <path class="cls-3" d="M113.56,69.76l4.72-14.67c0-4.21-8.49-7.62-18.96-7.62s-18.96,3.41-18.96,7.62v.73l4.72,13.94h28.48Z"/>
  <line class="cls-2" x1="100.22" y1="52.49" x2="100.22" y2="62.49"/>
  <line class="cls-2" x1="95.22" y1="57.49" x2="105.22" y2="57.49"/>
  <rect class="cls-2" x="62.5" y="75" width="75" height="62.5" rx="24.96" ry="24.96"/>
  <rect class="cls-2" x="71.52" y="88.12" width="57.43" height="40.8" rx="15.46" ry="15.46"/>
  <circle class="cls-1" cx="87.84" cy="102.17" r="4.08"/>
  <circle class="cls-1" cx="111.93" cy="102.17" r="4.08"/>
  <path class="cls-2" d="M62.5,175v-12.17h0c0-10.3,8.35-18.64,18.64-18.64h37.72c10.3,0,18.64,8.35,18.64,18.64h0v12.17"/>
  <path class="cls-1" d="M107.37,110.9h-14.27c-1.33,0-2.29,1.28-1.93,2.56,1.11,3.96,4.75,6.85,9.06,6.85s7.95-2.9,9.06-6.85c.36-1.28-.6-2.56-1.93-2.56ZM104.31,117.25h-.02c-.54.94-2.22,1.63-4.22,1.63s-3.69-.69-4.22-1.63h-.02s0,0,0-.01c0,0,0,0,0-.01h.02c.54-.94,2.22-1.63,4.22-1.63s3.69.69,4.22,1.63h.02s0,0,0,.01c0,0,0,0,0,.01Z"/>
  <circle class="cls-3" cx="100.23" cy="34.39" r="4.14"/>
  <line class="cls-3" x1="100.23" y1="47.47" x2="100.23" y2="38.53"/>
  <path class="cls-2" d="M62.5,118.2h0c-4.71,0-8.53-3.22-8.53-7.18v-9.53c0-3.97,3.82-7.18,8.53-7.18h0"/>
  <path class="cls-2" d="M137.5,118.2h0c4.71,0,8.53-3.22,8.53-7.18v-9.53c0-3.97-3.82-7.18-8.53-7.18h0"/>
</svg>