<?xml version="1.0" encoding="UTF-8"?>
<svg id="Icons" xmlns="http://www.w3.org/2000/svg" viewBox="0 0 200 200">
  <defs>
    <style>
      .cls-1, .cls-2 {
        fill: none;
        stroke: #fff;
        stroke-miterlimit: 10;
        stroke-width: 3px;
      }

      .cls-2 {
        stroke-linecap: round;
      }
    </style>
  </defs>
  <path class="cls-1" d="M117.55,62.28v-7.27c0-2.77-2.24-5.01-5.01-5.01h-47.49c-2.77,0-5.01,2.24-5.01,5.01v89.99c0,2.77,2.24,5.01,5.01,5.01h47.49c2.77,0,5.01-2.24,5.01-5.01v-23.05"/>
  <path class="cls-1" d="M111.3,121.93v10.14c0,1.4-1.13,2.53-2.53,2.53h-39.94c-1.4,0-2.53-1.13-2.53-2.53V62.14c0-1.4,1.13-2.53,2.53-2.53h39.94c1.4,0,2.53,1.13,2.53,2.53v.14"/>
  <line class="cls-1" x1="80.7" y1="142.5" x2="96.89" y2="142.5"/>
  <polygon class="cls-2" points="124.41 84.47 113.93 84.47 113.93 73.99 99.96 73.99 99.96 84.47 89.48 84.47 89.48 98.45 99.96 98.45 99.96 108.92 113.93 108.92 113.93 98.45 124.41 98.45 124.41 84.47"/>
  <polygon class="cls-2" points="73.95 117.12 73.95 67.24 139.95 67.24 139.95 117.12 98.1 117.12 92.25 126.97 86.25 117.12 73.95 117.12"/>
</svg>