<?xml version="1.0" encoding="UTF-8"?>
<svg id="Icons" xmlns="http://www.w3.org/2000/svg" viewBox="0 0 200 200">
  <defs>
    <style>
      .cls-1, .cls-2 {
        fill: none;
        stroke: #fff;
        stroke-miterlimit: 10;
        stroke-width: 3px;
      }

      .cls-2 {
        stroke-linecap: round;
      }
    </style>
  </defs>
  <g>
    <g>
      <path class="cls-2" d="M151.5,79.13c-5.27,7.53-14.65,6.91-14.65,6.91,0,8.81,4.21,15.94,9.39,15.94s9.39-7.14,9.39-15.94c.05.03-2.7-1.29-4.14-6.91Z"/>
      <path class="cls-2" d="M136.44,102.47c-1.53-.31-2.23-1.38-2.23-1.38v-2.67c-1.23-7.14-1.23-6.69-1.21-10.89,0-7.99,5.92-14.44,13.24-14.44s13.24,6.47,13.24,14.44c0,0,.14,6.06-1.14,10.97l-.2,2.62s-.74,1.04-2.2,1.58"/>
      <path class="cls-2" d="M150.58,100.18l1.17,3.65,11.91,4.66s2.97.88,3.99,6.89l1.1,9.16"/>
      <path class="cls-2" d="M140.75,103.83l5.08,4.08s.76.7,1.64,0l4.27-4.08"/>
      <path class="cls-2" d="M140.75,103.83l1.17-3.65"/>
      <path class="cls-2" d="M123.75,124.53l1.1-9.16c1.02-6.01,3.99-6.88,3.99-6.88l11.91-4.66"/>
    </g>
    <rect class="cls-1" x="117.5" y="50" width="57.5" height="100" rx="5.01" ry="5.01"/>
    <rect class="cls-1" x="123.75" y="59.61" width="45" height="75" rx="2.53" ry="2.53"/>
    <line class="cls-1" x1="138.16" y1="142.5" x2="154.34" y2="142.5"/>
  </g>
  <g>
    <path class="cls-2" d="M88.81,69.67c-12.12,17.33-33.68,15.89-33.68,15.89,0,20.27,9.68,36.65,21.6,36.65s21.6-16.43,21.6-36.65c.12.06-6.21-2.97-9.53-15.89Z"/>
    <path class="cls-2" d="M54.19,123.34c-3.51-.71-5.13-3.18-5.13-3.18v-6.14c-2.82-16.43-2.82-15.39-2.78-25.04,0-18.38,13.61-33.21,30.45-33.21s30.45,14.88,30.45,33.21c0,0,.33,13.94-2.61,25.23l-.45,6.03s-1.7,2.4-5.06,3.63"/>
    <g>
      <path class="cls-2" d="M125,150l3.48,24.08"/>
      <path class="cls-2" d="M86.7,118.06l2.69,8.4,27.39,10.71"/>
    </g>
    <path class="cls-2" d="M64.09,126.46l11.67,9.39s1.74,1.62,3.78,0l9.83-9.39"/>
    <path class="cls-2" d="M64.09,126.46l2.69-8.4"/>
    <path class="cls-2" d="M25,174.06l2.52-21.06c2.36-13.82,9.18-15.83,9.18-15.83l27.39-10.71"/>
  </g>
</svg>