<?xml version="1.0" encoding="UTF-8"?>
<svg id="Icons" xmlns="http://www.w3.org/2000/svg" viewBox="0 0 200 200">
  <defs>
    <style>
      .cls-1, .cls-2 {
        fill: none;
        stroke: #fff;
        stroke-miterlimit: 10;
        stroke-width: 3px;
      }

      .cls-2 {
        stroke-linecap: round;
      }
    </style>
  </defs>
  <path class="cls-1" d="M115.7,62.28v-7.27c0-2.77-2.24-5.01-5.01-5.01h-47.49c-2.77,0-5.01,2.24-5.01,5.01v89.99c0,2.77,2.24,5.01,5.01,5.01h47.49c2.77,0,5.01-2.24,5.01-5.01v-23.05"/>
  <path class="cls-1" d="M109.45,121.93v10.14c0,1.4-1.13,2.53-2.53,2.53h-39.94c-1.4,0-2.53-1.13-2.53-2.53V62.14c0-1.4,1.13-2.53,2.53-2.53h39.94c1.4,0,2.53,1.13,2.53,2.53v.14"/>
  <line class="cls-1" x1="78.86" y1="142.5" x2="95.05" y2="142.5"/>
  <polyline class="cls-2" points="73.51 92.68 93.44 92.68 97.28 81.9 103.46 100.33 109.4 88.14 111.89 92.68 122.47 92.68"/>
  <path class="cls-2" d="M87.08,96.67c3.33,5.29,11.23,15.61,25.14,21.77h.02s.02,0,.02,0c19.32-8.56,27.04-25.13,27.04-25.13,2.32-4.6,2.73-8.5,2.41-11.53-.37-8.72-7.56-15.69-16.37-15.69-5.35,0-10.11,2.57-13.1,6.54-2.99-3.97-7.74-6.54-13.1-6.54-8.82,0-16,6.96-16.37,15.69-.31,2.9.05,6.58,2.1,10.9"/>
</svg>