<?xml version="1.0" encoding="UTF-8"?>
<svg id="Icons" xmlns="http://www.w3.org/2000/svg" viewBox="0 0 200 200">
  <defs>
    <style>
      .cls-1, .cls-2 {
        stroke-miterlimit: 10;
      }

      .cls-1, .cls-2, .cls-3, .cls-4 {
        fill: none;
        stroke: #fff;
        stroke-width: 3px;
      }

      .cls-2, .cls-3 {
        stroke-linecap: round;
      }

      .cls-3, .cls-4 {
        stroke-linejoin: round;
      }
    </style>
  </defs>
  <path class="cls-1" d="M51.65,152.45l13.89-13.17s5.05-4.16,8.84-4.16h18.94l8.84,6.32h19.67s6.68.54,6.68,7.4-5.96,8.12-5.96,8.12h-29.23"/>
  <path class="cls-1" d="M76.72,176.93l3.32-2.93h45.41s16.61-9.45,27.06-21.72c10.46-12.27,13.72-22.37,13.72-22.37,0,0-.36-4.87-8.66-4.7-8.29.18-12.63,4.51-15.34,12.45l-10.59,5.44"/>
  <g>
    <line class="cls-4" x1="66.78" y1="62.99" x2="66.78" y2="54.73"/>
    <line class="cls-4" x1="66.78" y1="121.13" x2="66.78" y2="112.88"/>
    <line class="cls-4" x1="42.02" y1="88.12" x2="33.76" y2="88.12"/>
    <line class="cls-4" x1="99.79" y1="88.12" x2="91.54" y2="88.12"/>
    <line class="cls-4" x1="49.27" y1="70.61" x2="43.43" y2="64.77"/>
    <line class="cls-4" x1="90.12" y1="111.46" x2="84.29" y2="105.62"/>
    <line class="cls-4" x1="49.27" y1="105.06" x2="43.43" y2="110.9"/>
    <line class="cls-4" x1="90.12" y1="64.81" x2="84.28" y2="70.65"/>
    <circle class="cls-2" cx="66.78" cy="88.12" r="33.01"/>
    <line class="cls-3" x1="66.78" y1="88.12" x2="66.78" y2="67.73"/>
    <line class="cls-3" x1="66.78" y1="88.13" x2="83.28" y2="88.12"/>
  </g>
  <path class="cls-2" d="M92,109.62c4.94,6.99,14.35,17.58,29.42,24.25h.02s.02,0,.02,0c24.11-10.67,33.73-31.34,33.73-31.34,2.9-5.73,3.41-10.6,3.01-14.39-.46-10.88-9.43-19.57-20.42-19.57-6.68,0-12.61,3.2-16.34,8.16-3.73-4.96-9.66-8.16-16.34-8.16-3.63,0-7.03.94-9.99,2.6"/>
</svg>