<?xml version="1.0" encoding="UTF-8"?>
<svg id="Icons" xmlns="http://www.w3.org/2000/svg" viewBox="0 0 200 200">
  <defs>
    <style>
      .cls-1 {
        fill: none;
        stroke: #fff;
        stroke-linecap: round;
        stroke-miterlimit: 10;
        stroke-width: 3px;
      }
    </style>
  </defs>
  <g>
    <path class="cls-1" d="M112.86,52.09c-12.81,18.31-35.58,16.78-35.58,16.78,0,21.42,10.23,38.72,22.81,38.72s22.81-17.35,22.81-38.72c.14.05-6.56-3.15-10.05-16.78Z"/>
    <path class="cls-1" d="M76.28,108.79c-3.72-.74-5.42-3.37-5.42-3.37v-6.49c-2.97-17.35-2.97-16.26-2.93-26.45,0-19.41,14.38-35.1,32.17-35.1s32.17,15.73,32.17,35.1c0,0,.35,14.73-2.75,26.66l-.48,6.38s-1.79,2.53-5.33,3.85"/>
    <path class="cls-1" d="M110.63,103.22l2.84,8.87,28.93,11.32s7.21,2.14,9.7,16.74l2.67,22.25"/>
    <path class="cls-1" d="M86.73,112.09l12.33,9.93s1.83,1.72,3.99,0l10.38-9.93"/>
    <path class="cls-1" d="M45.43,162.4l2.67-22.25c2.49-14.6,9.7-16.74,9.7-16.74l28.93-11.32,2.84-8.87"/>
  </g>
  <circle class="cls-1" cx="122.25" cy="141.75" r="6.25"/>
  <line class="cls-1" x1="122.25" y1="116.37" x2="122.25" y2="135.5"/>
  <path class="cls-1" d="M66.09,158.87c0-16.65,6.57-30.15,14.68-30.15s14.68,13.5,14.68,30.15"/>
  <line class="cls-1" x1="80.77" y1="128.71" x2="80.77" y2="115.37"/>
  <line class="cls-1" x1="66.09" y1="158.87" x2="70" y2="158.87"/>
  <line class="cls-1" x1="91.54" y1="159.5" x2="95.45" y2="159.5"/>
</svg>