<?xml version="1.0" encoding="UTF-8"?>
<svg id="Icons" xmlns="http://www.w3.org/2000/svg" viewBox="0 0 200 200">
  <defs>
    <style>
      .cls-1 {
        stroke: #010202;
        stroke-linejoin: round;
      }

      .cls-1, .cls-2 {
        fill: none;
        stroke-width: 3px;
      }

      .cls-2 {
        stroke: #000;
        stroke-miterlimit: 10;
      }
    </style>
  </defs>
  <polyline class="cls-1" points="83.95 52.63 83.95 52.63 100 58.11 116.05 52.63"/>
  <circle class="cls-2" cx="100" cy="100" r="50"/>
  <polygon class="cls-2" points="100 80.37 79.77 95.06 87.5 118.84 112.5 118.84 120.23 95.06 100 80.37"/>
  <polyline class="cls-1" points="141.32 71.82 140.34 88.65 149.92 102.63 149.92 102.64 149.93 102.64 149.93 102.64"/>
  <polyline class="cls-1" points="58.68 71.84 58.68 71.84 59.65 88.55 50.06 102.54 50.06 102.55 50.06 102.54 50.06 102.55"/>
  <polyline class="cls-1" points="63.83 134.5 63.81 134.5 63.93 134.53 80.58 137.13 92.18 149.39 92.18 149.39"/>
  <polyline class="cls-1" points="136.2 134.5 136.1 134.53 119.45 137.13 107.85 149.39 107.85 149.39"/>
  <line class="cls-1" x1="100" y1="58.11" x2="100" y2="80.37"/>
  <line class="cls-1" x1="59.65" y1="88.55" x2="79.77" y2="95.06"/>
  <line class="cls-1" x1="80.58" y1="137.13" x2="87.5" y2="118.84"/>
  <line class="cls-1" x1="120.23" y1="95.06" x2="140.34" y2="88.65"/>
  <line class="cls-1" x1="112.5" y1="118.84" x2="119.45" y2="137.13"/>
</svg>