<?xml version="1.0" encoding="UTF-8"?>
<svg id="Icons" xmlns="http://www.w3.org/2000/svg" viewBox="0 0 200 200">
  <defs>
    <style>
      .cls-1 {
        fill: none;
        stroke: #000;
        stroke-linecap: round;
        stroke-miterlimit: 10;
        stroke-width: 3px;
      }
    </style>
  </defs>
  <path class="cls-1" d="M85,157.8c.3-.2.57-.46.81-.73,2.74-3,5.51-5.99,8.21-9.03,3.38-3.78,6.22-7.93,8.41-12.51,3.71-7.74,5.27-15.93,5.11-23.69,0-2.9.02-5.01,0-7.13-.04-3.91-2.73-6.72-6.39-6.7-3.61.02-6.26,2.81-6.3,6.66-.02,2.44,0,4.88,0,7.32-.05,8.19-2.17,15.78-6.98,22.45-2.32,3.22-5.09,6.12-7.69,9.14-1.35,1.57-2.84,3.03-4.11,4.67M108,55.26c-6.03-.82-12.01-.54-17.94.82-9.02,2.07-16.84,6.39-23.44,12.83-6.61,6.45-11.17,14.15-13.36,23.14-.79,3.22-1.09,6.56-1.53,9.86M142.09,112.6c.03-2.68.02-5.37,0-8.05,0-4.25-.59-8.44-1.88-12.49-5.45-17.09-21.26-28.64-39.18-28.65-.81,0-1.63.03-2.42.18M143.27,64.26c-.24-.32-.53-.62-.81-.9-11.38-11.27-25.11-16.92-41.08-17.04-1.54,0-3.1-.14-4.63.03-2.82.32-5.63.77-8.43,1.25M71.21,76.55c-6.61,7.32-10.36,15.84-10.8,25.74-.14,3.17-.14,6.34-.13,9.51,0,1.55-.44,2.86-1.54,3.97M132.75,123.4l.7-12.66c0-1.87,0-3.74,0-5.62.03-4.48-.72-8.81-2.42-12.98-1.83-4.48-4.56-8.33-8.09-11.62M116.38,39.24c-4.98-1.1-10.01-1.73-15.12-1.74-8.85.02-17.37,1.67-25.55,5.06-1.16.48-2.32.98-3.44,1.56M96.69,72.42c-.52.03-1.04.15-1.56.25-14.38,2.52-25.75,15.71-26.16,30.29,0,.45-.02.9,0,1.34M78.44,50.78c-6.77,2.9-12.79,6.93-18.02,12.1-1.73,1.71-3.34,3.57-4.85,5.48M148.27,89.23c-.02-.12-.02-.24-.05-.36-.08-.31-.16-.63-.27-.93-2.16-6.16-5.43-11.68-9.78-16.55-.24-.27-.49-.55-.78-.76M68.98,112.28c-.16,4.18-2,7.53-4.86,10.44-1.17,1.19-2.25,2.45-3.35,3.71M130.35,64.32c-3.17-1.89-6.36-3.75-9.61-5.5-1.31-.7-2.79-1.08-3.91-1.5M90.62,64.88c-.12.01-.25.01-.36.04-4.46,1.24-8.59,3.17-12.37,5.84M128.1,141.52c.53-1.36,1.03-2.73,1.48-4.12.53-1.66,1-3.33,1.44-4.83M115.16,75.3c-2.97-1.56-6.16-2.44-9.29-2.9M132.47,45.36c-2.19-1.13-4.43-2.18-6.71-3.14"/>
  <path class="cls-1" d="M66.54,132.94c2.03-2.33,4.17-4.57,6.14-6.95,3.14-3.79,4.74-8.2,4.85-13.12.08-3.54-.07-7.09.2-10.61.86-11.37,10.07-20.5,21.49-21.49,11.33-.98,21.9,6.45,24.76,17.48.43,1.64.72,3.35.77,5.04.25,8.54.29,17.07-1.7,25.48-2.97,12.57-9.05,23.42-17.93,32.75"/>
  <path class="cls-1" d="M72.45,139.29c2.16-2.44,4.38-4.82,6.49-7.29,4.99-5.84,7.28-12.67,7.29-20.32,0-2.77-.05-5.54.07-8.3.36-7.84,7.15-14.16,15-14.06,7.96.1,14.65,6.43,14.8,14.26.13,6.78.37,13.58-.88,20.32-2.14,11.53-7.18,21.59-15.06,30.25-2.08,2.29-4.15,4.59-6.25,6.85-.52.56-1.15,1-1.74,1.5"/>
  <path d="M125.76,42.22c2.27.96,4.51,2.01,6.71,3.14"/>
</svg>