<?xml version="1.0" encoding="UTF-8"?>
<svg id="Icons" xmlns="http://www.w3.org/2000/svg" viewBox="0 0 200 200">
  <defs>
    <style>
      .cls-1 {
        fill: none;
        stroke: #030505;
        stroke-miterlimit: 10;
        stroke-width: 3px;
      }
    </style>
  </defs>
  <path class="cls-1" d="M40.48,130.89l14.44-13.69s5.25-4.32,9.19-4.32h19.69l9.19,6.57h20.44s6.94.56,6.94,7.69-6.19,8.44-6.19,8.44h-30.38"/>
  <path class="cls-1" d="M66.54,156.33l3.45-3.05h47.2s17.26-9.82,28.13-22.57c10.87-12.75,14.26-23.25,14.26-23.25,0,0-.37-5.06-9-4.88-8.62.19-13.13,4.69-15.94,12.94l-11.01,5.65"/>
  <path class="cls-1" d="M158.41,69.11l-14.44,13.69s-5.25,4.32-9.19,4.32h-19.69l-9.19-6.57h-20.44s-6.94-.56-6.94-7.69,6.19-8.44,6.19-8.44h30.38"/>
  <path class="cls-1" d="M132.35,43.67l-3.45,3.05h-48.2"/>
  <path class="cls-1" d="M71.51,108.53c-1.78-5.93-10.07-9.19-10.07-9.19-23.11-10.51-20.96-32.36-20.96-32.36l32.51-23.31s5.21,15.02,11.72,20.75"/>
  <path class="cls-1" d="M115.09,87.13c.85-.14,17.5,16.36,15.76,22.59l-11.98,6.07"/>
  <path class="cls-1" d="M94.05,80.55c2.82,4.21,2.19,10.18-1.77,14.14-4.47,4.47-11.48,4.7-15.66.53-4.18-4.18-3.94-11.19.53-15.66.84-.84,1.76-1.53,2.74-2.06"/>
  <path class="cls-1" d="M74.55,63.49l-5.33-8.22-20.44,14.44s.04,16.76,15.11,22"/>
  <path class="cls-1" d="M108.99,89.69s10.07,7.8,14.04,16.91l-14.04,7.33"/>
</svg>