<?xml version="1.0" encoding="UTF-8"?>
<svg id="Icons" xmlns="http://www.w3.org/2000/svg" viewBox="0 0 200 200">
  <defs>
    <style>
      .cls-1, .cls-2 {
        fill: none;
        stroke: #040506;
        stroke-miterlimit: 10;
        stroke-width: 3px;
      }

      .cls-2 {
        stroke-linecap: round;
      }
    </style>
  </defs>
  <path class="cls-1" d="M87.48,127.39c2.13,8.09,9.83,13.72,18.45,12.97,7.56-.66,13.57-6.03,15.4-12.97"/>
  <rect class="cls-1" x="48.26" y="56.2" width="101.8" height="50" transform="translate(-12.59 18.45) rotate(-10)"/>
  <circle class="cls-1" cx="99.16" cy="81.2" r="17.5"/>
  <polyline class="cls-2" points="84.8 101.5 60.24 105.83 54.16 71.36 78.55 67.06"/>
  <polyline class="cls-2" points="113.36 60.92 137.87 56.6 143.95 91.07 119.78 95.33"/>
  <g>
    <polyline class="cls-1" points="154.7 132.12 152.93 152.26 51.52 143.39 52.57 131.37"/>
    <polyline class="cls-1" points="85.28 138.81 60.43 136.64 60.79 132.58 61.24 127.39"/>
    <polyline class="cls-1" points="146.56 127.39 145.11 144.05 120.66 141.91"/>
  </g>
  <g>
    <polyline class="cls-1" points="155.31 102.39 155.31 127.39 53.5 127.39 53.5 119.5"/>
    <path class="cls-1" d="M88.02,108.55c2.49,6.62,8.89,11.34,16.38,11.34,9.66,0,17.5-7.84,17.5-17.5"/>
    <polyline class="cls-2" points="146.79 98.18 146.79 119.89 122.25 119.89"/>
    <polyline class="cls-2" points="86.74 119.89 61.79 119.89 61.79 113.17"/>
  </g>
</svg>