<?xml version="1.0" encoding="UTF-8"?>
<svg id="Icons" xmlns="http://www.w3.org/2000/svg" viewBox="0 0 200 200">
  <defs>
    <style>
      .cls-1 {
        stroke-linejoin: round;
      }

      .cls-1, .cls-2, .cls-3 {
        fill: none;
        stroke: #040506;
        stroke-width: 3px;
      }

      .cls-1, .cls-3 {
        stroke-linecap: round;
      }

      .cls-2, .cls-3 {
        stroke-miterlimit: 10;
      }
    </style>
  </defs>
  <rect class="cls-2" x="107.64" y="122.59" width="50.7" height="12.2"/>
  <rect class="cls-2" x="107.64" y="147.29" width="50.7" height="12.2"/>
  <rect class="cls-2" x="100.31" y="159.48" width="50.7" height="12.2"/>
  <rect class="cls-2" x="119.64" y="134.79" width="50.5" height="12.5"/>
  <path class="cls-3" d="M90.51,58.66c21.43,3.45,37.8,22.03,37.8,44.43"/>
  <path class="cls-3" d="M38.31,103.09c0-22.25,16.15-40.73,37.37-44.36"/>
  <path class="cls-2" d="M39.86,171.91c-5.52,0-10-4.48-10-10s4.48-10,10-10"/>
  <line class="cls-2" x1="38.31" y1="103.09" x2="38.31" y2="152.94"/>
  <line class="cls-2" x1="39.86" y1="171.91" x2="93.31" y2="171.91"/>
  <line class="cls-2" x1="128.31" y1="103.09" x2="128.31" y2="116.51"/>
  <path class="cls-2" d="M96.7,123.77c-2.82,2.62-6.66,4.24-10.88,4.24-8.65,0-15.67-4.27-15.67-12.59v-13.86c0-8.32,7.02-15.07,15.67-15.07,4.28,0,8.16,1.65,11,4.34"/>
  <line class="cls-2" x1="65.55" y1="101.93" x2="85.82" y2="101.93"/>
  <line class="cls-2" x1="65.55" y1="113.33" x2="85.82" y2="113.33"/>
  <path class="cls-1" d="M100.81,61.62v-10.64h-.05c3.35-2.24,5.55-6.06,5.55-10.39,0-6.9-5.6-12.5-12.5-12.5-4.41,0-8.27,2.29-10.5,5.73-2.23-3.45-6.09-5.73-10.5-5.73-6.9,0-12.5,5.6-12.5,12.5,0,4.33,2.2,8.15,5.55,10.39h-.05v10.64"/>
  <line class="cls-3" x1="65.86" y1="50.98" x2="100.31" y2="50.98"/>
</svg>