<?xml version="1.0" encoding="UTF-8"?>
<svg id="Icons" xmlns="http://www.w3.org/2000/svg" viewBox="0 0 200 200">
  <defs>
    <style>
      .cls-1 {
        stroke: #010202;
      }

      .cls-1, .cls-2, .cls-3, .cls-4 {
        stroke-linejoin: round;
      }

      .cls-1, .cls-2, .cls-3, .cls-4, .cls-5 {
        fill: none;
        stroke-width: 3px;
      }

      .cls-2, .cls-4, .cls-5 {
        stroke: #000;
      }

      .cls-2, .cls-5 {
        stroke-linecap: round;
      }

      .cls-3 {
        stroke: #020304;
      }

      .cls-5 {
        stroke-miterlimit: 10;
      }
    </style>
  </defs>
  <path class="cls-2" d="M99.94,74.94c-13.81,0-25,11.19-25,25"/>
  <line class="cls-4" x1="100" y1="56.25" x2="100" y2="43.75"/>
  <line class="cls-4" x1="56.25" y1="100" x2="43.75" y2="100"/>
  <line class="cls-4" x1="156.25" y1="100" x2="143.75" y2="100"/>
  <line class="cls-1" x1="69.06" y1="69.06" x2="60.23" y2="60.23"/>
  <line class="cls-1" x1="139.77" y1="139.77" x2="130.94" y2="130.94"/>
  <line class="cls-3" x1="69.06" y1="130.94" x2="60.22" y2="139.78"/>
  <line class="cls-3" x1="139.78" y1="60.22" x2="130.93" y2="69.07"/>
  <path class="cls-5" d="M137.5,100c0-20.71-16.79-37.5-37.5-37.5s-37.5,16.79-37.5,37.5c0,17.25,11.65,31.76,27.5,36.14v21.36h3.75v5h12.5v-5h3.75v-21.36c15.85-4.38,27.5-18.89,27.5-36.14Z"/>
  <line class="cls-2" x1="90" y1="143.5" x2="110" y2="143.5"/>
  <line class="cls-2" x1="90" y1="150.54" x2="110" y2="150.54"/>
</svg>