<?xml version="1.0" encoding="UTF-8"?>
<svg id="Icons" xmlns="http://www.w3.org/2000/svg" viewBox="0 0 200 200">
  <defs>
    <style>
      .cls-1 {
        stroke-linejoin: round;
      }

      .cls-1, .cls-2 {
        fill: none;
        stroke: #030405;
        stroke-width: 3px;
      }

      .cls-2 {
        stroke-miterlimit: 10;
      }
    </style>
  </defs>
  <line class="cls-2" x1="97.57" y1="124" x2="113.75" y2="124"/>
  <path class="cls-2" d="M60.81,123.24s-.25-10.61-3.97-18.94c-3.73-8.32,1.31-13.66,1.31-13.66,0,0,8.58-19.71,8.31-28.17s4.64-8.15,4.64-8.15c0,0,5.82-.83,5.82,7.13"/>
  <path class="cls-2" d="M120.96,131.5s-3.48,10.11-15.3,14.41c0,0-6.19,2.22-9,4.74"/>
  <polyline class="cls-1" points="49.37 133.3 60.6 123.07 93.66 158.27 82.43 168.5"/>
  <path class="cls-1" d="M142.32,66.5c2.76-1.46,6.19-.41,7.65,2.35,1.46,2.76.41,6.19-2.35,7.65l-8.66,4.16c-2.76,1.46-6.19.41-7.65-2.35-1.46-2.76-.41-6.19,2.35-7.65l9.15-4.39"/>
  <path class="cls-1" d="M141.21,82.3c2.57-.93,5.43.49,6.41,3.17.98,2.68-.31,5.61-2.88,6.55l-8,2.54c-2.57.93-5.43-.49-6.41-3.17s.31-5.61,2.88-6.55l8.45-2.68"/>
  <path class="cls-1" d="M140.34,96.25c2.97-.32,5.62,1.73,5.92,4.57.3,2.84-1.86,5.4-4.83,5.71l-3.72.05c-2.97.32-5.62-1.73-5.92-4.57-.3-2.84,1.86-5.4,4.83-5.71l4.23-.08"/>
  <line class="cls-1" x1="134.41" y1="48.78" x2="139" y2="45.42"/>
  <path class="cls-1" d="M138.56,45.73c2.44-1.95,6.01-1.54,7.95.9,1.95,2.44,1.54,6.01-.9,7.95l-7.75,5.69c-1.02.82-2.24,1.22-3.46,1.23"/>
  <path class="cls-2" d="M134.41,105.9v20.59c0,2.77-2.24,5.01-5.01,5.01h-47.49c-2.77,0-5.01-2.24-5.01-5.01V36.51c0-2.77,2.24-5.01,5.01-5.01h47.49c2.77,0,5.01,2.24,5.01,6.45v32.09"/>
  <path class="cls-2" d="M128.4,93.5v20.08c0,1.4-1.13,2.53-2.53,2.53h-39.94c-1.4,0-2.53-1.13-2.53-2.53V43.64c0-1.4,1.13-2.53,2.53-2.53h39.94c1.4,0,2.53,1.13,2.53,2.53v51.2"/>
  <g>
    <rect class="cls-2" x="90.65" y="64.89" width="8" height="8"/>
    <rect class="cls-2" x="90.65" y="85.67" width="8" height="8"/>
    <rect class="cls-2" x="113.42" y="64.89" width="8" height="8"/>
    <polyline class="cls-2" points="98.65 79.56 104.28 79.56 104.28 70.67 107.96 70.67 107.96 63.47"/>
    <polyline class="cls-2" points="104.39 95.38 104.39 90.37 109.46 90.37 109.46 85.67"/>
    <polyline class="cls-2" points="109.46 79.56 115.68 79.56 115.68 83.41 122.54 83.41"/>
    <line class="cls-2" x1="89.26" y1="79.56" x2="94.65" y2="79.56"/>
    <line class="cls-2" x1="114.23" y1="90.08" x2="122.43" y2="90.08"/>
  </g>
</svg>