<?xml version="1.0" encoding="UTF-8"?>
<svg id="Icons" xmlns="http://www.w3.org/2000/svg" viewBox="0 0 200 200">
  <defs>
    <style>
      .cls-1 {
        stroke-linecap: round;
      }

      .cls-1, .cls-2 {
        fill: none;
        stroke: #030405;
        stroke-linejoin: round;
        stroke-width: 3px;
      }
    </style>
  </defs>
  <polyline class="cls-2" points="79.49 162.5 79.49 147.31 140.28 147.31 140.28 162.5"/>
  <path class="cls-1" d="M83.34,145.86v-6l-26.73-41.9c-2.19-3.6-1.03-8.29,2.57-10.48,3.6-2.19,8.29-1.03,10.48,2.57l13.69,18.46v-63.36c0-4.22,3.43-7.64,7.64-7.64s7.64,3.43,7.64,7.64v38.27c0-4.22,3.43-7.64,7.64-7.64s7.64,3.43,7.64,7.64v4.18c0-4.22,3.43-7.64,7.64-7.64s7.64,3.43,7.64,7.64v3.81c0-4.22,3.43-7.64,7.64-7.64s7.64,3.43,7.64,7.64v34.1s-.93,10.89-8.26,15.3v6.08"/>
</svg>