<?xml version="1.0" encoding="UTF-8"?>
<svg id="Icons" xmlns="http://www.w3.org/2000/svg" viewBox="0 0 200 200">
  <defs>
    <style>
      .cls-1 {
        stroke-linecap: round;
      }

      .cls-1, .cls-2 {
        fill: none;
        stroke: #030505;
        stroke-miterlimit: 10;
        stroke-width: 3px;
      }
    </style>
  </defs>
  <polyline class="cls-2" points="39.71 108.71 50.25 108.71 54.28 111.57"/>
  <line class="cls-2" x1="69.6" y1="72.5" x2="39.71" y2="72.5"/>
  <path class="cls-2" d="M159.97,75.51h-22.48l-28.2-12.29s-2.01-.92-5.01-.92h-6.86s-9.87-.17-14.47-6.36c0,0-2.09-2.76-4.85-.92,0,0-5.18,2.93-4.76,9.87.01.15-1.35,12.56,16.14,13.54l10.68-.16,8.88,4.1,41.79,30.3h9.14"/>
  <path class="cls-2" d="M65.17,114.77l-3.59,5.27c-1.68,2.46-5.04,3.1-7.5,1.42h0c-2.46-1.68-3.1-5.04-1.42-7.5l3.59-5.27c1.68-2.46,5.04-3.1,7.5-1.42h0c2.46,1.68,3.1,5.04,1.42,7.5Z"/>
  <path class="cls-2" d="M94.81,136.71l-3.59,5.27c-1.68,2.46-5.04,3.1-7.5,1.42h0c-2.46-1.68-3.1-5.04-1.42-7.5l3.59-5.27c1.68-2.46,5.04-3.1,7.5-1.42h0c2.46,1.68,3.1,5.04,1.42,7.5Z"/>
  <path class="cls-2" d="M86.43,129.64l-4.33,6.36c-2.03,2.97-6.08,3.74-9.06,1.71h0c-2.97-2.03-3.74-6.08-1.71-9.06l4.33-6.36c2.03-2.97,6.08-3.74,9.06-1.71h0c2.97,2.03,3.73,6.08,1.71,9.06Z"/>
  <path class="cls-2" d="M139.91,104.75l7.84,5.67c3.06,2.25,3.72,6.54,1.48,9.59l-.06.08c-2.25,3.06-6.54,3.72-9.59,1.48l-7.92-5.67"/>
  <path class="cls-1" d="M122.15,108.71l12.84,9.69c3.06,2.25,3.72,6.54,1.48,9.59l-.06.08c-2.25,3.06-6.54,3.72-9.59,1.48l-8.17-6.22"/>
  <path class="cls-1" d="M113.3,119.21l9.04,6.98c3.06,2.25,3.72,6.54,1.48,9.59l-.06.08c-2.25,3.06-6.54,3.72-9.59,1.48l-6.66-4.88"/>
  <path class="cls-1" d="M104.49,130.22l3.97,2.91c3.06,2.25,3.72,6.54,1.48,9.59l-.06.08c-2.25,3.06-6.54,3.72-9.59,1.48l-6.94-5.44"/>
  <path class="cls-2" d="M76.61,120.99l-5.43,8.02c-2.02,2.98-6.07,3.76-9.05,1.74h0c-2.98-2.02-3.76-6.07-1.74-9.05l5.43-8.02c2.02-2.98,6.07-3.76,9.05-1.74h0c2.98,2.02,3.76,6.07,1.74,9.05Z"/>
  <polyline class="cls-2" points="174.8 116.73 160.87 116.73 160.87 71 174.8 71"/>
  <polyline class="cls-2" points="24.56 113.18 39.13 113.18 39.13 67.46 24.56 67.46"/>
</svg>