<?xml version="1.0" encoding="UTF-8"?>
<svg id="Icons" xmlns="http://www.w3.org/2000/svg" viewBox="0 0 200 200">
  <defs>
    <style>
      .cls-1, .cls-2 {
        stroke: #030405;
      }

      .cls-1, .cls-2, .cls-3 {
        fill: none;
        stroke-linejoin: round;
        stroke-width: 3px;
      }

      .cls-1, .cls-3 {
        stroke-linecap: round;
      }

      .cls-3 {
        stroke: #1d1d1b;
      }
    </style>
  </defs>
  <path class="cls-3" d="M116.94,67.26c-1.31,1.31-2.08,2.96-2.32,4.67l-8.16-8.16,8.16-8.16c-1.71-.24-3.35-1.01-4.67-2.32-3.22-3.22-3.22-8.43,0-11.65,3.22-3.22,8.43-3.22,11.65,0,1.31,1.31,2.08,2.96,2.32,4.67l8.16-8.16,25.63,25.63-25.63,25.63-8.16-8.16c1.71-.24,3.35-1.01,4.67-2.32,3.22-3.22,3.22-8.43,0-11.65-3.22-3.22-8.43-3.22-11.65,0Z"/>
  <path class="cls-3" d="M109.95,53.28c1.31,1.31,2.96,2.08,4.67,2.32l-8.16,8.16-8.16-8.16c-.24,1.71-1.01,3.35-2.32,4.67-3.22,3.22-8.43,3.22-11.65,0-3.22-3.22-3.22-8.43,0-11.65,1.31-1.31,2.96-2.08,4.67-2.32l-8.16-8.16,25.63-25.63,25.63,25.63-8.16,8.16c-.24-1.71-1.01-3.35-2.32-4.67-3.22-3.22-8.43-3.22-11.65,0-3.22,3.22-3.22,8.43,0,11.65Z"/>
  <g>
    <polyline class="cls-2" points="84.18 187.5 84.18 175.78 131.07 175.78 131.07 187.5"/>
    <path class="cls-1" d="M87.15,174.66v-4.63l-20.62-32.32c-1.69-2.78-.79-6.39,1.99-8.09,2.78-1.69,6.39-.79,8.09,1.99l10.56,14.24v-48.87c0-3.25,2.64-5.89,5.89-5.89s5.89,2.64,5.89,5.89v29.52c0-3.25,2.64-5.89,5.89-5.89s5.89,2.64,5.89,5.89v3.23c0-3.25,2.64-5.89,5.89-5.89s5.89,2.64,5.89,5.89v2.93c0-3.25,2.64-5.89,5.89-5.89s5.89,2.64,5.89,5.89v26.31s-.72,8.4-6.37,11.8v4.69"/>
  </g>
  <path class="cls-3" d="M87.04,100.62c-2.91,1.06-6.3.42-8.64-1.92-1.31-1.31-2.08-2.96-2.32-4.67l-8.16,8.16-25.63-25.63,25.63-25.63,8.16,8.16c-1.71.24-3.35,1.01-4.67,2.32-3.22,3.22-3.22,8.43,0,11.65,3.22,3.22,8.43,3.22,11.65,0,1.31-1.31,2.08-2.96,2.32-4.67l8.16,8.16-8.16,8.16c1.71.24,3.35,1.01,4.67,2.32.74.74,1.31,1.58,1.71,2.49.23.52.4,1.05.52,1.6"/>
</svg>