<?xml version="1.0" encoding="UTF-8"?>
<svg id="Icons" xmlns="http://www.w3.org/2000/svg" viewBox="0 0 200 200">
  <defs>
    <style>
      .cls-1 {
        stroke-linecap: round;
      }

      .cls-1, .cls-2 {
        stroke: #030405;
        stroke-linejoin: round;
      }

      .cls-1, .cls-2, .cls-3 {
        fill: none;
        stroke-width: 3px;
      }

      .cls-3 {
        stroke: #020304;
        stroke-miterlimit: 10;
      }
    </style>
  </defs>
  <rect class="cls-3" x="128.77" y="117.02" width="33.27" height="33.27"/>
  <polyline class="cls-3" points="128.73 133.66 112.09 133.66 112.09 35.02 128.73 35.02"/>
  <rect class="cls-3" x="128.77" y="18.39" width="33.27" height="33.27"/>
  <rect class="cls-3" x="128.77" y="67.83" width="33.27" height="33.27"/>
  <line class="cls-3" x1="95.45" y1="84.54" x2="128.77" y2="84.54"/>
  <g>
    <polyline class="cls-2" points="87.78 181.61 87.78 169.97 41.19 169.97 41.19 181.61"/>
    <path class="cls-1" d="M84.83,168.86v-4.6s20.49-32.12,20.49-32.12c1.68-2.76.79-6.35-1.97-8.04s-6.35-.79-8.04,1.97l-10.49,14.15v-48.56c0-3.23-2.63-5.86-5.86-5.86-3.23,0-5.86,2.63-5.86,5.86v29.34c0-3.23-2.63-5.86-5.86-5.86-3.23,0-5.86,2.63-5.86,5.86v3.21c0-3.23-2.63-5.86-5.86-5.86-3.23,0-5.86,2.63-5.86,5.86v2.92c0-3.23-2.63-5.86-5.86-5.86-3.23,0-5.86,2.63-5.86,5.86v26.14s.71,8.35,6.33,11.73v4.66"/>
  </g>
  <polyline class="cls-3" points="73.1 101.1 62.18 101.1 62.18 67.83 95.45 67.83 95.45 101.1 84.82 101.1"/>
</svg>