<?xml version="1.0" encoding="UTF-8"?>
<svg id="Icons" xmlns="http://www.w3.org/2000/svg" viewBox="0 0 200 200">
  <defs>
    <style>
      .cls-1 {
        stroke-linecap: round;
      }

      .cls-1, .cls-2 {
        fill: none;
        stroke: #030405;
        stroke-linejoin: round;
        stroke-width: 3px;
      }
    </style>
  </defs>
  <polyline class="cls-2" points="94.63 178.33 94.63 163.14 155.41 163.14 155.41 178.33"/>
  <path class="cls-1" d="M98.48,161.68v-6l-26.73-41.9c-2.19-3.6-1.03-8.29,2.57-10.48s8.29-1.03,10.48,2.57l13.69,18.46v-63.36c0-4.22,3.43-7.64,7.64-7.64s7.64,3.43,7.64,7.64v38.27c0-4.22,3.43-7.64,7.64-7.64s7.64,3.43,7.64,7.64v4.18c0-4.22,3.43-7.64,7.64-7.64s7.64,3.43,7.64,7.64v3.81c0-4.22,3.43-7.64,7.64-7.64s7.64,3.43,7.64,7.64v34.1s-.93,10.89-8.26,15.3v6.08"/>
  <path class="cls-1" d="M119.78,74.42c1.62-1.34,3.04-2.91,4.2-4.66,2.26-3.4,3.58-7.48,3.58-11.87,0-11.83-9.59-21.43-21.43-21.43s-21.43,9.59-21.43,21.43c0,4.48,1.38,8.64,3.73,12.08,1.09,1.6,2.39,3.04,3.87,4.28"/>
  <path class="cls-1" d="M119.78,84.62c9.71-4.97,16.36-15.07,16.36-26.73,0-16.57-13.43-30-30-30s-30,13.43-30,30c0,11.58,6.56,21.63,16.17,26.63"/>
</svg>