<?xml version="1.0" encoding="UTF-8"?>
<svg id="Icons" xmlns="http://www.w3.org/2000/svg" viewBox="0 0 200 200">
  <defs>
    <style>
      .cls-1 {
        fill: none;
        stroke: #030405;
        stroke-miterlimit: 10;
        stroke-width: 3px;
      }
    </style>
  </defs>
  <path class="cls-1" d="M42.54,127.38l14.44-13.69s5.25-4.32,9.19-4.32h19.69l9.19,6.57h20.44s6.94.56,6.94,7.69-6.19,8.44-6.19,8.44h-30.38"/>
  <path class="cls-1" d="M68.6,152.82l3.45-3.05h47.2s17.26-9.82,28.13-22.57,14.26-23.25,14.26-23.25c0,0-.37-5.06-9-4.88-8.62.19-13.13,4.69-15.94,12.94l-11.01,5.65"/>
  <path class="cls-1" d="M157.46,72.62l-14.44,13.69s-5.25,4.32-9.19,4.32h-19.69l-9.19-6.57h-20.44s-6.94-.56-6.94-7.69,6.19-8.44,6.19-8.44h30.38"/>
  <path class="cls-1" d="M131.4,47.18l-3.45,3.05h-47.2s-17.26,9.82-28.13,22.57-14.26,23.25-14.26,23.25c0,0,.37,5.06,9,4.88,8.62-.19,13.13-4.69,15.94-12.94l11.01-5.65"/>
</svg>