<?xml version="1.0" encoding="UTF-8"?>
<svg id="Icons" xmlns="http://www.w3.org/2000/svg" viewBox="0 0 200 200">
  <defs>
    <style>
      .cls-1 {
        fill: none;
        stroke: #010202;
        stroke-linejoin: round;
        stroke-width: 3px;
      }
    </style>
  </defs>
  <polyline class="cls-1" points="50.03 162.5 50.03 149.85 83.81 149.85 83.81 162.5"/>
  <rect class="cls-1" x="53.33" y="143.13" width="27.35" height="6.72"/>
  <path class="cls-1" d="M57.62,143.13v-31.97s-.62-5.3,4.62-11.09l11.43-11.91s2.75-3.78,7.02-1.72c0,0,2.27,1.37,2.2,6.33v34.42s-.07,8.24-4.34,15.93h-20.93Z"/>
  <polyline class="cls-1" points="149.97 118.8 131.91 118.8 131.91 136.82"/>
  <polyline class="cls-1" points="81.22 136.82 131.91 136.82 149.97 118.46 149.97 37.5 76.35 37.5 76.35 86.17"/>
  <circle class="cls-1" cx="130" cy="54.51" r="5.98"/>
  <circle class="cls-1" cx="95.45" cy="116.68" r="5.98"/>
  <line class="cls-1" x1="95.9" y1="67.35" x2="107.64" y2="79.08"/>
  <line class="cls-1" x1="107.64" y1="67.35" x2="95.9" y2="79.08"/>
  <line class="cls-1" x1="124.13" y1="98.97" x2="135.87" y2="110.71"/>
  <line class="cls-1" x1="135.87" y1="98.97" x2="124.13" y2="110.71"/>
  <polyline class="cls-1" points="136.64 73.31 129.98 66.64 123.36 73.25"/>
  <path class="cls-1" d="M129.98,66.64v12.16s0,11.29-10.46,11.29h-10.52s-13.54-1.03-13.54,16.16"/>
  <line class="cls-1" x1="73.08" y1="88.58" x2="73.08" y2="112.76"/>
</svg>