<?xml version="1.0" encoding="UTF-8"?>
<svg id="Icons" xmlns="http://www.w3.org/2000/svg" viewBox="0 0 200 200">
  <defs>
    <style>
      .cls-1 {
        fill: none;
        stroke: #020304;
        stroke-linecap: round;
        stroke-linejoin: round;
        stroke-width: 3px;
      }
    </style>
  </defs>
  <rect class="cls-1" x="125" y="62.5" width="20" height="75" rx="6.5" ry="6.5"/>
  <path class="cls-1" d="M145,72.5h8.5c3.59,0,6.5,2.91,6.5,6.5v42c0,3.59-2.91,6.5-6.5,6.5h-8.5v-55h0Z"/>
  <path class="cls-1" d="M160,90h3.5c3.59,0,6.5,2.91,6.5,6.5v7c0,3.59-2.91,6.5-6.5,6.5h-3.5v-20h0Z"/>
  <rect class="cls-1" x="55" y="62.5" width="20" height="75" rx="6.5" ry="6.5" transform="translate(130 200) rotate(-180)"/>
  <path class="cls-1" d="M40,72.5h8.5c3.59,0,6.5,2.91,6.5,6.5v42c0,3.59-2.91,6.5-6.5,6.5h-8.5v-55h0Z" transform="translate(95 200) rotate(-180)"/>
  <path class="cls-1" d="M30,90h3.5c3.59,0,6.5,2.91,6.5,6.5v7c0,3.59-2.91,6.5-6.5,6.5h-3.5v-20h0Z" transform="translate(70 200) rotate(-180)"/>
  <rect class="cls-1" x="75" y="90" width="50" height="20"/>
</svg>