<?xml version="1.0" encoding="UTF-8"?>
<svg id="Icons" xmlns="http://www.w3.org/2000/svg" viewBox="0 0 200 200">
  <defs>
    <style>
      .cls-1 {
        fill: none;
        stroke: #020304;
        stroke-linecap: round;
        stroke-linejoin: round;
        stroke-width: 3px;
      }
    </style>
  </defs>
  <path class="cls-1" d="M100,50c-13.56,0-15.27.06-20.6.31-5.33.25-8.95,1.09-12.13,2.34-3.27,1.28-6.08,2.99-8.85,5.77-2.77,2.77-4.49,5.58-5.77,8.85-1.25,3.18-2.09,6.83-2.34,12.13-.25,5.33-.31,7.04-.31,20.6s.06,15.27.31,20.6c.25,5.33,1.09,8.95,2.34,12.13,1.28,3.27,2.99,6.08,5.77,8.85,2.77,2.77,5.58,4.49,8.85,5.77,3.18,1.25,6.83,2.09,12.13,2.34,5.33.25,7.04.31,20.6.31s15.27-.06,20.6-.31,8.95-1.09,12.13-2.34c3.27-1.28,6.08-2.99,8.85-5.77,2.77-2.77,4.49-5.58,5.77-8.85,1.25-3.18,2.09-6.83,2.34-12.13.25-5.33.31-7.04.31-20.6s-.06-15.27-.31-20.6c-.25-5.33-1.09-8.95-2.34-12.13-1.28-3.27-2.99-6.08-5.77-8.85-2.77-2.77-5.58-4.49-8.85-5.77-3.18-1.25-6.83-2.09-12.13-2.34-5.3-.25-7.01-.31-20.6-.31h0Z"/>
  <path class="cls-1" d="M100,120.67c-11.41,0-20.67-9.26-20.67-20.67s9.26-20.67,20.67-20.67,20.67,9.26,20.67,20.67-9.23,20.67-20.67,20.67Z"/>
  <circle class="cls-1" cx="126.68" cy="73.29" r="5.99"/>
</svg>