<?xml version="1.0" encoding="UTF-8"?>
<svg id="Icons" xmlns="http://www.w3.org/2000/svg" viewBox="0 0 200 200">
  <defs>
    <style>
      .cls-1, .cls-2 {
        stroke: #1d1d1b;
        stroke-linejoin: round;
      }

      .cls-1, .cls-2, .cls-3 {
        fill: none;
        stroke-width: 3px;
      }

      .cls-2, .cls-3 {
        stroke-linecap: round;
      }

      .cls-3 {
        stroke: #040506;
        stroke-miterlimit: 10;
      }
    </style>
  </defs>
  <polyline class="cls-2" points="119.63 67.72 127.26 147.73 72.74 147.73 80.37 67.72"/>
  <polygon class="cls-2" points="134.35 175 65.65 175 68.92 147.73 131.08 147.73 134.35 175"/>
  <line class="cls-2" x1="121.54" y1="90.05" x2="78.46" y2="90.05"/>
  <line class="cls-2" x1="124.4" y1="117.74" x2="75.96" y2="117.74"/>
  <rect class="cls-1" x="80.37" y="40.28" width="39.26" height="27.39"/>
  <polygon class="cls-2" points="100 25.06 124.04 40.28 75.96 40.28 100 25.06"/>
  <path class="cls-3" d="M106.39,147.73h-13.33v-12.18c0-3.36,2.99-6.09,6.67-6.09s6.67,2.74,6.67,6.09v12.18Z"/>
  <path class="cls-3" d="M103.21,82.52h-6.67v-6.09c0-1.68,1.5-3.05,3.33-3.05s3.33,1.37,3.33,3.05v6.09Z"/>
  <path class="cls-3" d="M103.2,108.46h-6.67v-6.09c0-1.68,1.5-3.05,3.33-3.05s3.33,1.37,3.33,3.05v6.09Z"/>
  <line class="cls-2" x1="129" y1="53.7" x2="145.51" y2="53.7"/>
  <line class="cls-2" x1="129" y1="46.64" x2="136.71" y2="38.93"/>
  <line class="cls-2" x1="129" y1="60.75" x2="136.71" y2="68.46"/>
  <line class="cls-2" x1="71.03" y1="53.7" x2="54.52" y2="53.7"/>
  <line class="cls-2" x1="71.03" y1="46.64" x2="63.32" y2="38.93"/>
  <line class="cls-2" x1="71.03" y1="60.75" x2="63.32" y2="68.46"/>
  <line class="cls-1" x1="109.73" y1="46.26" x2="109.73" y2="62.18"/>
  <line class="cls-1" x1="100.01" y1="46.26" x2="100.01" y2="62.18"/>
  <line class="cls-1" x1="90.38" y1="46.26" x2="90.38" y2="62.18"/>
  <line class="cls-2" x1="80.37" y1="46.26" x2="119.63" y2="46.26"/>
  <line class="cls-2" x1="80.37" y1="62.18" x2="119.63" y2="62.18"/>
</svg>