<?xml version="1.0" encoding="UTF-8"?>
<svg id="Icons" xmlns="http://www.w3.org/2000/svg" viewBox="0 0 200 200">
  <defs>
    <style>
      .cls-1, .cls-2, .cls-3, .cls-4 {
        fill: none;
        stroke-width: 3px;
      }

      .cls-1, .cls-3 {
        stroke: #010202;
        stroke-miterlimit: 10;
      }

      .cls-2, .cls-4 {
        stroke: #1d1d1b;
        stroke-linejoin: round;
      }

      .cls-3, .cls-4 {
        stroke-linecap: round;
      }
    </style>
  </defs>
  <g>
    <line class="cls-4" x1="120.21" y1="112.75" x2="124.92" y2="63.44"/>
    <line class="cls-4" x1="160.83" y1="63.44" x2="167.82" y2="136.65"/>
    <polyline class="cls-4" points="138.12 136.65 171.31 136.65 174.3 161.59 139.07 161.59"/>
    <line class="cls-4" x1="162.58" y1="83.88" x2="123.17" y2="83.88"/>
    <line class="cls-4" x1="165.32" y1="109.2" x2="138.12" y2="109.2"/>
    <rect class="cls-2" x="124.92" y="38.33" width="35.92" height="25.06"/>
    <polygon class="cls-4" points="142.88 24.41 164.87 38.33 120.88 38.33 142.88 24.41"/>
    <line class="cls-4" x1="169.41" y1="50.61" x2="184.52" y2="50.61"/>
    <line class="cls-4" x1="169.41" y1="44.16" x2="176.46" y2="37.1"/>
    <line class="cls-4" x1="169.41" y1="57.06" x2="176.46" y2="64.12"/>
    <line class="cls-4" x1="116.37" y1="50.61" x2="101.26" y2="50.61"/>
    <line class="cls-4" x1="116.37" y1="44.16" x2="109.32" y2="37.1"/>
    <line class="cls-4" x1="116.37" y1="57.06" x2="109.32" y2="64.12"/>
    <line class="cls-2" x1="151.78" y1="43.81" x2="151.78" y2="58.37"/>
    <line class="cls-2" x1="142.89" y1="43.81" x2="142.89" y2="58.37"/>
    <line class="cls-2" x1="134.08" y1="43.81" x2="134.08" y2="58.37"/>
    <line class="cls-4" x1="124.92" y1="43.81" x2="160.83" y2="43.81"/>
    <line class="cls-4" x1="124.92" y1="58.37" x2="160.83" y2="58.37"/>
  </g>
  <g>
    <polyline class="cls-1" points="138.12 171.94 138.12 151.44 138.12 151.19 138.12 94.84 109.82 123.14 109.82 94.84 81.69 123.14 81.69 94.42 31.49 144.62 24.93 151.18 24.93 171.94"/>
    <polyline class="cls-3" points="55.58 120.53 55.58 109.56 30.26 109.56 30.26 145.85"/>
    <rect class="cls-3" x="34.46" y="75.6" width="16.98" height="33.96"/>
    <line class="cls-1" x1="19.03" y1="175.6" x2="144.03" y2="175.6"/>
    <line class="cls-1" x1="70.21" y1="141.11" x2="81.53" y2="141.11"/>
    <line class="cls-1" x1="85.17" y1="141.11" x2="96.49" y2="141.11"/>
    <line class="cls-1" x1="100.14" y1="141.11" x2="111.46" y2="141.11"/>
    <line class="cls-1" x1="115.1" y1="141.11" x2="126.42" y2="141.11"/>
    <line class="cls-1" x1="70.21" y1="150.6" x2="81.53" y2="150.6"/>
    <line class="cls-1" x1="85.17" y1="150.6" x2="96.49" y2="150.6"/>
    <line class="cls-1" x1="100.14" y1="150.6" x2="111.46" y2="150.6"/>
    <line class="cls-1" x1="115.1" y1="150.6" x2="126.42" y2="150.6"/>
    <line class="cls-1" x1="70.21" y1="160.1" x2="81.53" y2="160.1"/>
    <line class="cls-1" x1="85.17" y1="160.1" x2="96.49" y2="160.1"/>
    <line class="cls-1" x1="100.14" y1="160.1" x2="111.46" y2="160.1"/>
    <line class="cls-1" x1="115.1" y1="160.1" x2="126.42" y2="160.1"/>
  </g>
</svg>