<?xml version="1.0" encoding="UTF-8"?>
<svg id="Icons" xmlns="http://www.w3.org/2000/svg" viewBox="0 0 200 200">
  <defs>
    <style>
      .cls-1, .cls-2, .cls-3 {
        fill: none;
        stroke-width: 3px;
      }

      .cls-1, .cls-3 {
        stroke: #1d1d1b;
        stroke-linejoin: round;
      }

      .cls-2 {
        stroke: #030405;
        stroke-miterlimit: 10;
      }

      .cls-3 {
        stroke-linecap: round;
      }
    </style>
  </defs>
  <path class="cls-2" d="M42.7,157.61l13.89-13.17s5.05-4.16,8.84-4.16h18.94l8.84,6.32h19.67s6.68.54,6.68,7.4-5.96,8.12-5.96,8.12h-29.23"/>
  <path class="cls-2" d="M67.78,182.08l3.32-2.93h45.41s16.61-9.45,27.06-21.72c10.46-12.27,13.72-22.37,13.72-22.37,0,0-.36-4.87-8.66-4.7-8.29.18-12.63,4.51-15.34,12.45l-10.59,5.44"/>
  <g>
    <line class="cls-3" x1="81.5" y1="140.28" x2="86.25" y2="90.58"/>
    <line class="cls-3" x1="113.73" y1="90.58" x2="119.57" y2="154"/>
    <line class="cls-3" x1="115.07" y1="106.22" x2="84.91" y2="106.22"/>
    <line class="cls-3" x1="117.07" y1="125.6" x2="83.16" y2="125.6"/>
    <rect class="cls-1" x="86.25" y="71.36" width="27.49" height="19.18"/>
    <polygon class="cls-3" points="99.99 60.71 116.82 71.36 83.16 71.36 99.99 60.71"/>
    <line class="cls-3" x1="120.29" y1="80.76" x2="131.86" y2="80.76"/>
    <line class="cls-3" x1="120.29" y1="75.82" x2="125.69" y2="70.42"/>
    <line class="cls-3" x1="120.29" y1="85.7" x2="125.69" y2="91.1"/>
    <line class="cls-3" x1="79.71" y1="80.76" x2="68.14" y2="80.76"/>
    <line class="cls-3" x1="79.71" y1="75.82" x2="74.31" y2="70.42"/>
    <line class="cls-3" x1="79.71" y1="85.7" x2="74.31" y2="91.1"/>
  </g>
  <path class="cls-2" d="M157.3,42.48l-13.89,13.17s-5.05,4.16-8.84,4.16h-18.94l-8.84-6.32h-19.67s-6.68-.54-6.68-7.4,5.96-8.12,5.96-8.12h29.23"/>
  <path class="cls-2" d="M132.22,18l-3.32,2.93h-45.41s-16.61,9.45-27.06,21.72c-10.46,12.27-13.72,22.37-13.72,22.37,0,0,.36,4.87,8.66,4.7,8.29-.18,12.63-4.51,15.34-12.45l10.59-5.44"/>
</svg>