<?xml version="1.0" encoding="UTF-8"?>
<svg id="Icons" xmlns="http://www.w3.org/2000/svg" viewBox="0 0 200 200">
  <defs>
    <style>
      .cls-1, .cls-2 {
        stroke: #040506;
        stroke-linejoin: round;
      }

      .cls-1, .cls-2, .cls-3 {
        fill: none;
        stroke-width: 3px;
      }

      .cls-1, .cls-3 {
        stroke-linecap: round;
      }

      .cls-3 {
        stroke: #010202;
        stroke-miterlimit: 10;
      }
    </style>
  </defs>
  <g>
    <path class="cls-3" d="M41.49,113.82s-3.99,4.43,1.99,9.63c0,0,4.73,14.52,16.65,14.52"/>
    <path class="cls-3" d="M78.55,113.8s4,4.68-2,9.79c0,0-4.9,14.47-16.79,14.33"/>
    <g>
      <path class="cls-3" d="M50.2,133.9l-.72,8.19-19.56,7.94s-4.57,1.3-6.26,10.54l-1.85,14.02"/>
      <polyline class="cls-3" points="49.45 142.07 60.02 153.03 70.95 142.32"/>
    </g>
    <path class="cls-3" d="M70.27,133.48l.68,8.84,19.48,8.16s4.57,1.36,6.14,10.59l1.69,14.08"/>
    <path class="cls-3" d="M40.49,112.74v-11.92s.55-11.07,12.53-10.54c0,0,1.3-2.9,9.46-2.6,0,0,15.19.3,17.1,14.28v11.32s-2.63,2.82-4.87-4.54l-8.41.11s-8.41.08-16.71-7.33c0,0-.69,5.31-5.03,11.46,0,0-.69.83-1.99.83-.04.01-2.08.24-2.08-1.06Z"/>
  </g>
  <path class="cls-1" d="M82.92,24.84c-17.36,0-31.44,11.26-31.44,25.15,0,4.87,1.74,9.43,4.74,13.28l-.02-.02-2.57,10.53,11.65-2.96h0c5.03,2.73,11.1,4.32,17.63,4.32,17.36,0,31.44-11.26,31.44-25.15s-14.07-25.15-31.44-25.15Z"/>
  <path class="cls-2" d="M101.38,75.15c5.2,6.48,14.29,10.77,24.64,10.77,6.09,0,11.73-1.48,16.42-4.03h0s10.84,2.76,10.84,2.76l-2.39-9.8-.02.02c2.8-3.59,4.42-7.82,4.42-12.36,0-12.93-13.1-23.41-29.27-23.41-3.05,0-5.99.37-8.75,1.06"/>
  <g>
    <path class="cls-3" d="M151.74,105.46c-8.08,11.55-22.45,10.59-22.45,10.59,0,13.51,6.45,24.43,14.4,24.43s14.4-10.95,14.4-24.43c.09.04-4.13-1.98-6.34-10.59Z"/>
    <path class="cls-3" d="M128.66,141.24c-2.34-.47-3.42-2.12-3.42-2.12v-4.09c-1.88-10.95-1.88-10.26-1.85-16.69,0-12.25,9.07-22.14,20.3-22.14s20.3,9.92,20.3,22.14c0,0,.22,9.29-1.74,16.82l-.3,4.02s-1.13,1.6-3.37,2.42"/>
    <path class="cls-3" d="M150.33,137.72l1.79,5.6,18.26,7.14s4.55,1.35,6.12,10.56l1.68,14.04"/>
    <path class="cls-3" d="M135.26,143.32l7.78,6.26s1.16,1.08,2.52,0l6.55-6.26"/>
    <path class="cls-3" d="M135.26,143.31l1.79-5.6"/>
    <path class="cls-3" d="M109.2,175.05l1.68-14.04c1.57-9.21,6.12-10.56,6.12-10.56l18.26-7.14"/>
  </g>
</svg>