<?xml version="1.0" encoding="UTF-8"?>
<svg id="Icons" xmlns="http://www.w3.org/2000/svg" viewBox="0 0 200 200">
  <defs>
    <style>
      .cls-1 {
        fill: none;
        stroke: #010202;
        stroke-linejoin: round;
        stroke-width: 3px;
      }
    </style>
  </defs>
  <path class="cls-1" d="M99.94,63.34s-7.9-.45-12.96,5.07c-6.2,6.77-12.54,11.51-28.13,11.83,0,0-2.67,30.34,12.72,44.34,14.78,13.44,28.34,12.04,28.34,12.04"/>
  <path class="cls-1" d="M99.94,63.34s7.9-.45,12.96,5.07c6.2,6.77,12.54,11.51,28.13,11.83,0,0,2.67,30.34-12.72,44.34-14.78,13.44-28.34,12.04-28.34,12.04"/>
  <path class="cls-1" d="M99.94,72.51s-4.2-.24-6.89,2.69"/>
  <path class="cls-1" d="M99.94,72.51s4.2-.24,6.89,2.69"/>
  <path class="cls-1" d="M68.47,91.7s13.69,1.25,25-3.01c0,0,6.22-2.39,11.72-.52,0,0,11.93,4.8,25.52,3.7"/>
  <path class="cls-1" d="M68.99,101.87s28.11,13.07,61.71,0"/>
  <path class="cls-1" d="M72.82,113.17s22.3,20.74,54.45,0"/>
  <path class="cls-1" d="M63.97,113.78c-2.39,1.2-5.1,1.88-7.96,1.88-9.81,0-17.76-7.95-17.76-17.76s7.95-17.76,17.76-17.76l2.85.11"/>
  <path class="cls-1" d="M136.03,113.78c2.39,1.2,5.1,1.88,7.96,1.88,9.81,0,17.76-7.95,17.76-17.76s-7.95-17.76-17.76-17.76l-2.85.11"/>
</svg>