<?xml version="1.0" encoding="UTF-8"?>
<svg id="Icons" xmlns="http://www.w3.org/2000/svg" viewBox="0 0 200 200">
  <defs>
    <style>
      .cls-1 {
        fill: none;
        stroke: #000;
        stroke-linecap: round;
        stroke-linejoin: round;
        stroke-width: 3px;
      }
    </style>
  </defs>
  <path class="cls-1" d="M162.04,162.44h-47.02c-26.48-1.5-51.48-1.5-77.48-.5,0-8,0-17-.5-25.2,0-2.15,0-4.39,0-6.71.37-19.57.46-39.65.27-59.65-.03-3.33-.07-6.66-.12-9.99.33-7.46.33-15.46.33-22.46,9,.3,17.91.42,26.79.43,2.96,0,5.92-.21,8.87,0,26.09,1.89,66.7-11.18,63.84,25.05-.16,1.99,9.5-.49,12.5-.47,4-.26,8-.51,10,.99,5,6,3,18,3.1,28.25.03,3.25,0,6.5-.04,9.75-.19,13-.83,25.99-.61,38.97.05,4.14.06,7.93.06,11.13v10.4Z"/>
  <path class="cls-1" d="M119.2,38.49s26.75-2.82,41.65,27.42"/>
</svg>