<?xml version="1.0" encoding="UTF-8"?>
<svg id="Icons" xmlns="http://www.w3.org/2000/svg" viewBox="0 0 200 200">
  <defs>
    <style>
      .cls-1 {
        fill: none;
        stroke: #000;
        stroke-miterlimit: 10;
        stroke-width: 3px;
      }
    </style>
  </defs>
  <path class="cls-1" d="M66.78,111.93c-4.77-17.39-11.21-33.97-8.86-52.07.76-5.82,2.43-11.31,6.23-15.93,6.68-8.12,16.79-8.6,24.12-1.12,7.03,7.17,8.61,15.99,6.89,25.43-1.94,10.69-4.36,21.29-6.64,31.92-.18.83-.8,1.89-1.52,2.24-6.58,3.2-13.23,6.26-20.23,9.54Z"/>
  <path class="cls-1" d="M131.69,139.38c-5.1-2.59-9.95-4.99-14.74-7.5-7.75-4.06-5.92-1.66-7.53-10.23-1.64-8.73-3.26-17.48-4.55-26.26-1.33-9.06.02-17.6,6.52-24.65,8.35-9.07,20.33-7.78,26.67,2.87,2.89,4.85,4.08,10.22,4.41,15.8.76,12.66-2.45,24.64-6.37,36.49-1.45,4.39-2.87,8.79-4.41,13.48Z"/>
  <path class="cls-1" d="M88.92,109.5c.34,5.57.98,10.56.85,15.53-.15,5.91-4.57,9.92-10.17,9.98-5.43.06-9.72-3.83-10.47-9.49q-.9-6.81,5.37-9.56c4.64-2.05,9.25-4.14,14.42-6.46Z"/>
  <path class="cls-1" d="M109.7,136.26c5.19,2.53,9.85,4.74,14.45,7.06,6.18,3.11,5.54,1.42,4.85,8.6-.61,6.3-5.36,10.59-11.18,10.14-5.83-.45-9.91-5.13-9.57-11.39.25-4.62.9-9.23,1.44-14.42Z"/>
</svg>