<?xml version="1.0" encoding="UTF-8"?>
<svg id="Icons" xmlns="http://www.w3.org/2000/svg" viewBox="0 0 200 200">
  <defs>
    <style>
      .cls-1 {
        fill: #040506;
      }

      .cls-2 {
        stroke-linecap: round;
      }

      .cls-2, .cls-3 {
        fill: none;
        stroke: #040506;
        stroke-linejoin: round;
        stroke-width: 3px;
      }
    </style>
  </defs>
  <path class="cls-3" d="M162.5,85.12v19.92h-10.99c-2.25,9.8-8.07,18.43-16.16,24.75h.03s0,22.32,0,22.32h-19.92v-12.83h.02c-4.07.96-8.34,1.48-12.74,1.48-3.92,0-7.72-.42-11.38-1.19l.06.03v12.52h-19.92v-21.28c-11.32-8.22-18.57-20.8-18.57-34.91,0-24.76,22.3-44.83,49.82-44.83,4.68,0,9.21.59,13.51,1.68l-.04-.02,23.22-4.86-3.26,14.8-.05-.03c7.24,5.89,12.56,13.67,14.98,22.48l11.41-.02Z"/>
  <circle class="cls-1" cx="133.01" cy="83.16" r="3.98"/>
  <path class="cls-2" d="M52.91,95.08c0,4.26-3.45,7.71-7.71,7.71s-7.71-3.45-7.71-7.71"/>
  <path class="cls-2" d="M69.79,85.5c3.31-13.64,16.94-22.71,32.19-21.91"/>
</svg>