<?xml version="1.0" encoding="UTF-8"?>
<svg id="Icons" xmlns="http://www.w3.org/2000/svg" viewBox="0 0 200 200">
  <defs>
    <style>
      .cls-1 {
        stroke-linecap: round;
      }

      .cls-1, .cls-2 {
        fill: none;
        stroke: #040506;
        stroke-linejoin: round;
        stroke-width: 3px;
      }
    </style>
  </defs>
  <path class="cls-1" d="M31.75,129.36l16.21-4.12h0c7,3.79,15.44,6.01,24.54,6.01,24.16,0,43.75-15.67,43.75-35s-19.59-35-43.75-35-43.75,15.67-43.75,35c0,6.78,2.42,13.12,6.6,18.48l-3.6,14.63Z"/>
  <path class="cls-2" d="M120.3,82.57c3.85-.96,7.94-1.48,12.18-1.48,22.49,0,40.73,14.59,40.73,32.58,0,6.31-2.25,12.21-6.14,17.2l3.35,13.62-15.09-3.84h0c-6.52,3.53-14.38,5.6-22.85,5.6-14.4,0-27.05-5.98-34.29-14.99"/>
</svg>