<?xml version="1.0" encoding="UTF-8"?>
<svg id="Icons" xmlns="http://www.w3.org/2000/svg" viewBox="0 0 200 200">
  <defs>
    <style>
      .cls-1 {
        fill: none;
        stroke: #030505;
        stroke-linecap: round;
        stroke-linejoin: round;
        stroke-width: 3px;
      }
    </style>
  </defs>
  <path class="cls-1" d="M41.79,147.3l23.16-5.89h-.01c10,5.42,22.06,8.6,35.06,8.6,34.52,0,62.5-22.39,62.5-50s-27.98-50-62.5-50-62.5,22.39-62.5,50c0,9.69,3.46,18.74,9.43,26.4l-5.13,20.9Z"/>
  <path class="cls-1" d="M94.32,114.91,86.86,78.64c2.8-2.03,7.63-3.39,12.12-3.39,9.75,0,14.15,6.02,14.15,12.46,0,5.76-3.22,9.92-7.29,14.75-3.73,4.41-5.73,8.14-5.47,12.46l.08,2.95"/>
  <line class="cls-1" x1="100.41" y1="122.75" x2="100.41" y2="125.08"/>
</svg>