<?xml version="1.0" encoding="UTF-8"?>
<svg id="Icons" xmlns="http://www.w3.org/2000/svg" viewBox="0 0 200 200">
  <defs>
    <style>
      .cls-1 {
        stroke: #030505;
      }

      .cls-1, .cls-2, .cls-3 {
        fill: none;
        stroke-linejoin: round;
        stroke-width: 3px;
      }

      .cls-2 {
        stroke-linecap: round;
      }

      .cls-2, .cls-3 {
        stroke: #040506;
      }
    </style>
  </defs>
  <path class="cls-2" d="M72.5,61.25c-24.16,0-43.75,15.67-43.75,35,0,6.78,2.42,13.12,6.6,18.48l-.03-.03-3.57,14.66,16.21-4.12h0c7,3.79,15.44,6.01,24.54,6.01,24.16,0,43.75-15.67,43.75-35s-19.59-35-43.75-35Z"/>
  <path class="cls-3" d="M98.19,131.26c7.24,9.02,19.89,14.99,34.29,14.99,8.47,0,16.33-2.07,22.85-5.6h0s15.09,3.84,15.09,3.84l-3.32-13.65-.03.03c3.89-4.99,6.14-10.89,6.14-17.2,0-17.99-18.23-32.58-40.73-32.58-4.24,0-8.33.52-12.18,1.48"/>
  <line class="cls-1" x1="46.81" y1="87.98" x2="98.19" y2="87.98"/>
  <line class="cls-1" x1="46.81" y1="96.25" x2="98.19" y2="96.25"/>
  <line class="cls-1" x1="59.34" y1="104.52" x2="85.66" y2="104.52"/>
</svg>