<?xml version="1.0" encoding="UTF-8"?>
<svg id="Icons" xmlns="http://www.w3.org/2000/svg" viewBox="0 0 200 200">
  <defs>
    <style>
      .cls-1 {
        stroke: #030405;
        stroke-linejoin: round;
      }

      .cls-1, .cls-2 {
        stroke-linecap: round;
      }

      .cls-1, .cls-2, .cls-3 {
        fill: none;
        stroke-width: 3px;
      }

      .cls-2 {
        stroke: #020304;
      }

      .cls-2, .cls-3 {
        stroke-miterlimit: 10;
      }

      .cls-3 {
        stroke: #030505;
      }
    </style>
  </defs>
  <path class="cls-3" d="M103.5,127.15h-60.87c-2.77,0-5.01-2.24-5.01-5.01V46.57c0-2.77,2.24-5.01,5.01-5.01h104.44c2.77,0,5.01,2.24,5.01,5.01v58.86"/>
  <path class="cls-3" d="M99.33,118.6h-41.45c-1.4,0-2.53-1.13-2.53-2.53v-63.42c0-1.4,1.13-2.53,2.53-2.53h80.54c1.4,0,2.53,1.13,2.53,1.53v50.22"/>
  <line class="cls-3" x1="46.34" y1="72.02" x2="46.34" y2="96.69"/>
  <polyline class="cls-1" points="121.21 158.44 121.21 152.12 159.71 152.12 159.71 158.44"/>
  <path class="cls-1" d="M123.65,151.21v-3.8l-16.93-26.54c-1.39-2.28-.65-5.25,1.63-6.64s5.25-.65,6.64,1.63l8.67,11.69v-40.13c0-2.67,2.17-4.84,4.84-4.84s4.84,2.17,4.84,4.84v24.24c0-2.67,2.17-4.84,4.84-4.84s4.84,2.17,4.84,4.84v2.65c0-2.67,2.17-4.84,4.84-4.84s4.84,2.17,4.84,4.84v2.41c0-2.67,2.17-4.84,4.84-4.84s4.84,2.17,4.84,4.84v21.6s-.59,6.9-5.23,9.69v3.85"/>
  <g>
    <rect class="cls-2" x="70.84" y="91.64" width="10.67" height="14.93"/>
    <rect class="cls-2" x="86.91" y="78.83" width="10.67" height="27.73"/>
    <polyline class="cls-2" points="107.91 58.58 97.58 69.24 102.75 69.24 102.75 106.57 113.42 106.57 113.42 69.24"/>
  </g>
</svg>