<?xml version="1.0" encoding="UTF-8"?>
<svg id="Icons" xmlns="http://www.w3.org/2000/svg" viewBox="0 0 200 200">
  <defs>
    <style>
      .cls-1, .cls-2, .cls-3 {
        fill: none;
        stroke-miterlimit: 10;
        stroke-width: 3px;
      }

      .cls-1, .cls-3 {
        stroke: #010202;
      }

      .cls-2 {
        stroke: #1d1d1b;
      }

      .cls-3 {
        stroke-linecap: round;
      }
    </style>
  </defs>
  <path class="cls-3" d="M89.01,129.71c0,6.63,5.37,12,12,12s12-5.37,12-12-5.37-12-12-12v-37.58"/>
  <line class="cls-1" x1="129.13" y1="70" x2="117.13" y2="70"/>
  <line class="cls-1" x1="129.13" y1="80" x2="117.13" y2="80"/>
  <line class="cls-1" x1="129.13" y1="90" x2="117.13" y2="90"/>
  <line class="cls-1" x1="129.13" y1="100" x2="117.13" y2="100"/>
  <path class="cls-2" d="M111.01,112.42v-53.15h-.02c-.25-5.3-4.61-9.53-9.98-9.53s-9.73,4.23-9.98,9.53h-.01v.24c0,.08-.01.16-.01.24s.01.16.01.24v52.44c-5.98,3.46-10.01,9.92-10.01,17.32,0,11.05,8.95,20,20,20s20-8.95,20-20c0-7.4-4.02-13.86-10-17.32Z"/>
</svg>