<?xml version="1.0" encoding="UTF-8"?>
<svg id="Icons" xmlns="http://www.w3.org/2000/svg" viewBox="0 0 200 200">
  <defs>
    <style>
      .cls-1 {
        stroke-linejoin: round;
      }

      .cls-1, .cls-2 {
        stroke-linecap: round;
      }

      .cls-1, .cls-2, .cls-3 {
        fill: none;
        stroke: #000;
        stroke-width: 3px;
      }

      .cls-2, .cls-3 {
        stroke-miterlimit: 10;
      }
    </style>
  </defs>
  <path class="cls-2" d="M103.5,87.39c-1.11-.32-2.28-.5-3.5-.5-6.9,0-12.5,5.6-12.5,12.5s5.6,12.5,12.5,12.5,12.5-5.6,12.5-12.5c0-1.21-.17-2.37-.49-3.48"/>
  <path class="cls-2" d="M112.5,77.73c-3.68-2.13-7.95-3.34-12.5-3.34-13.81,0-25,11.19-25,25s11.19,25,25,25,25-11.19,25-25c0-4.47-1.17-8.66-3.22-12.29"/>
  <path class="cls-2" d="M118.74,66.9c-5.51-3.19-11.92-5.01-18.74-5.01-20.71,0-37.5,16.79-37.5,37.5s16.79,37.5,37.5,37.5,37.5-16.79,37.5-37.5c0-7.1-1.97-13.74-5.4-19.4"/>
  <path class="cls-2" d="M119.97,53.54c-6.12-2.67-12.87-4.15-19.97-4.15-27.61,0-50,22.39-50,50s22.39,50,50,50,50-22.39,50-50c0-6.65-1.3-13-3.66-18.8"/>
  <line class="cls-1" x1="100" y1="99.39" x2="126.8" y2="72.59"/>
  <polygon class="cls-3" points="143.59 73.47 126.51 72.88 125.92 55.8 149.09 32.62 149.64 49.67 166.77 50.3 143.59 73.47"/>
</svg>