<?xml version="1.0" encoding="UTF-8"?>
<svg id="Icons" xmlns="http://www.w3.org/2000/svg" viewBox="0 0 200 200">
  <defs>
    <style>
      .cls-1 {
        stroke: #030405;
      }

      .cls-1, .cls-2, .cls-3 {
        fill: none;
        stroke-miterlimit: 10;
        stroke-width: 3px;
      }

      .cls-2, .cls-3 {
        stroke: #020304;
      }

      .cls-3 {
        stroke-linecap: round;
      }
    </style>
  </defs>
  <line class="cls-2" x1="30.61" y1="162.33" x2="169.62" y2="162.33"/>
  <polyline class="cls-2" points="80.33 156.33 80.33 74.78 120.33 74.78 120.33 111.22"/>
  <polyline class="cls-2" points="134.78 156.33 134.78 117.89 162.78 117.89 162.78 156.33"/>
  <polyline class="cls-2" points="37.44 156.33 37.44 117.89 57.44 117.89 57.44 156.33"/>
  <polyline class="cls-2" points="120.11 105 147.67 105 147.67 117.44"/>
  <polyline class="cls-2" points="120.11 93 137.44 93 137.44 104.78"/>
  <polygon class="cls-3" points="43.31 84.56 49.48 49.87 55.81 84.62 43.31 84.56"/>
  <polygon class="cls-3" points="62.56 84.56 68.73 49.87 75.06 84.62 62.56 84.56"/>
  <polyline class="cls-2" points="56.11 86.06 56.11 117.89 43 117.89 43 86.06"/>
  <polyline class="cls-2" points="75.37 86.06 75.37 117.89 62.26 117.89 62.26 86.06"/>
  <line class="cls-2" x1="57.44" y1="117.89" x2="77.36" y2="117.89"/>
  <line class="cls-2" x1="77.36" y1="117.89" x2="80.33" y2="117.89"/>
  <rect class="cls-2" x="88" y="62.5" width="24" height="12.28"/>
  <path class="cls-1" d="M128.56,134.31c.41,1.02.64,2.15.64,3.32,0,4.9-3.97,8.87-8.87,8.87s-8.87-3.97-8.87-8.87c0-1.17.22-2.29.64-3.32l8.23-16.65,8.23,16.65Z"/>
  <line class="cls-1" x1="120.25" y1="145.82" x2="120.25" y2="156.56"/>
  <path class="cls-1" d="M99.53,140.23c.3.75.47,1.58.47,2.43,0,3.6-2.92,6.51-6.51,6.51s-6.51-2.92-6.51-6.51c0-.86.16-1.68.47-2.43l6.04-12.22,6.04,12.22Z"/>
  <line class="cls-1" x1="93.43" y1="148.68" x2="93.43" y2="156.56"/>
  <line class="cls-1" x1="90" y1="95.86" x2="110" y2="95.86"/>
  <line class="cls-1" x1="90" y1="85.32" x2="110" y2="85.32"/>
  <line class="cls-1" x1="90" y1="106.5" x2="110" y2="106.5"/>
  <line class="cls-1" x1="90" y1="117.14" x2="110" y2="117.14"/>
  <line class="cls-1" x1="134.66" y1="128.13" x2="154.66" y2="128.13"/>
  <line class="cls-1" x1="134.66" y1="138.59" x2="154.66" y2="138.59"/>
  <line class="cls-1" x1="134.66" y1="149.06" x2="154.66" y2="149.06"/>
  <line class="cls-1" x1="47.44" y1="156.56" x2="47.44" y2="128.76"/>
  <line class="cls-1" x1="68.89" y1="130" x2="68.89" y2="124.16"/>
  <line class="cls-1" x1="68.89" y1="138.85" x2="68.89" y2="133.01"/>
  <line class="cls-1" x1="68.89" y1="147.71" x2="68.89" y2="141.87"/>
  <line class="cls-1" x1="68.89" y1="156.56" x2="68.89" y2="150.72"/>
</svg>