<?xml version="1.0" encoding="UTF-8"?>
<svg id="Icons" xmlns="http://www.w3.org/2000/svg" viewBox="0 0 200 200">
  <defs>
    <style>
      .cls-1 {
        stroke-linejoin: round;
      }

      .cls-1, .cls-2, .cls-3 {
        fill: none;
        stroke: #020304;
        stroke-width: 3px;
      }

      .cls-1, .cls-3 {
        stroke-linecap: round;
      }

      .cls-2, .cls-3 {
        stroke-miterlimit: 10;
      }
    </style>
  </defs>
  <g>
    <path class="cls-1" d="M88.17,83.03h5.95c4.86-1.07,8.01-5.87,6.94-10.74-1.07-4.59-5.23-7.37-9.74-7.02,1.14-3.15,1.51-6.6.79-10.09-2.16-9.74-11.81-15.96-21.55-13.81-6.87,1.51-11.95,6.72-13.59,13.09-1.51-.5-3.15-.86-4.79-.86-8.16,0-14.8,6.65-14.8,14.8s6.65,14.81,14.81,14.81h4.86l31.12-.19Z"/>
    <path class="cls-1" d="M56.97,54.4c2.08.72,4.01,1.94,5.51,3.45"/>
    <path class="cls-1" d="M91.39,65.21c-.79,2.08-1.86,4.01-3.22,5.65"/>
  </g>
  <path class="cls-3" d="M37.81,145.44s23.1,13.38,46.7,4.44c17-6.43,19.76-11.08,36.55-25.48,2.74-4.05,23.61-17.03,41.19,2.37"/>
  <path class="cls-3" d="M37.81,111.07s21.04-21.63,42.67,0l16.89,19.56"/>
  <path class="cls-3" d="M86.7,109.59s12.3-9.93,22.22,0c9.93,9.93,7.7,7.7,7.7,7.7"/>
  <path class="cls-2" d="M140.55,81.35c.72,1.78,1.11,3.73,1.11,5.76,0,8.51-6.9,15.41-15.41,15.41s-15.41-6.9-15.41-15.41c0-2.04.39-3.98,1.11-5.76l14.29-28.91,14.29,28.91Z"/>
  <line class="cls-2" x1="126.11" y1="101.33" x2="126.11" y2="120"/>
  <path class="cls-3" d="M145.89,73.7l4.67-9.44,11.6,23.45c.58,1.44.9,3.02.9,4.68,0,6.9-5.6,12.5-12.5,12.5-2.79,0-5.36-.91-7.44-2.46"/>
  <line class="cls-2" x1="150.44" y1="103.93" x2="150.44" y2="117.89"/>
</svg>