<?xml version="1.0" encoding="UTF-8"?>
<svg id="Icons" xmlns="http://www.w3.org/2000/svg" viewBox="0 0 200 200">
  <defs>
    <style>
      .cls-1 {
        fill: none;
        stroke: #000;
        stroke-linecap: round;
        stroke-miterlimit: 10;
        stroke-width: 3px;
      }
    </style>
  </defs>
  <path class="cls-1" d="M73.35,75.04s-5.69,6.32,2.85,13.75c0,0,6.76,20.75,23.79,20.75"/>
  <path class="cls-1" d="M126.29,75s5.71,6.68-2.86,13.99c0,0-7,20.67-23.99,20.47"/>
  <g>
    <path class="cls-1" d="M85.79,103.72l-1.03,11.71-27.94,11.34s-6.52,1.86-8.93,15.06l-2.65,20.04"/>
    <polyline class="cls-1" points="84.72 115.39 99.82 131.05 115.43 115.75"/>
  </g>
  <path class="cls-1" d="M114.46,103.12l.97,12.63,27.82,11.66s6.52,1.94,8.77,15.14l2.41,20.12"/>
  <path class="cls-1" d="M71.92,73.5v-17.03s.79-15.81,17.9-15.06c0,0,1.86-4.15,13.52-3.72,0,0,21.7.43,24.42,20.39v16.16s-3.75,4.03-6.96-6.48l-12.01.16s-12.01.12-23.87-10.47c0,0-.99,7.59-7.19,16.36,0,0-.99,1.19-2.85,1.19-.04.04-2.96.36-2.96-1.5Z"/>
  <circle class="cls-1" cx="121.48" cy="143.75" r="6.25"/>
  <line class="cls-1" x1="121.48" y1="118.37" x2="121.48" y2="137.5"/>
  <path class="cls-1" d="M65.31,161.87c0-16.65,6.57-30.15,14.68-30.15s14.68,13.5,14.68,30.15"/>
  <line class="cls-1" x1="79.99" y1="131.71" x2="79.99" y2="118.37"/>
  <line class="cls-1" x1="65.31" y1="162.5" x2="69.22" y2="162.5"/>
  <line class="cls-1" x1="90.76" y1="162.5" x2="94.67" y2="162.5"/>
</svg>