<?xml version="1.0" encoding="UTF-8"?>
<svg id="Icons" xmlns="http://www.w3.org/2000/svg" viewBox="0 0 200 200">
  <defs>
    <style>
      .cls-1 {
        stroke: #010202;
      }

      .cls-1, .cls-2, .cls-3, .cls-4, .cls-5 {
        fill: none;
        stroke-miterlimit: 10;
        stroke-width: 3px;
      }

      .cls-2, .cls-5 {
        stroke: #030405;
      }

      .cls-3 {
        stroke: #000;
      }

      .cls-3, .cls-4, .cls-5 {
        stroke-linecap: round;
      }

      .cls-4 {
        stroke: #020304;
      }
    </style>
  </defs>
  <path class="cls-2" d="M37.53,93.44v-45.25c0-5.52,4.48-10,10-10h104.94c5.52,0,10,4.48,10,10v54.02c0,5.52-4.48,10-10,10h-46.92"/>
  <g>
    <path class="cls-3" d="M120.69,69.62s-2.01,2.23,1,4.86c0,0,2.39,7.33,8.4,7.33"/>
    <path class="cls-3" d="M139.38,69.61s2.02,2.36-1.01,4.94c0,0-2.47,7.3-8.47,7.23"/>
    <g>
      <path class="cls-3" d="M125.08,79.75l-.36,4.13-9.87,4.01s-2.3.66-3.15,5.32l-.94,7.08"/>
      <polyline class="cls-3" points="124.7 83.87 130.04 89.4 135.55 84"/>
    </g>
    <path class="cls-3" d="M135.21,79.54l.34,4.46,9.82,4.12s2.3.68,3.1,5.34l.85,7.1"/>
    <path class="cls-3" d="M120.18,69.08v-6.01s.28-5.58,6.32-5.32c0,0,.66-1.47,4.77-1.31,0,0,7.66.15,8.62,7.2v5.71s-1.33,1.42-2.46-2.29l-4.24.06s-4.24.04-8.43-3.7c0,0-.35,2.68-2.54,5.78,0,0-.35.42-1,.42-.01.01-1.05.13-1.05-.53Z"/>
  </g>
  <rect class="cls-3" x="110.76" y="50.69" width="38.56" height="50"/>
  <rect class="cls-5" x="49.97" y="56.47" width="30" height="20"/>
  <line class="cls-5" x1="72.6" y1="56.47" x2="72.6" y2="76.47"/>
  <line class="cls-5" x1="72.6" y1="63.7" x2="50.01" y2="63.7"/>
  <line class="cls-5" x1="72.6" y1="69.75" x2="51.69" y2="69.75"/>
  <path class="cls-4" d="M62.61,83.87c-9.52,9.48-23.11,15.82-37.61,15.82v42.29s.17,7.69,6.18,12.04l31.43,20.57,31.43-20.57c6.02-4.35,6.18-12.04,6.18-12.04v-42.29c-14.5,0-28.09-6.34-37.61-15.82Z"/>
  <polyline class="cls-1" points="44.53 129.75 57.71 142.93 83.02 117.62"/>
</svg>