<?xml version="1.0" encoding="UTF-8"?>
<svg id="Icons" xmlns="http://www.w3.org/2000/svg" viewBox="0 0 200 200">
  <defs>
    <style>
      .cls-1, .cls-2, .cls-3, .cls-4 {
        stroke-linejoin: round;
      }

      .cls-1, .cls-2, .cls-3, .cls-4, .cls-5, .cls-6, .cls-7 {
        fill: none;
        stroke-width: 3px;
      }

      .cls-1, .cls-6 {
        stroke: #010202;
      }

      .cls-2, .cls-4, .cls-7 {
        stroke: #000;
      }

      .cls-2, .cls-6, .cls-7 {
        stroke-linecap: round;
      }

      .cls-3 {
        stroke: #020304;
      }

      .cls-5 {
        stroke: #030405;
      }

      .cls-5, .cls-6, .cls-7 {
        stroke-miterlimit: 10;
      }
    </style>
  </defs>
  <path class="cls-5" d="M51.65,136.41l13.89-13.17s5.05-4.16,8.84-4.16h18.94l8.84,6.32h19.67s6.68.54,6.68,7.4-5.96,8.12-5.96,8.12h-29.23"/>
  <path class="cls-5" d="M76.72,160.89l3.32-2.93h45.41s16.61-9.45,27.06-21.72c10.46-12.27,13.72-22.37,13.72-22.37,0,0-.36-4.87-8.66-4.7-8.29.18-12.63,4.51-15.34,12.45l-10.59,5.44"/>
  <path class="cls-6" d="M92,93.58c4.94,6.99,14.35,17.58,29.42,24.25h.02s.02,0,.02,0c24.11-10.67,33.73-31.34,33.73-31.34,2.9-5.73,3.41-10.6,3.01-14.39-.46-10.88-9.43-19.57-20.42-19.57-6.68,0-12.61,3.2-16.34,8.16-3.73-4.96-9.66-8.16-16.34-8.16-3.63,0-7.03.94-9.99,2.6"/>
  <path class="cls-2" d="M56.1,49.06c-10.71,0-19.4,8.68-19.4,19.4"/>
  <line class="cls-4" x1="56.15" y1="34.56" x2="56.15" y2="24.86"/>
  <line class="cls-4" x1="22.2" y1="68.51" x2="12.5" y2="68.51"/>
  <line class="cls-4" x1="99.79" y1="68.51" x2="90.09" y2="68.51"/>
  <line class="cls-1" x1="32.14" y1="44.51" x2="25.28" y2="37.65"/>
  <line class="cls-1" x1="87.01" y1="99.37" x2="80.15" y2="92.51"/>
  <line class="cls-3" x1="32.14" y1="92.51" x2="25.28" y2="99.37"/>
  <line class="cls-3" x1="87.01" y1="37.65" x2="80.15" y2="44.51"/>
  <path class="cls-7" d="M85.24,68.51c0-16.07-13.03-29.1-29.1-29.1s-29.1,13.03-29.1,29.1c0,13.38,9.04,24.65,21.34,28.04v16.57h2.91v3.88h9.7v-3.88h2.91v-16.57c12.3-3.4,21.34-14.66,21.34-28.04Z"/>
  <line class="cls-2" x1="48.39" y1="102.26" x2="63.9" y2="102.26"/>
  <line class="cls-2" x1="48.39" y1="107.72" x2="63.9" y2="107.72"/>
</svg>