<?xml version="1.0" encoding="UTF-8"?>
<svg id="Icons" xmlns="http://www.w3.org/2000/svg" viewBox="0 0 200 200">
  <defs>
    <style>
      .cls-1, .cls-2 {
        fill: none;
        stroke: #030405;
        stroke-miterlimit: 10;
        stroke-width: 3px;
      }

      .cls-2 {
        stroke-linecap: round;
      }
    </style>
  </defs>
  <path class="cls-1" d="M117.62,129.44v7.08h-35.53v-7.08h-44.97v4.51c0,6.38,5.18,9.65,11.55,9.65h102.35c6.38,0,11.55-3.27,11.55-9.65v-4.51h-44.95Z"/>
  <path class="cls-1" d="M40.21,129.44V63.6c0-3.94,3.2-7.14,7.14-7.14h104.98c3.94,0,7.14,3.2,7.14,7.14v65.86"/>
  <polyline class="cls-1" points="149.61 123.81 149.61 66.03 50.07 66.03 50.07 129.44"/>
  <polygon class="cls-2" points="125 90 110 90 110 75 90 75 90 90 75 90 75 110 90 110 90 125 110 125 110 110 125 110 125 90"/>
</svg>