<?xml version="1.0" encoding="UTF-8"?>
<svg id="Icons" xmlns="http://www.w3.org/2000/svg" viewBox="0 0 200 200">
  <defs>
    <style>
      .cls-1 {
        stroke-linejoin: round;
      }

      .cls-1, .cls-2, .cls-3, .cls-4 {
        fill: none;
        stroke-width: 3px;
      }

      .cls-1, .cls-3 {
        stroke: #000;
      }

      .cls-1, .cls-3, .cls-4 {
        stroke-linecap: round;
      }

      .cls-2, .cls-3, .cls-4 {
        stroke-miterlimit: 10;
      }

      .cls-2, .cls-4 {
        stroke: #030405;
      }
    </style>
  </defs>
  <g>
    <path class="cls-3" d="M78.47,64.55c-15.34,21.94-42.62,20.11-42.62,20.11,0,25.66,12.25,46.39,27.33,46.39s27.33-20.79,27.33-46.39c.17.06-7.85-3.77-12.04-20.11Z"/>
    <path class="cls-3" d="M84.88,54.24c10.17,7.57,16.84,20.32,16.84,34.76,0,0,.42,17.65-3.3,31.94l-.58,7.64s-2.15,3.04-6.39,4.61"/>
    <path class="cls-3" d="M34.64,132.49c-4.45-.89-6.49-4.03-6.49-4.03v-7.77c-3.56-20.79-3.56-19.48-3.51-31.68,0-14.46,6.66-27.19,16.82-34.76"/>
    <path class="cls-3" d="M75.79,125.81l3.4,10.63,34.66,13.56"/>
    <path class="cls-3" d="M47.16,136.44l14.77,11.9s2.19,2.06,4.78,0l12.44-11.9"/>
    <path class="cls-3" d="M12.5,150l34.66-13.56,3.4-10.63"/>
  </g>
  <path class="cls-1" d="M80.24,51.24l5.66-17.58c0-5.04-10.17-9.13-22.72-9.13s-22.72,4.09-22.72,9.13v.88l5.66,16.7s14.98-5.88,34.12,0Z"/>
  <line class="cls-4" x1="63.18" y1="30.55" x2="63.18" y2="42.53"/>
  <line class="cls-4" x1="57.19" y1="36.54" x2="69.17" y2="36.54"/>
  <polyline class="cls-4" points="131.77 136.97 112.91 136.97 112.91 84.76 187.5 84.76 187.5 136.97 168.84 136.97"/>
  <polyline class="cls-2" points="118.58 98.69 118.58 89.74 127.53 89.74"/>
  <polyline class="cls-2" points="127.53 131.02 118.58 131.02 118.58 122.07"/>
  <polyline class="cls-2" points="182.13 98.69 182.13 89.74 173.18 89.74"/>
  <polyline class="cls-2" points="173.18 131.02 182.13 131.02 182.13 122.07"/>
  <line class="cls-2" x1="135.29" y1="99.68" x2="165.12" y2="99.68"/>
  <line class="cls-2" x1="141.26" y1="107.44" x2="159.16" y2="107.44"/>
  <circle class="cls-2" cx="150.21" cy="129.52" r="14.92"/>
  <circle class="cls-2" cx="150.21" cy="129.52" r="8.95"/>
  <polyline class="cls-4" points="162.41 138.06 171.94 156.36 162.66 153.44 159.73 162.72 150.21 144.41"/>
  <polyline class="cls-4" points="136.07 141.77 128.48 156.36 137.75 153.44 140.68 162.72 150.21 144.41"/>
</svg>