<?xml version="1.0" encoding="UTF-8"?>
<svg id="Icons" xmlns="http://www.w3.org/2000/svg" viewBox="0 0 200 200">
  <defs>
    <style>
      .cls-1 {
        stroke: #030405;
      }

      .cls-1, .cls-2 {
        fill: none;
        stroke-miterlimit: 10;
        stroke-width: 3px;
      }

      .cls-2 {
        stroke: #000;
        stroke-linecap: round;
      }
    </style>
  </defs>
  <rect class="cls-1" x="68.01" y="66.73" width="66.55" height="66.55" rx="2.53" ry="2.53"/>
  <path class="cls-1" d="M130.82,66.09c.37.4.23.74-.32.74h-58.42c-.55,0-.7-.33-.33-.74l13.98-15.29c.37-.41,1.12-.74,1.67-.74h27.68c.55,0,1.3.33,1.68.74l14.06,15.3Z"/>
  <path class="cls-1" d="M71.75,134.02c-.37-.4-.23-.74.32-.74h58.42c.55,0,.7.33.33.74l-13.98,15.29c-.37.41-1.12.74-1.67.74h-27.68c-.55,0-1.3-.33-1.68-.74l-14.06-15.3Z"/>
  <rect class="cls-1" x="59.31" y="90.05" width="8.53" height="19.93" rx="2.53" ry="2.53"/>
  <polyline class="cls-2" points="73.7 100.32 89.05 100.32 92.01 92.02 96.77 106.21 101.34 96.82 103.26 100.32 111.41 100.32"/>
  <path class="cls-2" d="M86.09,106.21c3.21,4.28,8.82,10.14,17.42,13.95h.01s.01,0,.01,0c14.89-6.59,20.83-19.36,20.83-19.36,1.79-3.54,2.11-6.54,1.86-8.88-.28-6.72-5.82-12.08-12.61-12.08-4.12,0-7.79,1.98-10.09,5.04-2.3-3.06-5.97-5.04-10.09-5.04-6.79,0-12.33,5.36-12.61,12.08-.24,2.23.04,5.07,1.62,8.4"/>
</svg>