<?xml version="1.0" encoding="UTF-8"?>
<svg id="Icons" xmlns="http://www.w3.org/2000/svg" viewBox="0 0 200 200">
  <defs>
    <style>
      .cls-1 {
        fill: none;
        stroke: #1d1d1b;
        stroke-miterlimit: 10;
        stroke-width: 3px;
      }
    </style>
  </defs>
  <circle class="cls-1" cx="80" cy="103.34" r="5"/>
  <circle class="cls-1" cx="92" cy="82.5" r="7.5"/>
  <circle class="cls-1" cx="112.65" cy="107.37" r="7.5"/>
  <circle class="cls-1" cx="112" cy="77.5" r="5"/>
  <circle class="cls-1" cx="95.5" cy="123.74" r="3.5"/>
  <path class="cls-1" d="M153.06,89.96c-2.14,0-3.97,2.71-4.68,6.5h-10.13c0-.07-.01-.15-.02-.22-.04-.38-.09-.75-.13-1.12-.03-.24-.06-.48-.09-.73-.06-.41-.13-.81-.2-1.21-.04-.21-.07-.42-.11-.63-.08-.41-.17-.81-.27-1.21-.05-.21-.09-.41-.14-.62-.1-.39-.21-.78-.31-1.17-.06-.22-.12-.44-.19-.65-.11-.36-.23-.72-.35-1.07-.08-.25-.16-.49-.25-.74-.11-.32-.24-.63-.36-.95-.11-.28-.21-.56-.33-.84-.11-.27-.23-.55-.35-.82-.14-.31-.27-.62-.42-.93-.11-.23-.23-.46-.34-.69-.17-.34-.34-.67-.52-1.01-.11-.2-.22-.39-.33-.59-.2-.35-.4-.7-.6-1.05-.11-.18-.22-.36-.33-.53-.22-.35-.44-.7-.67-1.05-.12-.18-.24-.35-.36-.52-.23-.34-.47-.67-.71-1-.15-.2-.3-.38-.45-.58-.23-.3-.46-.6-.7-.89-.07-.08-.14-.16-.21-.25l7.16-7.16c3.18,2.18,6.39,2.8,7.9,1.29,1.95-1.95.37-6.7-3.54-10.61s-8.65-5.49-10.61-3.54c-1.52,1.52-.89,4.72,1.29,7.9l-7.16,7.16c-.06-.05-.11-.09-.17-.14-.29-.24-.59-.47-.89-.7-.19-.15-.38-.3-.58-.45-.33-.24-.66-.48-1-.71-.18-.12-.35-.25-.53-.37-.35-.23-.7-.45-1.05-.67-.18-.11-.35-.23-.53-.33-.35-.21-.7-.41-1.05-.6-.2-.11-.39-.22-.6-.33-.33-.18-.67-.35-1-.51-.23-.12-.46-.23-.69-.34-.31-.15-.62-.28-.93-.42-.27-.12-.54-.24-.82-.36-.28-.11-.55-.22-.83-.33-.32-.12-.63-.25-.95-.36-.24-.09-.49-.17-.73-.25-.36-.12-.72-.24-1.08-.35-.22-.07-.43-.12-.65-.18-.39-.11-.78-.22-1.17-.32-.2-.05-.41-.09-.61-.14-.41-.09-.81-.19-1.22-.27-.21-.04-.42-.07-.62-.11-.4-.07-.81-.15-1.21-.21-.24-.04-.48-.06-.72-.09-.37-.05-.75-.1-1.13-.14-.11-.01-.21-.02-.32-.03v-10.12c3.79-.71,6.5-2.53,6.5-4.68,0-2.76-4.48-5-10-5s-10,2.24-10,5c0,2.14,2.71,3.97,6.5,4.68v10.13c-.07,0-.15.01-.22.02-.38.04-.75.09-1.12.13-.24.03-.48.06-.73.09-.41.06-.81.13-1.21.2-.21.04-.42.07-.62.11-.41.08-.82.17-1.22.27-.2.05-.41.09-.61.14-.39.1-.78.21-1.17.32-.22.06-.44.12-.65.19-.36.11-.72.23-1.08.35-.24.08-.49.16-.73.25-.32.11-.64.24-.95.36-.28.11-.55.21-.83.33-.28.11-.55.24-.82.36-.31.14-.62.27-.93.42-.23.11-.46.23-.69.34-.34.17-.67.34-1,.51-.2.11-.4.22-.59.33-.35.2-.7.39-1.05.6-.18.11-.36.22-.53.33-.35.22-.7.44-1.05.67-.18.12-.35.24-.53.37-.33.23-.67.47-1,.71-.2.15-.39.3-.58.45-.3.23-.6.46-.89.7-.08.07-.16.14-.25.21l-7.16-7.16c2.18-3.18,2.8-6.39,1.29-7.9-1.95-1.95-6.7-.37-10.61,3.54-3.91,3.91-5.49,8.65-3.54,10.61,1.52,1.52,4.72.89,7.9-1.29l7.16,7.16c-.05.06-.09.11-.14.17-.24.29-.47.59-.7.89-.15.19-.3.38-.45.58-.25.33-.48.67-.71,1-.12.17-.25.35-.36.52-.23.35-.45.7-.67,1.05-.11.18-.23.35-.33.53-.21.35-.41.7-.6,1.05-.11.2-.22.39-.33.59-.18.33-.35.67-.52,1.01-.11.23-.23.46-.34.69-.15.31-.28.62-.42.93-.12.27-.24.54-.35.82-.11.28-.22.56-.33.84-.12.31-.24.63-.36.95-.09.24-.17.49-.25.74-.12.36-.24.71-.35,1.07-.07.22-.12.44-.19.65-.11.39-.22.77-.31,1.17-.05.2-.09.41-.14.62-.09.4-.19.81-.27,1.21-.04.21-.07.42-.11.63-.07.4-.14.8-.2,1.21-.04.24-.06.48-.09.73-.05.37-.1.75-.13,1.12-.01.11-.02.21-.03.32h-10.12c-.71-3.79-2.53-6.5-4.68-6.5-2.76,0-5,4.48-5,10s2.24,10,5,10c2.14,0,3.97-2.71,4.68-6.5h10.13c0,.07.01.15.02.22.04.38.09.75.13,1.13.03.24.06.48.09.73.06.41.13.81.2,1.21.04.21.07.42.11.63.08.41.17.81.27,1.21.05.21.09.41.14.62.1.39.21.78.32,1.17.06.22.12.44.19.65.11.36.23.72.35,1.07.08.25.16.49.25.73.11.32.24.63.36.95.11.28.21.56.33.84.11.27.23.55.35.82.14.31.27.62.42.93.11.23.23.46.34.69.17.34.34.67.52,1.01.11.2.22.4.33.59.2.35.39.7.6,1.05.11.18.22.36.33.53.22.35.44.7.67,1.05.12.18.24.35.36.52.23.34.47.67.71,1.01.14.19.3.38.44.57.23.3.46.6.7.9.07.08.14.16.21.25l-7.16,7.16c-3.18-2.18-6.39-2.8-7.9-1.29-1.95,1.95-.37,6.7,3.54,10.61,3.91,3.91,8.65,5.49,10.61,3.54,1.52-1.52.89-4.72-1.29-7.9l7.16-7.16c.06.05.11.09.17.14.29.24.59.47.89.7.19.15.38.3.58.45.33.24.66.48,1,.71.18.12.35.25.53.37.35.23.7.45,1.05.67.18.11.35.22.53.33.35.21.7.41,1.05.6.2.11.39.22.59.33.33.18.67.35,1,.51.23.12.46.23.69.34.31.15.62.28.93.42.27.12.54.24.82.36.28.11.55.22.83.33.32.12.63.25.95.36.24.09.49.17.73.25.36.12.71.24,1.07.35.22.07.44.12.66.19.39.11.77.22,1.17.31.2.05.41.09.61.14.41.09.81.19,1.22.27.21.04.42.07.62.11.4.07.81.15,1.21.2.24.04.48.06.73.09.37.05.75.1,1.12.13.11.01.21.02.32.03v10.12c-3.79.71-6.5,2.53-6.5,4.68,0,2.76,4.48,5,10,5s10-2.24,10-5c0-2.14-2.71-3.97-6.5-4.68v-10.13c.07,0,.15-.01.22-.02.38-.04.75-.09,1.13-.14.24-.03.48-.06.72-.09.41-.06.81-.13,1.21-.21.21-.04.42-.07.62-.11.41-.08.82-.17,1.22-.27.2-.05.41-.09.61-.14.39-.1.78-.21,1.17-.32.22-.06.44-.12.65-.19.36-.11.72-.23,1.07-.35.24-.08.49-.16.73-.25.32-.11.64-.24.95-.36.28-.11.55-.21.83-.33.28-.11.55-.24.82-.36.31-.14.62-.27.93-.42.23-.11.46-.23.69-.34.34-.17.67-.34,1-.51.2-.11.4-.22.59-.33.35-.2.7-.39,1.05-.6.18-.11.35-.22.53-.33.35-.22.7-.44,1.05-.67.18-.12.35-.24.53-.37.33-.23.67-.47,1-.71.2-.15.39-.3.58-.45.3-.23.6-.46.89-.7.08-.07.16-.14.25-.21l7.16,7.16c-2.18,3.18-2.8,6.39-1.29,7.9,1.95,1.95,6.7.37,10.61-3.54,3.91-3.91,5.49-8.65,3.54-10.61-1.52-1.52-4.72-.89-7.9,1.29l-7.16-7.16c.05-.06.09-.11.14-.17.24-.29.47-.6.7-.9.15-.19.3-.38.44-.57.25-.33.48-.67.71-1.01.12-.17.24-.34.36-.52.23-.35.45-.7.67-1.05.11-.18.22-.35.33-.53.21-.35.41-.7.6-1.05.11-.2.22-.39.33-.59.18-.33.35-.67.52-1.01.11-.23.23-.46.34-.69.15-.31.28-.62.42-.93.12-.27.24-.54.35-.82.11-.28.22-.56.33-.84.12-.31.24-.63.36-.95.09-.24.17-.49.25-.73.12-.36.24-.71.35-1.07.07-.22.12-.43.19-.65.11-.39.22-.78.32-1.17.05-.21.09-.41.14-.62.09-.4.19-.81.27-1.21.04-.21.07-.42.11-.63.07-.4.14-.8.2-1.21.04-.24.06-.48.09-.73.05-.37.1-.75.13-1.13.01-.11.02-.21.03-.32h10.12c.71,3.79,2.53,6.5,4.68,6.5,2.76,0,5-4.48,5-10s-2.24-10-5-10Z"/>
</svg>