<?xml version="1.0" encoding="UTF-8"?>
<svg id="Icons" xmlns="http://www.w3.org/2000/svg" viewBox="0 0 200 200">
  <defs>
    <style>
      .cls-1 {
        stroke-linecap: round;
      }

      .cls-1, .cls-2 {
        fill: none;
        stroke: #000;
        stroke-miterlimit: 10;
        stroke-width: 3px;
      }
    </style>
  </defs>
  <path class="cls-1" d="M60.86,92.66c-.56,2.67-.86,5.43-.86,8.27,0,8.31,2.54,16.03,6.88,22.43h0l33.12,50.13,1.26-1.91,32.19-48.74.02-.03h0c4.12-6.29,6.53-13.81,6.53-21.89,0-2.83-.29-5.6-.85-8.26"/>
  <circle class="cls-2" cx="100" cy="98.43" r="12.5"/>
  <g>
    <path class="cls-1" d="M138.82,86.43c0-7.15-17.38-12.94-38.82-12.94s-38.82,5.79-38.82,12.94"/>
    <path class="cls-1" d="M76.09,52.34c-9.1,2.37-14.95,6.06-14.95,10.2"/>
    <path class="cls-1" d="M138.78,62.54c0-7.15-17.38-12.94-38.82-12.94-4.59,0-8.99.27-13.07.75"/>
    <line class="cls-1" x1="61.16" y1="62.49" x2="61.16" y2="86.43"/>
    <line class="cls-1" x1="138.78" y1="62.55" x2="138.78" y2="87"/>
    <polyline class="cls-1" points="54.53 60.63 52.28 59.66 37.89 53.42 100 26.51 162.11 53.42 138.83 63.53"/>
    <line class="cls-2" x1="151.99" y1="57.59" x2="151.99" y2="88.64"/>
    <path class="cls-2" d="M157.02,109.5h-10.35v-15.47c0-2.86,2.32-5.18,5.18-5.18s5.18,2.32,5.18,5.18v15.47Z"/>
  </g>
</svg>