<?xml version="1.0" encoding="UTF-8"?>
<svg id="Icons" xmlns="http://www.w3.org/2000/svg" viewBox="0 0 200 200">
  <defs>
    <style>
      .cls-1 {
        stroke: #030505;
      }

      .cls-1, .cls-2, .cls-3, .cls-4 {
        stroke-linejoin: round;
      }

      .cls-1, .cls-2, .cls-3, .cls-4, .cls-5, .cls-6 {
        fill: none;
        stroke-width: 3px;
      }

      .cls-2, .cls-3, .cls-6 {
        stroke: #020304;
      }

      .cls-2, .cls-5, .cls-6 {
        stroke-linecap: round;
      }

      .cls-4 {
        stroke: #030405;
      }

      .cls-5 {
        stroke: #000;
      }

      .cls-5, .cls-6 {
        stroke-miterlimit: 10;
      }
    </style>
  </defs>
  <g>
    <rect class="cls-5" x="122.91" y="133.82" width="45.82" height="28.62"/>
    <rect class="cls-5" x="31.27" y="143.26" width="45.82" height="19.18"/>
    <rect class="cls-5" x="77.09" y="124.37" width="45.82" height="38.06"/>
    <rect class="cls-2" x="77.01" y="107.62" width="45.99" height="16.42"/>
    <line class="cls-2" x1="88.35" y1="115.83" x2="111.65" y2="115.83"/>
  </g>
  <g>
    <path class="cls-2" d="M99.96,44.77c-8.72,0-15.79,7.07-15.79,15.79"/>
    <line class="cls-3" x1="100" y1="32.96" x2="100" y2="25.06"/>
    <line class="cls-3" x1="72.36" y1="60.59" x2="64.47" y2="60.59"/>
    <line class="cls-3" x1="135.53" y1="60.59" x2="127.64" y2="60.59"/>
    <line class="cls-4" x1="80.46" y1="41.05" x2="74.88" y2="35.47"/>
    <line class="cls-4" x1="125.12" y1="85.71" x2="119.54" y2="80.14"/>
    <line class="cls-1" x1="80.46" y1="80.12" x2="74.88" y2="85.71"/>
    <line class="cls-1" x1="125.12" y1="35.47" x2="119.53" y2="41.06"/>
    <path class="cls-6" d="M93.68,96.91h2.36v3.15h7.89v-3.15h2.36v-13.5c10.01-2.77,17.36-11.93,17.36-22.82,0-13.08-10.6-23.68-23.68-23.68s-23.67,10.6-23.67,23.68c0,10.9,7.35,20.06,17.36,22.82,0,0,0,13.5,0,13.5Z"/>
    <line class="cls-2" x1="93.68" y1="88.07" x2="106.32" y2="88.07"/>
  </g>
</svg>