<?xml version="1.0" encoding="UTF-8"?>
<svg id="Icons" xmlns="http://www.w3.org/2000/svg" viewBox="0 0 200 200">
  <defs>
    <style>
      .cls-1 {
        stroke: #040506;
        stroke-linejoin: round;
      }

      .cls-1, .cls-2 {
        fill: none;
        stroke-linecap: round;
        stroke-width: 3px;
      }

      .cls-2 {
        stroke: #010202;
        stroke-miterlimit: 10;
      }
    </style>
  </defs>
  <g>
    <line class="cls-2" x1="72.75" y1="78.75" x2="105.31" y2="78.75"/>
    <polyline class="cls-2" points="98.79 62.45 92.7 78.75 105.33 111.32"/>
    <line class="cls-2" x1="137.91" y1="78.75" x2="105.35" y2="78.75"/>
    <polyline class="cls-2" points="111.87 62.45 117.96 78.75 105.33 111.32"/>
    <polygon class="cls-2" points="137.91 78.75 121.61 62.45 89.05 62.45 72.75 78.75 105.33 111.32 137.91 78.75"/>
  </g>
  <path class="cls-1" d="M142.05,156.99v-29.34c.17-3.44,5.27-8.37,9.04-16.08,3.77-7.72,3.12-17.23,3.12-17.23,2.9-55.31-51.69-51.26-51.69-51.26,0,0-51.51-.07-45.75,54.75l-10.9,23.41s-1.65,4.34,4.42,5.62c6.06,1.28,7.21.3,8.37,4.07,1.15,3.78,2.62,20.53,2.62,20.53,0,0,.66,5.41,8.05,5.41h17.73s13.79.5,13.96-16.08"/>
</svg>