<?xml version="1.0" encoding="UTF-8"?>
<svg id="Icons" xmlns="http://www.w3.org/2000/svg" viewBox="0 0 200 200">
  <defs>
    <style>
      .cls-1, .cls-2 {
        stroke-linejoin: round;
      }

      .cls-1, .cls-2, .cls-3, .cls-4, .cls-5 {
        fill: none;
        stroke-width: 3px;
      }

      .cls-1, .cls-2, .cls-4, .cls-5 {
        stroke: #020304;
      }

      .cls-1, .cls-5 {
        stroke-linecap: round;
      }

      .cls-3 {
        stroke: #010202;
      }

      .cls-3, .cls-4, .cls-5 {
        stroke-miterlimit: 10;
      }
    </style>
  </defs>
  <circle class="cls-3" cx="100" cy="65.44" r="6.68"/>
  <polygon class="cls-1" points="162.5 80.31 37.6 80.31 37.5 70.55 99.28 49.71 162.5 71.41 162.5 80.31"/>
  <rect class="cls-4" x="25" y="167.21" width="150" height="7.5"/>
  <rect class="cls-4" x="31" y="159.71" width="138" height="7.5"/>
  <rect class="cls-4" x="36.95" y="152.21" width="126" height="7.5"/>
  <polyline class="cls-2" points="50 146.21 50 80.31 150 80.31 150 146.21"/>
  <polyline class="cls-4" points="52.5 80.31 25 80.31 25 161.85"/>
  <polyline class="cls-4" points="147.5 80.31 175 80.31 175 162.21"/>
  <polygon class="cls-1" points="120.17 125.01 79.86 125.01 79.83 121.85 99.77 115.13 120.17 122.13 120.17 125.01"/>
  <polyline class="cls-2" points="84.67 146.21 84.67 125.01 115.33 125.01 115.33 146.21"/>
  <line class="cls-2" x1="31.55" y1="85.92" x2="31.55" y2="145.92"/>
  <line class="cls-2" x1="37.5" y1="85.92" x2="37.5" y2="145.92"/>
  <line class="cls-2" x1="43.45" y1="85.92" x2="43.45" y2="145.92"/>
  <line class="cls-2" x1="156.51" y1="85.92" x2="156.51" y2="145.92"/>
  <line class="cls-2" x1="162.46" y1="85.92" x2="162.46" y2="145.92"/>
  <line class="cls-2" x1="168.41" y1="85.92" x2="168.41" y2="145.92"/>
  <rect class="cls-5" x="57.57" y="94.42" width="10" height="10"/>
  <rect class="cls-5" x="76.3" y="94.42" width="10" height="10"/>
  <rect class="cls-5" x="95.03" y="94.42" width="10" height="10"/>
  <rect class="cls-5" x="113.77" y="94.42" width="10" height="10"/>
  <rect class="cls-5" x="132.5" y="94.42" width="10" height="10"/>
  <line class="cls-4" x1="100.05" y1="49.14" x2="100.05" y2="25.29"/>
  <rect class="cls-4" x="100.05" y="25.29" width="25.1" height="12.5"/>
</svg>