<?xml version="1.0" encoding="UTF-8"?>
<svg id="Icons" xmlns="http://www.w3.org/2000/svg" viewBox="0 0 200 200">
  <defs>
    <style>
      .cls-1, .cls-2, .cls-3, .cls-4, .cls-5, .cls-6 {
        stroke-linejoin: round;
      }

      .cls-1, .cls-2, .cls-3, .cls-4, .cls-5, .cls-6, .cls-7, .cls-8, .cls-9 {
        fill: none;
        stroke-width: 3px;
      }

      .cls-1, .cls-7 {
        stroke: #010202;
      }

      .cls-2 {
        stroke: #030505;
      }

      .cls-3, .cls-4, .cls-9 {
        stroke: #020304;
      }

      .cls-3, .cls-7, .cls-8, .cls-9 {
        stroke-linecap: round;
      }

      .cls-5 {
        stroke: #030405;
      }

      .cls-6, .cls-8 {
        stroke: #000;
      }

      .cls-7, .cls-8, .cls-9 {
        stroke-miterlimit: 10;
      }
    </style>
  </defs>
  <g>
    <line class="cls-6" x1="130.69" y1="37.39" x2="130.69" y2="31.81"/>
    <line class="cls-6" x1="130.69" y1="76.67" x2="130.69" y2="71.09"/>
    <line class="cls-6" x1="113.96" y1="54.37" x2="108.39" y2="54.37"/>
    <line class="cls-6" x1="152.99" y1="54.37" x2="147.42" y2="54.37"/>
    <line class="cls-1" x1="118.86" y1="42.54" x2="114.92" y2="38.6"/>
    <line class="cls-1" x1="146.46" y1="70.14" x2="142.52" y2="66.19"/>
    <line class="cls-4" x1="118.86" y1="65.82" x2="114.92" y2="69.76"/>
    <line class="cls-4" x1="146.46" y1="38.62" x2="142.52" y2="42.57"/>
    <circle class="cls-8" cx="130.69" cy="54.37" r="22.3"/>
    <line class="cls-6" x1="130.69" y1="54.37" x2="130.69" y2="40.6"/>
    <line class="cls-6" x1="129.21" y1="54.38" x2="141.84" y2="54.37"/>
  </g>
  <g>
    <path class="cls-7" d="M53.92,124.99s-4.09,4.55,2.04,9.89c0,0,4.86,14.91,17.1,14.91"/>
    <path class="cls-7" d="M91.97,124.96s4.11,4.8-2.06,10.06c0,0-5.03,14.86-17.24,14.72"/>
    <g>
      <path class="cls-7" d="M62.86,145.61l-.74,8.41-20.09,8.16s-4.69,1.33-6.42,10.83"/>
      <polyline class="cls-7" points="62.09 154 72.95 165.26 84.17 154.25"/>
    </g>
    <path class="cls-7" d="M83.47,145.17l.7,9.08,20.01,8.38s4.69,1.39,6.31,10.88"/>
    <path class="cls-7" d="M52.89,123.88v-12.24s.57-11.36,12.87-10.83c0,0,1.33-2.98,9.72-2.67,0,0,15.59.31,17.56,14.66v11.62s-2.7,2.9-5-4.66l-8.64.11s-8.64.08-17.16-7.53c0,0-.71,5.46-5.17,11.77,0,0-.71.85-2.04.85-.04.02-2.13.25-2.13-1.09Z"/>
  </g>
  <g>
    <path class="cls-7" d="M138.96,116.4c-8.3,11.86-23.05,10.87-23.05,10.87,0,13.88,6.63,25.09,14.78,25.09s14.78-11.24,14.78-25.09c.09.04-4.24-2.04-6.51-10.87Z"/>
    <path class="cls-7" d="M115.26,153.14c-2.41-.48-3.51-2.18-3.51-2.18v-4.2c-1.93-11.24-1.93-10.54-1.9-17.14,0-12.58,9.31-22.74,20.85-22.74s20.85,10.19,20.85,22.74c0,0,.23,9.54-1.79,17.27l-.31,4.13s-1.16,1.64-3.46,2.49"/>
    <path class="cls-7" d="M137.52,149.53l1.84,5.75,18.75,7.33s4.68,1.38,6.29,10.84"/>
    <path class="cls-7" d="M122.04,155.28l7.99,6.43s1.19,1.11,2.59,0l6.73-6.43"/>
    <path class="cls-7" d="M111.12,159.55l10.92-4.27,1.84-5.75"/>
  </g>
  <g>
    <path class="cls-3" d="M102.25,52.72c-7.81,0-14.14,6.33-14.14,14.14"/>
    <line class="cls-4" x1="102.28" y1="42.15" x2="102.28" y2="35.08"/>
    <line class="cls-4" x1="77.54" y1="66.89" x2="70.47" y2="66.89"/>
    <line class="cls-5" x1="84.78" y1="49.39" x2="79.79" y2="44.4"/>
    <line class="cls-5" x1="124.78" y1="89.39" x2="119.78" y2="84.39"/>
    <line class="cls-2" x1="84.78" y1="84.38" x2="79.79" y2="89.39"/>
    <path class="cls-9" d="M109.63,47c-2.29-.85-4.77-1.31-7.36-1.31-11.71,0-21.19,9.49-21.19,21.2,0,9.76,6.58,17.96,15.55,20.43v12.08s2.12,0,2.12,0v2.82h7.07v-2.82h2.12v-12.08c6.37-1.76,11.53-6.41,13.99-12.45"/>
    <line class="cls-3" x1="96.63" y1="91.49" x2="107.94" y2="91.49"/>
  </g>
</svg>