<?xml version="1.0" encoding="UTF-8"?>
<svg id="Icons" xmlns="http://www.w3.org/2000/svg" viewBox="0 0 200 200">
  <defs>
    <style>
      .cls-1 {
        fill: none;
        stroke: #010202;
        stroke-miterlimit: 10;
        stroke-width: 3px;
      }
    </style>
  </defs>
  <path class="cls-1" d="M84.37,149.03l-.02-18.54c0-7.63-6.19-13.83-13.83-13.83l-.03,11.02-27.39-27.38,27.39-27.39v11.43"/>
  <path class="cls-1" d="M129.47,130.07c-7.64,0-13.83,6.2-13.83,13.83l-.02,18.54h-31.26v-18.54c0-24.93,20.21-45.14,45.14-45.14v-12.44l27.39,27.38-27.39,27.39-.03-11.02Z"/>
  <path class="cls-1" d="M70.5,84.27v1.09c13.75,0,26.06,6.14,34.34,15.84"/>
  <polyline class="cls-1" points="115.63 95.93 115.63 64.91 128.05 64.91 100.7 37.56 73.35 64.91 84.37 64.91 84.37 82.53"/>
</svg>