<?xml version="1.0" encoding="UTF-8"?>
<svg id="Icons" xmlns="http://www.w3.org/2000/svg" viewBox="0 0 200 200">
  <defs>
    <style>
      .cls-1 {
        stroke: #010202;
      }

      .cls-1, .cls-2, .cls-3 {
        fill: none;
        stroke-width: 3px;
      }

      .cls-1, .cls-3 {
        stroke-miterlimit: 10;
      }

      .cls-2 {
        stroke: #030505;
        stroke-linejoin: round;
      }

      .cls-2, .cls-3 {
        stroke-linecap: round;
      }

      .cls-3 {
        stroke: #020304;
      }
    </style>
  </defs>
  <g>
    <polyline class="cls-2" points="74.17 80.74 74.17 73.67 150.84 73.67 150.84 150.34 88 150.34"/>
    <path class="cls-2" d="M124.5,104.25c0-6.63-5.37-12-12-12s-12,5.37-12,12c0,4.84,2.87,9,7,10.9v11.94h.03c.17,2.6,2.32,4.67,4.97,4.67s4.79-2.06,4.97-4.67h.03v-11.94c4.13-1.9,7-6.06,7-10.9Z"/>
    <path class="cls-2" d="M112.5,25c-17.95,0-32.5,14.55-32.5,32.5h.01v16.16h9.99v-16.16c0-12.43,10.07-22.5,22.5-22.5s22.5,10.07,22.5,22.5v16.16h10v-16.16c0-17.95-14.55-32.5-32.5-32.5Z"/>
  </g>
  <path class="cls-3" d="M59.87,77.25c-8.71,8.67-21.13,14.47-34.4,14.47v38.68s.15,7.03,5.66,11.01l28.74,18.81,28.74-18.81c5.5-3.98,5.66-11.01,5.66-11.01v-38.68c-13.26,0-25.69-5.8-34.4-14.47Z"/>
  <polyline class="cls-1" points="43.34 119.21 55.39 131.26 78.54 108.11"/>
</svg>