<?xml version="1.0" encoding="UTF-8"?>
<svg id="Icons" xmlns="http://www.w3.org/2000/svg" viewBox="0 0 200 200">
  <defs>
    <style>
      .cls-1 {
        fill: none;
        stroke: #fff;
        stroke-linecap: round;
        stroke-linejoin: round;
        stroke-width: 3px;
      }
    </style>
  </defs>
  <path class="cls-1" d="M78.06,27.63l-.36,4.79,4.58,3.13-.39,5.16-5.02,2.68-2.16,5.3-2.09,4.29s-1.59,2.66-2.04,3.64-.41,5.44-.41,5.44l-.37,2.38,3.12,6.45-8.01,1.8.13-1.75-7.72,2.84,5.26,12.45,11.14,7.05-3.6,10.75.68,4.5-2.97,2.55-.34,4.42-7.47,3.23-.29,3.78-8.14,3.46-5.29,1.36-1.56,2.29-5.55-3.85-4-.95-.18,2.4s3.95,1.69,3.82,3.35c-.13,1.66.91,6.28.91,6.28l2.63,1.96,11.93-.86,2.5,9.83,16.93-2.14,1.49,3.54,10.44,2.83,2.97,6.06-.26,3.41,2.52,7.05-.34,4.42-.18,2.4,5.09-8.51,9.81-2.31,2.78,3.64-.23,3.04,3.82-5.18-.31,4.05,3.85-.73,3.07-3.84,9.6,4.16,4.68-3.07,5.48-.23,4.24-2.09s5.47-3.66,5.55-4.77,2.05-8.74,2.05-8.74l7.95-5.88.23-3.04-1.96-5.99,2.68-3.6,2.77-9.7-3.18-8.12,6.21-9.81.34-4.42-4.14-4.11-1.77-3.56.34-4.42,2.18-1.87,3.13-4.58.3-8.87-.36-3.83-5.13-.76-3.18-3.3-4.13.71-2.11-3.96-2.96-1.24,1.13-6.4-4.45.03-1.44-4.19-.34-4.1-1.72-.5-8.22,4.57-1.45,5.73-5.7-1.82-1.36-9,3.35-3.82-1.1-3.88-1.36-5.29-3.41-.26-2.01,3.28-4.16-3.74-8.48-3.05-6.45-2.9-4.79-.36-5.57,1.34-4.58,1.69-6.94-.06Z"/>
</svg>