<?xml version="1.0" encoding="UTF-8"?>
<svg id="Icons" xmlns="http://www.w3.org/2000/svg" viewBox="0 0 200 200">
  <defs>
    <style>
      .cls-1 {
        fill: none;
        stroke: #fff;
        stroke-miterlimit: 10;
        stroke-width: 3px;
      }
    </style>
  </defs>
  <line class="cls-1" x1="30.61" y1="162.42" x2="169.62" y2="162.42"/>
  <polyline class="cls-1" points="80.33 156.42 80.33 74.86 120.33 74.86 120.33 111.3"/>
  <polyline class="cls-1" points="134.78 156.42 134.78 117.97 162.78 117.97 162.78 156.42"/>
  <polyline class="cls-1" points="37.44 156.42 37.44 117.97 57.44 117.97 57.44 156.42"/>
  <polyline class="cls-1" points="120.11 105.08 147.67 105.08 147.67 117.53"/>
  <polyline class="cls-1" points="120.11 93.08 137.44 93.08 137.44 104.86"/>
  <line class="cls-1" x1="57.44" y1="117.97" x2="77.36" y2="117.97"/>
  <line class="cls-1" x1="77.36" y1="117.97" x2="80.33" y2="117.97"/>
  <rect class="cls-1" x="88" y="62.58" width="24" height="12.28"/>
  <path class="cls-1" d="M128.56,134.39c.41,1.02.64,2.15.64,3.32,0,4.9-3.97,8.87-8.87,8.87s-8.87-3.97-8.87-8.87c0-1.17.22-2.29.64-3.32l8.23-16.65,8.23,16.65Z"/>
  <line class="cls-1" x1="120.25" y1="145.9" x2="120.25" y2="156.64"/>
  <path class="cls-1" d="M99.53,140.31c.3.75.47,1.58.47,2.43,0,3.6-2.92,6.51-6.51,6.51s-6.51-2.92-6.51-6.51c0-.86.16-1.68.47-2.43l6.04-12.22,6.04,12.22Z"/>
  <line class="cls-1" x1="93.43" y1="148.76" x2="93.43" y2="156.64"/>
  <line class="cls-1" x1="90" y1="95.95" x2="110" y2="95.95"/>
  <line class="cls-1" x1="90" y1="85.4" x2="110" y2="85.4"/>
  <line class="cls-1" x1="90" y1="106.58" x2="110" y2="106.58"/>
  <line class="cls-1" x1="90" y1="117.22" x2="110" y2="117.22"/>
  <line class="cls-1" x1="134.66" y1="128.22" x2="154.66" y2="128.22"/>
  <line class="cls-1" x1="134.66" y1="138.68" x2="154.66" y2="138.68"/>
  <line class="cls-1" x1="134.66" y1="149.14" x2="154.66" y2="149.14"/>
  <line class="cls-1" x1="47.44" y1="156.64" x2="47.44" y2="128.84"/>
  <line class="cls-1" x1="68.89" y1="130.08" x2="68.89" y2="124.24"/>
  <line class="cls-1" x1="68.89" y1="138.94" x2="68.89" y2="133.1"/>
  <line class="cls-1" x1="68.89" y1="147.79" x2="68.89" y2="141.95"/>
  <line class="cls-1" x1="68.89" y1="156.64" x2="68.89" y2="150.8"/>
</svg>