<?xml version="1.0" encoding="UTF-8"?>
<svg id="Icons" xmlns="http://www.w3.org/2000/svg" viewBox="0 0 200 200">
  <defs>
    <style>
      .cls-1 {
        stroke-miterlimit: 10;
      }

      .cls-1, .cls-2, .cls-3 {
        fill: none;
        stroke: #fff;
      }

      .cls-1, .cls-3 {
        stroke-width: 3px;
      }

      .cls-2 {
        stroke-width: 2px;
      }

      .cls-2, .cls-3 {
        stroke-linecap: round;
        stroke-linejoin: round;
      }

      .cls-4 {
        fill: #fff;
      }
    </style>
  </defs>
  <g>
    <g>
      <polyline class="cls-3" points="99.79 121.16 103.29 121.16 117.72 174.98 136.24 174.98 118.97 115.23 116.97 78.5 116.97 77.85 119.14 75.68 127.67 83.95 117.8 93.84"/>
      <polyline class="cls-1" points="108.17 52.26 108.71 59.76 127.08 61.44 147.44 81.8 130.4 100.64 130.32 100.72"/>
    </g>
    <polyline class="cls-1" points="116.97 77.85 110.37 84.45 104.91 84.45"/>
    <line class="cls-1" x1="88.32" y1="98.82" x2="111.03" y2="98.82"/>
    <line class="cls-1" x1="88.32" y1="107.03" x2="111.03" y2="107.03"/>
    <line class="cls-1" x1="99.68" y1="90.3" x2="99.68" y2="98.82"/>
    <path class="cls-1" d="M118.23,101.67c3.67,2.59,8.76,2.27,12.09-.95"/>
    <line class="cls-1" x1="122.03" y1="89.6" x2="131.67" y2="99.24"/>
    <path class="cls-1" d="M108.17,160.49c-2.81.19-5.64.29-8.5.29"/>
    <path class="cls-1" d="M134.85,155.63c3.03-.91,6.02-1.94,8.95-3.08l-15.93-44.32"/>
    <g>
      <g>
        <polyline class="cls-1" points="69.57 100.61 52.56 81.8 72.92 61.44 91.29 59.76 91.83 52.59"/>
        <polyline class="cls-3" points="100.21 121.16 96.71 121.16 82.28 174.98 63.76 174.98 81.03 115.23 83.03 78.5 83.03 77.85 80.86 75.68 72.33 83.95 82.2 93.84"/>
      </g>
      <line class="cls-1" x1="70.97" y1="150.03" x2="88.97" y2="150.03"/>
      <polyline class="cls-1" points="83.03 77.85 89.63 84.45 95.09 84.45"/>
      <line class="cls-1" x1="111.68" y1="98.82" x2="88.97" y2="98.82"/>
      <line class="cls-1" x1="111.68" y1="107.03" x2="88.97" y2="107.03"/>
      <path class="cls-1" d="M69.57,100.61c3.32,3.32,8.48,3.68,12.2,1.06"/>
      <line class="cls-1" x1="77.97" y1="89.6" x2="68.33" y2="99.24"/>
      <path class="cls-1" d="M91.83,160.49c2.81.19,5.64.29,8.5.29"/>
      <path class="cls-1" d="M65.15,155.63c-3.03-.91-6.02-1.94-8.95-3.08l15.5-44.32"/>
      <line class="cls-1" x1="111.07" y1="150.03" x2="129.06" y2="150.03"/>
    </g>
    <polygon class="cls-1" points="85.67 33.97 85.67 45.81 95.3 45.81 97.61 43.46 101.82 43.46 104.13 45.81 113.76 45.81 113.76 33.97 85.67 33.97"/>
    <path class="cls-1" d="M112.35,45.81c-1.57,5.47-6.6,9.47-12.57,9.47s-11-4-12.57-9.47"/>
    <path class="cls-1" d="M87.38,33.97c1.73-5.2,6.63-8.94,12.41-8.94s10.68,3.74,12.41,8.94"/>
    <line class="cls-1" x1="72.33" y1="83.95" x2="68.21" y2="79.82"/>
    <line class="cls-1" x1="80.86" y1="75.68" x2="76.74" y2="71.56"/>
    <line class="cls-1" x1="127.66" y1="83.95" x2="131.79" y2="79.82"/>
    <line class="cls-1" x1="119.13" y1="75.69" x2="123.26" y2="71.56"/>
  </g>
  <g>
    <path class="cls-2" d="M107.67,66.63h-15.33s-2.39,9.3,7.66,16.74c10.05-7.44,7.67-16.74,7.67-16.74Z"/>
    <path class="cls-4" d="M92.98,73.82l7.19-7.19h-4.11l-3.91,3.91s.41,2.1.83,3.29Z"/>
    <path class="cls-4" d="M107.85,70.53l-3.91-3.9h-4.11l7.18,7.19s.77-2.07.83-3.29Z"/>
    <path class="cls-4" d="M102.88,80.87l-2.87-2.87-2.88,2.88s1.23,1.29,2.87,2.5c0,0,2.37-1.75,2.88-2.5Z"/>
    <path class="cls-4" d="M104.5,78.98l-4.48-4.48-4.5,4.5c-.87-1.06-1.57-2.47-1.57-2.47l6.08-6.08,6.05,6.05s-.39,1.06-1.57,2.48Z"/>
  </g>
</svg>