<?xml version="1.0" encoding="UTF-8"?>
<svg id="Icons" xmlns="http://www.w3.org/2000/svg" viewBox="0 0 200 200">
  <defs>
    <style>
      .cls-1 {
        fill: none;
        stroke: #030405;
        stroke-linecap: round;
        stroke-linejoin: round;
        stroke-width: 3px;
      }
    </style>
  </defs>
  <path class="cls-1" d="M168.41,31.59s-15.5-3.28-23.28,4.61l-21.33,22.44-80.39-10.67s-13.83,6.44-5.83,10.67l58.23,28.97-27.39,33.92-27.5-5.11s-3.56-1.56-7.56,1.56l-2.44,3.56,24,14s-8,11.11-4.78,14.33"/>
  <path class="cls-1" d="M50.15,149.87c3.22,3.22,14.33-4.78,14.33-4.78l14,24,3.56-2.44c3.11-4,1.56-7.56,1.56-7.56l-5.11-27.5,33.92-27.39,28.97,58.23c4.22,8,10.67-5.83,10.67-5.83l-10.67-80.39,22.44-21.33c7.89-7.78,4.6-23.28,4.6-23.28"/>
</svg>