<?xml version="1.0" encoding="UTF-8"?>
<svg id="Icons" xmlns="http://www.w3.org/2000/svg" viewBox="0 0 200 200">
  <defs>
    <style>
      .cls-1 {
        fill: none;
        stroke: #030405;
        stroke-linecap: round;
        stroke-linejoin: round;
        stroke-width: 3px;
      }
    </style>
  </defs>
  <rect class="cls-1" x="55.36" y="65.29" width="75" height="54.33"/>
  <circle class="cls-1" cx="77.41" cy="127.16" r="7.54"/>
  <circle class="cls-1" cx="163.41" cy="126.71" r="8"/>
  <polyline class="cls-1" points="86.3 126.18 130.36 126.18 140.72 128.6 155.36 128.6"/>
  <polyline class="cls-1" points="130.36 81.24 150.3 81.24 167.86 99.11 180.36 106.53 180.36 126.18 171.41 126.71"/>
  <line class="cls-1" x1="130.36" y1="118.71" x2="130.36" y2="126.18"/>
  <polyline class="cls-1" points="156.61 87.66 142.86 87.66 142.86 101.07 146.52 102.85 164.19 102.85 167.86 99.11"/>
  <line class="cls-1" x1="142.86" y1="108.63" x2="148.3" y2="108.63"/>
  <line class="cls-1" x1="95.19" y1="77.76" x2="30.36" y2="77.76"/>
  <line class="cls-1" x1="71.19" y1="93.24" x2="19.64" y2="93.24"/>
  <line class="cls-1" x1="80.36" y1="108.63" x2="30.36" y2="108.63"/>
  <line class="cls-1" x1="77.41" y1="127.16" x2="43.86" y2="127.16"/>
</svg>