<?xml version="1.0" encoding="UTF-8"?>
<svg id="Icons" xmlns="http://www.w3.org/2000/svg" viewBox="0 0 200 200">
  <defs>
    <style>
      .cls-1 {
        fill: none;
        stroke: #1d1d1b;
        stroke-linecap: round;
        stroke-linejoin: round;
        stroke-width: 3px;
      }
    </style>
  </defs>
  <circle class="cls-1" cx="105.5" cy="48.9" r="11.4"/>
  <path class="cls-1" d="M68.83,102.91l8.34-23.98c.52-1.51,1.62-2.74,3.06-3.44l19.45-9.41s5.6-1.57,7.52,1.57c0,0,2.62,1.76,1.75,7.35l-3.45,32.19c-.14,1.5.04,3.19,1.11,4.25l10.29,10.26c1.05,1.03,1.68,2.41,1.78,3.88l2.2,31.02c.23,2.99-1.99,5.61-4.97,5.88h0c-3.07.28-5.76-2.03-5.96-5.11l-1.52-27.44-17.44-17.14c-1.74-1.71-2.61-4.13-2.35-6.56l2.81-26.16-5.06,2.75c-.68.37-1.19.99-1.43,1.73l-6.91,21.42c-.83,2.63-3.68,4.04-6.27,3.11h0c-2.51-.9-3.82-3.65-2.95-6.16Z"/>
  <path class="cls-1" d="M114.2,82.69l-1.22,11.55,10.76,10.75c1.86,1.85,4.89,1.74,6.61-.24h0c1.55-1.79,1.45-4.48-.22-6.15l-15.92-15.9Z"/>
  <path class="cls-1" d="M87.6,118.38l9.27,8.4-9.25,31.45c-.87,3.14-4.28,4.83-7.31,3.62h0c-2.58-1.03-3.98-3.83-3.25-6.51l10.54-36.96Z"/>
</svg>