<?xml version="1.0" encoding="UTF-8"?>
<svg id="Icons" xmlns="http://www.w3.org/2000/svg" viewBox="0 0 200 200">
  <defs>
    <style>
      .cls-1 {
        stroke: #030505;
      }

      .cls-1, .cls-2, .cls-3, .cls-4, .cls-5 {
        stroke-linejoin: round;
      }

      .cls-1, .cls-2, .cls-3, .cls-4, .cls-5, .cls-6, .cls-7 {
        fill: none;
        stroke-width: 3px;
      }

      .cls-2, .cls-3, .cls-7 {
        stroke: #020304;
      }

      .cls-2, .cls-4, .cls-7 {
        stroke-linecap: round;
      }

      .cls-4, .cls-5 {
        stroke: #030405;
      }

      .cls-6 {
        stroke: #040506;
      }

      .cls-6, .cls-7 {
        stroke-miterlimit: 10;
      }
    </style>
  </defs>
  <path class="cls-6" d="M40.45,149.15l14.44-13.69s5.25-4.32,9.19-4.32h19.69l9.19,6.57h20.44s6.94.56,6.94,7.69-6.19,8.44-6.19,8.44h-30.38"/>
  <path class="cls-6" d="M66.51,174.59l3.45-3.05h47.2s17.26-9.82,28.13-22.57c10.87-12.75,14.26-23.25,14.26-23.25,0,0-.37-5.06-9-4.88-8.62.19-13.13,4.69-15.94,12.94l-11.01,5.65"/>
  <path class="cls-4" d="M92.97,82.96s13.96,11.99,10.95,27.01"/>
  <path class="cls-4" d="M101.77,94.81s10.41-9.85-5.68-22.93c-5.05-4.27-12.38-6.75-15.22-11.85,0,0-16.79,31.89,13.57,36.78"/>
  <path class="cls-4" d="M106.64,82.43c3.2-3.06,8.66-5.46,17.82-5.78,0,0,2.35,22.58-21.62,20.69"/>
  <g>
    <line class="cls-3" x1="98.41" y1="37.91" x2="98.41" y2="25.41"/>
    <line class="cls-3" x1="54.66" y1="81.66" x2="42.16" y2="81.66"/>
    <line class="cls-3" x1="154.66" y1="81.66" x2="142.16" y2="81.66"/>
    <line class="cls-5" x1="67.47" y1="50.72" x2="58.64" y2="41.89"/>
    <line class="cls-5" x1="138.18" y1="121.43" x2="129.35" y2="112.6"/>
    <line class="cls-1" x1="67.47" y1="112.59" x2="58.63" y2="121.44"/>
    <line class="cls-1" x1="138.19" y1="41.88" x2="129.34" y2="50.73"/>
    <path class="cls-7" d="M108.41,137.71v-19.91c15.85-4.38,27.5-18.89,27.5-36.14,0-20.71-16.79-37.5-37.5-37.5s-37.5,16.79-37.5,37.5c0,17.25,11.65,31.76,27.5,36.14v16.22"/>
    <line class="cls-2" x1="88.41" y1="125.16" x2="108.41" y2="125.16"/>
    <line class="cls-2" x1="88.41" y1="132.2" x2="108.41" y2="132.2"/>
  </g>
</svg>