<?xml version="1.0" encoding="UTF-8"?>
<svg id="Icons" xmlns="http://www.w3.org/2000/svg" viewBox="0 0 200 200">
  <defs>
    <style>
      .cls-1 {
        fill: none;
        stroke: #030405;
        stroke-linecap: round;
        stroke-linejoin: round;
        stroke-width: 3px;
      }
    </style>
  </defs>
  <path class="cls-1" d="M75.74,85.21s32.93,15.31,35.25,45.45"/>
  <path class="cls-1" d="M157.3,151.89c-4.91-4.9-11.69-7.93-19.17-7.93-.63,0-1.24.05-1.86.09-4.72-8-13.4-13.38-23.36-13.38s-18.78,5.46-23.47,13.56c-1.2-.16-2.42-.28-3.66-.28-6.21,0-11.93,2.09-16.51,5.6"/>
  <path class="cls-1" d="M98.8,103.01s14.51-24.29-23.05-40.52c-11.89-5.42-27.14-6.2-35.25-14.38,0,0-14.84,69.57,45.45,62.61"/>
  <path class="cls-1" d="M121.66,111.21s-11.59-38.98,42.67-40.84c0,0,4.64,44.58-42.67,40.84Z"/>
</svg>