<?xml version="1.0" encoding="UTF-8"?>
<svg id="Icons" xmlns="http://www.w3.org/2000/svg" viewBox="0 0 200 200">
  <defs>
    <style>
      .cls-1 {
        stroke: #010202;
        stroke-miterlimit: 10;
      }

      .cls-1, .cls-2, .cls-3 {
        fill: none;
        stroke-width: 3px;
      }

      .cls-2 {
        stroke-linecap: round;
      }

      .cls-2, .cls-3 {
        stroke: #030405;
        stroke-linejoin: round;
      }
    </style>
  </defs>
  <path class="cls-2" d="M138.35,111.27c-3.3-3.3-7.87-5.34-12.9-5.34-.42,0-.83.03-1.25.06-3.18-5.38-9.02-9-15.72-9s-12.64,3.67-15.79,9.12c-.81-.11-1.63-.17-2.46-.19-4.09-.07-6.06,1.42-11.11,5.28"/>
  <polygon class="cls-2" points="133.66 186.27 83.46 186.27 71.16 111.27 146.16 111.27 133.66 186.27"/>
  <line class="cls-2" x1="108.66" y1="123.27" x2="144.16" y2="123.27"/>
  <path class="cls-1" d="M89.31,41.88c.45,1.12.7,2.33.7,3.61,0,5.33-4.32,9.65-9.65,9.65s-9.65-4.32-9.65-9.65c0-1.28.25-2.49.7-3.61l8.95-18.11,8.95,18.11Z"/>
  <polygon class="cls-2" points="118.07 36.27 88.53 65.81 113.35 90.54 150.25 53.63 133.01 36.42 118.07 36.27"/>
  <polyline class="cls-3" points="133.01 36.42 125.47 44.01 117.89 36.44"/>
  <line class="cls-3" x1="110.37" y1="75.83" x2="129.23" y2="56.97"/>
  <line class="cls-3" x1="106.91" y1="72.38" x2="125.77" y2="53.51"/>
  <line class="cls-3" x1="103.45" y1="68.92" x2="112.72" y2="59.65"/>
</svg>