<?xml version="1.0" encoding="UTF-8"?>
<svg id="Icons" xmlns="http://www.w3.org/2000/svg" viewBox="0 0 200 200">
  <defs>
    <style>
      .cls-1 {
        fill: none;
        stroke: #030405;
        stroke-linecap: round;
        stroke-linejoin: round;
        stroke-width: 3px;
      }
    </style>
  </defs>
  <path class="cls-1" d="M81.05,66.4s22.16,10.3,23.72,30.58"/>
  <path class="cls-1" d="M135.93,111.27c-3.3-3.3-7.87-5.34-12.9-5.34-.42,0-.83.03-1.25.06-3.18-5.38-9.02-9-15.72-9s-12.64,3.67-15.79,9.12c-.81-.11-1.63-.17-2.46-.19-4.09-.07-6.06,1.42-11.11,5.28"/>
  <path class="cls-1" d="M96.57,78.38s9.76-16.35-15.51-27.27c-8-3.65-18.26-4.17-23.72-9.68,0,0-9.99,46.82,30.58,42.13"/>
  <path class="cls-1" d="M111.95,83.9s-7.8-26.23,28.71-27.48c0,0,3.12,30-28.71,27.48Z"/>
  <polygon class="cls-1" points="131.25 186.27 81.05 186.27 68.75 111.27 143.75 111.27 131.25 186.27"/>
  <line class="cls-1" x1="106.25" y1="123.27" x2="141.75" y2="123.27"/>
</svg>