<?xml version="1.0" encoding="UTF-8"?>
<svg id="Icons" xmlns="http://www.w3.org/2000/svg" viewBox="0 0 200 200">
  <defs>
    <style>
      .cls-1 {
        fill: none;
        fill-rule: evenodd;
        stroke: #020304;
        stroke-linecap: round;
        stroke-linejoin: round;
        stroke-width: 3px;
      }
    </style>
  </defs>
  <path class="cls-1" d="M170.3,119.44c-.49.49-1.02.97-1.61,1.46-3.05,2.7-6.55,4-10.48,3.9l-12.67-.1,12.67.1c3.93.1,7.42-1.2,10.48-3.9.58-.49,1.12-.97,1.61-1.46l-21.64,34.31c-.55.84-1.36,1.69-2.44,2.53-2.18,1.69-4.55,2.52-7.11,2.48l-18.22-.24-.24,14.13-17.88-31.09,17.98-33.28-.39,16.23,25.19.19-19.69-34.26,31.58-18.22,16.03,28.02c.62,1.33,1.06,2.7,1.32,4.09.88,4.55,0,8.72-2.63,12.52-.42.78-.99,1.58-1.71,2.39-.06.06-.11.13-.15.2ZM68.7,31.58c3.44-3.09,7.47-4.48,12.08-4.19l2.83.49,40.88.44,3.46.78c2.57.97,4.48,2.57,5.75,4.78l9.26,15.74,12.23-7.11-17.35,31.38-37.81,1.85,14.13-8.04-12.77-21.68-19.25,34.65-31.97-17.59,15.69-28.26c.81-1.17,1.75-2.24,2.83-3.22ZM54.23,123.43h39.42l.05,36.5h-30.6c-1.79.1-3.77-.24-5.94-1.02-4.32-1.49-7.47-4.32-9.45-8.48-.45-.78-.84-1.67-1.17-2.68-.23-.71-.42-1.48-.58-2.29-.78-3.96-.16-7.62,1.85-10.96l6.43-11.06-6.43,11.06c-2.01,3.35-2.63,7-1.85,10.96.16.81.36,1.58.58,2.29l-19.2-36.11c-.45-.91-.78-2.03-.97-3.36-.39-2.7.08-5.15,1.41-7.36l9.31-15.69-12.18-7.26h35.91l19.88,32.16-13.89-8.43-12.57,21.73ZM83.61,27.88l2.34.39c3.8,1.27,6.68,3.61,8.63,7.02l6.82,10.72-6.82-10.72c-1.95-3.41-4.82-5.75-8.63-7.02l-2.34-.39Z"/>
  <path class="cls-1" d="M145.54,124.7l-19.69-34.26,31.58-18.22,16.03,28.02c.62,1.33,1.06,2.7,1.32,4.09.88,4.55,0,8.72-2.63,12.52-.42.78-.99,1.58-1.71,2.39-.06.06-.11.13-.15.2l-21.64,34.31c-.55.84-1.36,1.69-2.44,2.53-2.18,1.69-4.55,2.52-7.11,2.48l-18.22-.24-.24,14.13-17.88-31.09,17.98-33.28-.39,16.23,25.19.19ZM170.3,119.44c-.49.49-1.02.97-1.61,1.46-3.05,2.7-6.55,4-10.48,3.9l-12.67-.1M68.7,31.58c3.44-3.09,7.47-4.48,12.08-4.19l2.83.49,40.88.44,3.46.78c2.57.97,4.48,2.57,5.75,4.78l9.26,15.74,12.23-7.11-17.35,31.38-37.81,1.85,14.13-8.04-12.77-21.68-19.25,34.65-31.97-17.59,15.69-28.26c.81-1.17,1.75-2.24,2.83-3.22ZM54.23,123.43l12.57-21.73,13.89,8.43-19.88-32.16H24.89l12.18,7.26-9.31,15.69c-1.33,2.21-1.8,4.66-1.41,7.36.19,1.33.52,2.45.97,3.36l19.2,36.11c-.23-.71-.42-1.48-.58-2.29-.78-3.96-.16-7.62,1.85-10.96l6.43-11.06h39.42l.05,36.5h-30.6c-1.79.1-3.77-.24-5.94-1.02-4.32-1.49-7.47-4.32-9.45-8.48-.45-.78-.84-1.67-1.17-2.68M83.61,27.88l2.34.39c3.8,1.27,6.68,3.61,8.63,7.02l6.82,10.72"/>
</svg>