<?xml version="1.0" encoding="UTF-8"?>
<svg id="Icons" xmlns="http://www.w3.org/2000/svg" viewBox="0 0 200 200">
  <defs>
    <style>
      .cls-1 {
        fill: none;
        stroke: #030405;
        stroke-linecap: round;
        stroke-linejoin: round;
        stroke-width: 3px;
      }
    </style>
  </defs>
  <line class="cls-1" x1="78.38" y1="41.79" x2="118.89" y2="41.86"/>
  <line class="cls-1" x1="82.43" y1="42.71" x2="92.06" y2="52.32"/>
  <line class="cls-1" x1="117.6" y1="42.73" x2="108.01" y2="52.32"/>
  <path class="cls-1" d="M135.26,140.27h-70.52c-4.69,0-8.49-3.8-8.49-8.49V61.26c0-4.69,3.8-8.49,8.49-8.49h70.52c4.69,0,8.49,3.8,8.49,8.49v70.51c0,4.69-3.8,8.5-8.49,8.5Z"/>
  <circle class="cls-1" cx="71.56" cy="123.14" r="6.56"/>
  <circle class="cls-1" cx="128.43" cy="123.14" r="6.56"/>
  <path class="cls-1" d="M135,105.21v-35h-70v35s30.26,8.81,70,0Z"/>
  <line class="cls-1" x1="91.25" y1="61.52" x2="108.75" y2="61.52"/>
  <line class="cls-1" x1="56.25" y1="158.12" x2="74.15" y2="140.27"/>
  <line class="cls-1" x1="143.75" y1="158.21" x2="125.8" y2="140.27"/>
  <line class="cls-1" x1="65.25" y1="149.15" x2="134.77" y2="149.24"/>
  <line class="cls-1" x1="56.25" y1="158.12" x2="143.75" y2="158.21"/>
</svg>