<?xml version="1.0" encoding="UTF-8"?>
<svg id="Icons" xmlns="http://www.w3.org/2000/svg" viewBox="0 0 200 200">
  <defs>
    <style>
      .cls-1 {
        fill: none;
        stroke: #000;
        stroke-linecap: round;
        stroke-linejoin: round;
        stroke-width: 3px;
      }
    </style>
  </defs>
  <circle class="cls-1" cx="100" cy="100" r="50"/>
  <path class="cls-1" d="M117.73,62.51h-5.33l-4.74,8.89s-1.16,3.97,2.1,5.46h7.97l5.04,3.73-1.92,4.76h-8.45l-4.94-1.8-6.1,9.48,6.3,15.7,5.41,2.3,9.7,21.63,2.59,1.56,6.07-4.81v-8.52l10.3-13.63-5.33-16s-.89-3.26,2.67-4.15"/>
  <polyline class="cls-1" points="87.78 60.07 82.89 63.99 82.89 70.18 74.09 72.21 63.99 82.24 60.07 87.45 65.61 97.56 72.05 98.61 79.3 106.03 87.78 106.03 87.78 110.59 87.78 120.04 82.24 122.65 80.93 132.1 80.61 136.99 81.91 139.93 72.05 133.41 69.53 121.67 58.44 108.96"/>
</svg>