<?xml version="1.0" encoding="UTF-8"?>
<svg id="Icons" xmlns="http://www.w3.org/2000/svg" viewBox="0 0 200 200">
  <defs>
    <style>
      .cls-1 {
        stroke: #000;
        stroke-linecap: round;
        stroke-linejoin: round;
      }

      .cls-1, .cls-2 {
        fill: none;
        stroke-width: 3px;
      }

      .cls-2 {
        stroke: #040506;
        stroke-miterlimit: 10;
      }
    </style>
  </defs>
  <g>
    <path class="cls-1" d="M148.62,101.5c.86-3.67,1.32-7.5,1.32-11.44,0-27.53-22.31-49.84-49.84-49.84s-49.84,22.31-49.84,49.84c0,8.77,2.26,17,6.24,24.16"/>
    <path class="cls-1" d="M131.43,119.37v-8.49l10.26-13.59-5.32-15.95s-.89-3.25,2.66-4.13"/>
    <path class="cls-1" d="M117.77,52.7h-5.32l-4.73,8.86s-1.16,3.95,2.09,5.44h7.95l5.02,3.71-1.91,4.75h-8.43l-4.93-1.8-6.08,9.45,6.28,15.65,5.39,2.29,11.13,23.21"/>
    <line class="cls-1" x1="71.11" y1="116.32" x2="58.68" y2="99"/>
    <polyline class="cls-1" points="87.92 50.27 83.04 54.17 83.04 60.34 74.27 62.37 64.2 72.36 60.3 77.56 65.83 87.63 72.24 88.69 79.47 96.08 87.92 96.08 87.92 100.63 87.92 110.05 82.39 112.65 81.67 116.32"/>
  </g>
  <path class="cls-2" d="M40.45,134.33l14.44-13.69s5.25-4.32,9.19-4.32h19.69l9.19,6.57h20.44s6.94.56,6.94,7.69-6.19,8.44-6.19,8.44h-30.38"/>
  <path class="cls-2" d="M66.51,159.77l3.45-3.05h47.2s17.26-9.82,28.13-22.57c10.87-12.75,14.26-23.25,14.26-23.25,0,0-.37-5.06-9-4.88-8.62.19-13.13,4.69-15.94,12.94l-11.01,5.65"/>
</svg>