<?xml version="1.0" encoding="UTF-8"?>
<svg id="Icons" xmlns="http://www.w3.org/2000/svg" viewBox="0 0 200 200">
  <defs>
    <style>
      .cls-1 {
        fill: none;
        stroke: #030405;
        stroke-linecap: round;
        stroke-linejoin: round;
        stroke-width: 3px;
      }
    </style>
  </defs>
  <path class="cls-1" d="M129.68,111.27c-3.3-3.3-7.87-5.34-12.9-5.34-.42,0-.83.03-1.25.06-3.18-5.38-9.02-9-15.72-9s-12.64,3.67-15.79,9.12c-.81-.11-1.63-.17-2.46-.19-4.09-.07-6.06,1.42-11.11,5.28"/>
  <polygon class="cls-1" points="125 186.27 74.8 186.27 62.5 111.27 137.5 111.27 125 186.27"/>
  <line class="cls-1" x1="100" y1="123.27" x2="135.5" y2="123.27"/>
  <circle class="cls-1" cx="100.13" cy="45.24" r="10.78"/>
  <path class="cls-1" d="M100.15,23.7s-6.09,6.02-.02,10.76c0,0,6.4-4.73.02-10.76Z"/>
  <path class="cls-1" d="M110.05,26.1s-8.18,2.55-4.96,9.55c0,0,7.85-1.26,4.96-9.55Z"/>
  <path class="cls-1" d="M117.73,32.78s-8.44-1.49-8.79,6.21c0,0,7.56,2.48,8.79-6.21Z"/>
  <path class="cls-1" d="M121.5,42.25s-6.82-5.19-10.66,1.49c0,0,5.57,5.68,10.66-1.49Z"/>
  <path class="cls-1" d="M120.5,52.38s-3.67-7.74-10.15-3.57c0,0,2.35,7.6,10.15,3.57Z"/>
  <path class="cls-1" d="M114.96,60.93s.29-8.56-7.38-7.83c0,0-1.4,7.83,7.38,7.83Z"/>
  <path class="cls-1" d="M106.11,65.97s4.19-7.47-2.96-10.35c0,0-4.84,6.31,2.96,10.35Z"/>
  <path class="cls-1" d="M95.94,66.4s7.15-4.72,2.12-10.55c0,0-7.2,3.39-2.12,10.55Z"/>
  <path class="cls-1" d="M86.7,62.11s8.52-.91,6.73-8.4c0,0-7.95-.3-6.73,8.4Z"/>
  <path class="cls-1" d="M80.47,54.06s7.99,3.11,9.83-4.38c0,0-6.93-3.91-9.83,4.38Z"/>
  <path class="cls-1" d="M78.63,44.04s5.67,6.42,10.74.63c0,0-4.36-6.65-10.74-.63Z"/>
  <path class="cls-1" d="M81.59,34.3s2.09,8.31,9.26,5.49c0,0-.82-7.91-9.26-5.49Z"/>
  <path class="cls-1" d="M89.26,26.71s-1.96,8.34,5.71,9.12c0,0,2.91-7.41-5.71-9.12Z"/>
  <line class="cls-1" x1="100.21" y1="62.11" x2="100.21" y2="96.98"/>
  <path class="cls-1" d="M100.3,89.66s-5.74-19.31,21.13-20.23c0,0,2.3,22.08-21.13,20.23Z"/>
  <path class="cls-1" d="M85.96,76.07s13.55,6.3,14.51,18.71"/>
  <path class="cls-1" d="M95.45,83.4s5.97-10-9.49-16.68c-4.89-2.23-11.17-2.55-14.51-5.92,0,0-6.11,28.63,18.71,25.77"/>
</svg>