<?xml version="1.0" encoding="UTF-8"?>
<svg id="Icons" xmlns="http://www.w3.org/2000/svg" viewBox="0 0 200 200">
  <defs>
    <style>
      .cls-1 {
        stroke: #030505;
        stroke-linejoin: round;
      }

      .cls-1, .cls-2 {
        fill: none;
        stroke-linecap: round;
        stroke-width: 3px;
      }

      .cls-2 {
        stroke: #000;
        stroke-miterlimit: 10;
      }
    </style>
  </defs>
  <g>
    <path class="cls-2" d="M85.83,130.81l-1.03,11.71-27.94,11.34s-6.52,1.86-8.93,15.06"/>
    <polyline class="cls-2" points="84.76 142.48 99.87 158.13 115.47 142.83"/>
  </g>
  <path class="cls-2" d="M114.51,130.2l.97,12.63,27.82,11.66s6.52,1.94,8.77,15.14"/>
  <g>
    <circle class="cls-1" cx="65.71" cy="107.44" r="19.27"/>
    <path class="cls-1" d="M78.57,107.44c0-7.1-5.75-12.85-12.85-12.85"/>
  </g>
  <circle class="cls-1" cx="65.71" cy="107.44" r="25.06"/>
  <path class="cls-1" d="M90.77,65l-.05-.02c.03-.37.05-.75.05-1.13,0-6.74-5.47-12.2-12.2-12.2-4.57,0-8.56,2.52-10.65,6.25h-.04s-24.2,37.6-24.2,37.6"/>
  <path class="cls-1" d="M90.77,65.42v-13.35h-.03c.02-.23.03-.45.03-.69,0-4.04-3.28-7.32-7.32-7.32-2.74,0-5.13,1.51-6.38,3.75l-.02-.02-3.04,4.72"/>
  <g>
    <circle class="cls-1" cx="134.29" cy="107.45" r="19.27"/>
    <path class="cls-1" d="M147.13,107.45c0-7.1-5.75-12.85-12.85-12.85"/>
  </g>
  <circle class="cls-1" cx="134.29" cy="107.45" r="25.06"/>
  <path class="cls-1" d="M109.23,65l.05-.02c-.03-.37-.05-.75-.05-1.13,0-6.74,5.47-12.2,12.2-12.2,4.57,0,8.56,2.52,10.65,6.25h.04s24.2,37.62,24.2,37.62"/>
  <path class="cls-1" d="M109.23,65.42v-13.35h.03c-.02-.23-.03-.45-.03-.69,0-4.04,3.28-7.32,7.32-7.32,2.74,0,5.13,1.51,6.38,3.75h.02s3.04,4.71,3.04,4.71"/>
  <path class="cls-1" d="M100,63h0l-31.59,8.43h0c1.44-.37,2.95-.57,4.5-.57,9.86,0,17.86,8,17.86,17.86h9.23s9.23,0,9.23,0c0-9.86,8-17.86,17.86-17.86,1.56,0,3.06.2,4.5.57h0l-31.6-8.43Z"/>
  <circle class="cls-1" cx="100" cy="74.67" r="3.85"/>
  <line class="cls-1" x1="90.77" y1="107.44" x2="90.77" y2="88.71"/>
  <line class="cls-1" x1="109.23" y1="107.44" x2="109.23" y2="88.71"/>
</svg>