<?xml version="1.0" encoding="UTF-8"?>
<svg id="Icons" xmlns="http://www.w3.org/2000/svg" viewBox="0 0 200 200">
  <defs>
    <style>
      .cls-1, .cls-2 {
        stroke-linejoin: round;
      }

      .cls-1, .cls-2, .cls-3 {
        fill: none;
        stroke: #1d1d1b;
        stroke-width: 3px;
      }

      .cls-2, .cls-3 {
        stroke-linecap: round;
      }

      .cls-3 {
        stroke-miterlimit: 10;
      }
    </style>
  </defs>
  <g>
    <path class="cls-3" d="M85.83,130.81l-1.03,11.71-27.94,11.34s-6.52,1.86-8.93,15.06"/>
    <polyline class="cls-3" points="84.76 142.48 99.87 158.13 115.47 142.83"/>
  </g>
  <path class="cls-3" d="M114.51,130.2l.97,12.63,27.82,11.66s6.52,1.94,8.77,15.14"/>
  <path class="cls-2" d="M99.83,58.28c-12.36,0-22.37,10.01-22.37,22.37"/>
  <line class="cls-1" x1="99.88" y1="41.55" x2="99.88" y2="30.37"/>
  <line class="cls-1" x1="60.74" y1="80.7" x2="49.55" y2="80.7"/>
  <line class="cls-1" x1="150.21" y1="80.7" x2="139.03" y2="80.7"/>
  <line class="cls-1" x1="72.2" y1="53.02" x2="64.3" y2="45.12"/>
  <line class="cls-1" x1="135.47" y1="116.28" x2="127.56" y2="108.38"/>
  <line class="cls-1" x1="72.2" y1="108.37" x2="64.29" y2="116.29"/>
  <line class="cls-1" x1="135.47" y1="45.11" x2="127.56" y2="53.03"/>
  <path class="cls-3" d="M133.43,80.7c0-18.53-15.02-33.55-33.55-33.55s-33.55,15.02-33.55,33.55c0,15.43,10.42,28.42,24.61,32.34v19.11h3.36v4.47h11.18v-4.47h3.36v-19.11c14.18-3.92,24.61-16.9,24.61-32.34Z"/>
  <line class="cls-2" x1="90.93" y1="119.62" x2="108.83" y2="119.62"/>
  <line class="cls-2" x1="90.93" y1="125.92" x2="108.83" y2="125.92"/>
</svg>