<?xml version="1.0" encoding="UTF-8"?>
<svg id="Icons" xmlns="http://www.w3.org/2000/svg" viewBox="0 0 200 200">
  <defs>
    <style>
      .cls-1 {
        fill: none;
        stroke: #000;
        stroke-linecap: round;
        stroke-miterlimit: 10;
        stroke-width: 3px;
      }
    </style>
  </defs>
  <g>
    <path class="cls-1" d="M81.58,83.06s-3.86,4.29,1.93,9.33c0,0,4.59,14.08,16.15,14.08"/>
    <path class="cls-1" d="M117.5,83.03s3.88,4.53-1.94,9.5c0,0-4.75,14.03-16.28,13.89"/>
    <g>
      <path class="cls-1" d="M90.02,102.53l-.7,7.94-18.96,7.7s-4.43,1.26-6.06,10.22l-1.8,13.6"/>
      <polyline class="cls-1" points="89.29 110.44 99.54 121.07 110.13 110.68"/>
    </g>
    <path class="cls-1" d="M109.48,102.11l.66,8.57,18.88,7.91s4.43,1.31,5.95,10.27l1.64,13.65"/>
    <path class="cls-1" d="M80.6,82.01v-11.56s.54-10.73,12.15-10.22c0,0,1.26-2.82,9.17-2.52,0,0,14.72.3,16.58,13.84v10.97s-2.55,2.74-4.72-4.4l-8.15.11s-8.15.08-16.2-7.11c0,0-.67,5.15-4.88,11.1,0,0-.67.8-1.93.8-.03.03-2.01.24-2.01-1.02Z"/>
  </g>
  <g>
    <path class="cls-1" d="M161.87,74.95c-7.83,11.2-21.76,10.27-21.76,10.27,0,13.1,6.26,23.69,13.96,23.69s13.96-10.61,13.96-23.69c.09.03-4.01-1.92-6.15-10.27Z"/>
    <path class="cls-1" d="M139.49,109.64c-2.27-.45-3.32-2.06-3.32-2.06v-3.97c-1.82-10.61-1.82-9.95-1.79-16.18,0-11.87,8.8-21.47,19.68-21.47s19.68,9.62,19.68,21.47c0,0,.21,9.01-1.68,16.31l-.29,3.9s-1.1,1.55-3.26,2.35"/>
    <path class="cls-1" d="M160.5,106.23l1.74,5.43,17.7,6.92s4.41,1.31,5.93,10.24l1.63,13.61"/>
    <path class="cls-1" d="M145.88,111.65l7.54,6.07s1.12,1.05,2.44,0l6.35-6.07"/>
    <path class="cls-1" d="M135.58,115.69l10.31-4.03,1.74-5.43"/>
  </g>
  <g>
    <path class="cls-1" d="M30.32,86.87s-3.61,4.01,1.8,8.72c0,0,4.29,13.16,15.09,13.16"/>
    <path class="cls-1" d="M63.89,86.84s3.62,4.24-1.82,8.87c0,0-4.44,13.11-15.21,12.98"/>
    <g>
      <path class="cls-1" d="M38.21,105.05l-.65,7.42-17.72,7.19s-4.13,1.18-5.66,9.55l-1.68,12.71"/>
      <polyline class="cls-1" points="37.54 112.45 47.11 122.38 57.01 112.68"/>
    </g>
    <path class="cls-1" d="M56.39,104.67l.61,8.01,5.49,2.3"/>
    <path class="cls-1" d="M29.42,85.89v-10.8s.5-10.02,11.35-9.55c0,0,1.18-2.63,8.57-2.36,0,0,13.76.28,15.49,12.93v10.25s-2.38,2.56-4.41-4.11l-7.62.1s-7.62.08-15.14-6.64c0,0-.63,4.81-4.56,10.38,0,0-.63.75-1.8.75-.03.03-1.88.23-1.88-.95Z"/>
  </g>
</svg>