<?xml version="1.0" encoding="UTF-8"?>
<svg id="Icons" xmlns="http://www.w3.org/2000/svg" viewBox="0 0 200 200">
  <defs>
    <style>
      .cls-1 {
        stroke-linejoin: round;
      }

      .cls-1, .cls-2 {
        fill: none;
        stroke: #030405;
        stroke-linecap: round;
        stroke-width: 3px;
      }

      .cls-3 {
        fill: #030405;
      }

      .cls-2 {
        stroke-miterlimit: 10;
      }
    </style>
  </defs>
  <path class="cls-2" d="M141.54,86.69c-.37,0-.74.03-1.1.08-4.29-15.92-20.76-27.77-40.44-27.77s-36.14,11.86-40.44,27.77c-.36-.05-.73-.08-1.1-.08-4.59,0-8.31,3.72-8.31,8.31s3.72,8.31,8.31,8.31c.37,0,.74-.03,1.1-.08,4.29,15.92,20.76,27.77,40.44,27.77s36.14-11.86,40.44-27.77c.36.05.73.08,1.1.08,4.59,0,8.31-3.72,8.31-8.31s-3.72-8.31-8.31-8.31Z"/>
  <path class="cls-1" d="M78.22,87.25s10.83,3.94,13.13-19.08c0,0-2.24,18.05,12.67,19.69v-9.85s7.68,12.47,17.86,9.85c0,0-2.27-4.29-2.29-6.9"/>
  <path class="cls-1" d="M113.5,114.04c-3.49,3.39-8.25,5.47-13.5,5.47s-9.83-2.01-13.3-5.28"/>
  <circle class="cls-3" cx="87.02" cy="97.69" r="3.25"/>
  <circle class="cls-3" cx="113.29" cy="97.69" r="3.25"/>
</svg>