<?xml version="1.0" encoding="UTF-8"?>
<svg id="Icons" xmlns="http://www.w3.org/2000/svg" viewBox="0 0 200 200">
  <defs>
    <style>
      .cls-1 {
        fill: none;
        stroke: #010202;
        stroke-linecap: round;
        stroke-miterlimit: 10;
        stroke-width: 3px;
      }
    </style>
  </defs>
  <polygon class="cls-1" points="63.99 120.65 73.06 139.05 93.34 142 78.67 156.32 82.13 176.53 63.99 166.99 45.85 176.53 49.31 156.32 34.64 142 54.92 139.05 63.99 120.65"/>
  <polygon class="cls-1" points="140.68 118.46 147.87 133.05 163.96 135.39 152.32 146.74 155.07 162.78 140.68 155.21 126.3 162.78 129.04 146.74 117.4 135.39 133.49 133.05 140.68 118.46"/>
  <g>
    <path class="cls-1" d="M39.21,57.8s-5.41,6.01,2.7,13.07c0,0,6.42,19.71,22.6,19.71"/>
    <path class="cls-1" d="M89.5,57.77s5.43,6.35-2.72,13.29c0,0-6.65,19.64-22.79,19.45"/>
    <g>
      <path class="cls-1" d="M51.03,85.06l-.98,11.12-26.55,10.78s-6.2,1.76-8.49,14.31l-2.51,19.03"/>
      <polyline class="cls-1" points="50.01 96.14 64.36 111.02 79.19 96.48"/>
    </g>
    <path class="cls-1" d="M78.27,84.48l.92,12,26.44,11.08s6.2,1.84,8.34,14.38l2.29,19.11"/>
    <path class="cls-1" d="M37.85,56.34v-16.18s.75-15.02,17.01-14.31c0,0,1.76-3.94,12.84-3.53,0,0,20.61.41,23.21,19.38v15.36s-3.57,3.83-6.61-6.16l-11.42.15s-11.42.11-22.68-9.95c0,0-.94,7.21-6.83,15.55,0,0-.94,1.13-2.7,1.13-.05.02-2.82.33-2.82-1.44Z"/>
  </g>
  <g>
    <path class="cls-1" d="M151.61,46.45c-10.97,15.68-30.47,14.37-30.47,14.37,0,18.34,8.76,33.16,19.54,33.16s19.54-14.86,19.54-33.16c.12.05-5.61-2.69-8.61-14.37Z"/>
    <path class="cls-1" d="M120.28,95.01c-3.18-.64-4.64-2.88-4.64-2.88v-5.55c-2.55-14.86-2.55-13.93-2.51-22.65,0-16.62,12.31-30.05,27.55-30.05s27.55,13.47,27.55,30.05c0,0,.3,12.61-2.36,22.83l-.41,5.46s-1.53,2.17-4.57,3.29"/>
    <path class="cls-1" d="M149.7,90.24l2.43,7.6,24.78,9.69s6.18,1.83,8.31,14.33l2.28,19.05"/>
    <path class="cls-1" d="M129.24,97.84l10.56,8.5s1.57,1.47,3.42,0l8.89-8.5"/>
    <path class="cls-1" d="M114.81,103.48l14.43-5.65,2.43-7.6"/>
  </g>
</svg>