<?xml version="1.0" encoding="UTF-8"?>
<svg id="Icons" xmlns="http://www.w3.org/2000/svg" viewBox="0 0 200 200">
  <defs>
    <style>
      .cls-1 {
        fill: none;
        stroke: #010202;
        stroke-linecap: round;
        stroke-miterlimit: 10;
        stroke-width: 3px;
      }
    </style>
  </defs>
  <g>
    <polygon class="cls-1" points="132.85 109.32 140.48 124.81 157.56 127.29 145.21 139.35 148.12 156.38 132.85 148.34 117.57 156.38 120.49 139.35 108.13 127.29 125.21 124.81 132.85 109.32"/>
    <circle class="cls-1" cx="132.85" cy="132.85" r="35"/>
  </g>
  <g>
    <path class="cls-1" d="M67.39,66.6s-4.43,4.92,2.22,10.7c0,0,5.26,16.15,18.52,16.15"/>
    <path class="cls-1" d="M108.58,66.57s4.44,5.2-2.23,10.89c0,0-5.45,16.09-18.67,15.93"/>
    <g>
      <path class="cls-1" d="M77.07,88.92l-.8,9.11-21.75,8.83s-5.07,1.45-6.95,11.72l-2.06,15.6"/>
      <polyline class="cls-1" points="76.23 98.01 87.99 110.2 100.14 98.29"/>
    </g>
    <path class="cls-1" d="M99.38,88.46l.75,9.83,6.59,2.76"/>
    <path class="cls-1" d="M66.27,65.4v-13.26s.61-12.31,13.93-11.72c0,0,1.45-3.23,10.52-2.9,0,0,16.89.33,19.01,15.87v12.58s-2.92,3.14-5.42-5.04l-9.35.12s-9.35.09-18.58-8.15c0,0-.77,5.91-5.6,12.73,0,0-.77.93-2.22.93-.03.04-2.3.29-2.3-1.16Z"/>
  </g>
</svg>