<?xml version="1.0" encoding="UTF-8"?>
<svg id="Icons" xmlns="http://www.w3.org/2000/svg" viewBox="0 0 200 200">
  <defs>
    <style>
      .cls-1, .cls-2 {
        fill: none;
        stroke: #010202;
        stroke-miterlimit: 10;
        stroke-width: 3px;
      }

      .cls-2 {
        stroke-linecap: round;
      }
    </style>
  </defs>
  <path class="cls-2" d="M84.26,59.51c-5.99,1.56-9.84,3.99-9.84,6.72"/>
  <path class="cls-2" d="M125.54,66.23c0-4.7-11.44-8.52-25.56-8.52-3.02,0-5.92.18-8.61.5"/>
  <line class="cls-1" x1="74.43" y1="66.2" x2="74.43" y2="81.95"/>
  <line class="cls-1" x1="125.54" y1="66.23" x2="125.54" y2="82.33"/>
  <polyline class="cls-2" points="70.07 64.97 68.59 64.33 59.11 60.22 100 42.5 140.89 60.22 125.56 66.88"/>
  <line class="cls-1" x1="134.23" y1="63.11" x2="134.23" y2="83.41"/>
  <path class="cls-1" d="M137.54,97h-6.82v-10.18c0-1.88,1.53-3.41,3.41-3.41s3.41,1.53,3.41,3.41v10.18Z"/>
  <g>
    <path class="cls-2" d="M78.02,89.77s-4.72,5.25,2.37,11.41c0,0,5.61,17.22,19.74,17.22"/>
    <path class="cls-2" d="M121.95,89.74s4.74,5.54-2.37,11.61c0,0-5.81,17.15-19.91,16.99"/>
    <g>
      <path class="cls-2" d="M88.34,113.58l-.85,9.72-23.19,9.41s-5.41,1.54-7.41,12.5l-2.2,16.63"/>
      <polyline class="cls-2" points="87.46 123.26 99.99 136.26 112.94 123.56"/>
    </g>
    <path class="cls-2" d="M112.14,113.08l.81,10.48,23.09,9.68s5.41,1.61,7.28,12.57l2,16.7"/>
    <path class="cls-2" d="M87.62,75c-.06.4-.99,6.71-5.96,13.74,0,0-.82.99-2.37.99-.03.04-2.46.31-2.46-1.24v-9.65"/>
    <path class="cls-1" d="M123.18,78.85v10.25s-3.11,3.34-5.78-5.38l-9.97.13s-9.98-.09-19.81-8.86"/>
  </g>
  <path class="cls-1" d="M76.83,86.04c-.32-.21-.81-.64-.81-.64-1.02-.92-1.58-1.91-1.58-2.95,0-4.7,11.44-8.52,25.56-8.52s25.56,3.81,25.56,8.52c0,1.28-.85,2.5-2.38,3.6"/>
</svg>