<?xml version="1.0" encoding="UTF-8"?>
<svg id="Icons" xmlns="http://www.w3.org/2000/svg" viewBox="0 0 200 200">
  <defs>
    <style>
      .cls-1 {
        stroke: #010202;
      }

      .cls-1, .cls-2 {
        stroke-linecap: round;
      }

      .cls-1, .cls-2, .cls-3 {
        fill: none;
        stroke-miterlimit: 10;
        stroke-width: 3px;
      }

      .cls-2, .cls-3 {
        stroke: #000;
      }
    </style>
  </defs>
  <g>
    <path class="cls-1" d="M48.52,139.71s-2.98,3.31,1.49,7.19c0,0,3.53,10.85,12.44,10.85"/>
    <path class="cls-1" d="M76.19,139.69s2.99,3.49-1.5,7.31c0,0-3.66,10.81-12.54,10.7"/>
    <g>
      <path class="cls-1" d="M55.02,154.71l-.54,6.12-14.61,5.93s-3.41.97-4.67,7.87"/>
      <polyline class="cls-1" points="54.46 160.8 62.36 168.99 70.52 160.99"/>
    </g>
    <path class="cls-1" d="M70.01,154.39l.51,6.6,14.55,6.1s3.41,1.01,4.59,7.91"/>
    <path class="cls-1" d="M47.77,138.9v-8.9s.41-8.27,9.36-7.87c0,0,.97-2.17,7.07-1.94,0,0,11.34.23,12.77,10.66v8.45s-1.96,2.11-3.64-3.39l-6.28.08s-6.28.06-12.48-5.48c0,0-.52,3.97-3.76,8.56,0,0-.52.62-1.49.62-.03.01-1.55.18-1.55-.79Z"/>
  </g>
  <path class="cls-2" d="M81.44,43.54s-3.97,4.41,1.98,9.59c0,0,4.71,14.47,16.59,14.47"/>
  <path class="cls-2" d="M118.36,43.51s3.98,4.66-2,9.76c0,0-4.88,14.42-16.73,14.28"/>
  <g>
    <path class="cls-2" d="M90.12,63.55l-.72,8.16-19.49,7.91s-4.55,1.3-6.23,10.5"/>
    <polyline class="cls-2" points="89.37 71.68 99.91 82.6 110.79 71.93"/>
  </g>
  <path class="cls-2" d="M110.12,63.12l.67,8.81,19.4,8.13s4.55,1.35,6.12,10.56"/>
  <path class="cls-2" d="M80.44,42.47v-11.88s.55-11.02,12.49-10.5c0,0,1.3-2.89,9.43-2.59,0,0,15.13.3,17.03,14.22v11.27s-2.62,2.81-4.85-4.52l-8.38.11s-8.38.08-16.65-7.3c0,0-.69,5.29-5.02,11.41,0,0-.69.83-1.98.83-.03.03-2.07.25-2.07-1.05Z"/>
  <polyline class="cls-3" points="62.63 113.78 62.63 100.78 137.38 100.78 137.38 113.78"/>
  <line class="cls-3" x1="100.08" y1="100.76" x2="100.08" y2="88.22"/>
  <path class="cls-1" d="M144.16,127.57c-6.8,9.73-18.9,8.91-18.9,8.91,0,11.38,5.43,20.57,12.12,20.57s12.12-9.22,12.12-20.57c.08.03-3.48-1.67-5.34-8.91Z"/>
  <path class="cls-1" d="M124.73,157.7c-1.98-.39-2.88-1.79-2.88-1.79v-3.45c-1.58-9.21-1.58-8.63-1.56-14.04,0-10.31,7.64-18.65,17.09-18.65s17.09,8.36,17.09,18.65c0,0,.19,7.83-1.46,14.16l-.26,3.39s-.95,1.34-2.83,2.05"/>
  <path class="cls-1" d="M142.97,154.74l1.51,4.71,15.37,6.01s3.83,1.14,5.15,8.89"/>
  <path class="cls-1" d="M130.28,159.45l6.55,5.28s.97.91,2.12,0l5.51-5.28"/>
  <path class="cls-1" d="M109.75,174.36c1.32-7.76,5.15-8.89,5.15-8.89l15.37-6.01,1.51-4.71"/>
</svg>