<?xml version="1.0" encoding="UTF-8"?>
<svg id="Icons" xmlns="http://www.w3.org/2000/svg" viewBox="0 0 200.2 200.2">
  <defs>
    <style>
      .cls-1 {
        stroke: #010202;
      }

      .cls-1, .cls-2 {
        fill: none;
        stroke-linecap: round;
        stroke-miterlimit: 10;
        stroke-width: 3px;
      }

      .cls-2 {
        stroke: #000;
      }
    </style>
  </defs>
  <g>
    <path class="cls-1" d="M54.46,83.56c0-24.64,19.97-44.61,44.61-44.61s44.61,19.97,44.61,44.61"/>
    <line class="cls-1" x1="100" y1="38.96" x2="99.71" y2="92.82"/>
    <line class="cls-1" x1="54.46" y1="83.56" x2="143.68" y2="83.56"/>
    <path class="cls-1" d="M57.44,99.63c-1.93-4.99-2.98-10.4-2.98-16.07,0-24.64,19.97-44.61,44.61-44.61s44.61,19.97,44.61,44.61c0,6-1.19,11.73-3.34,16.96"/>
    <path class="cls-1" d="M99.08,38.95c-12.88,6-22.23,23.71-22.23,44.61,0,8.19,1.43,15.89,3.95,22.59"/>
    <path class="cls-1" d="M99.08,38.95c12.88,6,22.23,23.71,22.23,44.61,0,8.47-1.53,16.41-4.21,23.27"/>
    <path class="cls-1" d="M66.62,52.95c9.64,5.29,20.69,8.3,32.46,8.3s22.82-3.01,32.46-8.3"/>
  </g>
  <g>
    <g>
      <path class="cls-2" d="M87.77,114.16s-2.44,2.71,1.22,5.9c0,0,2.9,8.9,10.2,8.9"/>
      <path class="cls-2" d="M110.46,114.14s2.45,2.86-1.23,6c0,0-3,8.86-10.29,8.78"/>
      <g>
        <path class="cls-2" d="M93.1,126.46l-.44,5.02-11.98,4.86s-2.8.8-3.83,6.46l-1.14,8.59"/>
        <polyline class="cls-2" points="92.64 131.46 99.12 138.17 105.81 131.61"/>
      </g>
      <path class="cls-2" d="M105.39,126.2l.41,5.42,11.93,5s2.8.83,3.76,6.49l1.03,8.62"/>
      <path class="cls-2" d="M87.15,113.5v-7.3s.34-6.78,7.68-6.46c0,0,.8-1.78,5.79-1.59,0,0,9.3.19,10.47,8.74v6.93s-1.61,1.73-2.98-2.78l-5.15.07s-5.15.05-10.23-4.49c0,0-.42,3.25-3.08,7.01,0,0-.42.51-1.22.51-.02.02-1.27.15-1.27-.64Z"/>
    </g>
    <g>
      <path class="cls-2" d="M138.49,109.03c-4.95,7.08-13.75,6.49-13.75,6.49,0,8.28,3.95,14.96,8.82,14.96s8.82-6.71,8.82-14.96c.05.02-2.53-1.22-3.88-6.49Z"/>
      <path class="cls-2" d="M124.35,130.95c-1.44-.29-2.09-1.3-2.09-1.3v-2.51c-1.15-6.71-1.15-6.28-1.13-10.22,0-7.5,5.56-13.56,12.43-13.56s12.43,6.08,12.43,13.56c0,0,.14,5.69-1.06,10.3l-.19,2.47s-.69.98-2.06,1.49"/>
      <path class="cls-2" d="M137.63,128.79l1.1,3.43,11.18,4.37s2.79.83,3.75,6.47l1.03,8.6"/>
      <path class="cls-2" d="M128.39,132.22l4.76,3.84s.71.66,1.54,0l4.01-3.84"/>
      <path class="cls-2" d="M121.88,134.77l6.51-2.55,1.1-3.43"/>
    </g>
    <g>
      <path class="cls-2" d="M55.39,116.56s-2.28,2.53,1.14,5.51c0,0,2.71,8.31,9.53,8.31"/>
      <path class="cls-2" d="M76.59,116.55s2.29,2.68-1.15,5.61c0,0-2.8,8.28-9.61,8.2"/>
      <g>
        <path class="cls-2" d="M60.37,128.05l-.41,4.69-11.19,4.54s-2.61.74-3.58,6.03l-1.06,8.03"/>
        <polyline class="cls-2" points="59.94 132.73 65.99 139 72.25 132.87"/>
      </g>
      <path class="cls-2" d="M71.86,127.81l.39,5.06,3.47,1.45"/>
      <path class="cls-2" d="M54.81,115.95v-6.82s.32-6.33,7.17-6.03c0,0,.74-1.66,5.41-1.49,0,0,8.69.17,9.78,8.17v6.48s-1.5,1.61-2.79-2.6l-4.81.06s-4.81.05-9.56-4.2c0,0-.4,3.04-2.88,6.55,0,0-.4.47-1.14.47-.02.02-1.19.14-1.19-.6Z"/>
    </g>
  </g>
</svg>