<?xml version="1.0" encoding="UTF-8"?>
<svg id="Icons" xmlns="http://www.w3.org/2000/svg" viewBox="0 0 200 200">
  <defs>
    <style>
      .cls-1 {
        fill: none;
        stroke: #020304;
        stroke-linecap: round;
        stroke-miterlimit: 10;
        stroke-width: 3px;
      }
    </style>
  </defs>
  <path class="cls-1" d="M44.36,96.72s-3.92,4.35,1.96,9.47c0,0,4.65,14.29,16.39,14.29"/>
  <path class="cls-1" d="M80.82,96.69s3.93,4.6-1.97,9.64c0,0-4.82,14.24-16.52,14.1"/>
  <g>
    <path class="cls-1" d="M52.93,116.47l-.71,8.06-19.25,7.81s-4.49,1.28-6.15,10.37l-1.82,13.81"/>
    <polyline class="cls-1" points="52.2 124.51 62.59 135.3 73.35 124.76"/>
  </g>
  <path class="cls-1" d="M72.67,116.06l.66,8.7,19.16,8.04s4.49,1.34,6.04,10.42l1.66,13.86"/>
  <path class="cls-1" d="M43.38,95.65v-11.73s.54-10.89,12.33-10.37c0,0,1.28-2.86,9.31-2.57,0,0,14.95.29,16.82,14.04v11.13s-2.58,2.78-4.8-4.46l-8.27.11s-8.27.08-16.44-7.21c0,0-.68,5.23-4.96,11.27,0,0-.68.82-1.96.82-.02.04-2.03.26-2.03-1.03Z"/>
  <polyline class="cls-1" points="50 64.08 50 48.49 174.67 48.49 174.67 137.5 107 137.5"/>
</svg>