<?xml version="1.0" encoding="UTF-8"?>
<svg id="Icons" xmlns="http://www.w3.org/2000/svg" viewBox="0 0 200 200">
  <defs>
    <style>
      .cls-1 {
        stroke-linejoin: round;
      }

      .cls-1, .cls-2, .cls-3 {
        fill: none;
        stroke-linecap: round;
        stroke-width: 3px;
      }

      .cls-1, .cls-3 {
        stroke: #030405;
      }

      .cls-2 {
        stroke: #010202;
      }

      .cls-2, .cls-3 {
        stroke-miterlimit: 10;
      }
    </style>
  </defs>
  <path class="cls-3" d="M32.34,92.09s-3.4,3.78,1.71,8.22c0,0,4.04,12.41,14.23,12.41"/>
  <path class="cls-3" d="M64,92.06s3.41,4-1.71,8.37c0,0-4.19,12.37-14.35,12.24"/>
  <g>
    <path class="cls-3" d="M39.78,109.24l-.61,7-16.72,6.79s-3.9,1.11-5.34,9.01"/>
    <polyline class="cls-3" points="39.14 116.23 48.17 125.59 57.51 116.44"/>
  </g>
  <path class="cls-1" d="M56.93,108.89l.58,7.55,7.39.98,22.44-16.4c5.88-8.96,13.26-8.08,13.26-8.08l8.02-6.13c1.72-1.28,2.51-1.07,3.33-.39.73.61.93,1.89.13,2.78l-9.38,9.26,4.3-.39c.93-.22,1.97.49,2.21,1.42.27,1.06-.54,2.21-1.47,2.43l-12.54,3.25-23.02,28.26"/>
  <path class="cls-3" d="M31.49,91.16v-10.19s.47-9.46,10.71-9.01c0,0,1.11-2.48,8.09-2.23,0,0,12.98.25,14.61,12.2v9.67s-2.24,2.41-4.17-3.87l-7.19.09s-7.19.07-14.28-6.26c0,0-.59,4.54-4.3,9.78,0,0-.59.71-1.71.71-.02.04-1.76.23-1.76-.89Z"/>
  <polyline class="cls-3" points="37.43 64.84 37.43 47.25 162.5 47.42 162.5 125 153.67 125"/>
  <g>
    <path class="cls-2" d="M93.89,149.43l-.52,6.18-14.17,5.76s-3.31.94-4.53,7.64"/>
    <path class="cls-2" d="M108.44,150.25l.45,5.81,14.16,5.63s3.31.98,4.45,7.68"/>
    <path class="cls-2" d="M101.11,152.69c-14-3.45-14.26-16.23-14.26-16.23-.03.01,0-1.17,0-2.11v-8.64s.4-8.02,9.08-7.64c0,0,.94-2.1,6.86-1.88,0,0,11,.22,12.39,10.35l.19,10.36c-.59,15.26-14.27,15.8-14.27,15.8Z"/>
  </g>
  <g>
    <path class="cls-2" d="M124.86,154.99c-1.7-.34-2.48-1.54-2.48-1.54v-2.96c-1.36-7.93-1.36-7.44-1.34-12.09,0-8.87,6.57-16.04,14.71-16.04s14.71,7.19,14.71,16.04c0,0,.16,6.73-1.26,12.19l-.22,2.92s-.82,1.16-2.44,1.76c-11.45,4.58-21.68-.27-21.68-.27Z"/>
    <path class="cls-2" d="M141.87,156.5l13.23,5.17s3.3.98,4.44,7.65"/>
  </g>
</svg>