<?xml version="1.0" encoding="UTF-8"?>
<svg id="Icons" xmlns="http://www.w3.org/2000/svg" viewBox="0 0 200 200">
  <defs>
    <style>
      .cls-1 {
        fill: none;
        stroke: #000;
        stroke-linecap: round;
        stroke-miterlimit: 10;
        stroke-width: 3px;
      }
    </style>
  </defs>
  <path class="cls-1" d="M73.51,74.99s-5.69,6.32,2.85,13.75c0,0,6.76,20.75,23.79,20.75"/>
  <path class="cls-1" d="M126.44,74.94s5.71,6.68-2.86,13.99c0,0-7,20.67-23.99,20.47"/>
  <g>
    <path class="cls-1" d="M85.95,103.67l-1.03,11.71-27.94,11.34s-6.52,1.86-8.93,15.06l-2.65,20.04"/>
    <polyline class="cls-1" points="84.88 115.34 99.98 130.99 115.59 115.69"/>
  </g>
  <path class="cls-1" d="M114.62,103.06l.97,12.63,27.82,11.66s6.52,1.94,8.77,15.14l2.41,20.12"/>
  <path class="cls-1" d="M72.08,73.45v-17.03s.79-15.81,17.9-15.06c0,0,1.86-4.15,13.52-3.72,0,0,21.7.43,24.42,20.39v16.16s-3.75,4.03-6.96-6.48l-12.01.16s-12.01.12-23.87-10.47c0,0-.99,7.59-7.19,16.36,0,0-.99,1.19-2.85,1.19-.04.04-2.96.36-2.96-1.5Z"/>
</svg>