<?xml version="1.0" encoding="UTF-8"?>
<svg id="Icons" xmlns="http://www.w3.org/2000/svg" viewBox="0 0 200 200">
  <defs>
    <style>
      .cls-1 {
        fill: none;
        stroke: #010202;
        stroke-linecap: round;
        stroke-miterlimit: 10;
        stroke-width: 3px;
      }
    </style>
  </defs>
  <g>
    <polyline class="cls-1" points="135.62 51.84 142.82 36.27 156.67 70.29 142.82 70.29"/>
    <path class="cls-1" d="M135.63,51.84c-9.96-7.21-22.21-11.46-35.45-11.46-33.43,0-60.53,27.1-60.53,60.53,0,4.91.58,9.68,1.69,14.25"/>
  </g>
  <g>
    <polyline class="cls-1" points="65.99 148.16 58.8 163.73 44.95 129.71 58.8 129.71"/>
    <path class="cls-1" d="M65.99,148.16c9.96,7.21,22.21,11.46,35.45,11.46,33.43,0,60.53-27.1,60.53-60.53,0-4.91-.58-9.68-1.69-14.25"/>
  </g>
  <path class="cls-1" d="M84.1,79.93s-3.45,3.84,1.73,8.35c0,0,4.1,12.6,14.44,12.6"/>
  <path class="cls-1" d="M116.23,79.91s3.47,4.06-1.74,8.49c0,0-4.25,12.55-14.57,12.43"/>
  <g>
    <path class="cls-1" d="M91.65,97.35l-.63,7.11-16.96,6.88s-3.96,1.13-5.42,9.14l-1.61,12.17"/>
    <polyline class="cls-1" points="91 104.43 100.17 113.94 109.65 104.65"/>
  </g>
  <path class="cls-1" d="M109.06,96.98l.59,7.67,16.89,7.08s3.96,1.18,5.32,9.19l1.46,12.22"/>
  <path class="cls-1" d="M83.23,79v-10.35s.48-9.6,10.87-9.14c0,0,1.13-2.52,8.21-2.26,0,0,13.17.26,14.83,12.38v9.81s-2.28,2.45-4.23-3.93l-7.29.1s-7.29.07-14.49-6.36c0,0-.6,4.61-4.37,9.93,0,0-.6.72-1.73.72-.02.03-1.8.22-1.8-.9Z"/>
</svg>