<?xml version="1.0" encoding="UTF-8"?>
<svg id="Icons" xmlns="http://www.w3.org/2000/svg" viewBox="0 0 200.2 200.2">
  <defs>
    <style>
      .cls-1 {
        stroke-linejoin: round;
      }

      .cls-1, .cls-2, .cls-3 {
        fill: none;
        stroke: #030405;
        stroke-width: 3px;
      }

      .cls-1, .cls-3 {
        stroke-linecap: round;
      }

      .cls-2, .cls-3 {
        stroke-miterlimit: 10;
      }
    </style>
  </defs>
  <path class="cls-2" d="M50.35,74.3v-21.25c0-8.31,6.74-15.06,15.06-15.06h92.18c8.31,0,15.06,6.74,15.06,15.06v51.42c0,8.31-6.74,15.06-22.06,15.06h-59.38"/>
  <line class="cls-2" x1="51.18" y1="48.67" x2="172.33" y2="48.67"/>
  <line class="cls-2" x1="110.2" y1="109.33" x2="172.64" y2="109.33"/>
  <line class="cls-2" x1="62" y1="109.33" x2="75.88" y2="109.33"/>
  <line class="cls-2" x1="70.72" y1="37.99" x2="70.72" y2="48.67"/>
  <line class="cls-2" x1="91.1" y1="37.99" x2="91.1" y2="48.67"/>
  <line class="cls-2" x1="111.49" y1="37.99" x2="111.49" y2="48.67"/>
  <line class="cls-2" x1="131.87" y1="37.99" x2="131.87" y2="48.67"/>
  <line class="cls-2" x1="152.25" y1="37.99" x2="152.25" y2="48.67"/>
  <line class="cls-2" x1="111.49" y1="109.33" x2="111.49" y2="120.01"/>
  <line class="cls-2" x1="131.87" y1="109.33" x2="131.87" y2="120.01"/>
  <line class="cls-2" x1="152.25" y1="109.33" x2="152.25" y2="120.01"/>
  <polygon class="cls-2" points="101.7 63.47 101.7 90.67 126.15 77.21 106.11 65.95 101.7 63.47"/>
  <g>
    <path class="cls-3" d="M26.21,101.18s-3.4,3.78,1.71,8.22c0,0,4.04,12.41,14.23,12.41"/>
    <path class="cls-3" d="M57.87,101.15s3.41,4-1.71,8.37c0,0-4.19,12.37-14.35,12.24"/>
    <g>
      <path class="cls-3" d="M33.65,118.33l-.61,7-16.72,6.79s-3.9,1.11-5.34,9.01"/>
      <polyline class="cls-3" points="33.01 125.32 42.04 134.68 51.38 125.53"/>
    </g>
    <path class="cls-1" d="M50.8,117.98l.58,7.55,7.39.98,22.44-16.4c5.88-8.96,13.26-8.08,13.26-8.08l8.02-6.13c1.72-1.28,2.51-1.07,3.33-.39.73.61.93,1.89.13,2.78l-9.38,9.26,4.3-.39c.93-.22,1.97.49,2.21,1.42.27,1.06-.54,2.21-1.47,2.43l-12.54,3.25-23.02,28.26"/>
    <path class="cls-3" d="M25.36,100.25v-10.19s.47-9.46,10.71-9.01c0,0,1.11-2.48,8.09-2.23,0,0,12.98.25,14.61,12.2v9.67s-2.24,2.41-4.17-3.87l-7.19.09s-7.19.07-14.28-6.26c0,0-.59,4.54-4.3,9.78,0,0-.59.71-1.71.71-.02.04-1.76.23-1.76-.89Z"/>
  </g>
</svg>