<?xml version="1.0" encoding="UTF-8"?>
<svg id="Icons" xmlns="http://www.w3.org/2000/svg" viewBox="0 0 200 200">
  <defs>
    <style>
      .cls-1, .cls-2 {
        fill: none;
        stroke: #010202;
        stroke-miterlimit: 10;
        stroke-width: 3px;
      }

      .cls-2 {
        stroke-linecap: round;
      }
    </style>
  </defs>
  <polyline class="cls-1" points="75.17 90.43 77.74 78.65 55.5 56.94 86.25 52.46 100 24.57 113.75 52.46 144.5 56.94 122.26 78.65 126.03 97.44"/>
  <polyline class="cls-1" points="114.23 102.32 100 94.83 94.61 97.67"/>
  <g>
    <path class="cls-2" d="M59.08,118.55s-3.64,4.05,1.82,8.8c0,0,4.32,13.27,15.21,13.27"/>
    <path class="cls-2" d="M92.93,118.53s3.66,4.27-1.83,8.95c0,0-4.48,13.22-15.34,13.09"/>
    <g>
      <path class="cls-2" d="M67.03,136.91l-.66,7.49-17.87,7.26s-4.17,1.18-5.72,9.63l-1.69,12.81"/>
      <polyline class="cls-2" points="66.35 144.37 76.01 154.38 85.99 144.59"/>
    </g>
    <path class="cls-2" d="M85.37,136.52l.62,8.08,17.8,7.46s4.17,1.24,5.61,9.68l1.54,12.87"/>
    <path class="cls-2" d="M58.16,117.57v-10.89s.5-10.11,11.45-9.63c0,0,1.18-2.65,8.64-2.38,0,0,13.87.28,15.63,13.05v10.34s-2.4,2.58-4.45-4.15l-7.69.1s-7.69.07-15.27-6.7c0,0-.63,4.85-4.6,10.47,0,0-.63.76-1.82.76-.03.01-1.9.22-1.9-.97Z"/>
  </g>
  <g>
    <path class="cls-2" d="M134.74,110.91c-7.39,10.56-20.51,9.67-20.51,9.67,0,12.35,5.9,22.32,13.15,22.32s13.15-10,13.15-22.32c.08.03-3.78-1.81-5.8-9.67Z"/>
    <path class="cls-2" d="M113.65,143.61c-2.14-.43-3.12-1.94-3.12-1.94v-3.74c-1.72-10-1.72-9.38-1.69-15.25,0-11.19,8.29-20.23,18.55-20.23s18.55,9.07,18.55,20.23c0,0,.2,8.49-1.59,15.37l-.28,3.68s-1.03,1.46-3.08,2.21"/>
    <path class="cls-2" d="M133.46,140.39l1.64,5.12,16.68,6.52s4.16,1.23,5.59,9.65l1.53,12.82"/>
    <path class="cls-2" d="M119.68,145.51l7.11,5.72s1.06.99,2.3,0l5.98-5.72"/>
    <path class="cls-2" d="M109.97,149.31l9.71-3.8,1.64-5.12"/>
  </g>
</svg>