<?xml version="1.0" encoding="UTF-8"?>
<svg id="Icons" xmlns="http://www.w3.org/2000/svg" viewBox="0 0 200 200">
  <defs>
    <style>
      .cls-1, .cls-2 {
        fill: none;
        stroke: #010202;
        stroke-miterlimit: 10;
        stroke-width: 3px;
      }

      .cls-2 {
        stroke-linecap: round;
      }
    </style>
  </defs>
  <g>
    <circle class="cls-2" cx="133.57" cy="138.97" r="28.93"/>
    <polygon class="cls-2" points="133.57 117.55 139.82 130.22 153.79 132.26 143.68 142.12 146.07 156.05 133.57 149.47 121.07 156.05 123.45 142.12 113.34 132.26 127.32 130.22 133.57 117.55"/>
    <polyline class="cls-2" points="125.84 110.94 114.96 100.07 114.96 62.5 152.17 62.5 152.17 100.07 141.29 110.94"/>
    <line class="cls-1" x1="123.23" y1="108.34" x2="123.23" y2="70.77"/>
    <line class="cls-1" x1="143.9" y1="108.34" x2="143.9" y2="70.77"/>
  </g>
  <g>
    <path class="cls-2" d="M52,64.9s-5.47,6.07,2.74,13.21c0,0,6.49,19.93,22.85,19.93"/>
    <path class="cls-2" d="M102.84,64.86s5.48,6.42-2.75,13.44c0,0-6.72,19.85-23.04,19.66"/>
    <g>
      <path class="cls-2" d="M63.95,92.45l-.99,11.25-26.84,10.89s-6.26,1.79-8.58,14.47l-2.55,19.25"/>
      <polyline class="cls-2" points="62.92 103.66 77.43 118.7 92.42 104"/>
    </g>
    <path class="cls-2" d="M91.49,91.87l.93,12.13,18.02,7.55"/>
    <path class="cls-2" d="M50.63,63.42v-16.37s.76-15.19,17.19-14.47c0,0,1.79-3.99,12.99-3.57,0,0,20.84.41,23.46,19.59v15.52s-3.6,3.87-6.69-6.22l-11.54.15s-11.54.12-22.93-10.06c0,0-.95,7.29-6.91,15.71,0,0-.95,1.14-2.74,1.14-.04.05-2.84.36-2.84-1.43Z"/>
  </g>
</svg>