<?xml version="1.0" encoding="UTF-8"?>
<svg id="Icons" xmlns="http://www.w3.org/2000/svg" viewBox="0 0 200 200">
  <defs>
    <style>
      .cls-1, .cls-2 {
        stroke: #030405;
        stroke-linejoin: round;
      }

      .cls-1, .cls-2, .cls-3 {
        fill: none;
        stroke-width: 3px;
      }

      .cls-1, .cls-3 {
        stroke-linecap: round;
      }

      .cls-3 {
        stroke: #020304;
        stroke-miterlimit: 10;
      }
    </style>
  </defs>
  <g>
    <circle class="cls-1" cx="126.17" cy="130.18" r="35"/>
    <line class="cls-2" x1="107.63" y1="148.71" x2="144.71" y2="111.64"/>
  </g>
  <g>
    <path class="cls-3" d="M60.71,63.93s-4.43,4.92,2.22,10.7c0,0,5.26,16.15,18.52,16.15"/>
    <path class="cls-3" d="M101.9,63.9s4.44,5.2-2.23,10.89c0,0-5.45,16.09-18.67,15.93"/>
    <g>
      <path class="cls-3" d="M70.39,86.25l-.8,9.11-21.75,8.83s-5.07,1.45-6.95,11.72l-2.06,15.6"/>
      <polyline class="cls-3" points="69.56 95.34 81.31 107.53 93.46 95.62"/>
    </g>
    <path class="cls-3" d="M92.7,85.79l.75,9.83,6.59,2.76"/>
    <path class="cls-3" d="M59.6,62.73v-13.26s.61-12.31,13.93-11.72c0,0,1.45-3.23,10.52-2.9,0,0,16.89.33,19.01,15.87v12.58s-2.92,3.14-5.42-5.04l-9.35.12s-9.35.09-18.58-8.15c0,0-.77,5.91-5.6,12.73,0,0-.77.93-2.22.93-.02.04-2.29.29-2.29-1.16Z"/>
  </g>
</svg>