<?xml version="1.0" encoding="UTF-8"?>
<svg id="Icons" xmlns="http://www.w3.org/2000/svg" viewBox="0 0 200 200">
  <defs>
    <style>
      .cls-1 {
        fill: none;
        stroke: #010202;
        stroke-linecap: round;
        stroke-miterlimit: 10;
        stroke-width: 3px;
      }
    </style>
  </defs>
  <rect class="cls-1" x="37.5" y="127.33" width="125" height="10.17"/>
  <path class="cls-1" d="M116.95,57.49s3.7,4.11-1.85,8.95c0,0-4.4,13.5-15.48,13.5"/>
  <path class="cls-1" d="M82.51,57.46s-3.71,4.35,1.86,9.1c0,0,4.55,13.45,15.61,13.32"/>
  <g>
    <path class="cls-1" d="M108.85,76.15l.67,7.62,18.18,7.38s4.24,1.21,5.81,9.8l3.99,26.39"/>
    <polyline class="cls-1" points="109.55 83.74 99.73 93.93 89.57 83.97"/>
  </g>
  <path class="cls-1" d="M90.2,75.76l-.63,8.22-18.1,7.59s-4.24,1.26-5.71,9.85l-3.27,25.92"/>
  <path class="cls-1" d="M117.88,56.49v-11.09s-.51-10.29-11.64-9.8c0,0-1.21-2.7-8.8-2.42,0,0-14.12.28-15.89,13.26v10.51s2.44,2.62,4.53-4.22l7.81.1s7.81.08,15.53-6.81c0,0,.64,4.94,4.68,10.64,0,0,.64.77,1.85.77.03.03,1.93.24,1.93-.97Z"/>
  <polyline class="cls-1" points="117.27 104.55 118.24 112.16 99.86 112.16"/>
  <path class="cls-1" d="M100,127.33c-4.19,0-7.58-3.39-7.58-7.58s3.39-7.58,7.58-7.58"/>
  <polyline class="cls-1" points="81.98 104.55 81.01 112.16 99.39 112.16"/>
</svg>