<?xml version="1.0" encoding="UTF-8"?>
<svg id="Icons" xmlns="http://www.w3.org/2000/svg" viewBox="0 0 200 200">
  <defs>
    <style>
      .cls-1 {
        stroke-linejoin: round;
      }

      .cls-1, .cls-2 {
        fill: none;
        stroke: #030405;
        stroke-linecap: round;
        stroke-width: 3px;
      }

      .cls-2 {
        stroke-miterlimit: 10;
      }
    </style>
  </defs>
  <path class="cls-2" d="M42.53,100.1s-3.4,3.78,1.71,8.22c0,0,4.04,12.41,14.23,12.41"/>
  <path class="cls-2" d="M74.19,100.07s3.41,4-1.71,8.37c0,0-4.19,12.37-14.35,12.24"/>
  <g>
    <path class="cls-2" d="M49.98,117.25l-.61,7-16.72,6.79s-3.9,1.11-5.34,9.01"/>
    <polyline class="cls-2" points="49.34 124.24 58.37 133.6 67.71 124.45"/>
  </g>
  <path class="cls-1" d="M67.12,116.9l.58,7.55,7.39.98,22.44-16.4c5.88-8.96,13.26-8.08,13.26-8.08l8.02-6.13c1.72-1.28,2.51-1.07,3.33-.39.73.61.93,1.89.13,2.78l-9.38,9.26,4.3-.39c.93-.22,1.97.49,2.21,1.42.27,1.06-.54,2.21-1.47,2.43l-12.54,3.25-23.02,28.26"/>
  <path class="cls-2" d="M41.69,99.17v-10.19s.47-9.46,10.71-9.01c0,0,1.11-2.48,8.09-2.23,0,0,12.98.25,14.61,12.2v9.67s-2.24,2.41-4.17-3.87l-7.19.09s-7.19.07-14.28-6.26c0,0-.59,4.54-4.3,9.78,0,0-.59.71-1.71.71-.02.04-1.76.23-1.76-.89Z"/>
  <polyline class="cls-2" points="47.62 72.85 47.62 55.26 172.69 55.43 172.69 133 99.71 133"/>
</svg>