<?xml version="1.0" encoding="UTF-8"?>
<svg id="Icons" xmlns="http://www.w3.org/2000/svg" viewBox="0 0 200 200">
  <defs>
    <style>
      .cls-1 {
        stroke-linecap: round;
      }

      .cls-1, .cls-2 {
        fill: none;
        stroke: #000;
        stroke-miterlimit: 10;
        stroke-width: 3px;
      }
    </style>
  </defs>
  <path class="cls-1" d="M86.72,87.41s-2.85,3.16,1.42,6.88c0,0,3.38,10.37,11.9,10.37"/>
  <path class="cls-1" d="M113.19,87.39s2.86,3.34-1.43,7c0,0-3.5,10.33-11.99,10.24"/>
  <g>
    <path class="cls-1" d="M92.94,101.75l-.51,5.85-13.97,5.67s-3.26.93-4.47,7.53l-1.32,10.02"/>
    <polyline class="cls-1" points="92.41 107.58 99.96 115.41 107.76 107.76"/>
  </g>
  <path class="cls-1" d="M107.28,101.44l.48,6.32,13.91,5.83s3.26.97,4.39,7.57l1.21,10.06"/>
  <path class="cls-1" d="M86,86.64v-8.52s.4-7.9,8.95-7.53c0,0,.93-2.07,6.76-1.86,0,0,10.85.22,12.21,10.2v8.08s-1.88,2.02-3.48-3.24l-6.01.08s-6.01.06-11.94-5.24c0,0-.49,3.79-3.6,8.18,0,0-.49.59-1.42.59-.02.02-1.48.18-1.48-.75Z"/>
  <circle class="cls-1" cx="154.72" cy="84.33" r="12.5"/>
  <circle class="cls-1" cx="100.5" cy="163.78" r="12.5"/>
  <line class="cls-2" x1="100.5" y1="151.28" x2="100.5" y2="123.62"/>
  <circle class="cls-1" cx="100.5" cy="36.22" r="12.5"/>
  <line class="cls-2" x1="100.5" y1="48.72" x2="100.5" y2="62.36"/>
  <line class="cls-2" x1="114.12" y1="102.81" x2="143.89" y2="89.4"/>
  <circle class="cls-1" cx="42.01" cy="133.13" r="12.5"/>
  <line class="cls-2" x1="53.45" y1="128.08" x2="67.49" y2="121.88"/>
  <circle class="cls-1" cx="154.95" cy="136.13" r="12.5"/>
  <line class="cls-2" x1="144.79" y1="128.85" x2="131.58" y2="119.41"/>
  <circle class="cls-1" cx="53.32" cy="67.77" r="12.5"/>
  <line class="cls-2" x1="63.48" y1="75.04" x2="79.38" y2="86.42"/>
</svg>