<?xml version="1.0" encoding="UTF-8"?>
<svg id="Icons" xmlns="http://www.w3.org/2000/svg" viewBox="0 0 200 200">
  <defs>
    <style>
      .cls-1 {
        stroke-miterlimit: 10;
      }

      .cls-1, .cls-2 {
        fill: none;
        stroke: #fff;
        stroke-linecap: round;
        stroke-width: 3px;
      }

      .cls-2 {
        stroke-linejoin: round;
      }
    </style>
  </defs>
  <path class="cls-2" d="M142.05,156.98v-29.33c.17-3.44,5.27-8.37,9.04-16.08,3.77-7.72,3.12-17.23,3.12-17.23,2.9-55.31-51.69-51.26-51.69-51.26,0,0-51.5-.07-45.75,54.75l-10.89,23.41s-1.65,4.34,4.42,5.62c6.06,1.28,7.21.3,8.37,4.07,1.15,3.78,2.62,20.53,2.62,20.53,0,0,.66,5.41,8.05,5.41h17.73s13.79.5,13.96-16.08"/>
  <circle class="cls-1" cx="106.08" cy="85.6" r="8.27"/>
  <path class="cls-1" d="M128.14,70.9l-7.35-7.35-4.14,4.14c-1.7-1-3.5-1.74-5.36-2.22v-5.86s-10.4,0-10.4,0v5.86c-1.86.48-3.67,1.22-5.37,2.22l-4.14-4.14-7.35,7.35,4.14,4.14c-1,1.7-1.74,3.51-2.21,5.37h-5.86s0,10.4,0,10.4h5.86c.48,1.86,1.21,3.67,2.21,5.37l-4.14,4.14,7.35,7.35,4.14-4.14c1.7,1,3.5,1.74,5.36,2.22v5.86s10.4,0,10.4,0v-5.86c1.86-.48,3.67-1.22,5.37-2.22l4.14,4.14,7.35-7.35-4.14-4.14c1-1.7,1.74-3.51,2.21-5.37h5.86s0-10.4,0-10.4h-5.86c-.48-1.86-1.21-3.67-2.21-5.37l4.14-4.14Z"/>
</svg>