<?xml version="1.0" encoding="UTF-8"?>
<svg id="Icons" xmlns="http://www.w3.org/2000/svg" viewBox="0 0 200 200">
  <defs>
    <style>
      .cls-1 {
        stroke-linecap: round;
      }

      .cls-1, .cls-2 {
        fill: none;
        stroke: #fff;
        stroke-linejoin: round;
        stroke-width: 3px;
      }
    </style>
  </defs>
  <path class="cls-2" d="M100,40.54c2.84-1.92,6.27-3.04,9.95-3.04,5.22,0,9.89,2.26,13.15,5.83,9.79.05,17.71,7.99,17.71,17.8,0,.44-.03.88-.07,1.31,5.61,3,9.43,8.9,9.43,15.71,0,1.91-.31,3.75-.87,5.48,4.6,3.22,7.61,8.54,7.61,14.58,0,3.53-1.04,6.81-2.81,9.57,1.15,2.51,1.81,5.29,1.81,8.23,0,7.88-4.62,14.67-11.3,17.85-1.34,7.37-6.74,13.31-13.81,15.41-3.61,3.87-8.74,6.3-14.45,6.3-6.69,0-12.61-3.33-16.19-8.41l-.17-.24-.17.24c-3.58,5.09-9.5,8.41-16.19,8.41-5.71,0-10.84-2.43-14.45-6.3-7.07-2.1-12.48-8.04-13.81-15.41-6.67-3.18-11.3-9.96-11.3-17.85,0-2.94.66-5.72,1.81-8.23-1.77-2.77-2.81-6.05-2.81-9.57,0-6.04,3.01-11.36,7.61-14.58-.56-1.73-.87-3.57-.87-5.48,0-6.8,3.82-12.71,9.43-15.71-.03-.44-.07-.87-.07-1.31,0-9.8,7.92-17.75,17.71-17.8,3.26-3.58,7.93-5.83,13.15-5.83,3.69,0,7.11,1.12,9.95,3.04v41.96"/>
  <rect class="cls-1" x="82.5" y="82.5" width="35" height="35"/>
  <rect class="cls-1" x="90" y="90" width="20" height="20"/>
  <line class="cls-1" x1="100" y1="146.92" x2="100" y2="117.5"/>
  <line class="cls-1" x1="82.5" y1="100.05" x2="66.37" y2="100.05"/>
  <circle class="cls-1" cx="59.79" cy="100.05" r="5.59"/>
  <polyline class="cls-1" points="82.5 90.05 69.43 90.05 69.43 79.49"/>
  <circle class="cls-1" cx="69.43" cy="73.9" r="5.59"/>
  <g>
    <polyline class="cls-1" points="82.5 109.98 69.43 109.98 69.43 120.51"/>
    <circle class="cls-1" cx="69.43" cy="126.1" r="5.59"/>
  </g>
  <line class="cls-1" x1="117.5" y1="100.05" x2="133.63" y2="100.05"/>
  <circle class="cls-1" cx="140.21" cy="100.05" r="5.59"/>
  <polyline class="cls-1" points="117.5 90.05 130.57 90.05 130.57 79.49"/>
  <circle class="cls-1" cx="130.57" cy="73.9" r="5.59"/>
  <g>
    <polyline class="cls-1" points="117.5 109.98 130.57 109.98 130.57 120.51"/>
    <circle class="cls-1" cx="130.57" cy="126.1" r="5.59"/>
  </g>
  <line class="cls-1" x1="113.6" y1="82.5" x2="113.6" y2="63.07"/>
  <circle class="cls-1" cx="113.6" cy="57.35" r="5.59"/>
  <line class="cls-1" x1="86.89" y1="82.5" x2="86.89" y2="63.07"/>
  <circle class="cls-1" cx="86.89" cy="57.35" r="5.59"/>
  <line class="cls-1" x1="86.89" y1="117.5" x2="86.89" y2="130.93"/>
  <circle class="cls-1" cx="86.89" cy="136.65" r="5.59"/>
  <line class="cls-1" x1="113.6" y1="117.5" x2="113.6" y2="130.93"/>
  <circle class="cls-1" cx="113.6" cy="136.65" r="5.59"/>
</svg>