<?xml version="1.0" encoding="UTF-8"?>
<svg id="Icons" xmlns="http://www.w3.org/2000/svg" viewBox="0 0 200 200">
  <defs>
    <style>
      .cls-1 {
        fill: none;
        stroke: #fff;
        stroke-linecap: round;
        stroke-linejoin: round;
        stroke-width: 3px;
      }
    </style>
  </defs>
  <g>
    <circle class="cls-1" cx="55.02" cy="134.68" r="25"/>
    <path class="cls-1" d="M71.68,134.68c0-9.21-7.46-16.67-16.67-16.67"/>
  </g>
  <circle class="cls-1" cx="55.02" cy="134.68" r="32.5"/>
  <path class="cls-1" d="M87.52,79.62l-.07-.02c.04-.48.07-.97.07-1.46,0-8.74-7.09-15.83-15.83-15.83-5.93,0-11.1,3.27-13.81,8.1h-.05s-31.39,48.78-31.39,48.78"/>
  <path class="cls-1" d="M87.52,80.18v-17.32h-.04c.03-.3.04-.59.04-.89,0-5.24-4.25-9.49-9.49-9.49-3.56,0-6.65,1.96-8.28,4.86h-.03s-3.94,6.11-3.94,6.11"/>
  <g>
    <circle class="cls-1" cx="143.95" cy="134.69" r="25"/>
    <path class="cls-1" d="M160.62,134.69c0-9.21-7.46-16.67-16.67-16.67"/>
  </g>
  <circle class="cls-1" cx="143.95" cy="134.69" r="32.5"/>
  <path class="cls-1" d="M111.45,79.63l.07-.02c-.04-.48-.07-.97-.07-1.46,0-8.74,7.09-15.83,15.83-15.83,5.93,0,11.1,3.27,13.81,8.1h.05s31.39,48.78,31.39,48.78"/>
  <path class="cls-1" d="M111.45,80.18v-17.31s.04-.01.04-.01c-.03-.29-.04-.58-.04-.88,0-5.24,4.25-9.49,9.49-9.49,3.56,0,6.65,1.96,8.28,4.86h.03s3.94,6.11,3.94,6.11"/>
  <path class="cls-1" d="M99.48,77.04h0s-40.97,10.93-40.97,10.93h0c1.87-.48,3.82-.74,5.84-.74,12.79,0,23.17,10.37,23.17,23.17h11.97s11.97,0,11.97,0c0-12.79,10.37-23.17,23.17-23.17,2.02,0,3.97.26,5.84.74h0s-40.97-10.93-40.97-10.93Z"/>
  <circle class="cls-1" cx="99.48" cy="92.18" r="5"/>
  <line class="cls-1" x1="87.52" y1="134.68" x2="87.52" y2="110.39"/>
  <line class="cls-1" x1="111.45" y1="134.68" x2="111.45" y2="110.39"/>
</svg>