<?xml version="1.0" encoding="UTF-8"?>
<svg id="Icons" xmlns="http://www.w3.org/2000/svg" viewBox="0 0 200 200">
  <defs>
    <style>
      .cls-1 {
        stroke-miterlimit: 10;
      }

      .cls-1, .cls-2, .cls-3 {
        fill: none;
        stroke: #fff;
        stroke-width: 3px;
      }

      .cls-2 {
        stroke-linecap: round;
      }

      .cls-2, .cls-3 {
        stroke-linejoin: round;
      }
    </style>
  </defs>
  <polyline class="cls-3" points="92.5 158.19 95.5 88 104.5 88 107.5 158.19"/>
  <g>
    <g>
      <path class="cls-2" d="M61.67,43.37l-9.07-2.77-1.59-.49s2.22-6.67,9.33-5.33l23.7,6.52-.74,3.85-13.04.89-3.85-1.19"/>
      <path class="cls-2" d="M52.59,40.6s-1.31,6.18,9.31,7.79c0,0,5.24.61,7.16-2.72"/>
    </g>
    <path class="cls-2" d="M83.77,42.69l11.38,3.35s4.07.44,4.85,6.81v35.15"/>
  </g>
  <line class="cls-3" x1="85" y1="162.5" x2="115" y2="162.5"/>
  <g>
    <path class="cls-2" d="M133.6,44.85l-3.85,1.19-13.04-.89-.74-3.85,23.7-6.52c7.11-1.34,9.33,5.33,9.33,5.33l-1.59.49-9.08,2.77"/>
    <path class="cls-2" d="M130.94,45.67c1.92,3.33,7.16,2.72,7.16,2.72,10.62-1.61,9.31-7.79,9.31-7.79"/>
    <path class="cls-2" d="M100,88v-35.15c.78-6.37,4.85-6.81,4.85-6.81l11.38-3.35"/>
  </g>
  <path class="cls-1" d="M150.62,62.57c0,20.67-16.75,37.43-37.43,37.43"/>
  <path class="cls-1" d="M138.26,62.59c0,13.8-11.19,24.98-24.98,24.98"/>
  <path class="cls-1" d="M125.77,62.86c0,6.78-5.5,12.28-12.28,12.28"/>
  <circle class="cls-1" cx="113.74" cy="63.11" r="2.47"/>
</svg>