<?xml version="1.0" encoding="UTF-8"?>
<svg id="Icons" xmlns="http://www.w3.org/2000/svg" viewBox="0 0 200 200">
  <defs>
    <style>
      .cls-1, .cls-2 {
        fill: none;
        stroke: #fff;
        stroke-miterlimit: 10;
        stroke-width: 3px;
      }

      .cls-2 {
        stroke-linecap: round;
      }
    </style>
  </defs>
  <g>
    <circle class="cls-2" cx="99.48" cy="71.22" r="10"/>
    <path class="cls-2" d="M76.37,91.27s-16.43,15.76-6.26,35.88l11.89-11.89"/>
    <path class="cls-1" d="M99.48,27.33s-34.93,23.2-12.18,90h24.36c22.76-66.8-12.18-90-12.18-90Z"/>
    <path class="cls-2" d="M122.6,91.27s16.43,15.76,6.26,35.88l-11.89-11.89"/>
    <line class="cls-2" x1="84.07" y1="49.31" x2="114.93" y2="49.31"/>
    <line class="cls-1" x1="99.48" y1="123.33" x2="99.48" y2="147.33"/>
    <line class="cls-1" x1="89.55" y1="123.33" x2="89.55" y2="137.33"/>
    <line class="cls-1" x1="109.42" y1="123.33" x2="109.42" y2="137.33"/>
  </g>
  <path class="cls-2" d="M60.68,155.24c-.93-.53-2.01-.82-3.15-.82-3.55,0-6.42,2.88-6.42,6.42,0,.06,0,.11,0,.17-.49-.06-1-.09-1.51-.09-7.07,0-12.8,5.55-12.8,12.39s5.73,12.39,12.8,12.39c.51,0,1.01-.04,1.5-.09.02,3.53,2.88,6.39,6.42,6.39,1.14,0,2.21-.3,3.13-.82"/>
  <path class="cls-2" d="M120.85,161.94c-1.64-5.02-6.48-8.66-12.21-8.66-5.14,0-9.57,2.94-11.6,7.18-1.69-.79-3.58-1.25-5.58-1.25-3.41,0-6.49,1.3-8.79,3.4-1.19-1.91-3.35-3.2-5.82-3.2-3.75,0-6.8,2.95-6.8,6.58,0,1.76.72,3.36,1.88,4.54-2.33.48-4.09,2.54-4.09,5.02,0,2.83,2.29,5.13,5.13,5.13.71,0,1.39-.15,2.01-.41.98,5.9,6.25,10.41,12.62,10.41,1.32,0,2.59-.19,3.79-.55,2.03,4.26,6.46,7.22,11.62,7.22,6.63,0,12.09-4.88,12.74-11.14.68.11,1.37.18,2.08.18,7.07,0,12.8-5.55,12.8-12.39,0-5.83-4.17-10.71-9.78-12.03Z"/>
  <path class="cls-2" d="M149.22,190.19c1.07-.03,2.14-.33,3.13-.92,3.04-1.83,4.02-5.77,2.2-8.81-.03-.05-.06-.09-.09-.14.45-.21.9-.43,1.34-.7,6.06-3.64,8.12-11.35,4.59-17.22-3.52-5.87-11.3-7.67-17.36-4.03-.44.26-.84.55-1.24.85-1.83-3.02-5.76-4-8.8-2.17-.98.59-1.74,1.39-2.27,2.31"/>
</svg>