<?xml version="1.0" encoding="UTF-8"?>
<svg id="Icons" xmlns="http://www.w3.org/2000/svg" viewBox="0 0 200 200">
  <defs>
    <style>
      .cls-1 {
        stroke-miterlimit: 10;
      }

      .cls-1, .cls-2 {
        fill: none;
        stroke: #fff;
        stroke-width: 3px;
      }

      .cls-2 {
        stroke-linecap: round;
        stroke-linejoin: round;
      }
    </style>
  </defs>
  <path class="cls-2" d="M99.48,84.89c-3.22,0-6.3.62-9.13,1.73l13.88,13.88c1.3,1.3,1.3,3.4,0,4.7l-9.44,9.44c-1.3,1.3-3.4,1.3-4.7,0l-13.88-13.88c-1.11,2.83-1.73,5.91-1.73,9.13,0,13.81,11.19,25,25,25s25-11.19,25-25-11.19-25-25-25Z"/>
  <path class="cls-1" d="M123.6,116.49l34.4,34.4c4.88,4.88,4.88,12.8,0,17.68h0c-4.88,4.88-12.8,4.88-17.68,0l-34.49-34.49"/>
  <circle class="cls-1" cx="149.48" cy="159.89" r="1.51"/>
</svg>