<?xml version="1.0" encoding="UTF-8"?>
<svg id="Icons" xmlns="http://www.w3.org/2000/svg" viewBox="0 0 200 200">
  <defs>
    <style>
      .cls-1, .cls-2 {
        stroke-miterlimit: 10;
      }

      .cls-1, .cls-2, .cls-3 {
        fill: none;
        stroke: #fff;
        stroke-width: 3px;
      }

      .cls-2, .cls-3 {
        stroke-linecap: round;
      }

      .cls-3 {
        stroke-linejoin: round;
      }
    </style>
  </defs>
  <g>
    <polyline class="cls-3" points="99.56 130.96 103.06 130.96 117.49 184.79 136.01 184.79 118.74 125.03 116.74 88.3 116.74 87.66 118.91 85.49 127.44 93.75 117.57 103.64"/>
    <polyline class="cls-1" points="107.94 62.07 108.48 69.56 126.85 71.25 147.21 91.61 130.17 110.44 130.09 110.52"/>
  </g>
  <polyline class="cls-1" points="116.74 87.66 110.14 94.25 102.68 94.25"/>
  <line class="cls-1" x1="88.09" y1="108.62" x2="110.8" y2="108.62"/>
  <line class="cls-1" x1="88.09" y1="116.83" x2="110.8" y2="116.83"/>
  <line class="cls-1" x1="99.45" y1="100.1" x2="99.45" y2="108.62"/>
  <path class="cls-1" d="M118,111.47c3.67,2.59,8.76,2.27,12.09-.95"/>
  <line class="cls-1" x1="121.8" y1="99.4" x2="131.44" y2="109.04"/>
  <path class="cls-1" d="M107.94,170.3c-2.81.19-5.64.29-8.5.29"/>
  <path class="cls-1" d="M134.62,165.43c3.03-.91,6.02-1.94,8.95-3.08l-15.92-44.32"/>
  <g>
    <g>
      <polyline class="cls-1" points="69.34 110.41 52.33 91.61 72.69 71.25 91.06 69.56 91.6 62.39"/>
      <polyline class="cls-3" points="99.98 130.96 96.49 130.96 82.05 184.79 63.53 184.79 80.8 125.03 82.8 88.3 82.8 87.66 80.64 85.49 72.1 93.75 81.97 103.64"/>
    </g>
    <line class="cls-1" x1="70.75" y1="159.83" x2="88.74" y2="159.83"/>
    <polyline class="cls-1" points="82.8 87.66 89.4 94.25 96.86 94.25"/>
    <line class="cls-1" x1="111.45" y1="108.62" x2="88.74" y2="108.62"/>
    <line class="cls-1" x1="111.45" y1="116.83" x2="88.74" y2="116.83"/>
    <path class="cls-1" d="M69.34,110.41c3.32,3.32,8.48,3.68,12.2,1.06"/>
    <line class="cls-1" x1="77.74" y1="99.4" x2="68.1" y2="109.04"/>
    <path class="cls-1" d="M91.6,170.3c2.81.19,5.64.29,8.5.29"/>
    <path class="cls-1" d="M64.92,165.43c-3.03-.91-6.02-1.94-8.95-3.08l15.5-44.32"/>
    <line class="cls-1" x1="110.84" y1="159.83" x2="128.83" y2="159.83"/>
  </g>
  <polygon class="cls-2" points="99.24 72.84 101.59 77.6 106.83 78.36 103.04 82.06 103.93 87.29 99.24 84.82 94.55 87.29 95.45 82.06 91.65 78.36 96.9 77.6 99.24 72.84"/>
  <polygon class="cls-1" points="85.44 43.77 85.44 55.61 95.07 55.61 97.38 53.27 101.59 53.27 103.91 55.61 113.53 55.61 113.53 43.77 85.44 43.77"/>
  <path class="cls-1" d="M112.13,55.61c-1.57,5.47-6.6,9.47-12.57,9.47s-11-4-12.57-9.47"/>
  <path class="cls-1" d="M87.15,43.77c1.73-5.2,6.63-8.94,12.41-8.94s10.68,3.74,12.41,8.94"/>
  <line class="cls-1" x1="72.1" y1="93.75" x2="67.98" y2="89.62"/>
  <line class="cls-1" x1="80.64" y1="85.48" x2="76.51" y2="81.36"/>
  <line class="cls-1" x1="127.43" y1="93.75" x2="131.56" y2="89.62"/>
  <line class="cls-1" x1="118.9" y1="85.49" x2="123.03" y2="81.36"/>
</svg>