<?xml version="1.0" encoding="UTF-8"?>
<svg id="Icons" xmlns="http://www.w3.org/2000/svg" viewBox="0 0 200 200">
  <defs>
    <style>
      .cls-1 {
        stroke-linecap: round;
        stroke-miterlimit: 10;
      }

      .cls-1, .cls-2 {
        fill: none;
        stroke: #fff;
        stroke-width: 3px;
      }

      .cls-2 {
        stroke-linejoin: round;
      }
    </style>
  </defs>
  <circle class="cls-1" cx="100" cy="100" r="15.91"/>
  <path class="cls-1" d="M150.02,90.1l-7.65-18.48-10.41,4.31c-2.28-3.03-4.94-5.67-7.9-7.89l4.31-10.41-18.48-7.65-4.31,10.41c-3.66-.52-7.42-.54-11.17,0l-4.31-10.4-18.48,7.65,4.31,10.4c-3.03,2.28-5.66,4.95-7.88,7.91l-10.42-4.32-7.65,18.48,10.42,4.32c-.52,3.66-.55,7.41-.02,11.16l-10.41,4.31,7.65,18.48,10.41-4.31c2.28,3.03,4.94,5.67,7.9,7.89l-4.31,10.41,18.48,7.65,4.31-10.41c3.66.52,7.42.54,11.17,0l4.31,10.4,18.48-7.65-4.31-10.4c3.03-2.28,5.66-4.95,7.88-7.91l10.42,4.32,7.65-18.48-10.42-4.32c.52-3.66.55-7.41.02-11.16l10.41-4.31Z"/>
  <line class="cls-2" x1="100.24" y1="99.51" x2="100.24" y2="68.64"/>
  <line class="cls-2" x1="98.76" y1="99.54" x2="125.24" y2="99.51"/>
</svg>