<?xml version="1.0" encoding="UTF-8"?>
<svg id="Icons" xmlns="http://www.w3.org/2000/svg" viewBox="0 0 200 200">
  <defs>
    <style>
      .cls-1 {
        fill: none;
        stroke: #fff;
        stroke-linecap: round;
        stroke-miterlimit: 10;
        stroke-width: 3px;
      }
    </style>
  </defs>
  <path class="cls-1" d="M100,150c-27.61,0-50-22.39-50-50s22.39-50,50-50"/>
  <line class="cls-1" x1="100" y1="50.01" x2="100" y2="150"/>
  <path class="cls-1" d="M100,150c-27.61,0-50-22.39-50-50s22.39-50,50-50"/>
  <path class="cls-1" d="M100,50c-14.44,6.72-24.91,26.57-24.91,50s10.47,43.27,24.91,50"/>
  <path class="cls-1" d="M100,125c-13.19,0-25.58,3.37-36.38,9.3"/>
  <path class="cls-1" d="M63.62,65.7c10.8,5.93,23.19,9.3,36.38,9.3"/>
  <path class="cls-1" d="M105.61,112.82c8.79.06,15.96-7.01,16.02-15.8.06-8.79-7.01-15.96-15.8-16.02"/>
  <path class="cls-1" d="M106.31,149.97l9.78.04.05-11.27c3.58-.91,7.07-2.31,10.34-4.22l7.93,8,14.2-14.08-7.93-8c1.94-3.25,3.37-6.73,4.3-10.3l11.28.05.09-20-11.28-.05c-.91-3.58-2.3-7.07-4.21-10.34l8-7.93-14.08-14.2-8,7.93c-3.25-1.94-6.72-3.38-10.3-4.32l.05-11.27-10.22-.04"/>
  <line class="cls-1" x1="100" y1="100" x2="50" y2="100"/>
</svg>