<?xml version="1.0" encoding="UTF-8"?>
<svg id="Icons" xmlns="http://www.w3.org/2000/svg" viewBox="0 0 200 200">
  <defs>
    <style>
      .cls-1 {
        stroke-miterlimit: 10;
      }

      .cls-1, .cls-2 {
        fill: none;
        stroke: #fff;
        stroke-linecap: round;
        stroke-width: 3px;
      }

      .cls-2 {
        stroke-linejoin: round;
      }
    </style>
  </defs>
  <path class="cls-2" d="M143.34,124.54h7.32c10.04-2.2,16.53-12.12,14.33-22.16-2.2-9.47-10.79-15.2-20.1-14.48,2.35-6.5,3.12-13.61,1.64-20.83-4.46-20.1-24.38-32.94-44.48-28.5-14.17,3.12-24.67,13.87-28.06,27.02-3.12-1.03-6.5-1.78-9.89-1.78-16.83,0-30.55,13.72-30.55,30.55,0,14.04,9.54,25.92,22.48,29.48"/>
  <path class="cls-2" d="M73.99,65.44c4.3,1.49,8.28,3.99,11.36,7.11"/>
  <path class="cls-2" d="M145.03,87.75c-1.64,4.3-3.84,8.28-6.65,11.67"/>
  <circle class="cls-1" cx="100.07" cy="124.92" r="11.93"/>
  <path class="cls-1" d="M137.46,132.87l.18-14.99-8.45-.1c-.68-2.76-1.73-5.37-3.11-7.77l6.05-5.9-10.48-10.73-6.04,5.9c-2.37-1.44-4.95-2.56-7.69-3.3l.1-8.44-14.99-.18-.1,8.44c-2.76.68-5.36,1.74-7.77,3.12l-5.91-6.05-10.73,10.48,5.91,6.05c-1.44,2.37-2.56,4.95-3.31,7.69l-8.44-.1-.18,14.99,8.45.1c.68,2.76,1.73,5.37,3.11,7.77l-6.05,5.9,10.48,10.73,6.04-5.9c2.37,1.44,4.95,2.56,7.69,3.3l-.1,8.44,14.99.18.1-8.44c2.76-.68,5.36-1.74,7.77-3.12l5.91,6.05,10.73-10.48-5.91-6.05c1.44-2.37,2.56-4.95,3.31-7.69l8.44.1Z"/>
</svg>