<?xml version="1.0" encoding="UTF-8"?>
<svg id="Icons" xmlns="http://www.w3.org/2000/svg" viewBox="0 0 200 200">
  <defs>
    <style>
      .cls-1 {
        fill: none;
        stroke: #fff;
        stroke-linecap: round;
        stroke-linejoin: round;
        stroke-width: 3px;
      }
    </style>
  </defs>
  <path class="cls-1" d="M133.21,136.9h10.48c8.57-1.88,14.11-10.35,12.23-18.92-1.88-8.08-9.21-12.98-17.16-12.36,2.01-5.55,2.66-11.62,1.4-17.78-3.81-17.16-20.81-28.12-37.97-24.33-12.1,2.66-21.06,11.84-23.95,23.07-2.66-.88-5.55-1.52-8.44-1.52-14.37,0-26.08,11.71-26.08,26.08s11.71,26.09,26.09,26.09h8.57l54.83-.33Z"/>
  <path class="cls-1" d="M78.24,86.45c3.67,1.27,7.07,3.41,9.7,6.07"/>
  <path class="cls-1" d="M138.88,105.5c-1.4,3.67-3.28,7.07-5.68,9.96"/>
</svg>