<?xml version="1.0" encoding="UTF-8"?>
<svg id="Icons" xmlns="http://www.w3.org/2000/svg" viewBox="0 0 200 200">
  <defs>
    <style>
      .cls-1 {
        fill: none;
        stroke: #fff;
        stroke-linecap: round;
        stroke-miterlimit: 10;
        stroke-width: 3px;
      }
    </style>
  </defs>
  <circle class="cls-1" cx="100" cy="100" r="15.91"/>
  <path class="cls-1" d="M150,110v-20h-11.27c-.95-3.67-2.39-7.13-4.27-10.31l7.97-7.97-14.14-14.14-7.97,7.97c-3.18-1.88-6.65-3.34-10.32-4.28v-11.26h-20v11.26c-3.67.94-7.13,2.41-10.31,4.29l-7.97-7.97-14.14,14.14,7.98,7.98c-1.88,3.18-3.34,6.64-4.29,10.31h-11.26v20h11.27c.95,3.67,2.39,7.13,4.27,10.31l-7.97,7.97,14.14,14.14,7.97-7.97c3.18,1.88,6.65,3.34,10.32,4.28v11.26h20v-11.26c3.67-.94,7.13-2.41,10.31-4.29l7.97,7.97,14.14-14.14-7.98-7.98c1.88-3.18,3.34-6.64,4.29-10.31h11.26Z"/>
</svg>