<?xml version="1.0" encoding="UTF-8"?>
<svg id="Icons" xmlns="http://www.w3.org/2000/svg" viewBox="0 0 200 200">
  <defs>
    <style>
      .cls-1, .cls-2 {
        fill: none;
        stroke: #fff;
        stroke-miterlimit: 10;
        stroke-width: 3px;
      }

      .cls-2 {
        stroke-linecap: round;
      }
    </style>
  </defs>
  <circle class="cls-2" cx="105.39" cy="86.79" r="14.21"/>
  <path class="cls-2" d="M136.17,104.94c1.68-2.84,2.99-5.93,3.83-9.21h10.06v-17.87h-10.07c-.85-3.28-2.14-6.37-3.82-9.22l7.12-7.12-12.63-12.63-7.12,7.12c-2.84-1.68-5.94-2.98-9.22-3.83v-10.06h-17.87v10.06c-3.28.84-6.37,2.15-9.21,3.83l-7.12-7.12-12.63,12.63,7.13,7.13c-1.68,2.84-2.99,5.93-3.83,9.21h-10.06v17.87h10.07c.85,3.28,2.14,6.37,3.82,9.22l-4.42,4.42"/>
  <path class="cls-1" d="M40.45,132.44l14.44-13.69s5.25-4.32,9.19-4.32h19.69l9.19,6.57h20.44s6.94.56,6.94,7.69-6.19,8.44-6.19,8.44h-30.38"/>
  <path class="cls-1" d="M66.51,157.88l3.45-3.05h47.2s17.26-9.82,28.13-22.57c10.87-12.75,14.26-23.25,14.26-23.25,0,0-.37-5.06-9-4.88-8.62.19-13.13,4.69-15.94,12.94l-11.01,5.65"/>
</svg>