<?xml version="1.0" encoding="UTF-8"?>
<svg id="Icons" xmlns="http://www.w3.org/2000/svg" viewBox="0 0 200 200">
  <defs>
    <style>
      .cls-1 {
        fill: none;
        stroke: #fff;
        stroke-linecap: round;
        stroke-miterlimit: 10;
        stroke-width: 3px;
      }
    </style>
  </defs>
  <circle class="cls-1" cx="80.75" cy="128.57" r="15.91"/>
  <path class="cls-1" d="M130.77,118.68l-7.65-18.48-10.41,4.31c-2.28-3.03-4.94-5.67-7.9-7.89l4.31-10.41-18.48-7.65-4.31,10.41c-3.66-.52-7.42-.54-11.17,0l-4.31-10.4-18.48,7.65,4.31,10.4c-3.03,2.28-5.66,4.95-7.88,7.91l-10.42-4.32-7.65,18.48,10.42,4.32c-.52,3.66-.55,7.41-.02,11.16l-10.41,4.31,7.65,18.48,10.41-4.31c2.28,3.03,4.94,5.67,7.9,7.89l-4.31,10.41,18.48,7.65,4.31-10.41c3.66.52,7.42.54,11.17,0l4.31,10.4,18.48-7.65-4.31-10.4c3.03-2.28,5.66-4.95,7.88-7.91l10.42,4.32,7.65-18.48-10.42-4.32c.52-3.66.55-7.41.02-11.16l10.41-4.31Z"/>
  <circle class="cls-1" cx="142.18" cy="67.14" r="8.29"/>
  <path class="cls-1" d="M164.3,52.39l-7.37-7.37-4.15,4.15c-1.7-1-3.51-1.75-5.38-2.23v-5.88s-10.43,0-10.43,0v5.88c-1.87.48-3.68,1.22-5.38,2.22l-4.15-4.15-7.37,7.37,4.15,4.15c-1,1.7-1.74,3.51-2.22,5.38h-5.88s0,10.43,0,10.43h5.88c.48,1.87,1.22,3.68,2.22,5.38l-4.15,4.15,7.37,7.37,4.15-4.15c1.7,1,3.51,1.75,5.38,2.23v5.88s10.43,0,10.43,0v-5.88c1.87-.48,3.68-1.22,5.38-2.22l4.15,4.15,7.37-7.37-4.15-4.15c1-1.7,1.74-3.51,2.22-5.38h5.88s0-10.43,0-10.43h-5.88c-.48-1.87-1.22-3.68-2.22-5.38l4.15-4.15Z"/>
</svg>