<?xml version="1.0" encoding="UTF-8"?>
<svg id="Icons" xmlns="http://www.w3.org/2000/svg" viewBox="0 0 200 200">
  <defs>
    <style>
      .cls-1 {
        fill: none;
        stroke: #fff;
        stroke-linecap: round;
        stroke-miterlimit: 10;
        stroke-width: 3px;
      }
    </style>
  </defs>
  <circle class="cls-1" cx="90.78" cy="109.21" r="53.34"/>
  <line class="cls-1" x1="90.78" y1="55.88" x2="90.78" y2="162.55"/>
  <line class="cls-1" x1="37.44" y1="109.21" x2="144.11" y2="109.21"/>
  <circle class="cls-1" cx="90.78" cy="109.21" r="53.34"/>
  <path class="cls-1" d="M90.78,55.87c-15.4,7.17-26.57,28.35-26.57,53.34s11.17,46.16,26.57,53.34"/>
  <path class="cls-1" d="M90.78,55.88c15.4,7.17,26.57,28.35,26.57,53.34s-11.17,46.16-26.57,53.34"/>
  <path class="cls-1" d="M129.59,145.8c-11.52-6.33-24.74-9.92-38.81-9.92s-27.29,3.6-38.81,9.92"/>
  <path class="cls-1" d="M51.97,72.62c11.52,6.33,24.74,9.92,38.81,9.92s27.29-3.6,38.81-9.92"/>
  <path class="cls-1" d="M140.49,77.58c1.08-1.92,1.69-4.13,1.69-6.49,0-7.33-5.94-13.28-13.28-13.28-2.62,0-5.07.76-7.12,2.07"/>
  <path class="cls-1" d="M149.34,107.79l3.24-1.34-3.6-8.68c2.53-1.9,4.73-4.13,6.58-6.6l8.69,3.6,6.39-15.42-8.7-3.6c.43-3.05.46-6.19.01-9.32l8.68-3.6-6.39-15.42-8.69,3.6c-1.9-2.53-4.12-4.74-6.59-6.59l3.6-8.69-15.42-6.39-3.6,8.69c-3.05-.43-6.19-.45-9.32,0l-3.6-8.68-15.42,6.39,3.6,8.68c-2.53,1.9-4.73,4.13-6.58,6.6l-8.69-3.6-1.1,2.64"/>
</svg>