<?xml version="1.0" encoding="UTF-8"?>
<svg id="Icons" xmlns="http://www.w3.org/2000/svg" viewBox="0 0 200 200">
  <defs>
    <style>
      .cls-1, .cls-2 {
        fill: none;
        stroke: #fff;
        stroke-miterlimit: 10;
        stroke-width: 3px;
      }

      .cls-2 {
        stroke-linecap: round;
      }
    </style>
  </defs>
  <g>
    <polyline class="cls-2" points="134.14 52.78 141.2 37.5 154.78 70.86 141.2 70.86"/>
    <path class="cls-2" d="M134.15,52.77c-9.77-7.07-21.78-11.24-34.77-11.24-32.78,0-59.36,26.58-59.36,59.36,0,4.81.57,9.49,1.65,13.98"/>
  </g>
  <g>
    <polyline class="cls-2" points="65.86 147.23 58.8 162.5 45.22 129.14 58.8 129.14"/>
    <path class="cls-2" d="M65.85,147.23c9.77,7.07,21.78,11.24,34.77,11.24,32.78,0,59.36-26.58,59.36-59.36,0-4.81-.57-9.49-1.65-13.98"/>
  </g>
  <g>
    <ellipse class="cls-1" cx="100" cy="113.46" rx="28.35" ry="9.45"/>
    <path class="cls-2" d="M82.54,88.56c-6.65,1.73-10.92,4.43-10.92,7.45"/>
    <path class="cls-2" d="M128.33,96.01c0-5.22-12.69-9.45-28.35-9.45-3.35,0-6.56.19-9.55.55"/>
    <line class="cls-1" x1="71.63" y1="95.98" x2="71.63" y2="113.46"/>
    <line class="cls-1" x1="128.33" y1="96.02" x2="128.33" y2="113.88"/>
    <polyline class="cls-2" points="66.79 94.62 65.15 93.91 54.64 89.35 100 69.69 145.36 89.35 128.36 96.73"/>
    <line class="cls-1" x1="137.97" y1="92.39" x2="137.97" y2="115.08"/>
    <path class="cls-1" d="M141.65,130.31h-7.56v-11.3c0-2.09,1.69-3.78,3.78-3.78s3.78,1.69,3.78,3.78v11.3Z"/>
  </g>
</svg>