<?xml version="1.0" encoding="UTF-8"?>
<svg id="Icons" xmlns="http://www.w3.org/2000/svg" viewBox="0 0 200 200">
  <defs>
    <style>
      .cls-1 {
        stroke-miterlimit: 10;
      }

      .cls-1, .cls-2 {
        fill: none;
        stroke: #fff;
        stroke-width: 3px;
      }

      .cls-2 {
        stroke-linejoin: round;
      }
    </style>
  </defs>
  <polyline class="cls-2" points="149.7 164.1 149.7 175 49.13 174.81 49.13 25 119.07 25.06 149.7 55.09 149.7 101.6"/>
  <polyline class="cls-2" points="118.96 40.45 118.96 55.78 149.7 55.78"/>
  <g>
    <polyline class="cls-1" points="84.98 62.5 62.5 62.5 62.5 84.98 84.98 84.98 84.98 74.34"/>
    <polyline class="cls-1" points="69.39 74.45 74.1 79.16 90.07 63.18"/>
  </g>
  <g>
    <polyline class="cls-1" points="84.98 100.76 62.5 100.76 62.5 123.24 84.98 123.24 84.98 112.6"/>
    <polyline class="cls-1" points="69.39 112.71 74.1 117.42 90.07 101.44"/>
  </g>
  <g>
    <polyline class="cls-1" points="84.98 139.02 62.5 139.02 62.5 161.5 84.98 161.5 84.98 150.86"/>
    <polyline class="cls-1" points="69.39 150.97 74.1 155.68 90.07 139.69"/>
  </g>
  <g>
    <line class="cls-2" x1="95" y1="66.29" x2="119.01" y2="66.29"/>
    <line class="cls-2" x1="95" y1="73.45" x2="125.44" y2="73.45"/>
    <line class="cls-2" x1="95" y1="80.6" x2="114.16" y2="80.6"/>
  </g>
  <g>
    <line class="cls-2" x1="95" y1="104.84" x2="134.01" y2="104.84"/>
    <line class="cls-2" x1="95" y1="112.01" x2="125.44" y2="112.01"/>
    <line class="cls-2" x1="95" y1="119.16" x2="114.16" y2="119.16"/>
  </g>
  <g>
    <line class="cls-2" x1="95" y1="143.35" x2="107.01" y2="143.35"/>
    <line class="cls-2" x1="95" y1="150.52" x2="119.44" y2="150.52"/>
    <line class="cls-2" x1="95" y1="157.67" x2="114.16" y2="157.67"/>
  </g>
  <path class="cls-2" d="M176.26,139.09v-10.47h-5.9c-.5-1.92-1.25-3.73-2.24-5.4l4.17-4.17-7.41-7.41-4.17,4.17c-1.67-.98-3.48-1.75-5.4-2.24v-5.9h-10.47v5.9c-1.92.49-3.73,1.26-5.4,2.25l-4.17-4.17-7.4,7.4,4.18,4.18c-.98,1.67-1.75,3.48-2.25,5.4h-5.9v10.47h5.9c.5,1.92,1.25,3.73,2.24,5.4l-4.17,4.17,7.4,7.4,4.17-4.17c1.67.98,3.48,1.75,5.4,2.24v5.9h10.47v-5.9c1.92-.49,3.73-1.26,5.4-2.25l4.17,4.17,7.4-7.4-4.18-4.18c.98-1.67,1.75-3.48,2.25-5.4h5.9Z"/>
  <circle class="cls-2" cx="150.08" cy="133.86" r="8.33"/>
</svg>