<?xml version="1.0" encoding="UTF-8"?>
<svg id="Icons" xmlns="http://www.w3.org/2000/svg" viewBox="0 0 200 200">
  <defs>
    <style>
      .cls-1 {
        fill: none;
        stroke: #fff;
        stroke-linecap: round;
        stroke-linejoin: round;
        stroke-width: 3px;
      }
    </style>
  </defs>
  <g>
    <circle class="cls-1" cx="55.53" cy="124.85" r="25"/>
    <path class="cls-1" d="M72.2,124.85c0-9.21-7.46-16.67-16.67-16.67"/>
  </g>
  <circle class="cls-1" cx="55.53" cy="124.85" r="32.5"/>
  <path class="cls-1" d="M88.03,69.79l-.07-.02c.04-.48.07-.97.07-1.46,0-8.74-7.09-15.83-15.83-15.83-5.93,0-11.1,3.27-13.81,8.1h-.05s-31.39,48.78-31.39,48.78"/>
  <path class="cls-1" d="M88.03,70.35v-17.32h-.04c.03-.3.04-.59.04-.89,0-5.24-4.25-9.49-9.49-9.49-3.56,0-6.65,1.96-8.28,4.86h-.03s-3.94,6.11-3.94,6.11"/>
  <g>
    <circle class="cls-1" cx="144.47" cy="124.85" r="25"/>
    <path class="cls-1" d="M161.13,124.85c0-9.21-7.46-16.67-16.67-16.67"/>
  </g>
  <circle class="cls-1" cx="144.47" cy="124.85" r="32.5"/>
  <path class="cls-1" d="M111.97,69.8l.07-.02c-.04-.48-.07-.97-.07-1.46,0-8.74,7.09-15.83,15.83-15.83,5.93,0,11.1,3.27,13.81,8.1h.05s31.39,48.78,31.39,48.78"/>
  <path class="cls-1" d="M111.97,70.35v-17.31s.04-.01.04-.01c-.03-.29-.04-.58-.04-.88,0-5.24,4.25-9.49,9.49-9.49,3.56,0,6.65,1.96,8.28,4.86h.03s3.94,6.11,3.94,6.11"/>
  <path class="cls-1" d="M100,67.21h0s-40.97,10.93-40.97,10.93h0c1.87-.48,3.82-.74,5.84-.74,12.79,0,23.17,10.37,23.17,23.17h11.97s11.97,0,11.97,0c0-12.79,10.37-23.17,23.17-23.17,2.02,0,3.97.26,5.84.74h0s-40.97-10.93-40.97-10.93Z"/>
  <circle class="cls-1" cx="100" cy="82.35" r="5"/>
  <line class="cls-1" x1="88.03" y1="124.85" x2="88.03" y2="100.56"/>
  <line class="cls-1" x1="111.97" y1="124.85" x2="111.97" y2="100.56"/>
</svg>