<?xml version="1.0" encoding="UTF-8"?>
<svg id="Icons" xmlns="http://www.w3.org/2000/svg" viewBox="0 0 200 200">
  <defs>
    <style>
      .cls-1 {
        stroke-miterlimit: 10;
      }

      .cls-1, .cls-2 {
        stroke-linecap: round;
      }

      .cls-1, .cls-2, .cls-3 {
        fill: none;
        stroke: #fff;
        stroke-width: 3px;
      }

      .cls-2, .cls-3 {
        stroke-linejoin: round;
      }
    </style>
  </defs>
  <polygon class="cls-2" points="144.01 72.47 144.01 162.52 68.49 162.38 68.49 49.87 121.01 49.92 144.01 72.47"/>
  <polyline class="cls-3" points="120.93 61.48 120.93 72.99 144.01 72.99"/>
  <polyline class="cls-3" points="118.99 37.48 55.99 37.48 55.99 157.53"/>
  <g>
    <path class="cls-2" d="M106.22,95.54c-7.08,0-12.82,5.74-12.82,12.82"/>
    <line class="cls-3" x1="106.25" y1="85.96" x2="106.25" y2="79.55"/>
    <line class="cls-3" x1="83.81" y1="108.4" x2="77.4" y2="108.4"/>
    <line class="cls-3" x1="135.1" y1="108.4" x2="128.69" y2="108.4"/>
    <line class="cls-3" x1="90.38" y1="92.53" x2="85.85" y2="88"/>
    <line class="cls-3" x1="126.65" y1="128.79" x2="122.12" y2="124.27"/>
    <line class="cls-3" x1="90.38" y1="124.26" x2="85.85" y2="128.8"/>
    <line class="cls-3" x1="126.65" y1="88" x2="122.11" y2="92.53"/>
    <path class="cls-1" d="M101.12,137.89h1.92v2.56h6.41v-2.56h1.92v-10.95c8.13-2.25,14.1-9.69,14.1-18.53,0-10.62-8.61-19.23-19.23-19.23s-19.23,8.61-19.23,19.23c0,8.85,5.97,16.29,14.1,18.53v10.95Z"/>
    <line class="cls-2" x1="101.12" y1="130.71" x2="111.38" y2="130.71"/>
  </g>
</svg>