<?xml version="1.0" encoding="UTF-8"?>
<svg id="Icons" xmlns="http://www.w3.org/2000/svg" viewBox="0 0 200 200">
  <defs>
    <style>
      .cls-1, .cls-2 {
        stroke-miterlimit: 10;
      }

      .cls-1, .cls-2, .cls-3, .cls-4 {
        fill: none;
        stroke: #fff;
        stroke-width: 3px;
      }

      .cls-2, .cls-3 {
        stroke-linecap: round;
      }

      .cls-3, .cls-4 {
        stroke-linejoin: round;
      }
    </style>
  </defs>
  <g>
    <polyline class="cls-1" points="43.49 146.75 52.25 146.75 55.6 149.13"/>
    <line class="cls-1" x1="68.33" y1="116.65" x2="43.49" y2="116.65"/>
    <path class="cls-1" d="M143.46,119.16h-18.68l-23.44-10.22s-1.67-.76-4.17-.76h-5.7s-8.2-.14-12.02-5.29c0,0-1.74-2.29-4.03-.76,0,0-4.31,2.43-3.96,8.2.01.13-1.12,10.44,13.41,11.25l8.88-.14,7.39,3.4,34.74,25.19h7.6"/>
    <path class="cls-1" d="M64.65,151.79l-2.98,4.38c-1.4,2.05-4.19,2.58-6.24,1.18h0c-2.05-1.4-2.58-4.19-1.18-6.24l2.98-4.38c1.4-2.05,4.19-2.58,6.24-1.18h0c2.05,1.4,2.58,4.19,1.18,6.24Z"/>
    <path class="cls-1" d="M89.29,170.03l-2.98,4.38c-1.4,2.05-4.19,2.58-6.24,1.18h0c-2.05-1.4-2.58-4.19-1.18-6.24l2.98-4.38c1.4-2.05,4.19-2.58,6.24-1.18h0c2.05,1.4,2.58,4.19,1.18,6.24Z"/>
    <path class="cls-1" d="M82.33,164.15l-3.6,5.29c-1.69,2.47-5.06,3.11-7.53,1.43h0c-2.47-1.69-3.11-5.06-1.43-7.53l3.6-5.29c1.69-2.47,5.06-3.11,7.53-1.43h0c2.47,1.69,3.1,5.06,1.43,7.53Z"/>
    <path class="cls-1" d="M126.79,143.46l6.52,4.71c2.54,1.87,3.09,5.44,1.23,7.97l-.05.07c-1.87,2.54-5.44,3.09-7.97,1.23l-6.59-4.71"/>
    <path class="cls-2" d="M112.02,146.75l10.68,8.05c2.54,1.87,3.09,5.44,1.23,7.97l-.05.07c-1.87,2.54-5.44,3.09-7.97,1.23l-6.79-5.17"/>
    <path class="cls-2" d="M104.66,155.48l7.51,5.8c2.54,1.87,3.09,5.44,1.23,7.97l-.05.07c-1.87,2.54-5.44,3.09-7.97,1.23l-5.54-4.06"/>
    <path class="cls-2" d="M97.34,164.63l3.3,2.42c2.54,1.87,3.09,5.44,1.23,7.97l-.05.07c-1.87,2.54-5.44,3.09-7.97,1.23l-5.76-4.52"/>
    <path class="cls-1" d="M74.16,156.96l-4.51,6.67c-1.68,2.48-5.05,3.13-7.52,1.45h0c-2.48-1.68-3.13-5.05-1.45-7.52l4.51-6.67c1.68-2.48,5.05-3.13,7.52-1.45h0c2.48,1.68,3.13,5.05,1.45,7.52Z"/>
    <polyline class="cls-1" points="155.79 153.42 144.21 153.42 144.21 115.41 155.79 115.41"/>
    <polyline class="cls-1" points="30.89 150.47 43.01 150.47 43.01 112.46 30.89 112.46"/>
  </g>
  <g>
    <path class="cls-3" d="M93.63,42.28c-8.72,0-15.79,7.07-15.79,15.79"/>
    <line class="cls-4" x1="93.66" y1="30.47" x2="93.66" y2="22.58"/>
    <line class="cls-4" x1="66.03" y1="58.11" x2="58.13" y2="58.11"/>
    <line class="cls-4" x1="129.19" y1="58.11" x2="121.3" y2="58.11"/>
    <line class="cls-4" x1="74.12" y1="38.56" x2="68.54" y2="32.98"/>
    <line class="cls-4" x1="118.79" y1="83.23" x2="113.21" y2="77.65"/>
    <line class="cls-4" x1="74.12" y1="77.64" x2="68.54" y2="83.23"/>
    <line class="cls-4" x1="118.79" y1="32.98" x2="113.19" y2="38.57"/>
    <path class="cls-2" d="M87.34,94.42h2.36v3.15h7.89v-3.15h2.36v-13.5c10.01-2.77,17.36-11.93,17.36-22.82,0-13.08-10.6-23.68-23.68-23.68s-23.67,10.6-23.67,23.68c0,10.9,7.35,20.06,17.36,22.82v13.5Z"/>
    <line class="cls-3" x1="87.34" y1="85.58" x2="99.98" y2="85.58"/>
  </g>
</svg>