<?xml version="1.0" encoding="UTF-8"?>
<svg id="Icons" xmlns="http://www.w3.org/2000/svg" viewBox="0 0 200 200">
  <defs>
    <style>
      .cls-1, .cls-2 {
        fill: none;
        stroke: #fff;
        stroke-miterlimit: 10;
        stroke-width: 3px;
      }

      .cls-2 {
        stroke-linecap: round;
      }
    </style>
  </defs>
  <g>
    <path class="cls-2" d="M119.54,90.63s-3.9,4.33,1.95,9.42c0,0,4.63,14.21,16.3,14.21"/>
    <path class="cls-2" d="M155.79,90.6s3.91,4.58-1.96,9.59c0,0-4.8,14.16-16.43,14.02"/>
    <g>
      <path class="cls-2" d="M128.06,110.28l-.7,8.02-19.14,7.77s-4.46,1.28-6.12,10.32l-1.81,13.73"/>
      <polyline class="cls-2" points="127.33 118.28 137.67 129.01 148.36 118.52"/>
    </g>
    <path class="cls-2" d="M147.69,109.87l.66,8.65,19.06,7.99s4.46,1.33,6.01,10.37l1.65,13.78"/>
    <path class="cls-2" d="M118.56,89.57v-11.67s.54-10.83,12.26-10.32c0,0,1.28-2.84,9.26-2.55,0,0,14.87.29,16.73,13.97v11.07s-2.57,2.76-4.77-4.44l-8.23.11s-8.23.08-16.35-7.17c0,0-.68,5.2-4.93,11.2,0,0-.68.82-1.95.82-.02.04-2.02.26-2.02-1.02Z"/>
  </g>
  <g>
    <line class="cls-1" x1="66.56" y1="134.51" x2="66.56" y2="82.84"/>
    <line class="cls-1" x1="96.96" y1="73.94" x2="96.96" y2="134.51"/>
    <line class="cls-1" x1="96.96" y1="82.84" x2="118.56" y2="82.84"/>
    <polyline class="cls-1" points="66.56 82.84 39.41 82.84 29.64 98.17 29.64 134.51"/>
    <polyline class="cls-1" points="75.14 134.51 75.14 117.1 88.39 117.1 88.39 134.51"/>
    <circle class="cls-1" cx="81.76" cy="88.62" r="5.06"/>
    <polygon class="cls-1" points="81.76 64.43 66.56 74.2 66.56 82.84 81.76 73.44 96.96 82.84 96.96 74.24 81.76 64.43"/>
    <line class="cls-1" x1="81.71" y1="65.91" x2="81.71" y2="56.9"/>
    <rect class="cls-1" x="81.72" y="49.33" width="11.36" height="7.57"/>
    <line class="cls-1" x1="24.93" y1="138.3" x2="101.84" y2="138.3"/>
    <line class="cls-1" x1="29.64" y1="98.17" x2="66.56" y2="98.17"/>
    <line class="cls-1" x1="96.96" y1="98.1" x2="119.67" y2="98.1"/>
  </g>
</svg>