<?xml version="1.0" encoding="UTF-8"?>
<svg id="Icons" xmlns="http://www.w3.org/2000/svg" viewBox="0 0 200 200">
  <defs>
    <style>
      .cls-1, .cls-2 {
        fill: none;
        stroke: #fff;
        stroke-miterlimit: 10;
        stroke-width: 3px;
      }

      .cls-2 {
        stroke-linecap: round;
      }
    </style>
  </defs>
  <line class="cls-1" x1="60.18" y1="106.01" x2="60.18" y2="66.3"/>
  <line class="cls-1" x1="83.54" y1="66.3" x2="83.54" y2="106.01"/>
  <line class="cls-1" x1="83.54" y1="66.3" x2="95.19" y2="66.3"/>
  <polyline class="cls-1" points="60.18 66.3 39.32 66.3 31.81 78.09 31.81 106.01"/>
  <polyline class="cls-1" points="66.78 106.01 66.78 92.63 76.96 92.63 76.96 106.01"/>
  <circle class="cls-1" cx="71.86" cy="70.75" r="3.89"/>
  <polygon class="cls-1" points="71.86 52.16 60.18 59.67 60.18 66.3 71.86 59.08 83.54 66.3 83.54 59.7 71.86 52.16"/>
  <line class="cls-1" x1="71.83" y1="53.29" x2="71.83" y2="46.37"/>
  <rect class="cls-1" x="71.84" y="40.56" width="8.73" height="5.82"/>
  <line class="cls-1" x1="28.19" y1="108.92" x2="89.42" y2="108.92"/>
  <line class="cls-1" x1="31.81" y1="78.09" x2="60.18" y2="78.09"/>
  <line class="cls-1" x1="83.29" y1="78.09" x2="95.19" y2="78.09"/>
  <polyline class="cls-1" points="167.99 117.58 167.99 104.49 167.99 104.34 167.99 68.36 149.93 86.43 149.93 68.36 131.97 86.43 131.97 68.09 99.91 100.14 95.73 104.33 95.73 117.58"/>
  <polyline class="cls-2" points="115.29 84.76 115.29 77.76 99.13 77.76 99.13 100.93"/>
  <rect class="cls-2" x="101.81" y="56.08" width="10.84" height="21.68"/>
  <line class="cls-1" x1="91.96" y1="119.92" x2="171.77" y2="119.92"/>
  <line class="cls-1" x1="124.63" y1="97.9" x2="131.86" y2="97.9"/>
  <line class="cls-1" x1="134.19" y1="97.9" x2="141.42" y2="97.9"/>
  <line class="cls-1" x1="143.74" y1="97.9" x2="150.97" y2="97.9"/>
  <line class="cls-1" x1="153.3" y1="97.9" x2="160.53" y2="97.9"/>
  <line class="cls-1" x1="124.63" y1="103.96" x2="131.86" y2="103.96"/>
  <line class="cls-1" x1="134.19" y1="103.96" x2="141.42" y2="103.96"/>
  <line class="cls-1" x1="143.74" y1="103.96" x2="150.97" y2="103.96"/>
  <line class="cls-1" x1="153.3" y1="103.96" x2="160.53" y2="103.96"/>
  <line class="cls-1" x1="124.63" y1="110.02" x2="131.86" y2="110.02"/>
  <line class="cls-1" x1="134.19" y1="110.02" x2="141.42" y2="110.02"/>
  <line class="cls-1" x1="143.74" y1="110.02" x2="150.97" y2="110.02"/>
  <line class="cls-1" x1="153.3" y1="110.02" x2="160.53" y2="110.02"/>
</svg>