<?xml version="1.0" encoding="UTF-8"?>
<svg id="Icons" xmlns="http://www.w3.org/2000/svg" viewBox="0 0 200 200">
  <defs>
    <style>
      .cls-1, .cls-2 {
        stroke-miterlimit: 10;
      }

      .cls-1, .cls-2, .cls-3, .cls-4 {
        fill: none;
        stroke: #fff;
        stroke-width: 3px;
      }

      .cls-2, .cls-3 {
        stroke-linecap: round;
      }

      .cls-3, .cls-4 {
        stroke-linejoin: round;
      }
    </style>
  </defs>
  <g>
    <line class="cls-1" x1="60.18" y1="160.65" x2="60.18" y2="120.94"/>
    <line class="cls-1" x1="83.54" y1="120.94" x2="83.54" y2="160.65"/>
    <line class="cls-1" x1="83.54" y1="120.94" x2="95.19" y2="120.94"/>
    <polyline class="cls-1" points="60.18 120.94 39.32 120.94 31.81 132.73 31.81 160.65"/>
    <polyline class="cls-1" points="66.78 160.65 66.78 147.27 76.96 147.27 76.96 160.65"/>
    <circle class="cls-1" cx="71.86" cy="125.38" r="3.89"/>
    <polygon class="cls-1" points="71.86 106.79 60.18 114.3 60.18 120.94 71.86 113.72 83.54 120.94 83.54 114.33 71.86 106.79"/>
    <line class="cls-1" x1="71.83" y1="107.93" x2="71.83" y2="101.01"/>
    <rect class="cls-1" x="71.84" y="95.19" width="8.73" height="5.82"/>
    <line class="cls-1" x1="28.19" y1="163.56" x2="89.42" y2="163.56"/>
    <line class="cls-1" x1="31.81" y1="132.73" x2="60.18" y2="132.73"/>
    <line class="cls-1" x1="83.29" y1="132.73" x2="95.19" y2="132.73"/>
    <polyline class="cls-1" points="167.99 172.22 167.99 159.13 167.99 158.97 167.99 123 149.93 141.06 149.93 123 131.97 141.06 131.97 122.72 99.91 154.78 95.73 158.96 95.73 172.22"/>
    <polyline class="cls-2" points="115.29 139.4 115.29 132.39 99.13 132.39 99.13 155.56"/>
    <rect class="cls-2" x="101.81" y="110.71" width="10.84" height="21.68"/>
    <line class="cls-1" x1="91.96" y1="174.56" x2="171.77" y2="174.56"/>
    <line class="cls-1" x1="124.63" y1="152.53" x2="131.86" y2="152.53"/>
    <line class="cls-1" x1="134.19" y1="152.53" x2="141.42" y2="152.53"/>
    <line class="cls-1" x1="143.74" y1="152.53" x2="150.97" y2="152.53"/>
    <line class="cls-1" x1="153.3" y1="152.53" x2="160.53" y2="152.53"/>
    <line class="cls-1" x1="124.63" y1="158.6" x2="131.86" y2="158.6"/>
    <line class="cls-1" x1="134.19" y1="158.6" x2="141.42" y2="158.6"/>
    <line class="cls-1" x1="143.74" y1="158.6" x2="150.97" y2="158.6"/>
    <line class="cls-1" x1="153.3" y1="158.6" x2="160.53" y2="158.6"/>
    <line class="cls-1" x1="124.63" y1="164.66" x2="131.86" y2="164.66"/>
    <line class="cls-1" x1="134.19" y1="164.66" x2="141.42" y2="164.66"/>
    <line class="cls-1" x1="143.74" y1="164.66" x2="150.97" y2="164.66"/>
    <line class="cls-1" x1="153.3" y1="164.66" x2="160.53" y2="164.66"/>
  </g>
  <g>
    <path class="cls-3" d="M99.96,44.77c-8.72,0-15.79,7.07-15.79,15.79"/>
    <line class="cls-4" x1="100" y1="32.96" x2="100" y2="25.06"/>
    <line class="cls-4" x1="72.36" y1="60.59" x2="64.47" y2="60.59"/>
    <line class="cls-4" x1="135.53" y1="60.59" x2="127.64" y2="60.59"/>
    <line class="cls-4" x1="80.46" y1="41.05" x2="74.88" y2="35.47"/>
    <line class="cls-4" x1="125.12" y1="85.71" x2="119.54" y2="80.14"/>
    <line class="cls-4" x1="80.46" y1="80.12" x2="74.88" y2="85.71"/>
    <line class="cls-4" x1="125.12" y1="35.47" x2="119.53" y2="41.06"/>
    <path class="cls-2" d="M93.68,96.91h2.36v3.15h7.89v-3.15h2.36v-13.5c10.01-2.77,17.36-11.93,17.36-22.82,0-13.08-10.6-23.68-23.68-23.68s-23.67,10.6-23.67,23.68c0,10.9,7.35,20.06,17.36,22.82v13.5Z"/>
    <line class="cls-3" x1="93.68" y1="88.07" x2="106.32" y2="88.07"/>
  </g>
</svg>