<?xml version="1.0" encoding="UTF-8"?>
<svg id="Icons" xmlns="http://www.w3.org/2000/svg" viewBox="0 0 200 200">
  <defs>
    <style>
      .cls-1, .cls-2 {
        fill: none;
        stroke: #fff;
        stroke-miterlimit: 10;
        stroke-width: 3px;
      }

      .cls-2 {
        stroke-linecap: round;
      }
    </style>
  </defs>
  <g>
    <line class="cls-1" x1="57.61" y1="91.45" x2="57.61" y2="54.75"/>
    <line class="cls-1" x1="79.21" y1="54.75" x2="79.21" y2="91.45"/>
    <polyline class="cls-1" points="79.21 54.75 98.79 54.75 105.73 65.65 105.73 91.39"/>
    <polyline class="cls-1" points="57.61 54.75 38.34 54.75 31.4 65.65 31.4 91.45"/>
    <polyline class="cls-1" points="63.71 91.45 63.71 79.08 73.12 79.08 73.12 91.45"/>
    <circle class="cls-1" cx="68.41" cy="58.86" r="3.59"/>
    <polygon class="cls-1" points="68.41 41.68 57.61 48.62 57.61 54.75 68.41 48.08 79.21 54.75 79.21 48.65 68.41 41.68"/>
    <line class="cls-1" x1="68.38" y1="42.73" x2="68.38" y2="36.34"/>
    <rect class="cls-1" x="68.39" y="30.96" width="8.07" height="5.38"/>
    <line class="cls-1" x1="28.05" y1="94.14" x2="108.92" y2="94.14"/>
    <line class="cls-1" x1="31.4" y1="65.65" x2="57.61" y2="65.65"/>
    <line class="cls-1" x1="79.21" y1="65.6" x2="105.73" y2="65.6"/>
  </g>
  <g>
    <polyline class="cls-2" points="132.16 55.1 138.84 40.62 151.7 72.23 138.84 72.23"/>
    <path class="cls-2" d="M43.01,100.67c0,4.56.54,8.99,1.56,13.24"/>
    <path class="cls-2" d="M132.16,55.1c-9.26-6.7-20.64-10.65-32.93-10.65-4.42,0-8.72.51-12.85,1.48-.6.14-1.19.29-1.78.45"/>
  </g>
  <g>
    <polyline class="cls-2" points="67.48 144.55 60.8 159.02 47.94 127.43 60.8 127.43"/>
    <path class="cls-2" d="M153.51,117.49c2.02-5.8,3.12-12.03,3.12-18.52,0-4.56-.54-8.99-1.56-13.24"/>
    <path class="cls-2" d="M67.48,144.55c7.23,5.23,15.75,8.78,24.99,10.09"/>
  </g>
  <g>
    <polyline class="cls-1" points="165.49 161.94 165.49 149.82 165.49 149.68 165.49 116.36 148.75 133.09 148.75 116.36 132.12 133.09 132.12 116.1 102.43 145.79 98.55 149.67 98.55 161.94"/>
    <polyline class="cls-2" points="116.68 131.55 116.68 125.06 101.7 125.06 101.7 146.52"/>
    <rect class="cls-2" x="104.19" y="104.98" width="10.04" height="20.08"/>
    <line class="cls-1" x1="95.06" y1="164.11" x2="168.98" y2="164.11"/>
    <line class="cls-1" x1="125.33" y1="143.71" x2="132.02" y2="143.71"/>
    <line class="cls-1" x1="134.18" y1="143.71" x2="140.87" y2="143.71"/>
    <line class="cls-1" x1="143.03" y1="143.71" x2="149.72" y2="143.71"/>
    <line class="cls-1" x1="151.88" y1="143.71" x2="158.57" y2="143.71"/>
    <line class="cls-1" x1="125.33" y1="149.33" x2="132.02" y2="149.33"/>
    <line class="cls-1" x1="134.18" y1="149.33" x2="140.87" y2="149.33"/>
    <line class="cls-1" x1="143.03" y1="149.33" x2="149.72" y2="149.33"/>
    <line class="cls-1" x1="151.88" y1="149.33" x2="158.57" y2="149.33"/>
    <line class="cls-1" x1="125.33" y1="154.94" x2="132.02" y2="154.94"/>
    <line class="cls-1" x1="134.18" y1="154.94" x2="140.87" y2="154.94"/>
    <line class="cls-1" x1="143.03" y1="154.94" x2="149.72" y2="154.94"/>
    <line class="cls-1" x1="151.88" y1="154.94" x2="158.57" y2="154.94"/>
  </g>
</svg>