<?xml version="1.0" encoding="UTF-8"?>
<svg id="Icons" xmlns="http://www.w3.org/2000/svg" viewBox="0 0 200 200">
  <defs>
    <style>
      .cls-1 {
        fill: none;
        stroke: #fff;
        stroke-linecap: round;
        stroke-linejoin: round;
        stroke-width: 3px;
      }
    </style>
  </defs>
  <path class="cls-1" d="M137.97,156.99v-29.34c.17-3.44,5.27-8.37,9.04-16.08,3.77-7.72,3.12-17.23,3.12-17.23,2.9-55.31-51.69-51.26-51.69-51.26,0,0-51.51-.07-45.75,54.75l-10.9,23.41s-1.65,4.34,4.42,5.62c6.06,1.28,7.21.3,8.37,4.07,1.15,3.78,2.62,20.53,2.62,20.53,0,0,.66,5.41,8.05,5.41h17.73s13.79.5,13.96-16.08"/>
  <path class="cls-1" d="M107.62,68.46c1.41-1.41,3.17-2.23,5-2.49l-8.74-8.74-8.74,8.74c-.26-1.83-1.08-3.59-2.49-5-3.44-3.44-9.03-3.44-12.47,0-3.44,3.44-3.44,9.03,0,12.47,1.41,1.41,3.17,2.23,5,2.49l-8.74,8.74,27.44,27.44,27.44-27.44-8.74-8.74c-.26,1.83-1.08,3.59-2.49,5-3.44,3.44-9.03,3.44-12.47,0-3.44-3.44-3.44-9.03,0-12.47Z"/>
</svg>