<?xml version="1.0" encoding="UTF-8"?>
<svg id="Icons" xmlns="http://www.w3.org/2000/svg" viewBox="0 0 200 200">
  <defs>
    <style>
      .cls-1, .cls-2 {
        stroke-miterlimit: 10;
      }

      .cls-1, .cls-2, .cls-3 {
        fill: none;
        stroke: #fff;
        stroke-width: 3px;
      }

      .cls-2, .cls-3 {
        stroke-linecap: round;
      }

      .cls-3 {
        stroke-linejoin: round;
      }
    </style>
  </defs>
  <path class="cls-1" d="M117.78,152.74v7.08h-35.54v-7.08h-44.97v4.51c0,6.38,5.18,9.65,11.55,9.65h102.35c6.38,0,11.55-3.27,11.55-9.65v-4.51h-44.94Z"/>
  <path class="cls-1" d="M40.37,152.74v-65.84c0-3.94,3.2-7.14,7.14-7.14h104.98c3.94,0,7.14,3.2,7.14,7.14v65.86"/>
  <polyline class="cls-1" points="149.77 147.11 149.77 89.33 50.23 89.33 50.23 152.74"/>
  <g>
    <ellipse class="cls-1" cx="99.8" cy="129.91" rx="21.74" ry="7.25"/>
    <path class="cls-2" d="M86.41,110.82c-5.1,1.33-8.37,3.4-8.37,5.71"/>
    <path class="cls-2" d="M121.52,116.53c0-4-9.73-7.25-21.74-7.25-2.57,0-5.03.15-7.32.42"/>
    <line class="cls-1" x1="78.05" y1="116.5" x2="78.05" y2="129.91"/>
    <line class="cls-1" x1="121.52" y1="116.53" x2="121.52" y2="130.23"/>
    <polyline class="cls-2" points="74.34 115.46 73.08 114.92 65.02 111.43 99.8 96.35 134.57 111.43 121.54 117.08"/>
    <line class="cls-1" x1="128.91" y1="113.76" x2="128.91" y2="131.15"/>
    <path class="cls-1" d="M131.73,142.82h-5.8v-8.66c0-1.6,1.3-2.9,2.9-2.9s2.9,1.3,2.9,2.9v8.66Z"/>
  </g>
  <line class="cls-3" x1="99.73" y1="72.68" x2="99.73" y2="50.13"/>
  <circle class="cls-3" cx="99.73" cy="40.92" r="7.82"/>
  <polyline class="cls-3" points="113.72 72.68 113.72 54.41 128.48 54.41"/>
  <circle class="cls-3" cx="136.3" cy="54.41" r="7.82"/>
  <g>
    <polyline class="cls-3" points="85.85 72.68 85.85 54.41 71.12 54.41"/>
    <circle class="cls-3" cx="63.3" cy="54.41" r="7.82"/>
  </g>
</svg>