<?xml version="1.0" encoding="UTF-8"?>
<svg id="Icons" xmlns="http://www.w3.org/2000/svg" viewBox="0 0 200 200">
  <defs>
    <style>
      .cls-1, .cls-2 {
        fill: none;
        stroke: #fff;
        stroke-miterlimit: 10;
        stroke-width: 3px;
      }

      .cls-2 {
        stroke-linecap: round;
      }
    </style>
  </defs>
  <g>
    <path class="cls-2" d="M51.37,63.05s-4.09,4.55,2.04,9.89c0,0,4.86,14.91,17.1,14.91"/>
    <path class="cls-2" d="M89.42,63.03s4.11,4.8-2.06,10.06c0,0-5.03,14.86-17.24,14.72"/>
    <g>
      <path class="cls-2" d="M60.31,83.68l-.74,8.41-20.09,8.16s-4.69,1.33-6.42,10.83"/>
      <polyline class="cls-2" points="59.54 92.06 70.4 103.32 81.62 92.32"/>
    </g>
    <path class="cls-2" d="M80.92,83.24l.7,9.08,20.01,8.38s4.69,1.39,6.31,10.88"/>
    <path class="cls-2" d="M50.34,61.95v-12.24s.57-11.36,12.87-10.83c0,0,1.33-2.98,9.72-2.67,0,0,15.59.31,17.56,14.66v11.62s-2.7,2.9-5-4.66l-8.64.11s-8.64.08-17.16-7.53c0,0-.71,5.46-5.17,11.77,0,0-.71.85-2.04.85-.04.02-2.13.25-2.13-1.09Z"/>
  </g>
  <g>
    <path class="cls-2" d="M136.41,54.46c-8.3,11.86-23.05,10.87-23.05,10.87,0,13.88,6.63,25.09,14.78,25.09s14.78-11.24,14.78-25.09c.09.04-4.24-2.04-6.51-10.87Z"/>
    <path class="cls-2" d="M112.71,91.21c-2.41-.48-3.51-2.18-3.51-2.18v-4.2c-1.93-11.24-1.93-10.54-1.9-17.14,0-12.58,9.31-22.74,20.85-22.74s20.85,10.19,20.85,22.74c0,0,.23,9.54-1.79,17.27l-.31,4.13s-1.16,1.64-3.46,2.49"/>
    <path class="cls-2" d="M134.97,87.6l1.84,5.75,18.75,7.33s4.68,1.38,6.29,10.84v5.26"/>
    <path class="cls-2" d="M119.49,93.35l7.99,6.43s1.19,1.11,2.59,0l6.73-6.43"/>
    <path class="cls-2" d="M108.57,97.61l10.92-4.27,1.84-5.75"/>
  </g>
  <path class="cls-1" d="M115.74,164.54v3.25c0,4.59-3.73,6.95-8.32,6.95H33.73c-4.59,0-8.32-2.36-8.32-6.95v-3.25h2.23v-47.4c0-2.84,2.3-5.14,5.14-5.14h75.58c2.84,0,5.14,2.3,5.14,5.14v47.42h2.23Z"/>
  <path class="cls-1" d="M113.36,116.78h56.18c1.84,0,3.33,1.49,3.33,3.33v30.69h1.45s0,2.09,0,2.09c0,2.97-2.41,4.5-5.38,4.5h-55.69"/>
</svg>