<?xml version="1.0" encoding="UTF-8"?>
<svg id="Icons" xmlns="http://www.w3.org/2000/svg" viewBox="0 0 200 200">
  <defs>
    <style>
      .cls-1, .cls-2 {
        fill: none;
        stroke: #fff;
        stroke-miterlimit: 10;
        stroke-width: 3px;
      }

      .cls-2 {
        stroke-linecap: round;
      }
    </style>
  </defs>
  <polygon class="cls-2" points="121.9 50.31 80.8 50.31 70.8 62.5 70.8 144.03 131.9 144.03 131.9 62.5 121.9 50.31"/>
  <circle class="cls-2" cx="101.35" cy="69.89" r="8.3"/>
  <path class="cls-2" d="M105.58,62.75c.31,2.39-.12,4.48-1.4,6.02-4.08,4.89-15.23,2.31-24.91-5.75-9.68-8.07-14.22-18.57-10.15-23.46,4.08-4.89,15.23-2.31,24.91,5.75,1.91,1.59,3.62,3.28,5.11,5.01"/>
  <g>
    <circle class="cls-1" cx="101.12" cy="109.13" r="21.04"/>
    <path class="cls-1" d="M108.13,118.06c-1.53,1.42-3.6,2.29-5.88,2.29-4.67,0-8.47-2.31-8.47-6.81v-7.49c0-4.5,3.8-8.15,8.47-8.15,2.31,0,4.41.89,5.94,2.35"/>
    <line class="cls-1" x1="91.3" y1="106.26" x2="102.25" y2="106.26"/>
    <line class="cls-1" x1="91.3" y1="112.42" x2="102.25" y2="112.42"/>
  </g>
</svg>