<?xml version="1.0" encoding="UTF-8"?>
<svg id="Icons" xmlns="http://www.w3.org/2000/svg" viewBox="0 0 200 200">
  <defs>
    <style>
      .cls-1 {
        fill: none;
        stroke: #fff;
        stroke-linecap: round;
        stroke-linejoin: round;
        stroke-width: 3px;
      }
    </style>
  </defs>
  <path class="cls-1" d="M106.82,70.45c2.56-2.56,5.78-4.06,9.11-4.53l-15.92-15.92-15.92,15.92c-.47-3.33-1.97-6.54-4.53-9.11-6.28-6.28-16.45-6.28-22.73,0-6.28,6.28-6.28,16.45,0,22.73,2.56,2.56,5.78,4.06,9.11,4.53l-15.92,15.92,50,50,50-50-15.92-15.92c-.47,3.33-1.97,6.54-4.53,9.11-6.28,6.28-16.45,6.28-22.73,0s-6.28-16.45,0-22.73Z"/>
</svg>