<?xml version="1.0" encoding="UTF-8"?>
<svg id="Icons" xmlns="http://www.w3.org/2000/svg" viewBox="0 0 200 200">
  <defs>
    <style>
      .cls-1 {
        fill: none;
        stroke: #fff;
        stroke-linecap: round;
        stroke-linejoin: round;
        stroke-width: 3px;
      }
    </style>
  </defs>
  <path class="cls-1" d="M105.3,115.91c1.99-1.99,4.49-3.16,7.08-3.52l-12.39-12.39-12.39,12.39c-.37-2.59-1.53-5.09-3.52-7.08-4.88-4.88-12.8-4.88-17.68,0-4.88,4.88-4.88,12.8,0,17.68,1.99,1.99,4.49,3.16,7.08,3.52l-12.39,12.39,38.89,38.89,38.89-38.89-12.39-12.39c-.37,2.59-1.53,5.09-3.52,7.08-4.88,4.88-12.8,4.88-17.68,0s-4.88-12.8,0-17.68Z"/>
  <path class="cls-1" d="M84.09,105.3c1.99,1.99,3.16,4.49,3.52,7.08l12.39-12.39-12.39-12.39c2.59-.37,5.09-1.53,7.08-3.52,4.88-4.88,4.88-12.8,0-17.68-4.88-4.88-12.8-4.88-17.68,0-1.99,1.99-3.16,4.49-3.52,7.08l-12.39-12.39-38.89,38.89,38.89,38.89,12.39-12.39c-2.59-.37-5.09-1.53-7.08-3.52-4.88-4.88-4.88-12.8,0-17.68s12.8-4.88,17.68,0Z"/>
  <path class="cls-1" d="M94.7,84.09c-1.99,1.99-4.49,3.16-7.08,3.52l12.39,12.39,12.39-12.39c.37,2.59,1.53,5.09,3.52,7.08,4.88,4.88,12.8,4.88,17.68,0,4.88-4.88,4.88-12.8,0-17.68-1.99-1.99-4.49-3.16-7.08-3.52l12.39-12.39-38.89-38.89-38.89,38.89,12.39,12.39c.37-2.59,1.53-5.09,3.52-7.08,4.88-4.88,12.8-4.88,17.68,0,4.88,4.88,4.88,12.8,0,17.68Z"/>
  <path class="cls-1" d="M115.91,94.7c-1.99-1.99-3.16-4.49-3.52-7.09l-12.39,12.39,12.39,12.39c-2.59.37-5.09,1.53-7.09,3.52-4.88,4.88-4.88,12.8,0,17.68,4.88,4.88,12.8,4.88,17.68,0,1.99-1.99,3.16-4.49,3.52-7.09l12.39,12.39,38.89-38.89-38.89-38.89-12.39,12.39c2.59.37,5.09,1.53,7.09,3.52,4.88,4.88,4.88,12.8,0,17.68s-12.8,4.88-17.68,0Z"/>
</svg>