<?xml version="1.0" encoding="UTF-8"?>
<svg id="Icons" xmlns="http://www.w3.org/2000/svg" viewBox="0 0 200 200">
  <defs>
    <style>
      .cls-1 {
        fill: none;
        stroke: #fff;
        stroke-linecap: round;
        stroke-miterlimit: 10;
        stroke-width: 3px;
      }
    </style>
  </defs>
  <polygon class="cls-1" points="99.66 57.77 113.36 85.57 144.01 90.03 121.84 111.67 127.07 142.23 99.66 127.8 72.25 142.23 77.48 111.67 55.3 90.03 85.95 85.57 99.66 57.77"/>
  <polyline class="cls-1" points="124.66 82.2 121.15 78.78 141.11 75.88 150.04 57.77 158.96 75.88 178.92 78.78 164.48 92.88 167.89 112.77 150.04 103.38 132.18 112.77 132.94 108.37"/>
  <polyline class="cls-1" points="75.34 82.2 78.85 78.78 58.89 75.88 49.96 57.77 41.04 75.88 21.08 78.78 35.52 92.88 32.11 112.77 49.96 103.38 67.82 112.77 67.06 108.37"/>
</svg>