<?xml version="1.0" encoding="UTF-8"?>
<svg id="Icons" xmlns="http://www.w3.org/2000/svg" viewBox="0 0 200 200">
  <defs>
    <style>
      .cls-1, .cls-2 {
        fill: none;
        stroke: #fff;
        stroke-miterlimit: 10;
        stroke-width: 3px;
      }

      .cls-2 {
        stroke-linecap: round;
      }
    </style>
  </defs>
  <g>
    <polyline class="cls-2" points="134.14 52.78 141.2 37.5 154.78 70.86 141.2 70.86"/>
    <path class="cls-2" d="M134.15,52.77c-9.77-7.07-21.78-11.24-34.77-11.24-32.78,0-59.36,26.58-59.36,59.36,0,4.81.57,9.49,1.65,13.98"/>
  </g>
  <g>
    <polyline class="cls-2" points="65.86 147.23 58.8 162.5 45.22 129.14 58.8 129.14"/>
    <path class="cls-2" d="M65.85,147.23c9.77,7.07,21.78,11.24,34.77,11.24,32.78,0,59.36-26.58,59.36-59.36,0-4.81-.57-9.49-1.65-13.98"/>
  </g>
  <g>
    <polyline class="cls-2" points="131.01 99.93 131.01 131.4 69.02 131.4 69.02 99.83"/>
    <polyline class="cls-1" points="88.49 75.2 88.49 68.6 111.54 68.6 111.54 75.2"/>
    <rect class="cls-2" x="79.3" y="103.51" width="11.08" height="5.52"/>
    <rect class="cls-2" x="108.32" y="103.51" width="11.08" height="5.52"/>
    <path class="cls-2" d="M124.15,103.51h-48.2c-4.6,0-8.34-3.72-8.34-8.31v-16.98h64.78v16.98c0,4.59-3.64,8.31-8.24,8.31Z"/>
  </g>
</svg>