<?xml version="1.0" encoding="UTF-8"?>
<svg id="Icons" xmlns="http://www.w3.org/2000/svg" viewBox="0 0 200 200">
  <defs>
    <style>
      .cls-1, .cls-2 {
        fill: none;
        stroke: #fff;
        stroke-miterlimit: 10;
        stroke-width: 3px;
      }

      .cls-2 {
        stroke-linecap: round;
      }
    </style>
  </defs>
  <polyline class="cls-1" points="100.93 124.18 47.91 124.18 47.91 86.24"/>
  <polyline class="cls-1" points="71.24 57.1 71.24 49.18 98.84 49.18 98.84 57.1"/>
  <rect class="cls-2" x="60.22" y="90.67" width="13.27" height="6.64"/>
  <rect class="cls-2" x="95" y="90.67" width="13.27" height="6.64"/>
  <path class="cls-1" d="M108.27,90.67h-52.06c-5.52,0-9.99-4.47-9.99-9.99v-20.4h64.34"/>
  <path class="cls-2" d="M113.66,130.8c0,6.63,5.37,12,12,12s12-5.37,12-12-5.37-12-12-12v-37.58"/>
  <line class="cls-1" x1="153.78" y1="71.08" x2="141.78" y2="71.08"/>
  <line class="cls-1" x1="153.78" y1="81.08" x2="141.78" y2="81.08"/>
  <line class="cls-1" x1="153.78" y1="91.08" x2="141.78" y2="91.08"/>
  <line class="cls-1" x1="153.78" y1="101.08" x2="141.78" y2="101.08"/>
  <path class="cls-1" d="M135.66,113.51v-53.15h-.02c-.25-5.3-4.61-9.53-9.98-9.53s-9.73,4.23-9.98,9.53h-.01v.24c0,.08-.01.16-.01.24s.01.16.01.24v52.44c-5.98,3.46-10.01,9.92-10.01,17.32,0,11.05,8.95,20,20,20s20-8.95,20-20c0-7.4-4.02-13.86-10-17.32Z"/>
</svg>