<?xml version="1.0" encoding="UTF-8"?>
<svg id="Icons" xmlns="http://www.w3.org/2000/svg" viewBox="0 0 200 200">
  <defs>
    <style>
      .cls-1 {
        stroke: #010202;
        stroke-linejoin: round;
      }

      .cls-1, .cls-2 {
        fill: none;
        stroke-linecap: round;
        stroke-width: 3px;
      }

      .cls-2 {
        stroke: #020304;
        stroke-miterlimit: 10;
      }
    </style>
  </defs>
  <path class="cls-1" d="M162.5,126.51c0,12.05-27.98,22.82-62.5,22.82s-62.5-10.77-62.5-22.82v-50.19c0,12.05,27.98,22.82,62.5,22.82s62.5-10.77,62.5-22.82v50.19Z"/>
  <path class="cls-1" d="M37.5,75.5c0-8.96,15.46-17.21,37.57-20.85v42.04"/>
  <path class="cls-1" d="M162.5,75.91c0-8.96-15.46-17.21-37.57-20.85v42.04"/>
  <line class="cls-1" x1="112.08" y1="60.89" x2="88.08" y2="60.89"/>
  <polyline class="cls-2" points="99.99 71.12 88.08 60.9 99.99 50.67"/>
  <polyline class="cls-2" points="56.29 142.61 82.61 116.29 93.76 127.44 111.44 109.76 144 142.32"/>
</svg>