<?xml version="1.0" encoding="UTF-8"?>
<svg id="Icons" xmlns="http://www.w3.org/2000/svg" viewBox="0 0 200 200">
  <defs>
    <style>
      .cls-1 {
        stroke-linejoin: round;
      }

      .cls-1, .cls-2, .cls-3 {
        fill: none;
        stroke: #030505;
        stroke-width: 3px;
      }

      .cls-2 {
        stroke-linecap: round;
      }

      .cls-2, .cls-3 {
        stroke-miterlimit: 10;
      }
    </style>
  </defs>
  <path class="cls-1" d="M104.06,53.62l34.7-4.57,11.34,52.09c1.58,11.99-6.84,22.97-18.83,24.55-11.99,1.58-22.97-6.86-24.55-18.84l-2.66-53.23Z"/>
  <line class="cls-3" x1="136.16" y1="162.87" x2="131.26" y2="125.69"/>
  <line class="cls-2" x1="116.34" y1="165.48" x2="156" y2="160.26"/>
  <path class="cls-3" d="M105.93,91.2c.68,13.46,44.1,9.95,44.1,9.95"/>
  <path class="cls-1" d="M93.28,106.86c-1.58,11.98-12.56,20.41-24.55,18.84-11.99-1.58-20.41-12.56-18.83-24.55l11.34-52.09,34.7,4.57-2.66,53.23Z"/>
  <line class="cls-3" x1="68.74" y1="125.69" x2="63.84" y2="162.87"/>
  <line class="cls-2" x1="44" y1="160.26" x2="83.66" y2="165.48"/>
  <path class="cls-3" d="M49.97,101.16s43.41,3.51,44.1-9.95"/>
  <line class="cls-3" x1="100.26" y1="41.53" x2="100.26" y2="26.53"/>
  <line class="cls-3" x1="108.17" y1="44.6" x2="118.78" y2="34"/>
  <line class="cls-3" x1="92.36" y1="44.6" x2="81.75" y2="34"/>
</svg>