<?xml version="1.0" encoding="UTF-8"?>
<svg id="Icons" xmlns="http://www.w3.org/2000/svg" viewBox="0 0 200 200">
  <defs>
    <style>
      .cls-1 {
        stroke: #020304;
      }

      .cls-1, .cls-2, .cls-3, .cls-4, .cls-5, .cls-6 {
        fill: none;
        stroke-width: 3px;
      }

      .cls-1, .cls-3, .cls-4, .cls-5, .cls-6 {
        stroke-linecap: round;
      }

      .cls-1, .cls-3, .cls-5 {
        stroke-linejoin: round;
      }

      .cls-2, .cls-4, .cls-5 {
        stroke: #010202;
      }

      .cls-2, .cls-4, .cls-6 {
        stroke-miterlimit: 10;
      }

      .cls-3 {
        stroke: #030405;
      }

      .cls-6 {
        stroke: #000;
      }
    </style>
  </defs>
  <g>
    <line class="cls-5" x1="100" y1="36.78" x2="100" y2="21.23"/>
    <line class="cls-5" x1="45.56" y1="91.23" x2="30" y2="91.23"/>
    <line class="cls-5" x1="170" y1="91.23" x2="154.44" y2="91.23"/>
    <line class="cls-1" x1="61.5" y1="52.73" x2="50.51" y2="41.74"/>
    <line class="cls-1" x1="149.49" y1="140.72" x2="138.5" y2="129.73"/>
    <line class="cls-3" x1="61.5" y1="129.72" x2="50.5" y2="140.73"/>
    <line class="cls-3" x1="149.5" y1="41.72" x2="138.49" y2="52.74"/>
    <path class="cls-2" d="M146.67,91.23c0-25.77-20.89-46.67-46.67-46.67s-46.67,20.89-46.67,46.67c0,21.47,14.5,39.52,34.22,44.97v26.58h4.67v6.22h15.56v-6.22h4.67v-26.58c19.72-5.45,34.22-23.51,34.22-44.97Z"/>
    <line class="cls-5" x1="87.56" y1="145.36" x2="112.44" y2="145.36"/>
    <line class="cls-5" x1="87.56" y1="154.16" x2="112.44" y2="154.16"/>
  </g>
  <g>
    <circle class="cls-6" cx="100" cy="90.12" r="9.94"/>
    <path class="cls-4" d="M131.25,96.37v-12.5h-7.04c-.59-2.29-1.5-4.46-2.67-6.45l4.98-4.98-8.84-8.84-4.98,4.98c-1.99-1.18-4.15-2.09-6.45-2.68v-7.04h-12.5v7.04c-2.29.59-4.45,1.5-6.44,2.68l-4.98-4.98-8.84,8.84,4.98,4.98c-1.17,1.99-2.09,4.15-2.68,6.44h-7.04v12.5h7.04c.59,2.29,1.5,4.46,2.67,6.45l-4.98,4.98,8.84,8.84,4.98-4.98c1.99,1.18,4.15,2.09,6.45,2.68v7.04h12.5v-7.04c2.29-.59,4.45-1.5,6.44-2.68l4.98,4.98,8.84-8.84-4.98-4.98c1.17-1.99,2.09-4.15,2.68-6.44h7.04Z"/>
  </g>
</svg>