<?xml version="1.0" encoding="UTF-8"?>
<svg id="Icons" xmlns="http://www.w3.org/2000/svg" viewBox="0 0 200 200">
  <defs>
    <style>
      .cls-1, .cls-2 {
        fill: none;
        stroke: #030505;
        stroke-linejoin: round;
        stroke-width: 3px;
      }

      .cls-2 {
        stroke-linecap: round;
      }
    </style>
  </defs>
  <path class="cls-1" d="M117.49,51.94s-17.77.41-36.49,7.08v25.6s.08,35.17,36.49,54.46c36.41-19.29,36.49-54.46,36.49-54.46v-25.6c-18.72-6.67-36.49-7.08-36.49-7.08Z"/>
  <path class="cls-2" d="M112.98,89.44c-1.43-4.63-5.75-8-10.86-8s-9.42,3.37-10.86,8"/>
  <path class="cls-2" d="M144.2,89.44c-1.43-4.63-5.75-8-10.86-8s-9.42,3.37-10.86,8"/>
  <path class="cls-2" d="M133.35,107.77c-2.19,7.1-8.81,12.26-16.63,12.26s-14.44-5.16-16.63-12.26h33.26Z"/>
  <path class="cls-2" d="M74.26,75.77s-14.63,5.43-28.24,16.33l7.34,21.24s10.15,29.15,45.88,34.72c2.77-2.97,5.11-5.98,7.07-8.97"/>
  <path class="cls-2" d="M64.08,115.84c2.31,3.02,6.39,4.32,10.15,2.94s6.02-5.03,5.81-8.82"/>
</svg>