<?xml version="1.0" encoding="UTF-8"?>
<svg id="Icons" xmlns="http://www.w3.org/2000/svg" viewBox="0 0 200 200">
  <defs>
    <style>
      .cls-1, .cls-2, .cls-3 {
        stroke-linejoin: round;
      }

      .cls-1, .cls-2, .cls-3, .cls-4 {
        fill: none;
        stroke-width: 3px;
      }

      .cls-1, .cls-4 {
        stroke: #030505;
      }

      .cls-2 {
        stroke-linecap: round;
      }

      .cls-2, .cls-3 {
        stroke: #030405;
      }

      .cls-4 {
        stroke-miterlimit: 10;
      }
    </style>
  </defs>
  <polygon class="cls-2" points="126.48 72.49 126.48 162.58 50.92 162.44 50.92 49.88 103.46 49.93 126.48 72.49"/>
  <polyline class="cls-3" points="103.39 61.49 103.39 73.01 126.48 73.01"/>
  <polyline class="cls-3" points="101.45 37.49 38.42 37.49 38.42 157.59"/>
  <line class="cls-3" x1="63.43" y1="98.25" x2="113.45" y2="98.25"/>
  <line class="cls-3" x1="63.43" y1="107.44" x2="113.45" y2="107.44"/>
  <line class="cls-3" x1="63.43" y1="116.6" x2="88" y2="116.6"/>
  <line class="cls-3" x1="63.43" y1="125.77" x2="113.45" y2="125.77"/>
  <line class="cls-3" x1="63.43" y1="134.93" x2="113.45" y2="134.93"/>
  <line class="cls-3" x1="63.43" y1="144.1" x2="88" y2="144.1"/>
  <polyline class="cls-1" points="147.83 139.16 147.83 76.41 154.93 58.48 155.05 58.77 162.17 76.41 162.17 139.16"/>
  <ellipse class="cls-4" cx="155" cy="139.16" rx="7.17" ry="2.87"/>
  <path class="cls-4" d="M147.83,132.62c0-1.58,3.21-2.87,7.17-2.87s7.17,1.28,7.17,2.87"/>
  <path class="cls-4" d="M147.83,77.84c0-1.58,3.21-2.87,7.17-2.87s7.17,1.28,7.17,2.87"/>
</svg>