<?xml version="1.0" encoding="UTF-8"?>
<svg id="Icons" xmlns="http://www.w3.org/2000/svg" viewBox="0 0 200 200">
  <defs>
    <style>
      .cls-1 {
        stroke-linejoin: round;
      }

      .cls-1, .cls-2, .cls-3 {
        fill: none;
        stroke: #030505;
        stroke-width: 3px;
      }

      .cls-2 {
        stroke-linecap: round;
      }

      .cls-2, .cls-3 {
        stroke-miterlimit: 10;
      }
    </style>
  </defs>
  <path class="cls-3" d="M124.29,137.38H42.37c-2.96-.01-5.36-2.41-5.36-5.37V62.51c0-2.96,2.4-5.36,5.36-5.36h96.53c2.96,0,5.36,2.4,5.36,5.36v16.76"/>
  <path class="cls-3" d="M118.74,129.35h-62.41c-1.49,0-2.71-1.21-2.71-2.71v-58.76c0-1.5,1.21-2.71,2.71-2.71h74.8c1.5,0,2.71,1.21,2.71,2.71v11.5"/>
  <line class="cls-3" x1="45.18" y1="85.71" x2="45.18" y2="108.81"/>
  <path class="cls-1" d="M123.68,86.14l26.27-3.46,8.58,39.43c1.19,9.07-5.18,17.39-14.25,18.58s-17.39-5.19-18.58-14.26l-2.01-40.29Z"/>
  <line class="cls-3" x1="147.97" y1="168.83" x2="144.26" y2="140.69"/>
  <line class="cls-2" x1="132.97" y1="170.81" x2="162.99" y2="166.85"/>
  <path class="cls-3" d="M125.09,114.58c.52,10.19,33.38,7.53,33.38,7.53"/>
  <polygon class="cls-3" points="82.23 83.36 82.23 111.18 107.23 97.41 86.74 85.9 82.23 83.36"/>
</svg>