<?xml version="1.0" encoding="UTF-8"?>
<svg id="Icons" xmlns="http://www.w3.org/2000/svg" viewBox="0 0 200 200">
  <defs>
    <style>
      .cls-1 {
        fill: none;
        stroke: #030405;
        stroke-miterlimit: 10;
        stroke-width: 3px;
      }
    </style>
  </defs>
  <rect class="cls-1" x="78.27" y="74.96" width="50" height="50" rx="2.53" ry="2.53"/>
  <path class="cls-1" d="M125.29,74.3c.37.4.23.74-.32.74h-43.4c-.55,0-.7-.33-.33-.74l10.17-11.12c.37-.41,1.12-.74,1.67-.74h20.3c.55,0,1.3.33,1.68.74l10.22,11.13Z"/>
  <path class="cls-1" d="M81.24,125.7c-.37-.4-.23-.74.32-.74h43.4c.55,0,.7.33.33.74l-10.17,11.12c-.37.41-1.12.74-1.67.74h-20.3c-.55,0-1.3-.33-1.68-.74l-10.22-11.13Z"/>
  <rect class="cls-1" x="71.73" y="92.48" width="6.41" height="14.97" rx="2.53" ry="2.53"/>
</svg>