<?xml version="1.0" encoding="UTF-8"?>
<svg id="Icons" xmlns="http://www.w3.org/2000/svg" viewBox="0 0 200 200">
  <defs>
    <style>
      .cls-1 {
        fill: none;
        stroke: #010202;
        stroke-miterlimit: 10;
        stroke-width: 3px;
      }

      .cls-2 {
        fill: #1d1d1b;
      }
    </style>
  </defs>
  <path class="cls-1" d="M150.43,126.37c.3,0,.6-.03.89-.08,2.35-.42,4.13-2.47,4.13-4.94v-52.56c0-2.77-2.25-5.02-5.02-5.02H49.45c-2.77,0-5.02,2.25-5.02,5.02v52.56c0,2.77,2.25,5.02,5.02,5.02h34.14l8.82-8.94h15.18l8.83,8.94h34.01Z"/>
  <line class="cls-1" x1="37.5" y1="115.11" x2="37.5" y2="75.11"/>
  <line class="cls-1" x1="162.5" y1="75.11" x2="162.5" y2="115.11"/>
  <line class="cls-1" x1="80" y1="57.62" x2="120" y2="57.62"/>
  <g>
    <path class="cls-2" d="M94.84,78.53h3.12l-8.98,24.92h-2.86l-8.93-24.92h3.07l5.73,16.12c.66,1.85,1.18,3.65,1.57,5.4.41-1.84.94-3.68,1.6-5.51l5.69-16.02Z"/>
    <path class="cls-2" d="M106.03,93.08v10.36h-2.9v-24.92h6.83c3.06,0,5.31.59,6.77,1.76,1.46,1.17,2.19,2.93,2.19,5.28,0,3.3-1.67,5.52-5.01,6.68l6.77,11.2h-3.43l-6.03-10.36h-5.2ZM106.03,90.6h3.97c2.04,0,3.54-.41,4.5-1.22.96-.81,1.43-2.03,1.43-3.66s-.49-2.83-1.46-3.56c-.97-.73-2.53-1.09-4.68-1.09h-3.77v9.53Z"/>
  </g>
</svg>