<?xml version="1.0" encoding="UTF-8"?>
<svg id="Icons" xmlns="http://www.w3.org/2000/svg" viewBox="0 0 200 200">
  <defs>
    <style>
      .cls-1 {
        stroke: #030405;
        stroke-miterlimit: 10;
      }

      .cls-1, .cls-2 {
        fill: none;
        stroke-width: 3px;
      }

      .cls-2 {
        stroke: #1d1d1b;
        stroke-linecap: round;
        stroke-linejoin: round;
      }
    </style>
  </defs>
  <path class="cls-1" d="M130.91,64.28h30.3c2.77,0,5.01,2.24,5.01,5.01v61.82c0,2.77-2.24,5.01-5.01,5.01H46.29c-2.77,0-5.01-2.24-5.01-5.01v-61.82c0-2.77,2.24-5.01,5.01-5.01h17.8"/>
  <path class="cls-1" d="M64.09,72.09h-8.27c-1.4,0-2.53,1.13-2.53,2.53v51.16c0,1.4,1.13,2.53,2.53,2.53h88.63c1.4,0,2.53-1.13,2.53-2.53v-51.16c0-1.4-1.13-2.53-2.53-2.53h-13.55"/>
  <line class="cls-1" x1="156.84" y1="110.31" x2="156.84" y2="90.08"/>
  <polyline class="cls-1" points="132.91 142.08 132.91 156.43 62.09 156.43 62.09 141.85"/>
  <polyline class="cls-1" points="62.09 58.54 62.09 43.57 132.91 43.57 132.91 58.82"/>
  <g>
    <line class="cls-2" x1="97.28" y1="86.01" x2="124.21" y2="73.62"/>
    <line class="cls-2" x1="124.21" y1="105.15" x2="97.28" y2="119.31"/>
    <line class="cls-2" x1="124.21" y1="73.62" x2="124.21" y2="105.15"/>
    <polyline class="cls-2" points="70.35 73.62 70.35 105.15 97.28 119.31"/>
    <line class="cls-2" x1="97.28" y1="86.01" x2="70.35" y2="73.62"/>
    <line class="cls-2" x1="97.28" y1="108.21" x2="97.28" y2="86.01"/>
    <line class="cls-2" x1="97.28" y1="119.31" x2="97.28" y2="108.21"/>
    <line class="cls-2" x1="97.28" y1="58.82" x2="124.21" y2="73.62"/>
    <line class="cls-2" x1="70.35" y1="73.62" x2="97.28" y2="58.82"/>
  </g>
</svg>