<?xml version="1.0" encoding="UTF-8"?>
<svg id="Icons" xmlns="http://www.w3.org/2000/svg" viewBox="0 0 200 200">
  <defs>
    <style>
      .cls-1 {
        fill: none;
        stroke: #1d1d1b;
        stroke-linecap: round;
        stroke-linejoin: round;
        stroke-width: 3px;
      }
    </style>
  </defs>
  <polyline class="cls-1" points="118.99 57.64 131.65 51.82 131.65 66.37"/>
  <line class="cls-1" x1="100" y1="66.37" x2="112.66" y2="60.55"/>
  <line class="cls-1" x1="112.61" y1="98.88" x2="100" y2="105.5"/>
  <polyline class="cls-1" points="131.65 74.08 131.65 88.87 118.99 95.52"/>
  <polyline class="cls-1" points="68.35 73.97 68.35 88.87 81.01 95.52"/>
  <polyline class="cls-1" points="81.01 57.64 68.35 51.82 68.35 66.31"/>
  <polyline class="cls-1" points="100 79.42 100 66.37 87.34 60.55"/>
  <polyline class="cls-1" points="87.39 98.88 100 105.5 100 92.46"/>
  <line class="cls-1" x1="118.99" y1="44.86" x2="131.65" y2="51.82"/>
  <polyline class="cls-1" points="87.34 41.38 89.35 40.28 100 34.43 112.66 41.38"/>
  <line class="cls-1" x1="68.35" y1="51.82" x2="81.01" y2="44.86"/>
  <line class="cls-1" x1="100" y1="34.43" x2="100" y2="48.92"/>
  <line class="cls-1" x1="68.35" y1="88.87" x2="81.01" y2="82.78"/>
  <line class="cls-1" x1="131.65" y1="88.87" x2="118.99" y2="82.78"/>
  <polyline class="cls-1" points="75 102.19 68.35 102.19 50 165.57 150 165.57 130 102.19 125 102.19"/>
  <polyline class="cls-1" points="78.44 108.46 76.89 115.57 122.35 115.57 125.57 128.07 100 128.07 100 140.57 70.56 140.57 67.67 153.07 132.22 153.07 128.91 140.69"/>
</svg>