<?xml version="1.0" encoding="UTF-8"?>
<svg id="Icons" xmlns="http://www.w3.org/2000/svg" viewBox="0 0 200 200">
  <defs>
    <style>
      .cls-1 {
        stroke: #030405;
        stroke-miterlimit: 10;
      }

      .cls-1, .cls-2 {
        fill: none;
        stroke-width: 3px;
      }

      .cls-2 {
        stroke: #1d1d1b;
        stroke-linecap: round;
        stroke-linejoin: round;
      }
    </style>
  </defs>
  <path class="cls-1" d="M132.65,62.35h19.34c2.77,0,5.01,2.24,5.01,5.01v55.53c0,2.77-2.24,5.01-5.01,5.01H48.01c-2.77,0-5.01-2.24-5.01-5.01v-55.53c0-2.77,2.24-5.01,5.01-5.01h13.67"/>
  <path class="cls-1" d="M132.66,69.47h4.26c1.4,0,2.53,1.13,2.53,2.53v46.23c0,1.4-1.13,2.53-2.53,2.53H56.49c-1.4,0-2.53-1.13-2.53-2.53v-46.23c0-1.4,1.13-2.53,2.53-2.53h5.2"/>
  <line class="cls-1" x1="148.44" y1="104.34" x2="148.44" y2="85.89"/>
  <polyline class="cls-2" points="114.44 54.45 126.07 49.1 126.07 62.47"/>
  <line class="cls-2" x1="97" y1="62.47" x2="108.63" y2="57.12"/>
  <line class="cls-2" x1="108.58" y1="92.33" x2="97" y2="98.41"/>
  <polyline class="cls-2" points="126.07 69.55 126.07 83.13 114.44 89.24"/>
  <polyline class="cls-2" points="67.93 69.45 67.93 83.13 79.56 89.24"/>
  <polyline class="cls-2" points="79.56 54.45 67.93 49.1 67.93 62.42"/>
  <polyline class="cls-2" points="97 74.45 97 62.47 85.37 57.12"/>
  <polyline class="cls-2" points="85.42 92.33 97 98.41 97 86.43"/>
  <line class="cls-2" x1="114.44" y1="42.71" x2="126.07" y2="49.1"/>
  <polyline class="cls-2" points="85.37 39.52 87.21 38.51 97 33.13 108.63 39.52"/>
  <line class="cls-2" x1="67.93" y1="49.1" x2="79.56" y2="42.71"/>
  <line class="cls-2" x1="97" y1="33.13" x2="97" y2="46.44"/>
  <line class="cls-2" x1="67.93" y1="83.13" x2="79.56" y2="77.54"/>
  <line class="cls-2" x1="126.07" y1="83.13" x2="114.44" y2="77.54"/>
  <polyline class="cls-2" points="59.37 134.08 51.53 138.51 100 163.99 148.47 138.51 140.25 133.91"/>
</svg>