<?xml version="1.0" encoding="UTF-8"?>
<svg id="Icons" xmlns="http://www.w3.org/2000/svg" viewBox="0 0 200 200">
  <defs>
    <style>
      .cls-1 {
        stroke-miterlimit: 10;
      }

      .cls-1, .cls-2 {
        fill: none;
        stroke: #fff;
        stroke-linecap: round;
        stroke-width: 3px;
      }

      .cls-2 {
        stroke-linejoin: round;
      }
    </style>
  </defs>
  <path class="cls-2" d="M137.69,37.81c-20.24,0-36.66,13.13-36.66,29.32,0,5.68,2.03,10.99,5.53,15.48l-.02-.02-3,12.28,13.58-3.45h-.01c5.89,3.17,12.95,5.04,20.58,5.04,20.24,0,36.66-13.13,36.66-29.32s-16.4-29.33-36.66-29.33Z"/>
  <g>
    <path class="cls-1" d="M76.71,74.48c-10.18,14.56-28.29,13.35-28.29,13.35,0,17.03,8.13,30.79,18.15,30.79s18.15-13.8,18.15-30.79c.1.05-5.22-2.5-8.01-13.35Z"/>
    <path class="cls-1" d="M47.63,119.58c-2.95-.59-4.31-2.67-4.31-2.67v-5.16c-2.37-13.8-2.37-12.93-2.33-21.03,0-15.44,11.43-27.9,25.58-27.9s25.58,12.5,25.58,27.9c0,0,.28,11.71-2.19,21.2l-.38,5.07s-1.42,2.02-4.25,3.05"/>
    <path class="cls-1" d="M74.94,115.14l2.26,7.06,23.01,9s5.73,1.7,7.71,13.31l2.12,17.69"/>
    <path class="cls-1" d="M55.94,122.2l9.81,7.89s1.46,1.36,3.18,0l8.25-7.89"/>
    <path class="cls-1" d="M55.94,122.2l2.26-7.06"/>
    <path class="cls-1" d="M23.1,162.19l2.12-17.69c1.98-11.61,7.71-13.3,7.71-13.3l23.01-9"/>
  </g>
</svg>