<?xml version="1.0" encoding="UTF-8"?>
<svg id="Icons" xmlns="http://www.w3.org/2000/svg" viewBox="0 0 200 200">
  <defs>
    <style>
      .cls-1 {
        stroke-miterlimit: 10;
      }

      .cls-1, .cls-2 {
        fill: none;
        stroke: #fff;
        stroke-linecap: round;
        stroke-width: 3px;
      }

      .cls-2 {
        stroke-linejoin: round;
      }
    </style>
  </defs>
  <g>
    <path class="cls-1" d="M45.42,92.96s-4.53,5.02,2.26,10.92c0,0,5.36,16.47,18.88,16.47"/>
    <path class="cls-1" d="M87.44,92.93s4.54,5.31-2.27,11.1c0,0-5.56,16.41-19.04,16.25"/>
    <g>
      <path class="cls-1" d="M55.3,115.73l-.82,9.29-22.2,9.02s-5.18,1.47-7.1,11.95l-2.09,15.9"/>
      <polyline class="cls-1" points="54.45 124.99 66.44 137.43 78.83 125.27"/>
    </g>
    <path class="cls-1" d="M78.06,115.25l.77,10.03,22.09,9.25s5.18,1.54,6.96,12.01l1.92,15.97"/>
    <path class="cls-1" d="M44.29,91.73v-13.51s.62-12.56,14.21-11.95c0,0,1.47-3.29,10.73-2.95,0,0,17.23.34,19.39,16.2v12.83s-2.98,3.2-5.52-5.15l-9.54.12s-9.54.09-18.95-8.31c0,0-.78,6.02-5.7,13,0,0-.78.94-2.26.94-.05.01-2.36.26-2.36-1.22Z"/>
  </g>
  <path class="cls-2" d="M137.69,37.51c-20.24,0-36.66,13.13-36.66,29.32,0,5.68,2.03,10.99,5.53,15.48l-.02-.02-3,12.28,13.58-3.45h-.01c5.89,3.17,12.95,5.04,20.58,5.04,20.24,0,36.66-13.13,36.66-29.32s-16.4-29.33-36.66-29.33Z"/>
</svg>