<?xml version="1.0" encoding="UTF-8"?>
<svg id="Icons" xmlns="http://www.w3.org/2000/svg" viewBox="0 0 200.2 200.2">
  <defs>
    <style>
      .cls-1 {
        fill: none;
        stroke: #fff;
        stroke-linecap: round;
        stroke-miterlimit: 10;
        stroke-width: 3px;
      }
    </style>
  </defs>
  <g>
    <path class="cls-1" d="M54.89,89.77s-3.98,4.42,1.99,9.61c0,0,4.72,14.5,16.63,14.5"/>
    <path class="cls-1" d="M91.88,89.75s3.99,4.67-2,9.78c0,0-4.89,14.45-16.77,14.31"/>
    <g>
      <path class="cls-1" d="M63.58,109.82l-.72,8.18-19.53,7.93s-4.56,1.29-6.25,10.53"/>
      <polyline class="cls-1" points="62.83 117.97 73.39 128.92 84.3 118.22"/>
    </g>
    <path class="cls-1" d="M83.62,109.4l.68,8.83,19.45,8.15s4.56,1.35,6.14,10.58"/>
    <path class="cls-1" d="M53.89,88.7v-11.9s.55-11.05,12.51-10.53c0,0,1.29-2.9,9.45-2.6,0,0,15.16.3,17.07,14.26v11.3s-2.63,2.82-4.86-4.53l-8.4.11s-8.4.08-16.68-7.32c0,0-.69,5.3-5.02,11.44,0,0-.69.83-1.99.83-.04.01-2.07.24-2.07-1.06Z"/>
  </g>
  <g>
    <path class="cls-1" d="M137.57,81.42c-8.07,11.54-22.42,10.57-22.42,10.57,0,13.49,6.44,24.39,14.37,24.39s14.37-10.93,14.37-24.39c.09.04-4.13-1.98-6.33-10.57Z"/>
    <path class="cls-1" d="M114.53,117.14c-2.34-.47-3.41-2.12-3.41-2.12v-4.08c-1.88-10.93-1.88-10.25-1.85-16.66,0-12.23,9.06-22.11,20.27-22.11s20.27,9.91,20.27,22.11c0,0,.22,9.28-1.74,16.79l-.3,4.02s-1.13,1.6-3.36,2.42"/>
    <path class="cls-1" d="M136.17,113.63l1.79,5.59,18.23,7.13s4.55,1.35,6.11,10.54"/>
    <path class="cls-1" d="M121.12,119.22l7.77,6.25s1.15,1.08,2.52,0l6.54-6.25"/>
    <path class="cls-1" d="M110.5,123.37l10.62-4.16,1.79-5.59"/>
  </g>
  <rect class="cls-1" x="12.3" y="37.5" width="174.86" height="125"/>
  <rect class="cls-1" x="24.87" y="50.12" width="149.93" height="99.79"/>
</svg>