<?xml version="1.0" encoding="UTF-8"?>
<svg id="Icons" xmlns="http://www.w3.org/2000/svg" viewBox="0 0 200 200">
  <defs>
    <style>
      .cls-1 {
        fill: none;
        stroke: #fff;
        stroke-linecap: round;
        stroke-miterlimit: 10;
        stroke-width: 3px;
      }
    </style>
  </defs>
  <path class="cls-1" d="M76.71,49.7s-5,5.56,2.5,12.09c0,0,5.94,18.24,20.92,18.24"/>
  <path class="cls-1" d="M123.25,49.66s5.02,5.87-2.52,12.3c0,0-6.15,18.17-21.09,18"/>
  <g>
    <path class="cls-1" d="M87.65,74.92l-.9,10.29-24.57,9.97s-5.73,1.63-7.85,13.24l-2.33,17.62"/>
    <polyline class="cls-1" points="86.71 85.18 99.99 98.94 113.71 85.49"/>
  </g>
  <path class="cls-1" d="M112.86,74.39l.85,11.11,24.46,10.25s5.73,1.7,7.71,13.31l2.12,17.69"/>
  <path class="cls-1" d="M75.45,48.35v-14.98s.69-13.9,15.74-13.24c0,0,1.63-3.65,11.88-3.27,0,0,19.08.38,21.47,17.93v14.21s-3.3,3.54-6.12-5.7l-10.56.14s-10.56.1-20.99-9.21c0,0-.87,6.67-6.32,14.39,0,0-.87,1.04-2.5,1.04-.03.03-2.61.31-2.61-1.32Z"/>
  <polygon class="cls-1" points="100 111.95 110.91 134.08 135.31 137.63 117.66 154.86 121.82 179.18 100 167.7 78.18 179.18 82.34 154.86 64.69 137.63 89.09 134.08 100 111.95"/>
</svg>