<?xml version="1.0" encoding="UTF-8"?>
<svg id="Icons" xmlns="http://www.w3.org/2000/svg" viewBox="0 0 200 200">
  <defs>
    <style>
      .cls-1 {
        fill: none;
        stroke: #fff;
        stroke-linecap: round;
        stroke-miterlimit: 10;
        stroke-width: 3px;
      }
    </style>
  </defs>
  <g>
    <path class="cls-1" d="M67.39,99s-4.43,4.92,2.22,10.7c0,0,5.26,16.15,18.52,16.15"/>
    <path class="cls-1" d="M108.58,98.97s4.44,5.2-2.23,10.89c0,0-5.45,16.09-18.67,15.93"/>
    <g>
      <path class="cls-1" d="M77.07,121.33l-.8,9.11-21.75,8.83s-5.07,1.45-6.95,11.72l-2.06,15.6"/>
      <polyline class="cls-1" points="76.23 130.41 87.99 142.6 100.14 130.69"/>
    </g>
    <path class="cls-1" d="M99.38,120.86l.75,9.83,21.65,9.08s5.07,1.51,6.83,11.78l1.88,15.66"/>
    <path class="cls-1" d="M66.27,97.81v-13.26s.61-12.31,13.93-11.72c0,0,1.45-3.23,10.52-2.9,0,0,16.89.33,19.01,15.87v12.58s-2.92,3.14-5.42-5.04l-9.35.12s-9.35.09-18.58-8.15c0,0-.77,5.91-5.6,12.73,0,0-.77.93-2.22.93-.03.04-2.3.29-2.3-1.16Z"/>
  </g>
  <path class="cls-1" d="M123.06,106.5c2.31-.76,4.5-1.77,6.56-2.99l6.68,6.68,11.85-11.85-6.68-6.68c1.57-2.66,2.8-5.56,3.59-8.64h9.44v-16.75h-9.45c-.79-3.07-2-5.97-3.58-8.64l6.67-6.67-11.84-11.84-6.67,6.67c-2.66-1.57-5.56-2.79-8.64-3.58v-9.44h-16.75v9.43c-3.07.79-5.96,2.02-8.64,3.59l-6.68-6.68-11.85,11.85,3.97,3.97"/>
  <path class="cls-1" d="M120.5,84.96c2.71-2.08,4.62-5.18,5.09-8.83.96-7.3-4.19-13.99-11.48-14.94-3.65-.47-7.15.57-9.85,2.64"/>
</svg>