<?xml version="1.0" encoding="UTF-8"?>
<svg id="Icons" xmlns="http://www.w3.org/2000/svg" viewBox="0 0 200 200">
  <defs>
    <style>
      .cls-1 {
        fill: none;
        stroke: #fff;
        stroke-linecap: round;
        stroke-linejoin: round;
        stroke-width: 3px;
      }
    </style>
  </defs>
  <path class="cls-1" d="M94.77,44.14s-47.23,3.62-42.51,50.89l-10.13,21.76s-1.53,4.05,4.12,5.23,6.71.27,7.78,3.77c1.07,3.51,2.44,19.07,2.44,19.07,0,0,.61,5.03,7.47,5.03h16.47s12.81.46,12.97-14.95"/>
  <path class="cls-1" d="M142.8,91.78s.61,8.85-2.9,16.02c-3.51,7.17-8.24,11.75-8.39,14.95v27.26"/>
  <circle class="cls-1" cx="120.37" cy="66.13" r="9.27"/>
  <path class="cls-1" d="M91.21,71.9l4.46,10.77,6.07-2.51c1.33,1.76,2.88,3.31,4.6,4.6l-2.51,6.07,10.77,4.46,2.51-6.07c2.13.3,4.32.31,6.51,0l2.51,6.06,10.77-4.46-2.51-6.06c1.77-1.33,3.3-2.89,4.6-4.61l6.07,2.52,4.46-10.77-6.07-2.52c.3-2.13.32-4.32,0-6.51l6.06-2.51-4.46-10.77-6.07,2.51c-1.33-1.76-2.88-3.31-4.6-4.6l2.51-6.07-10.77-4.46-2.51,6.07c-2.13-.3-4.32-.31-6.51,0l-2.51-6.06-10.77,4.46,2.51,6.06c-1.77,1.33-3.3,2.89-4.6,4.61l-6.07-2.52-4.46,10.77,6.07,2.52c-.3,2.13-.32,4.32,0,6.51l-6.06,2.51Z"/>
  <circle class="cls-1" cx="84.56" cy="101.94" r="4.83"/>
  <path class="cls-1" d="M71.67,110.53l4.3,4.3,2.42-2.42c.99.58,2.05,1.02,3.13,1.3v3.42s6.08,0,6.08,0v-3.42c1.09-.28,2.15-.71,3.14-1.3l2.42,2.42,4.3-4.3-2.42-2.42c.59-.99,1.01-2.05,1.29-3.14h3.43s0-6.08,0-6.08h-3.43c-.28-1.09-.71-2.14-1.29-3.14l2.42-2.42-4.3-4.3-2.42,2.42c-.99-.58-2.05-1.02-3.13-1.3v-3.42s-6.08,0-6.08,0v3.42c-1.09.28-2.15.71-3.14,1.3l-2.42-2.42-4.3,4.3,2.42,2.42c-.59.99-1.01,2.05-1.29,3.14h-3.43s0,6.08,0,6.08h3.43c.28,1.09.71,2.14,1.29,3.14l-2.42,2.42Z"/>
</svg>