<?xml version="1.0" encoding="UTF-8"?>
<svg id="Icons" xmlns="http://www.w3.org/2000/svg" viewBox="0 0 200 200">
  <defs>
    <style>
      .cls-1, .cls-2 {
        fill: none;
        stroke: #fff;
        stroke-miterlimit: 10;
        stroke-width: 3px;
      }

      .cls-2 {
        stroke-linecap: round;
      }
    </style>
  </defs>
  <g>
    <path class="cls-2" d="M69.38,99s-4.43,4.92,2.22,10.7c0,0,5.26,16.15,18.52,16.15"/>
    <path class="cls-2" d="M110.57,98.97s4.44,5.2-2.23,10.89c0,0-5.45,16.09-18.67,15.93"/>
    <g>
      <path class="cls-2" d="M79.07,121.32l-.8,9.11-21.75,8.83s-5.07,1.45-6.95,11.72l-2.06,15.6"/>
      <polyline class="cls-2" points="78.23 130.41 89.98 142.6 102.14 130.69"/>
    </g>
    <path class="cls-2" d="M101.37,120.86l.75,9.83,21.65,9.08s5.07,1.51,6.83,11.78l1.88,15.66"/>
    <path class="cls-2" d="M68.28,97.8v-13.26s.61-12.31,13.93-11.72c0,0,1.45-3.23,10.52-2.9,0,0,16.89.33,19.01,15.87v12.58s-2.92,3.14-5.42-5.04l-9.35.12s-9.35.09-18.58-8.15c0,0-.77,5.91-5.6,12.73,0,0-.77.93-2.22.93-.02.04-2.29.29-2.29-1.16Z"/>
  </g>
  <polyline class="cls-1" points="164.05 72.06 164.05 112 114 112"/>
  <polyline class="cls-1" points="110.27 41.15 110.27 32.79 139.42 32.79 139.42 41.15"/>
  <rect class="cls-2" x="135.36" y="76.61" width="14.01" height="7.01"/>
  <path class="cls-1" d="M83.84,66.06v-21.55h81.96v21.55c.01,5.83-4.59,10.55-10.41,10.55h-41.38"/>
</svg>