<?xml version="1.0" encoding="UTF-8"?>
<svg id="Icons" xmlns="http://www.w3.org/2000/svg" viewBox="0 0 200.2 200.2">
  <defs>
    <style>
      .cls-1 {
        stroke-miterlimit: 10;
      }

      .cls-1, .cls-2 {
        fill: none;
        stroke: #fff;
        stroke-linecap: round;
        stroke-width: 3px;
      }

      .cls-2 {
        stroke-linejoin: round;
      }
    </style>
  </defs>
  <path class="cls-1" d="M51.85,95.09s-3.4,3.78,1.71,8.22c0,0,4.04,12.41,14.23,12.41"/>
  <path class="cls-1" d="M83.51,95.06s3.41,4-1.71,8.37c0,0-4.19,12.37-14.35,12.24"/>
  <g>
    <path class="cls-1" d="M59.29,112.24l-.61,7-16.72,6.79s-3.9,1.11-5.34,9.01"/>
    <polyline class="cls-1" points="58.65 119.23 67.68 128.59 77.02 119.44"/>
  </g>
  <path class="cls-2" d="M76.44,111.89l.58,7.55,7.39.98,22.44-16.4c5.88-8.96,13.26-8.08,13.26-8.08l8.02-6.13c1.72-1.28,2.51-1.07,3.33-.39.73.61.93,1.89.13,2.78l-9.38,9.26,4.3-.39c.93-.22,1.97.49,2.21,1.42.27,1.06-.54,2.21-1.47,2.43l-12.54,3.25-23.02,28.26"/>
  <path class="cls-1" d="M51,94.16v-10.19s.47-9.46,10.71-9.01c0,0,1.11-2.48,8.09-2.23,0,0,12.98.25,14.61,12.2v9.67s-2.24,2.41-4.17-3.87l-7.19.09s-7.19.07-14.28-6.26c0,0-.59,4.54-4.3,9.78,0,0-.59.71-1.71.71-.02.04-1.76.23-1.76-.89Z"/>
  <line class="cls-1" x1="122.21" y1="101.47" x2="162.1" y2="88"/>
</svg>