<?xml version="1.0" encoding="UTF-8"?>
<svg id="Icons" xmlns="http://www.w3.org/2000/svg" viewBox="0 0 200 200">
  <defs>
    <style>
      .cls-1, .cls-2 {
        stroke-miterlimit: 10;
      }

      .cls-1, .cls-2, .cls-3 {
        fill: none;
        stroke: #fff;
        stroke-width: 3px;
      }

      .cls-2, .cls-3 {
        stroke-linecap: round;
      }

      .cls-3 {
        stroke-linejoin: round;
      }
    </style>
  </defs>
  <circle class="cls-3" cx="92.25" cy="86.13" r="44"/>
  <polyline class="cls-1" points="128.92 110.35 171.78 153.23 159.34 165.68 116.44 122.78"/>
  <g>
    <path class="cls-2" d="M76.81,77.66s-3.55,3.94,1.78,8.57c0,0,4.21,12.94,14.83,12.94"/>
    <path class="cls-2" d="M109.81,77.63s3.56,4.16-1.78,8.72c0,0-4.36,12.89-14.96,12.76"/>
    <g>
      <path class="cls-2" d="M84.56,95.54l-.64,7.3-19.14,7.77"/>
      <polyline class="cls-2" points="83.9 102.81 93.31 112.58 103.04 103.04"/>
    </g>
    <path class="cls-2" d="M102.44,95.16l.6,7.87,16.39,6.87"/>
    <path class="cls-2" d="M75.92,76.7v-10.62s.49-9.86,11.16-9.39c0,0,1.16-2.59,8.43-2.32,0,0,13.53.27,15.22,12.71v10.07s-2.34,2.51-4.34-4.04l-7.49.1s-7.49.07-14.88-6.53c0,0-.62,4.73-4.48,10.2,0,0-.62.74-1.78.74-.02.03-1.85.23-1.85-.93Z"/>
  </g>
</svg>