<?xml version="1.0" encoding="UTF-8"?>
<svg id="Icons" xmlns="http://www.w3.org/2000/svg" viewBox="0 0 200 200">
  <defs>
    <style>
      .cls-1 {
        stroke-miterlimit: 10;
        stroke-width: 3px;
      }

      .cls-1, .cls-2, .cls-3 {
        fill: none;
        stroke: #fff;
      }

      .cls-2, .cls-3 {
        stroke-miterlimit: 10;
        stroke-width: 3px;
      }

      .cls-3 {
        stroke-linecap: round;
      }
    </style>
  </defs>
  <g>
    <path class="cls-3" d="M67.39,66.6s-4.43,4.92,2.22,10.7c0,0,5.26,16.15,18.52,16.15"/>
    <path class="cls-3" d="M108.58,66.57s4.44,5.2-2.23,10.89c0,0-5.45,16.09-18.67,15.93"/>
    <g>
      <path class="cls-3" d="M77.07,88.92l-.8,9.11-21.75,8.83s-5.07,1.45-6.95,11.72l-2.06,15.6"/>
      <polyline class="cls-3" points="76.23 98.01 87.99 110.2 100.14 98.29"/>
    </g>
    <path class="cls-3" d="M99.38,88.46l.75,9.83,6.59,2.76"/>
    <path class="cls-3" d="M66.27,65.4v-13.26s.61-12.31,13.93-11.72c0,0,1.45-3.23,10.52-2.9,0,0,16.89.33,19.01,15.87v12.58s-2.92,3.14-5.42-5.04l-9.35.12s-9.35.09-18.58-8.15c0,0-.77,5.91-5.6,12.73,0,0-.77.93-2.22.93-.03.04-2.3.29-2.3-1.16Z"/>
  </g>
  <g>
    <circle class="cls-1" cx="132.85" cy="132.85" r="35"/>
    <path class="cls-2" d="M144.5,147.7c-2.54,2.36-5.99,3.82-9.78,3.82-7.78,0-14.09-3.84-14.09-11.32v-12.46c0-7.48,6.31-13.55,14.09-13.55,3.85,0,7.34,1.49,9.89,3.9"/>
    <line class="cls-2" x1="116.49" y1="128.07" x2="134.72" y2="128.07"/>
    <line class="cls-2" x1="116.49" y1="138.32" x2="134.72" y2="138.32"/>
  </g>
</svg>