<?xml version="1.0" encoding="UTF-8"?>
<svg id="Icons" xmlns="http://www.w3.org/2000/svg" viewBox="0 0 200 200">
  <defs>
    <style>
      .cls-1, .cls-2 {
        fill: none;
        stroke: #fff;
        stroke-miterlimit: 10;
        stroke-width: 3px;
      }

      .cls-2 {
        stroke-linecap: round;
      }
    </style>
  </defs>
  <g>
    <path class="cls-2" d="M46.2,40.72s-3.49,3.87,1.75,8.42c0,0,4.14,12.71,14.57,12.71"/>
    <path class="cls-2" d="M78.62,40.69s3.5,4.09-1.75,8.57c0,0-4.29,12.66-14.69,12.54"/>
    <g>
      <path class="cls-2" d="M53.82,58.28l-.63,7.17-17.11,6.95s-3.99,1.14-5.47,9.22"/>
      <polyline class="cls-2" points="53.17 65.43 62.42 75.02 71.98 65.65"/>
    </g>
    <path class="cls-2" d="M71.38,57.91l.59,7.74,17.04,7.14"/>
    <path class="cls-2" d="M45.33,39.77v-10.44s.48-9.68,10.96-9.22c0,0,1.14-2.54,8.28-2.28,0,0,13.29.26,14.96,12.49v9.9s-2.3,2.47-4.26-3.97l-7.36.1s-7.36.07-14.62-6.41c0,0-.61,4.65-4.4,10.02,0,0-.61.73-1.75.73-.02.03-1.81.23-1.81-.91Z"/>
  </g>
  <g>
    <path class="cls-2" d="M140.36,113.16c-7.85,11.21-21.79,10.28-21.79,10.28,0,13.12,6.27,23.72,13.97,23.72s13.97-10.63,13.97-23.72c.09.04-4.01-1.92-6.15-10.28Z"/>
    <path class="cls-2" d="M117.96,147.89c-2.28-.45-3.32-2.06-3.32-2.06v-3.98c-1.82-10.63-1.82-9.96-1.79-16.2,0-11.89,8.81-21.5,19.7-21.5s19.7,9.63,19.7,21.5c0,0,.21,9.02-1.68,16.33l-.29,3.91s-1.1,1.55-3.26,2.36"/>
    <path class="cls-2" d="M139,144.48l1.74,5.43,17.72,6.93s4.42,1.31,5.94,10.25"/>
    <path class="cls-2" d="M124.36,149.91l7.55,6.08s1.12,1.05,2.44,0l6.36-6.08"/>
    <path class="cls-2" d="M100.7,167.1c1.53-8.94,5.94-10.25,5.94-10.25l17.72-6.93,1.74-5.43"/>
  </g>
  <g>
    <polyline class="cls-2" points="128.07 61.18 133.87 48.62 145.04 76.04 133.87 76.04"/>
    <path class="cls-2" d="M56.32,77.95c-3.6,6.8-5.64,14.56-5.64,22.79,0,3.96.47,7.8,1.36,11.49"/>
    <path class="cls-2" d="M128.07,61.18c-8.03-5.81-17.91-9.24-28.58-9.24-7.02,0-13.69,1.48-19.72,4.15"/>
  </g>
  <g>
    <polyline class="cls-2" points="71.93 138.82 66.13 151.38 54.96 123.96 66.13 123.96"/>
    <path class="cls-2" d="M148.87,105.83c.29-2.15.44-4.34.44-6.56,0-3.96-.47-7.8-1.36-11.49"/>
    <path class="cls-2" d="M71.93,138.83c8.03,5.81,17.91,9.24,28.58,9.24,2.75,0,5.45-.23,8.07-.66"/>
  </g>
  <g>
    <path class="cls-1" d="M109.29,112.62c-2.5,2.32-5.9,3.75-9.63,3.75-7.66,0-13.87-3.78-13.87-11.14v-12.27c0-7.37,6.21-13.34,13.87-13.34,3.79,0,7.22,1.46,9.74,3.84"/>
    <line class="cls-1" x1="81.72" y1="93.3" x2="99.66" y2="93.3"/>
    <line class="cls-1" x1="81.72" y1="103.38" x2="99.66" y2="103.38"/>
  </g>
</svg>