<?xml version="1.0" encoding="UTF-8"?>
<svg id="Icons" xmlns="http://www.w3.org/2000/svg" viewBox="0 0 200 200">
  <defs>
    <style>
      .cls-1, .cls-2 {
        stroke-miterlimit: 10;
      }

      .cls-1, .cls-2, .cls-3 {
        fill: none;
        stroke: #fff;
        stroke-width: 3px;
      }

      .cls-2, .cls-3 {
        stroke-linecap: round;
      }

      .cls-3 {
        stroke-linejoin: round;
      }
    </style>
  </defs>
  <polyline class="cls-3" points="96.06 55.78 96.06 41.11 103.56 41.11 103.56 55.78"/>
  <path class="cls-3" d="M103.56,42.62c11.63,1.58,20.54,10.56,20.54,21.4l4.01.65v4.59h-56v-4.37l3.58-.87c0-10.79,8.83-19.73,20.38-21.37"/>
  <g>
    <path class="cls-2" d="M79.39,80.45s-4.43,4.92,2.22,10.7c0,0,5.26,16.15,18.52,16.15"/>
    <path class="cls-2" d="M120.58,80.42s4.44,5.2-2.23,10.89c0,0-5.45,16.09-18.67,15.93"/>
    <g>
      <path class="cls-2" d="M58.9,137.5l-1.39,10.53"/>
      <path class="cls-2" d="M89.07,102.77l-.8,9.11-5.29,2.15"/>
      <polyline class="cls-2" points="88.24 111.85 99.99 124.04 112.14 112.13"/>
    </g>
    <path class="cls-2" d="M111.38,102.3l.75,9.83,21.65,9.08s5.07,1.51,6.83,11.78l1.88,15.66"/>
    <path class="cls-2" d="M87.81,69.26c-.68,2.36-2.12,6.12-5.02,10.22,0,0-.77.93-2.22.93-.03.04-2.3.29-2.3-1.16v-9.99"/>
    <path class="cls-2" d="M121.73,69.26v10.56s-2.92,3.14-5.42-5.04l-9.35.12s-7.34.07-15.43-5.64"/>
  </g>
  <path class="cls-3" d="M56.22,89.18c-2.82,0-5.52.54-8,1.52l12.16,12.16c1.14,1.14,1.14,2.98,0,4.12l-8.27,8.27c-1.14,1.14-2.98,1.14-4.12,0l-12.16-12.16c-.97,2.48-1.52,5.18-1.52,8,0,12.1,9.8,21.9,21.9,21.9s21.9-9.8,21.9-21.9-9.8-21.9-21.9-21.9Z"/>
  <path class="cls-1" d="M77.34,116.86l30.13,30.13c4.27,4.27,4.27,11.21,0,15.49h0c-4.27,4.27-11.21,4.27-15.49,0l-30.21-30.21"/>
  <circle class="cls-1" cx="100.02" cy="154.88" r="1.32"/>
</svg>