<?xml version="1.0" encoding="UTF-8"?>
<svg id="Icons" xmlns="http://www.w3.org/2000/svg" viewBox="0 0 200 200">
  <defs>
    <style>
      .cls-1 {
        fill: none;
        stroke: #fff;
        stroke-linecap: round;
        stroke-miterlimit: 10;
        stroke-width: 3px;
      }
    </style>
  </defs>
  <path class="cls-1" d="M112.76,53.03c-12.81,18.31-35.58,16.78-35.58,16.78,0,21.42,10.23,38.72,22.81,38.72s22.81-17.35,22.81-38.72c.14.05-6.56-3.15-10.05-16.78Z"/>
  <path class="cls-1" d="M76.18,109.74c-3.72-.74-5.42-3.37-5.42-3.37v-6.49c-2.97-17.35-2.97-16.26-2.93-26.45,0-19.41,14.38-35.1,32.17-35.1s32.17,15.73,32.17,35.1c0,0,.35,14.73-2.75,26.66l-.48,6.38s-1.79,2.53-5.33,3.85"/>
  <path class="cls-1" d="M110.53,104.17l2.84,8.87,28.93,11.32s7.21,2.14,9.7,16.74l2.67,22.25"/>
  <path class="cls-1" d="M86.63,113.04l12.33,9.93s1.83,1.72,3.99,0l10.38-9.93"/>
  <path class="cls-1" d="M45.33,163.35l2.67-22.25c2.49-14.6,9.7-16.74,9.7-16.74l28.93-11.32,2.84-8.87"/>
</svg>