<?xml version="1.0" encoding="UTF-8"?>
<svg id="Icons" xmlns="http://www.w3.org/2000/svg" viewBox="0 0 200 200">
  <defs>
    <style>
      .cls-1 {
        fill: #fff;
      }

      .cls-2 {
        stroke-miterlimit: 10;
      }

      .cls-2, .cls-3 {
        fill: none;
        stroke: #fff;
        stroke-linecap: round;
        stroke-width: 3px;
      }

      .cls-3 {
        stroke-linejoin: round;
      }
    </style>
  </defs>
  <path class="cls-2" d="M168.32,139.11c-.3,0-.6.03-.89.07-3.45-12.79-16.69-22.33-32.51-22.33s-29.05,9.53-32.51,22.33c-.29-.04-.59-.07-.89-.07-3.69,0-6.68,2.99-6.68,6.68s2.99,6.68,6.68,6.68c.3,0,.6-.03.89-.07,3.45,12.79,16.69,22.33,32.51,22.33s29.05-9.53,32.51-22.33c.29.04.59.07.89.07,3.69,0,6.68-2.99,6.68-6.68s-2.99-6.68-6.68-6.68Z"/>
  <path class="cls-3" d="M117.42,139.55s8.71,3.17,10.55-15.34c0,0-1.8,14.51,10.18,15.83v-7.92s6.18,10.03,14.36,7.92c0,0-1.83-3.45-1.84-5.55"/>
  <path class="cls-3" d="M145.78,161.09c-2.81,2.72-6.63,4.4-10.85,4.4s-7.9-1.61-10.69-4.24"/>
  <circle class="cls-1" cx="124.49" cy="147.95" r="2.61"/>
  <circle class="cls-1" cx="145.61" cy="147.95" r="2.61"/>
  <g>
    <path class="cls-2" d="M71.88,75.32s-4.43,4.92,2.22,10.7c0,0,5.26,16.15,18.52,16.15"/>
    <path class="cls-2" d="M113.07,75.29s4.44,5.2-2.23,10.89c0,0-5.45,16.09-18.67,15.93"/>
    <g>
      <path class="cls-2" d="M81.56,97.65l-.8,9.11-21.75,8.83s-5.07,1.45-6.95,11.72l-2.06,15.6"/>
      <polyline class="cls-2" points="80.73 106.73 92.48 118.92 104.63 107.01"/>
    </g>
    <path class="cls-2" d="M103.87,97.18l.75,9.83,16.21,6.8"/>
    <path class="cls-2" d="M70.77,74.13v-13.26s.61-12.31,13.93-11.72c0,0,1.45-3.23,10.52-2.9,0,0,16.89.33,19.01,15.87v12.58s-2.92,3.14-5.42-5.04l-9.35.12s-9.35.09-18.58-8.15c0,0-.77,5.91-5.6,12.73,0,0-.77.93-2.22.93-.03.04-2.3.29-2.3-1.16Z"/>
  </g>
</svg>