<?xml version="1.0" encoding="UTF-8"?>
<svg id="Icons" xmlns="http://www.w3.org/2000/svg" viewBox="0 0 200 200">
  <defs>
    <style>
      .cls-1 {
        fill: none;
        stroke: #fff;
        stroke-linecap: round;
        stroke-linejoin: round;
        stroke-width: 3px;
      }
    </style>
  </defs>
  <path class="cls-1" d="M75.93,129.4c.12,11.95,10.06,11.59,10.06,11.59h12.78c5.32,0,5.8-3.9,5.8-3.9,0,0,1.06-12.07,1.89-14.79.83-2.72,1.66-2.01,6.03-2.93s3.19-4.05,3.19-4.05l-7.86-16.88c4.15-39.51-32.97-39.47-32.97-39.47,0,0-39.33-2.92-37.25,36.94,0,0-.47,6.86,2.25,12.42,2.72,5.56,6.39,9.11,6.51,11.59v21.14"/>
  <path class="cls-1" d="M97.71,60.42c9.47-13.64,27.74-13.61,27.74-13.61,0,0,39.33-2.92,37.25,36.94,0,0,.47,6.86-2.25,12.42s-6.39,9.11-6.51,11.59v21.14"/>
  <path class="cls-1" d="M100,128.71c-3.88-.66-4.26-3.78-4.26-3.78,0,0-1.06-12.07-1.89-14.79s-1.66-2.01-6.03-2.93-3.19-4.05-3.19-4.05l7.86-16.88c-.63-6.03-.3-11.13.7-15.46"/>
  <path class="cls-1" d="M124.37,117.23c-.12,11.95-10.06,11.59-10.06,11.59h-3.76"/>
</svg>