<?xml version="1.0" encoding="UTF-8"?>
<svg id="Icons" xmlns="http://www.w3.org/2000/svg" viewBox="0 0 200.2 200.2">
  <defs>
    <style>
      .cls-1, .cls-2 {
        fill: none;
        stroke: #fff;
        stroke-miterlimit: 10;
        stroke-width: 3px;
      }

      .cls-2 {
        stroke-linecap: round;
      }
    </style>
  </defs>
  <g>
    <path class="cls-1" d="M111.65,128.17v42.17c0,2.77-2.24,5.01-5.01,5.01H30.01c-2.77,0-5.01-2.24-5.01-5.01V29.66c0-2.77,2.24-5.01,5.01-5.01h76.63c2.77,0,5.01,2.24,5.01,5.01v30.88"/>
    <path class="cls-1" d="M102.23,133.19v16.43c0,1.4-1.13,2.53-2.53,2.53h-62.75c-1.4,0-2.53-1.13-2.53-2.53V41.66c0-1.4,1.13-2.53,2.53-2.53h62.75c1.4,0,2.53,1.13,2.53,2.53v15.34"/>
    <line class="cls-1" x1="56.13" y1="164.04" x2="80.52" y2="164.04"/>
  </g>
  <g>
    <path class="cls-2" d="M75.98,89.17s-4.09,4.55,2.04,9.89c0,0,4.86,14.91,17.1,14.91"/>
    <path class="cls-2" d="M114.03,89.15s4.11,4.8-2.06,10.06c0,0-5.03,14.86-17.24,14.72"/>
    <g>
      <path class="cls-2" d="M84.92,109.79l-.74,8.41-20.09,8.16s-4.69,1.33-6.42,10.83"/>
      <polyline class="cls-2" points="84.15 118.18 95.01 129.44 106.23 118.44"/>
    </g>
    <path class="cls-2" d="M105.53,109.36l.7,9.08,20.01,8.38s4.69,1.39,6.31,10.88"/>
    <path class="cls-2" d="M74.95,88.06v-12.24s.57-11.36,12.87-10.83c0,0,1.33-2.98,9.72-2.67,0,0,15.59.31,17.56,14.66v11.62s-2.7,2.9-5-4.66l-8.64.11s-8.64.08-17.16-7.53c0,0-.71,5.46-5.17,11.77,0,0-.71.85-2.04.85-.04.02-2.13.25-2.13-1.09Z"/>
  </g>
  <g>
    <path class="cls-2" d="M161.02,80.58c-8.3,11.86-23.05,10.87-23.05,10.87,0,13.88,6.63,25.09,14.78,25.09s14.78-11.24,14.78-25.09c.09.04-4.24-2.04-6.51-10.87Z"/>
    <path class="cls-2" d="M137.32,117.32c-2.41-.48-3.51-2.18-3.51-2.18v-4.2c-1.93-11.24-1.93-10.54-1.9-17.14,0-12.58,9.31-22.74,20.85-22.74s20.85,10.19,20.85,22.74c0,0,.23,9.54-1.79,17.27l-.31,4.13s-1.16,1.64-3.46,2.49"/>
    <path class="cls-2" d="M159.58,113.71l1.84,5.75,18.75,7.33s4.68,1.38,6.29,10.84"/>
    <path class="cls-2" d="M144.1,119.46l7.99,6.43s1.19,1.11,2.59,0l6.73-6.43"/>
    <path class="cls-2" d="M133.18,123.73l10.92-4.27,1.84-5.75"/>
  </g>
</svg>