<?xml version="1.0" encoding="UTF-8"?>
<svg id="Icons" xmlns="http://www.w3.org/2000/svg" viewBox="0 0 200 200">
  <defs>
    <style>
      .cls-1 {
        stroke-linejoin: round;
      }

      .cls-1, .cls-2, .cls-3 {
        fill: none;
        stroke: #030405;
        stroke-width: 3px;
      }

      .cls-1, .cls-3 {
        stroke-linecap: round;
      }

      .cls-2, .cls-3 {
        stroke-miterlimit: 10;
      }
    </style>
  </defs>
  <polyline class="cls-1" points="120.4 99.83 120.4 172.33 78.73 172.33 78.73 99.83"/>
  <path class="cls-2" d="M78.73,172.34c0-5.75,4.66-10.42,10.42-10.42s10.42,4.66,10.42,10.42"/>
  <path class="cls-2" d="M99.57,172.34c0-5.75,4.66-10.42,10.42-10.42s10.42,4.66,10.42,10.42"/>
  <line class="cls-2" x1="99.57" y1="128.62" x2="99.57" y2="172.33"/>
  <path class="cls-2" d="M78.73,134.25c-7,0-12.67-5.67-12.67-12.67"/>
  <path class="cls-2" d="M120.42,133.99c6.89,0,12.47-5.58,12.47-12.47"/>
  <line class="cls-2" x1="89.07" y1="97.7" x2="109.9" y2="97.7"/>
  <line class="cls-2" x1="89.07" y1="105.72" x2="109.9" y2="105.72"/>
  <line class="cls-2" x1="89.07" y1="113.75" x2="109.9" y2="113.75"/>
  <line class="cls-3" x1="86.98" y1="141.61" x2="91.15" y2="141.61"/>
  <line class="cls-3" x1="107.49" y1="141.61" x2="111.65" y2="141.61"/>
  <path class="cls-2" d="M116.24,69.21c0,9.2-7.46,16.67-16.67,16.67s-16.67-7.46-16.67-16.67v-5.22c0-9.2,7.46-16.67,16.67-16.67s16.67,7.46,16.67,16.67v5.22Z"/>
  <path class="cls-2" d="M114.83,75.6c7.81,3.5,14.2,9.6,18.07,17.19v28.79h-12.48"/>
  <path class="cls-2" d="M84.17,75.59c-7.82,3.5-14.22,9.6-18.1,17.2v28.79h12.67"/>
  <path class="cls-3" d="M82.9,63.85c-8.05,0-14.58,6.53-14.58,14.58v10.56"/>
  <path class="cls-3" d="M116.24,63.85c8.05,0,14.58,6.53,14.58,14.58v10.56"/>
  <path class="cls-2" d="M83.15,61.1c5.04-2.16,10.59-3.36,16.41-3.36s11.38,1.2,16.42,3.36"/>
  <path class="cls-2" d="M115.98,72.12c-5.04,2.16-10.59,3.36-16.41,3.36s-11.38-1.2-16.42-3.36"/>
</svg>