<?xml version="1.0" encoding="UTF-8"?>
<svg id="Icons" xmlns="http://www.w3.org/2000/svg" viewBox="0 0 200 200">
  <defs>
    <style>
      .cls-1 {
        stroke: #010202;
      }

      .cls-1, .cls-2, .cls-3, .cls-4, .cls-5 {
        stroke-linejoin: round;
      }

      .cls-1, .cls-2, .cls-3, .cls-4, .cls-5, .cls-6 {
        fill: none;
        stroke-width: 3px;
      }

      .cls-2, .cls-4, .cls-6 {
        stroke-linecap: round;
      }

      .cls-2, .cls-5, .cls-6 {
        stroke: #000;
      }

      .cls-3 {
        stroke: #020304;
      }

      .cls-4 {
        stroke: #040506;
      }

      .cls-6 {
        stroke-miterlimit: 10;
      }
    </style>
  </defs>
  <g>
    <path class="cls-2" d="M121.23,41.87c-10.14,0-18.35,8.22-18.35,18.35"/>
    <line class="cls-5" x1="121.27" y1="28.15" x2="121.27" y2="18.97"/>
    <line class="cls-5" x1="162.57" y1="60.27" x2="153.39" y2="60.27"/>
    <line class="cls-1" x1="98.56" y1="37.55" x2="92.07" y2="31.06"/>
    <line class="cls-1" x1="150.48" y1="89.47" x2="143.99" y2="82.98"/>
    <line class="cls-3" x1="98.56" y1="82.98" x2="92.07" y2="89.47"/>
    <line class="cls-3" x1="150.48" y1="31.06" x2="143.99" y2="37.55"/>
    <path class="cls-6" d="M148.81,60.27c0-15.21-12.33-27.53-27.53-27.53s-27.53,12.33-27.53,27.53c0,12.66,8.55,23.32,20.19,26.53v15.68h2.75v3.67h9.18v-3.67h2.75v-15.68c11.64-3.21,20.19-13.87,20.19-26.53Z"/>
    <line class="cls-2" x1="113.93" y1="92.2" x2="128.62" y2="92.2"/>
    <line class="cls-2" x1="113.93" y1="97.37" x2="128.62" y2="97.37"/>
  </g>
  <line class="cls-4" x1="114.15" y1="150.06" x2="114.15" y2="162.5"/>
  <line class="cls-4" x1="114.15" y1="114.77" x2="114.15" y2="123.72"/>
  <line class="cls-4" x1="83.3" y1="118.74" x2="83.3" y2="162.5"/>
  <line class="cls-4" x1="83.3" y1="37.5" x2="83.3" y2="93.74"/>
  <line class="cls-4" x1="51.56" y1="87.5" x2="51.56" y2="162.5"/>
  <line class="cls-4" x1="51.56" y1="37.5" x2="51.56" y2="62.5"/>
  <circle class="cls-2" cx="114.15" cy="137.56" r="12.5"/>
  <circle class="cls-2" cx="51.56" cy="75" r="12.5"/>
  <circle class="cls-2" cx="83.23" cy="106.24" r="12.5"/>
</svg>