<?xml version="1.0" encoding="UTF-8"?>
<svg id="Icons" xmlns="http://www.w3.org/2000/svg" viewBox="0 0 200 200">
  <defs>
    <style>
      .cls-1 {
        stroke: #030505;
      }

      .cls-1, .cls-2, .cls-3, .cls-4 {
        stroke-linejoin: round;
      }

      .cls-1, .cls-2, .cls-3, .cls-4, .cls-5, .cls-6, .cls-7 {
        fill: none;
        stroke-width: 3px;
      }

      .cls-2, .cls-3, .cls-7 {
        stroke: #020304;
      }

      .cls-2, .cls-5, .cls-6, .cls-7 {
        stroke-linecap: round;
      }

      .cls-4 {
        stroke: #030405;
      }

      .cls-5 {
        stroke: #010202;
      }

      .cls-5, .cls-6, .cls-7 {
        stroke-miterlimit: 10;
      }

      .cls-6 {
        stroke: #000;
      }
    </style>
  </defs>
  <g>
    <line class="cls-3" x1="100" y1="53.12" x2="100" y2="40.62"/>
    <line class="cls-3" x1="56.25" y1="96.88" x2="43.75" y2="96.88"/>
    <line class="cls-3" x1="156.25" y1="96.88" x2="143.75" y2="96.88"/>
    <line class="cls-4" x1="69.06" y1="65.93" x2="60.23" y2="57.1"/>
    <line class="cls-4" x1="139.77" y1="136.64" x2="130.94" y2="127.82"/>
    <line class="cls-1" x1="69.06" y1="127.81" x2="60.22" y2="136.65"/>
    <line class="cls-1" x1="139.78" y1="57.09" x2="130.93" y2="65.94"/>
    <path class="cls-7" d="M137.5,96.88c0-20.71-16.79-37.5-37.5-37.5s-37.5,16.79-37.5,37.5c0,17.25,11.65,31.76,27.5,36.14v21.36h3.75v5h12.5v-5h3.75v-21.36c15.85-4.38,27.5-18.89,27.5-36.14Z"/>
    <line class="cls-2" x1="90" y1="140.38" x2="110" y2="140.38"/>
    <line class="cls-2" x1="90" y1="147.42" x2="110" y2="147.42"/>
  </g>
  <circle class="cls-6" cx="100" cy="97" r="8.27"/>
  <path class="cls-5" d="M122.06,82.29l-7.35-7.35-4.14,4.14c-1.7-1-3.5-1.74-5.36-2.22v-5.86s-10.4,0-10.4,0v5.86c-1.86.48-3.67,1.22-5.37,2.22l-4.14-4.14-7.35,7.35,4.14,4.14c-1,1.7-1.74,3.51-2.21,5.37h-5.86s0,10.4,0,10.4h5.86c.48,1.86,1.21,3.67,2.21,5.37l-4.14,4.14,7.35,7.35,4.14-4.14c1.7,1,3.5,1.74,5.36,2.22v5.86s10.4,0,10.4,0v-5.86c1.86-.48,3.67-1.22,5.37-2.22l4.14,4.14,7.35-7.35-4.14-4.14c1-1.7,1.74-3.51,2.21-5.37h5.86s0-10.4,0-10.4h-5.86c-.48-1.86-1.21-3.67-2.21-5.37l4.14-4.14Z"/>
</svg>