<?xml version="1.0" encoding="UTF-8"?>
<svg id="Icons" xmlns="http://www.w3.org/2000/svg" viewBox="0 0 200 200">
  <defs>
    <style>
      .cls-1 {
        stroke: #030505;
      }

      .cls-1, .cls-2, .cls-3, .cls-4, .cls-5 {
        stroke-linejoin: round;
      }

      .cls-1, .cls-2, .cls-3, .cls-4, .cls-5, .cls-6 {
        fill: none;
        stroke-width: 3px;
      }

      .cls-2, .cls-3, .cls-6 {
        stroke-linecap: round;
      }

      .cls-2, .cls-4, .cls-6 {
        stroke: #030405;
      }

      .cls-3, .cls-5 {
        stroke: #040506;
      }

      .cls-6 {
        stroke-miterlimit: 10;
      }
    </style>
  </defs>
  <path class="cls-3" d="M142.05,156.98v-29.33c.17-3.44,5.27-8.37,9.04-16.08,3.77-7.72,3.12-17.23,3.12-17.23,2.9-55.31-51.69-51.26-51.69-51.26,0,0-51.5-.07-45.75,54.75l-10.89,23.41s-1.65,4.34,4.42,5.62c6.06,1.28,7.21.3,8.37,4.07,1.15,3.78,2.62,20.53,2.62,20.53,0,0,.66,5.41,8.05,5.41h17.73s13.79.5,13.96-16.08"/>
  <g>
    <path class="cls-2" d="M105.59,70.93c-7.98,0-14.44,6.47-14.44,14.44"/>
    <line class="cls-4" x1="105.62" y1="60.13" x2="105.62" y2="52.91"/>
    <line class="cls-4" x1="80.34" y1="85.41" x2="73.12" y2="85.41"/>
    <line class="cls-4" x1="138.12" y1="85.41" x2="130.9" y2="85.41"/>
    <line class="cls-1" x1="87.74" y1="67.53" x2="82.64" y2="62.43"/>
    <line class="cls-1" x1="128.6" y1="108.39" x2="123.5" y2="103.29"/>
    <line class="cls-5" x1="87.74" y1="103.28" x2="82.64" y2="108.39"/>
    <line class="cls-5" x1="128.6" y1="62.43" x2="123.49" y2="67.54"/>
    <path class="cls-6" d="M99.84,118.63h2.16v2.88h7.22v-2.88h2.16v-12.35c9.16-2.53,15.88-10.92,15.88-20.87,0-11.96-9.7-21.66-21.66-21.66s-21.65,9.7-21.65,21.66c0,9.97,6.73,18.35,15.88,20.87.01,0,.01,12.35.01,12.35Z"/>
    <line class="cls-2" x1="99.84" y1="110.54" x2="111.4" y2="110.54"/>
  </g>
</svg>