<?xml version="1.0" encoding="UTF-8"?>
<svg id="Icons" xmlns="http://www.w3.org/2000/svg" viewBox="0 0 200 200">
  <defs>
    <style>
      .cls-1 {
        stroke: #010202;
      }

      .cls-1, .cls-2, .cls-3 {
        stroke-linecap: round;
      }

      .cls-1, .cls-2, .cls-3, .cls-4 {
        fill: none;
        stroke-miterlimit: 10;
        stroke-width: 3px;
      }

      .cls-2 {
        stroke: #020304;
      }

      .cls-3, .cls-4 {
        stroke: #030505;
      }
    </style>
  </defs>
  <path class="cls-3" d="M54.42,114.73s-20.47,19.63-7.79,44.7l14.81-14.81"/>
  <path class="cls-4" d="M83.2,35.09s-43.52,28.9-15.17,112.11h30.34c28.35-83.21-15.17-112.11-15.17-112.11Z"/>
  <path class="cls-3" d="M111.99,114.73s20.47,19.63,7.79,44.7l-14.81-14.81"/>
  <line class="cls-3" x1="63.99" y1="62.47" x2="102.44" y2="62.47"/>
  <line class="cls-4" x1="83.2" y1="154.68" x2="83.2" y2="184.57"/>
  <line class="cls-4" x1="70.82" y1="154.68" x2="70.82" y2="172.12"/>
  <line class="cls-4" x1="95.59" y1="154.68" x2="95.59" y2="172.12"/>
  <circle class="cls-3" cx="83.22" cy="89.69" r="12.5"/>
  <circle class="cls-1" cx="129.98" cy="92.04" r="11.79"/>
  <path class="cls-2" d="M121.9,130.92l3.95-9.53c2.71.39,5.5.4,8.28,0l3.19,7.71,13.69-5.67-3.19-7.71c2.24-1.69,4.19-3.67,5.84-5.86l7.72,3.2,5.67-13.69-7.72-3.2c.39-2.71.41-5.49.01-8.27l7.71-3.19-5.67-13.69-7.71,3.19c-1.69-2.24-3.66-4.2-5.85-5.85l3.19-7.71-13.68-5.68-3.19,7.71c-2.71-.39-5.5-.4-8.28,0l-3.19-7.71-13.69,5.67,3.19,7.71c-2.24,1.69-4.19,3.67-5.84,5.86l-.37.55"/>
</svg>