<?xml version="1.0" encoding="UTF-8"?>
<svg id="Icons" xmlns="http://www.w3.org/2000/svg" viewBox="0 0 200 200">
  <defs>
    <style>
      .cls-1 {
        stroke: #010202;
      }

      .cls-1, .cls-2 {
        stroke-linecap: round;
      }

      .cls-1, .cls-2, .cls-3 {
        fill: none;
        stroke-miterlimit: 10;
        stroke-width: 3px;
      }

      .cls-2, .cls-3 {
        stroke: #000;
      }
    </style>
  </defs>
  <path class="cls-3" d="M112.44,130.96l.02-.03h0c4.12-6.29,6.53-13.81,6.53-21.89,0-22.09-17.91-40-40-40s-40,17.91-40,40c0,8.31,2.54,16.03,6.88,22.43h0l33.12,50.13,1.26-1.91,32.19-48.74Z"/>
  <circle class="cls-3" cx="78.98" cy="106.55" r="12.5"/>
  <path class="cls-1" d="M126.21,117.27c2.48-.82,4.84-1.9,7.05-3.21l7.18,7.18,12.73-12.73-7.18-7.18c1.69-2.86,3.01-5.98,3.86-9.28h10.14v-18h-10.14c-.85-3.3-2.15-6.42-3.85-9.28l7.17-7.17-12.73-12.73-7.17,7.17c-2.86-1.69-5.98-3-9.28-3.85v-10.13h-18v10.13c-3.3.85-6.41,2.17-9.28,3.86l-7.18-7.18-12.73,12.73,4.27,4.27"/>
  <path class="cls-2" d="M123.46,94.11c2.91-2.23,4.96-5.57,5.47-9.49,1.03-7.84-4.5-15.03-12.34-16.05-3.92-.51-7.68.61-10.58,2.84"/>
</svg>