<?xml version="1.0" encoding="UTF-8"?>
<svg id="Icons" xmlns="http://www.w3.org/2000/svg" viewBox="0 0 200 200">
  <defs>
    <style>
      .cls-1 {
        stroke: #040506;
      }

      .cls-1, .cls-2 {
        fill: none;
        stroke-miterlimit: 10;
        stroke-width: 3px;
      }

      .cls-2 {
        stroke: #020304;
        stroke-linecap: round;
      }
    </style>
  </defs>
  <path class="cls-1" d="M40.45,134.33l14.44-13.69s5.25-4.32,9.19-4.32h19.69l9.19,6.57h20.44s6.94.56,6.94,7.69-6.19,8.44-6.19,8.44h-30.38"/>
  <path class="cls-1" d="M66.51,159.77l3.45-3.05h47.2s17.26-9.82,28.13-22.57,14.26-23.25,14.26-23.25c0,0-.37-5.06-9-4.88-8.62.19-13.13,4.69-15.94,12.94l-11.01,5.65"/>
  <path class="cls-2" d="M50.07,90.15c0-27.57,22.35-49.93,49.93-49.93s49.93,22.35,49.93,49.93"/>
  <line class="cls-2" x1="100" y1="40.24" x2="100" y2="122.89"/>
  <line class="cls-2" x1="50.07" y1="90.15" x2="149.92" y2="90.15"/>
  <path class="cls-2" d="M55.62,113.05c-3.54-6.86-5.55-14.64-5.55-22.89,0-27.57,22.35-49.93,49.93-49.93s49.93,22.35,49.93,49.93c0,3.37-.33,6.66-.97,9.85"/>
  <path class="cls-2" d="M100,40.23c-14.41,6.71-24.87,26.54-24.87,49.93,0,9.53,1.74,18.47,4.77,26.17"/>
  <path class="cls-2" d="M100,40.24c14.41,6.71,24.87,26.54,24.87,49.93,0,12.83-3.15,24.59-8.37,33.7"/>
</svg>