<?xml version="1.0" encoding="UTF-8"?>
<svg id="Icons" xmlns="http://www.w3.org/2000/svg" viewBox="0 0 200 200">
  <defs>
    <style>
      .cls-1 {
        stroke: #010202;
      }

      .cls-1, .cls-2 {
        fill: none;
        stroke-linecap: round;
        stroke-miterlimit: 10;
        stroke-width: 3px;
      }

      .cls-2 {
        stroke: #020304;
      }
    </style>
  </defs>
  <g>
    <polyline class="cls-2" points="133.62 62.61 140.68 47.33 154.26 80.7 140.68 80.7"/>
    <path class="cls-2" d="M133.63,62.6c-9.77-7.07-21.78-11.24-34.77-11.24-32.78,0-59.36,26.58-59.36,59.36,0,4.81.57,9.49,1.65,13.98"/>
  </g>
  <g>
    <polyline class="cls-2" points="65.35 157.06 58.29 172.33 44.71 138.97 58.29 138.97"/>
    <path class="cls-2" d="M65.34,157.06c9.77,7.07,21.78,11.24,34.77,11.24,32.78,0,59.36-26.58,59.36-59.36,0-4.81-.57-9.49-1.65-13.98"/>
  </g>
  <circle class="cls-1" cx="99.48" cy="109.83" r="12.19"/>
  <path class="cls-2" d="M137.78,117.49v-15.32h-8.63c-.73-2.81-1.83-5.46-3.27-7.9l6.1-6.1-10.84-10.84-6.1,6.1c-2.44-1.44-5.09-2.56-7.9-3.28v-8.62h-15.32v8.62c-2.81.72-5.46,1.85-7.9,3.29l-6.1-6.1-10.83,10.83,6.11,6.11c-1.44,2.44-2.56,5.09-3.29,7.9h-8.62v15.32h8.63c.73,2.81,1.83,5.46,3.27,7.9l-6.1,6.1,10.83,10.83,6.1-6.1c2.44,1.44,5.09,2.56,7.9,3.28v8.62h15.32v-8.62c2.81-.72,5.46-1.85,7.9-3.29l6.1,6.1,10.83-10.83-6.11-6.11c1.44-2.44,2.56-5.09,3.29-7.9h8.63Z"/>
</svg>