<?xml version="1.0" encoding="UTF-8"?>
<svg id="Icons" xmlns="http://www.w3.org/2000/svg" viewBox="0 0 200 200">
  <defs>
    <style>
      .cls-1, .cls-2 {
        stroke-linejoin: round;
      }

      .cls-1, .cls-2, .cls-3, .cls-4 {
        fill: none;
        stroke-linecap: round;
        stroke-width: 3px;
      }

      .cls-1, .cls-4 {
        stroke: #000;
      }

      .cls-2 {
        stroke: #040506;
      }

      .cls-3 {
        stroke: #010202;
      }

      .cls-3, .cls-4 {
        stroke-miterlimit: 10;
      }
    </style>
  </defs>
  <path class="cls-4" d="M100,84.09c-8.79,0-15.91,7.12-15.91,15.91s7.12,15.91,15.91,15.91"/>
  <path class="cls-3" d="M100,50h-10v11.26c-3.67.94-7.13,2.41-10.31,4.29l-7.97-7.97-14.14,14.14,7.98,7.98c-1.88,3.18-3.34,6.64-4.29,10.31h-11.26v20h11.27c.95,3.67,2.39,7.13,4.27,10.31l-7.97,7.97,14.14,14.14,7.97-7.97c3.18,1.88,6.65,3.34,10.32,4.28v11.26h10"/>
  <polyline class="cls-2" points="105.98 84.05 121.93 84.05 121.93 115.96 105.98 115.96"/>
  <line class="cls-1" x1="122.5" y1="100.23" x2="138.17" y2="100.23"/>
  <circle class="cls-1" cx="144.57" cy="100.23" r="5.43"/>
  <polyline class="cls-1" points="122.5 90.51 135.19 90.51 135.19 80.26"/>
  <circle class="cls-1" cx="135.19" cy="74.83" r="5.43"/>
  <g>
    <polyline class="cls-1" points="122.5 109.88 135.19 109.88 135.19 120.11"/>
    <circle class="cls-1" cx="135.19" cy="125.55" r="5.43"/>
  </g>
  <line class="cls-2" x1="118.71" y1="83.18" x2="118.71" y2="64.3"/>
  <circle class="cls-1" cx="118.71" cy="58.75" r="5.43"/>
  <line class="cls-2" x1="118.71" y1="117.19" x2="118.71" y2="130.24"/>
  <circle class="cls-1" cx="118.71" cy="135.79" r="5.43"/>
  <circle class="cls-2" cx="100" cy="100.06" r="5.98"/>
</svg>