<?xml version="1.0" encoding="UTF-8"?>
<svg id="Icons" xmlns="http://www.w3.org/2000/svg" viewBox="0 0 200 200">
  <defs>
    <style>
      .cls-1 {
        stroke: #010202;
      }

      .cls-1, .cls-2 {
        fill: none;
        stroke-linecap: round;
        stroke-miterlimit: 10;
        stroke-width: 3px;
      }

      .cls-2 {
        stroke: #020304;
      }
    </style>
  </defs>
  <path class="cls-1" d="M71.3,103.35c-.79-1.89-1.23-3.97-1.23-6.14,0-8.79,7.12-15.91,15.91-15.91,2.28,0,4.44.48,6.4,1.34"/>
  <path class="cls-2" d="M122.68,81.29c-.66-1.52-1.41-2.99-2.24-4.4l7.97-7.97-14.15-14.15-7.97,7.97c-3.18-1.88-6.65-3.34-10.32-4.28v-11.26h-20v11.26c-3.67.94-7.13,2.41-10.31,4.29l-7.97-7.97-14.14,14.14,7.98,7.98c-1.88,3.18-3.34,6.64-4.29,10.31h-11.26v20h11.27c.95,3.67,2.39,7.13,4.27,10.31l-7.97,7.97,14.14,14.14,7.97-7.97c3.18,1.88,6.65,3.34,10.32,4.28v11.26h20v-11.26"/>
  <line class="cls-1" x1="74.44" y1="108.01" x2="119.2" y2="108.01"/>
  <polyline class="cls-1" points="110.24 85.6 101.87 108.01 119.23 152.8"/>
  <line class="cls-1" x1="164.02" y1="108.01" x2="119.25" y2="108.01"/>
  <polyline class="cls-1" points="128.22 85.6 136.58 108.01 119.23 152.8"/>
  <polygon class="cls-1" points="164.02 108.01 141.61 85.6 96.85 85.6 74.44 108.01 119.23 152.8 164.02 108.01"/>
</svg>