<?xml version="1.0" encoding="UTF-8"?>
<svg id="Icons" xmlns="http://www.w3.org/2000/svg" viewBox="0 0 200 200">
  <defs>
    <style>
      .cls-1 {
        stroke-miterlimit: 10;
      }

      .cls-1, .cls-2, .cls-3 {
        fill: none;
        stroke: #fff;
        stroke-width: 3px;
      }

      .cls-2 {
        stroke-linecap: round;
      }

      .cls-2, .cls-3 {
        stroke-linejoin: round;
      }
    </style>
  </defs>
  <g>
    <path class="cls-1" d="M110.78,100c0-18.95-15.36-34.31-34.31-34.31-9.32,0-17.78,3.72-23.96,9.75-6.39,6.23-10.35,14.93-10.35,24.56,0,5.84,1.46,11.35,4.04,16.17,5.78,10.8,17.17,18.15,30.27,18.15,18.95,0,34.31-15.36,34.31-34.31Z"/>
    <path class="cls-1" d="M40.87,128.74c1.62,2,3.41,3.87,5.34,5.57,8.06,7.12,18.66,11.43,30.26,11.43,17.22,0,32.22-9.51,40.03-23.57"/>
    <path class="cls-1" d="M116.34,77.55c-7.85-13.91-22.76-23.3-39.87-23.3-8.78,0-16.99,2.48-23.96,6.77-2.6,1.6-5.02,3.45-7.24,5.52"/>
  </g>
  <path class="cls-2" d="M115.97,115.36h6.65v20.94c0,1.21.98,2.19,2.19,2.19h3.43c1.21,0,2.19-.98,2.19-2.19V61.51c-16.43,22.67-14.46,53.84-14.46,53.84Z"/>
  <g>
    <path class="cls-3" d="M26.81,84.67h7.81v50.82c0,1.66-1.34,3-3,3h-1.81c-1.66,0-3-1.34-3-3v-50.82h0Z"/>
    <path class="cls-2" d="M40.87,61.51v16.16c0,3.86-3.13,6.99-6.99,6.99h-6.34c-3.86,0-6.99-3.13-6.99-6.99v-16.16"/>
    <line class="cls-2" x1="27.5" y1="61.89" x2="27.5" y2="74.51"/>
    <line class="cls-2" x1="33.76" y1="61.89" x2="33.76" y2="74.51"/>
  </g>
  <line class="cls-2" x1="162.44" y1="100.77" x2="162.44" y2="25.77"/>
  <polyline class="cls-2" points="143.55 43.56 162.44 24.67 181.34 43.56"/>
</svg>