<?xml version="1.0" encoding="UTF-8"?>
<svg id="Icons" xmlns="http://www.w3.org/2000/svg" viewBox="0 0 200 200">
  <defs>
    <style>
      .cls-1 {
        stroke-miterlimit: 10;
      }

      .cls-1, .cls-2, .cls-3 {
        fill: none;
        stroke: #fff;
        stroke-width: 3px;
      }

      .cls-2 {
        stroke-linecap: round;
      }

      .cls-2, .cls-3 {
        stroke-linejoin: round;
      }
    </style>
  </defs>
  <g>
    <path class="cls-1" d="M143.14,100.02c0-23.18-18.79-41.97-41.97-41.97-11.4,0-21.74,4.55-29.31,11.93-7.81,7.62-12.66,18.27-12.66,30.04,0,7.15,1.79,13.88,4.94,19.77,7.07,13.21,21,22.2,37.03,22.2,23.18,0,41.97-18.79,41.97-41.97Z"/>
    <path class="cls-1" d="M57.63,135.18c1.98,2.45,4.17,4.73,6.53,6.82,9.86,8.7,22.82,13.98,37.01,13.98,21.06,0,39.41-11.64,48.96-28.83"/>
    <path class="cls-1" d="M149.94,72.56c-9.6-17.01-27.84-28.49-48.77-28.49-10.74,0-20.78,3.03-29.3,8.28-3.18,1.96-6.14,4.22-8.86,6.75"/>
  </g>
  <path class="cls-2" d="M149.48,118.81h8.13v25.61c0,1.48,1.2,2.68,2.68,2.68h4.2c1.48,0,2.68-1.2,2.68-2.68V52.95c-20.09,27.72-17.68,65.86-17.68,65.86Z"/>
  <g>
    <path class="cls-3" d="M40.44,81.27h9.55v62.82c0,1.66-1.34,3-3,3h-3.55c-1.66,0-3-1.34-3-3v-62.82h0Z"/>
    <path class="cls-2" d="M57.64,52.95v19.77c0,4.72-3.83,8.55-8.55,8.55h-7.75c-4.72,0-8.55-3.83-8.55-8.55v-19.77"/>
    <line class="cls-2" x1="41.28" y1="53.41" x2="41.28" y2="68.84"/>
    <line class="cls-2" x1="48.94" y1="53.41" x2="48.94" y2="68.84"/>
  </g>
</svg>