<?xml version="1.0" encoding="UTF-8"?>
<svg id="Icons" xmlns="http://www.w3.org/2000/svg" viewBox="0 0 200 200">
  <defs>
    <style>
      .cls-1 {
        fill: none;
        stroke: #fff;
        stroke-linecap: round;
        stroke-linejoin: round;
        stroke-width: 3px;
      }
    </style>
  </defs>
  <path class="cls-1" d="M161.39,103.8c0,18.42-8.11,34.95-20.96,46.2H59.57c-12.85-11.25-20.96-27.78-20.96-46.2h122.79Z"/>
  <path class="cls-1" d="M156.26,103.8c1.98-5.14,3.28-10.65,3.79-16.41l-119.87-10.49c-.83,9.46.58,18.6,3.79,26.9h112.29Z"/>
  <path class="cls-1" d="M152.5,86.73c6.53-10.62,9.83-23.35,8.66-36.73l-119.87,10.49c.52,5.93,1.88,11.59,3.96,16.86l107.25,9.38Z"/>
  <path class="cls-1" d="M72.76,117.1c0,3.36-2.72,6.08-6.08,6.08s-6.08-2.72-6.08-6.08v-13.3h12.16v13.3Z"/>
  <path class="cls-1" d="M92.51,129.26c0,3.36-2.72,6.08-6.08,6.08s-6.08-2.72-6.08-6.08v-25.46h12.16v25.46Z"/>
  <path class="cls-1" d="M138.48,68.55c0,3.36-2.72,6.08-6.08,6.08s-6.08-2.72-6.08-6.08v-15.44l12.16-1.06v16.5Z"/>
</svg>