<?xml version="1.0" encoding="UTF-8"?>
<svg id="Icons" xmlns="http://www.w3.org/2000/svg" viewBox="0 0 200 200">
  <defs>
    <style>
      .cls-1 {
        stroke-dasharray: 5.98 5.98;
      }

      .cls-1, .cls-2 {
        stroke-miterlimit: 10;
      }

      .cls-1, .cls-2, .cls-3 {
        fill: none;
        stroke: #fff;
        stroke-linecap: round;
        stroke-width: 3px;
      }

      .cls-3 {
        stroke-linejoin: round;
      }
    </style>
  </defs>
  <g>
    <polyline class="cls-3" points="100.01 71.01 115.78 71.01 115.78 99.31 100.01 99.31"/>
    <line class="cls-3" x1="115.78" y1="85.2" x2="128.82" y2="85.2"/>
    <circle class="cls-3" cx="134.15" cy="85.2" r="4.52"/>
    <polyline class="cls-3" points="115.78 77.11 126.35 77.11 126.35 68.57"/>
    <circle class="cls-3" cx="126.35" cy="64.05" r="4.52"/>
    <g>
      <polyline class="cls-3" points="115.78 93.23 126.35 93.23 126.35 101.74"/>
      <circle class="cls-3" cx="126.35" cy="106.27" r="4.52"/>
    </g>
    <line class="cls-3" x1="112.63" y1="71.01" x2="112.63" y2="55.29"/>
    <circle class="cls-3" cx="112.63" cy="50.67" r="4.52"/>
    <line class="cls-3" x1="112.63" y1="99.31" x2="112.63" y2="110.18"/>
    <circle class="cls-3" cx="112.63" cy="114.8" r="4.52"/>
  </g>
  <path class="cls-2" d="M99.97,33.61c-27.63,0-50.03,22.4-50.03,50.03,0,23.01,15.54,42.38,36.69,48.22v28.5h5v6.67h16.68v-6.67h5v-28.5"/>
  <line class="cls-3" x1="86.63" y1="141.67" x2="113.31" y2="141.67"/>
  <line class="cls-3" x1="86.63" y1="151.06" x2="113.31" y2="151.06"/>
  <g>
    <path class="cls-2" d="M113.31,131.86c.97-.27,1.92-.56,2.87-.89"/>
    <path class="cls-1" d="M121.71,128.7c16.74-8.09,28.29-25.22,28.29-45.06,0-25.6-19.23-46.72-44.04-49.68"/>
    <path class="cls-2" d="M102.97,33.7c-.99-.06-1.99-.09-3-.09"/>
  </g>
  <path class="cls-2" d="M99.64,91.62c-6.09.04-11.06-4.86-11.1-10.95-.04-6.09,4.86-11.06,10.95-11.1"/>
  <path class="cls-2" d="M99.15,117.37l-6.78.03-.03-7.81c-2.48-.63-4.9-1.6-7.17-2.93l-5.49,5.54-9.84-9.76,5.49-5.54c-1.35-2.25-2.33-4.66-2.98-7.14l-7.81.03-.06-13.86,7.82-.03c.63-2.48,1.59-4.9,2.92-7.16l-5.54-5.49,9.76-9.84,5.55,5.5c2.25-1.34,4.66-2.34,7.14-2.99l-.03-7.81,7.08-.03"/>
  <line class="cls-2" x1="99.97" y1="33.61" x2="99.97" y2="141.38"/>
</svg>