<?xml version="1.0" encoding="UTF-8"?>
<svg id="Icons" xmlns="http://www.w3.org/2000/svg" viewBox="0 0 200 200">
  <defs>
    <style>
      .cls-1 {
        stroke-linecap: round;
      }

      .cls-1, .cls-2 {
        fill: none;
        stroke: #fff;
        stroke-linejoin: round;
        stroke-width: 3px;
      }
    </style>
  </defs>
  <polyline class="cls-2" points="51.99 136.07 58.48 122.24 58.48 66.25 51.99 53.13 134.99 53.13 128.5 66.25 128.5 114.38"/>
  <polyline class="cls-2" points="51.99 38.31 51.99 53.13 134.99 53.13 134.99 38.31"/>
  <path class="cls-1" d="M51.99,37.59c3.46,0,3.46,3.32,6.91,3.32s3.46-3.32,6.92-3.32,3.46,3.32,6.92,3.32,3.46-3.32,6.91-3.32,3.46,3.32,6.91,3.32,3.46-3.32,6.91-3.32,3.46,3.32,6.91,3.32,3.46-3.32,6.92-3.32,3.46,3.32,6.91,3.32,3.46-3.32,6.92-3.32,3.46,3.32,6.92,3.32,3.46-3.32,6.92-3.32"/>
  <polyline class="cls-2" points="51.99 150.89 51.99 136.07 70.27 136.07"/>
  <line class="cls-2" x1="134.99" y1="142.1" x2="134.99" y2="150.89"/>
  <path class="cls-1" d="M134.99,151.62c-3.46,0-3.46-3.32-6.91-3.32s-3.46,3.32-6.92,3.32-3.46-3.32-6.92-3.32-3.46,3.32-6.91,3.32-3.46-3.32-6.91-3.32-3.46,3.32-6.91,3.32-3.46-3.32-6.91-3.32-3.46,3.32-6.92,3.32-3.46-3.32-6.91-3.32-3.46,3.32-6.92,3.32-3.46-3.32-6.92-3.32-3.46,3.32-6.92,3.32"/>
  <path class="cls-2" d="M70.34,142.2c0-1.73,1.66-1.73,1.66-3.46s-1.66-1.73-1.66-3.46,1.66-1.73,1.66-3.46-1.66-1.73-1.66-3.46,1.66-1.73,1.66-3.46-1.66-1.73-1.66-3.46,1.66-1.74,1.66-3.47-1.66-1.74-1.66-3.47"/>
  <polyline class="cls-1" points="70.27 114.48 80.1 114.48 80.1 142.2 70.27 142.2"/>
  <rect class="cls-2" x="80.13" y="114.48" width="71.14" height="27.72"/>
  <g>
    <path class="cls-2" d="M159.34,142.1c0-1.73,1.66-1.73,1.66-3.46s-1.66-1.73-1.66-3.46,1.66-1.73,1.66-3.46-1.66-1.73-1.66-3.46,1.66-1.73,1.66-3.46-1.66-1.73-1.66-3.46,1.66-1.74,1.66-3.47-1.66-1.74-1.66-3.47"/>
    <polyline class="cls-1" points="161.07 114.38 151.24 114.38 151.24 142.1 161.07 142.1"/>
  </g>
  <path class="cls-2" d="M112.83,114.38c5.14-5.02,8.32-12.03,8.32-19.78,0-15.28-12.39-27.67-27.67-27.67s-27.67,12.39-27.67,27.67c0,7.63,3.09,14.54,8.09,19.55"/>
  <rect class="cls-2" x="93.46" y="121.13" width="44.47" height="13.41"/>
</svg>