<?xml version="1.0" encoding="UTF-8"?>
<svg id="Icons" xmlns="http://www.w3.org/2000/svg" viewBox="0 0 200 200">
  <defs>
    <style>
      .cls-1 {
        fill: none;
        stroke: #fff;
        stroke-linecap: round;
        stroke-linejoin: round;
        stroke-width: 3px;
      }
    </style>
  </defs>
  <g>
    <path class="cls-1" d="M162.5,99.99c-14.41-18.72-37.05-30.78-62.5-30.78s-48.09,12.06-62.5,30.78"/>
    <path class="cls-1" d="M37.5,99.99c14.41,18.73,37.05,30.79,62.5,30.79s48.09-12.06,62.5-30.78"/>
  </g>
  <circle class="cls-1" cx="100" cy="99.99" r="30.78"/>
  <path class="cls-1" d="M100,87.49c-1.58,0-3.09.29-4.47.83,1.44.93,2.4,2.55,2.4,4.39,0,2.88-2.34,5.22-5.22,5.22-1.84,0-3.46-.96-4.39-2.4-.53,1.39-.83,2.9-.83,4.48,0,6.91,5.6,12.52,12.52,12.52s12.52-5.6,12.52-12.52-5.62-12.52-12.53-12.52Z"/>
</svg>