<?xml version="1.0" encoding="UTF-8"?>
<svg id="Icons" xmlns="http://www.w3.org/2000/svg" viewBox="0 0 200 200">
  <defs>
    <style>
      .cls-1, .cls-2 {
        stroke-miterlimit: 10;
      }

      .cls-1, .cls-2, .cls-3 {
        fill: none;
        stroke: #fff;
        stroke-width: 3px;
      }

      .cls-2, .cls-3 {
        stroke-linecap: round;
      }

      .cls-3 {
        stroke-linejoin: round;
      }
    </style>
  </defs>
  <path class="cls-3" d="M72.52,114.95c0,5.52-4.48,10-10,10h-1.88c-5.52,0-10-4.48-10-10v-33.09c0-5.52,4.66-11.57,10.19-11.57h10.15c.99-4.48,6.77-7.84,11.55-7.84h1.88c6.99,0,11.01,3.33,11.01,3.33,1.64-3.29,5.03-5.55,8.96-5.55h1.88s7.43-1.22,12.15,5.06l7.85.43h1.88c5.52,0,10,4.48,10,10v44.41c0,5.52-4.48,10-10,10h-1.88c-5.52,0-10-4.48-10-10"/>
  <path class="cls-1" d="M94.41,117.22c0,5.52-4.48,10-10,10h-1.88c-5.52,0-10-4.48-10-10"/>
  <path class="cls-2" d="M100.61,127.37s-4.3,6.69-4.3,9.82c-.27.66.63,3.82,5.66,2.24,0,0,22.3-6.34,34.76-4.89,0,0,9.8,3.78,12.35-7.77.48,1.25,1.74-27.08-10.94-45"/>
  <path class="cls-2" d="M94.37,89.72v28.39c0,5.52,4.48,10,10,10h1.88c5.52,0,10-4.48,10-10v-31"/>
  <line class="cls-2" x1="72.49" y1="93.11" x2="72.49" y2="115.72"/>
</svg>