<?xml version="1.0" encoding="UTF-8"?>
<svg id="Icons" xmlns="http://www.w3.org/2000/svg" viewBox="0 0 200 200">
  <defs>
    <style>
      .cls-1, .cls-2 {
        fill: none;
        stroke: #fff;
        stroke-miterlimit: 10;
        stroke-width: 3px;
      }

      .cls-2 {
        stroke-linecap: round;
      }
    </style>
  </defs>
  <circle class="cls-2" cx="83.91" cy="79.85" r="12.5"/>
  <path class="cls-2" d="M55.02,104.92s-20.54,19.7-7.82,44.85l14.86-14.86"/>
  <path class="cls-1" d="M108.1,73.44c-3.92-34.98-24.19-48.44-24.19-48.44,0,0-43.67,29-15.22,112.5h30.44c1.8-5.28,3.31-10.34,4.56-15.19"/>
  <path class="cls-2" d="M124.77,133.59c-.08,5-1.25,10.45-4.15,16.18l-14.86-14.86"/>
  <line class="cls-2" x1="64.63" y1="52.47" x2="103.22" y2="52.47"/>
  <line class="cls-1" x1="83.91" y1="145" x2="83.91" y2="175"/>
  <line class="cls-1" x1="71.49" y1="145" x2="71.49" y2="162.5"/>
  <line class="cls-1" x1="96.33" y1="145" x2="96.33" y2="162.5"/>
  <g>
    <circle class="cls-1" cx="128.76" cy="100" r="28.2"/>
    <path class="cls-1" d="M138.15,111.97c-2.05,1.9-4.83,3.07-7.88,3.07-6.26,0-11.35-3.09-11.35-9.12v-10.04c0-6.03,5.09-10.92,11.35-10.92,3.1,0,5.91,1.2,7.96,3.14"/>
    <line class="cls-1" x1="115.59" y1="96.15" x2="130.27" y2="96.15"/>
    <line class="cls-1" x1="115.59" y1="104.41" x2="130.27" y2="104.41"/>
  </g>
</svg>