<?xml version="1.0" encoding="UTF-8"?>
<svg id="Icons" xmlns="http://www.w3.org/2000/svg" viewBox="0 0 200 200">
  <defs>
    <style>
      .cls-1, .cls-2 {
        fill: none;
        stroke: #fff;
        stroke-miterlimit: 10;
        stroke-width: 3px;
      }

      .cls-2 {
        stroke-linecap: round;
      }
    </style>
  </defs>
  <path class="cls-1" d="M42.7,152.28l13.89-13.17s5.05-4.16,8.84-4.16h18.94l8.84,6.32h19.67s6.68.54,6.68,7.4-5.96,8.12-5.96,8.12h-29.23"/>
  <path class="cls-1" d="M67.78,176.75l3.32-2.93h45.41s16.61-9.45,27.06-21.72c10.46-12.27,13.72-22.37,13.72-22.37,0,0-.36-4.87-8.66-4.7-8.29.18-12.63,4.51-15.34,12.45l-10.59,5.44"/>
  <path class="cls-2" d="M100.02,133.69c22.82-10.1,31.93-29.67,31.93-29.67,2.74-5.43,3.23-10.03,2.85-13.62-.43-10.3-8.92-18.52-19.33-18.52-6.33,0-11.94,3.03-15.47,7.72-3.53-4.69-9.14-7.72-15.47-7.72-10.41,0-18.9,8.22-19.33,18.52-.38,3.59.1,8.19,2.85,13.62,0,0,9.11,19.57,31.93,29.67h.02s.02,0,.02,0Z"/>
  <path class="cls-1" d="M157.3,47.72l-13.89,13.17s-5.05,4.16-8.84,4.16h-18.94l-8.84-6.32h-19.67s-6.68-.54-6.68-7.4,5.96-8.12,5.96-8.12h29.23"/>
  <path class="cls-1" d="M132.22,23.25l-3.32,2.93h-45.41s-16.61,9.45-27.06,21.72c-10.46,12.27-13.72,22.37-13.72,22.37,0,0,.36,4.87,8.66,4.7,8.29-.18,12.63-4.51,15.34-12.45l10.59-5.44"/>
</svg>