<?xml version="1.0" encoding="UTF-8"?>
<svg id="Icons" xmlns="http://www.w3.org/2000/svg" viewBox="0 0 200 200">
  <defs>
    <style>
      .cls-1, .cls-2 {
        fill: none;
        stroke: #fff;
        stroke-miterlimit: 10;
        stroke-width: 3px;
      }

      .cls-2 {
        stroke-linecap: round;
      }
    </style>
  </defs>
  <path class="cls-1" d="M86.3,104.68h30.38s6.19,1.31,6.19,8.44-6.94,7.69-6.94,7.69h-20.44l-9.19,6.57h-19.69c-3.94,0-9.19-4.32-9.19-4.32l-8.85-7.28"/>
  <path class="cls-2" d="M123.91,104.1l18.21-3.11c31.71,5.16,31.85-9.19,26.99-10.44,0,0-10.67-3.14-27.42-3.6,0,0-11.95-.23-30.91,1.63"/>
  <path class="cls-2" d="M153.53,86.92c-2.24-8.98-20.27-6.47-26.99-6.47l-21.82,1.9"/>
  <path class="cls-2" d="M133.64,79.75c-3.78-9.03-36.29-2.89-36.88-3.29"/>
  <path class="cls-1" d="M114.07,75.25c.69-.92-4.41-5.44-19.36-3.59l-37.17,7.29-8,5.33"/>
  <polyline class="cls-1" points="28.57 74.98 49.13 74.98 49.13 128.78 28.57 128.78"/>
</svg>