<?xml version="1.0" encoding="UTF-8"?>
<svg id="Icons" xmlns="http://www.w3.org/2000/svg" viewBox="0 0 200 200">
  <defs>
    <style>
      .cls-1 {
        fill: none;
        stroke: #fff;
        stroke-linecap: round;
        stroke-miterlimit: 10;
        stroke-width: 3px;
      }
    </style>
  </defs>
  <polyline class="cls-1" points="50 93.75 50 156.25 83.26 156.25"/>
  <polyline class="cls-1" points="37.5 93.75 100 43.75 162.5 93.75"/>
  <polyline class="cls-1" points="125 56.25 125 50.45 150 50.45 150 72.1"/>
  <path class="cls-1" d="M100.02,137.75c18.97-8.4,26.55-24.67,26.55-24.67,2.28-4.51,2.68-8.34,2.37-11.32-.36-8.57-7.42-15.4-16.07-15.4-5.26,0-9.92,2.52-12.86,6.42-2.94-3.9-7.6-6.42-12.86-6.42-8.66,0-15.71,6.84-16.07,15.4-.32,2.98.09,6.81,2.37,11.32,0,0,7.58,16.27,26.55,24.67h.02s.02,0,.02,0Z"/>
  <polyline class="cls-1" points="84.34 156.25 117.55 156.25 150 156.25 150 93.75"/>
</svg>