<?xml version="1.0" encoding="UTF-8"?>
<svg id="Icons" xmlns="http://www.w3.org/2000/svg" viewBox="0 0 200 200">
  <defs>
    <style>
      .cls-1, .cls-2 {
        stroke-miterlimit: 10;
      }

      .cls-1, .cls-2, .cls-3 {
        fill: none;
        stroke: #fff;
        stroke-width: 3px;
      }

      .cls-2, .cls-3 {
        stroke-linecap: round;
      }

      .cls-3 {
        stroke-linejoin: round;
      }
    </style>
  </defs>
  <circle class="cls-3" cx="100.07" cy="94.53" r="44.56"/>
  <polyline class="cls-1" points="137.21 119.07 180.64 162.5 168.03 175.1 124.59 131.66"/>
  <g>
    <path class="cls-2" d="M84.92,78.37s-3.17,3.52,1.58,7.66c0,0,3.77,11.56,13.26,11.56"/>
    <path class="cls-2" d="M114.41,78.35s3.18,3.72-1.59,7.8c0,0-3.9,11.52-13.36,11.4"/>
    <g>
      <path class="cls-2" d="M91.85,94.35l-.57,6.52-15.56,6.32s-3.64,1.03-4.97,8.39l-1.48,11.16"/>
      <polyline class="cls-2" points="91.25 100.85 99.67 109.57 108.36 101.04"/>
    </g>
    <path class="cls-2" d="M107.83,94.01l.54,7.03,15.5,6.49s3.64,1.08,4.88,8.43l1.35,11.2"/>
    <path class="cls-2" d="M84.12,77.51v-9.49s.44-8.81,9.97-8.39c0,0,1.03-2.31,7.53-2.07,0,0,12.08.25,13.61,11.36v9s-2.09,2.25-3.87-3.61l-6.69.09s-6.69.07-13.3-5.84c0,0-.55,4.23-4.01,9.11,0,0-.55.66-1.58.66-.02.03-1.66.21-1.66-.83Z"/>
  </g>
  <g>
    <path class="cls-2" d="M155.05,72.68c-6.65,9.52-18.49,8.73-18.49,8.73,0,11.13,5.32,20.13,11.86,20.13s11.86-9.01,11.86-20.13c.06.03-3.42-1.64-5.23-8.73Z"/>
    <path class="cls-2" d="M136.03,102.15c-1.93-.38-2.82-1.75-2.82-1.75v-3.37c-1.55-9.01-1.55-8.45-1.52-13.75,0-10.08,7.48-18.24,16.72-18.24s16.72,8.17,16.72,18.24c0,0,.18,7.65-1.43,13.86l-.25,3.31s-.93,1.32-2.77,2"/>
    <path class="cls-2" d="M153.88,99.26l1.48,4.61,15.04,5.88s3.75,1.11,5.04,8.7l1.38,11.56"/>
    <path class="cls-2" d="M141.46,103.86l6.41,5.16s.95.89,2.07,0l5.39-5.16"/>
    <path class="cls-2" d="M132.71,107.3l8.76-3.42,1.48-4.61"/>
  </g>
  <g>
    <path class="cls-2" d="M40.14,82.8s-3.07,3.41,1.53,7.41c0,0,3.64,11.18,12.82,11.18"/>
    <path class="cls-2" d="M68.66,82.78s3.08,3.6-1.55,7.54c0,0-3.77,11.14-12.92,11.03"/>
    <g>
      <path class="cls-2" d="M46.84,98.26l-.55,6.3-15.05,6.12s-3.51,1-4.81,8.11l-1.43,10.79"/>
      <polyline class="cls-2" points="46.27 104.54 54.4 112.98 62.82 104.74"/>
    </g>
    <path class="cls-2" d="M62.29,97.93l.52,6.81,4.66,1.95"/>
    <path class="cls-2" d="M39.38,81.98v-9.18s.42-8.51,9.64-8.11c0,0,1-2.23,7.28-2.01,0,0,11.69.24,13.16,10.99v8.71s-2.02,2.17-3.75-3.49l-6.47.08s-6.47.07-12.86-5.64c0,0-.54,4.09-3.87,8.82,0,0-.54.64-1.53.64-.03.02-1.6.19-1.6-.81Z"/>
  </g>
</svg>