<?xml version="1.0" encoding="UTF-8"?>
<svg id="Icons" xmlns="http://www.w3.org/2000/svg" viewBox="0 0 200 200">
  <defs>
    <style>
      .cls-1 {
        stroke-miterlimit: 10;
      }

      .cls-1, .cls-2 {
        fill: none;
        stroke: #fff;
        stroke-width: 3px;
      }

      .cls-3 {
        fill: #fff;
        font-family: OpenSans-Semibold, 'Open Sans';
        font-weight: 600;
      }

      .cls-4 {
        font-size: 12.67px;
      }

      .cls-5 {
        font-size: 35.88px;
      }

      .cls-2 {
        stroke-linejoin: round;
      }
    </style>
  </defs>
  <line class="cls-2" x1="76.79" y1="32.21" x2="76.79" y2="19.71"/>
  <line class="cls-2" x1="76.79" y1="120.27" x2="76.79" y2="107.77"/>
  <line class="cls-2" x1="39.29" y1="70.27" x2="26.79" y2="70.27"/>
  <line class="cls-2" x1="50.27" y1="43.75" x2="41.43" y2="34.92"/>
  <line class="cls-2" x1="50.27" y1="95.94" x2="41.43" y2="104.78"/>
  <line class="cls-2" x1="112.15" y1="34.98" x2="103.31" y2="43.82"/>
  <path class="cls-1" d="M122.4,49.76c-7.83-17.39-25.31-29.49-45.61-29.49-27.61,0-50,22.39-50,50s22.39,50,50,50c2.84,0,5.62-.24,8.33-.69"/>
  <path class="cls-1" d="M157.98,89.73h3.22c7.12,0,12.89,5.77,12.89,12.89s-5.77,12.89-12.89,12.89h-3.22"/>
  <path class="cls-1" d="M91.96,130.79h70.33c0,5.66-4.59,10.25-10.25,10.25h-49.82c-5.66,0-10.25-4.59-10.25-10.25h0Z"/>
  <path class="cls-1" d="M96.37,79.5h61.6v38.71c0,6.94-5.64,12.58-12.58,12.58h-36.44c-6.94,0-12.58-5.64-12.58-12.58v-38.71h0Z"/>
  <line class="cls-1" x1="127.26" y1="74.98" x2="127.26" y2="54.34"/>
  <line class="cls-1" x1="133.2" y1="74.98" x2="133.2" y2="64.59"/>
  <line class="cls-1" x1="121.32" y1="74.98" x2="121.32" y2="59.87"/>
  <text class="cls-3" transform="translate(55.31 74.57)"><tspan class="cls-5"><tspan x="0" y="0">10</tspan></tspan><tspan class="cls-4"><tspan x="7.75" y="12.67">MIN</tspan></tspan></text>
</svg>