<?xml version="1.0" encoding="UTF-8"?>
<svg id="Icons" xmlns="http://www.w3.org/2000/svg" viewBox="0 0 200 200">
  <defs>
    <style>
      .cls-1 {
        stroke-miterlimit: 10;
      }

      .cls-1, .cls-2 {
        fill: none;
        stroke: #fff;
        stroke-width: 3px;
      }

      .cls-2 {
        stroke-linejoin: round;
      }
    </style>
  </defs>
  <g>
    <line class="cls-2" x1="75.17" y1="37.02" x2="75.17" y2="24.52"/>
    <line class="cls-2" x1="75.17" y1="125.08" x2="75.17" y2="112.58"/>
    <line class="cls-2" x1="37.67" y1="75.08" x2="25.17" y2="75.08"/>
    <line class="cls-2" x1="48.65" y1="48.56" x2="39.82" y2="39.72"/>
    <line class="cls-2" x1="48.66" y1="100.75" x2="39.82" y2="109.59"/>
    <line class="cls-2" x1="110.53" y1="39.79" x2="101.69" y2="48.63"/>
    <path class="cls-1" d="M120.79,54.57c-7.83-17.39-25.31-29.49-45.61-29.49-27.61,0-50,22.39-50,50s22.39,50,50,50c2.84,0,5.62-.24,8.33-.69"/>
    <polyline class="cls-2" points="96.02 54.58 75 75 75 56.06"/>
  </g>
  <path class="cls-1" d="M166.43,99.33h3.92c8.68,0,15.72,7.04,15.72,15.72s-7.04,15.72-15.72,15.72h-3.93"/>
  <path class="cls-1" d="M85.93,149.39h85.75c0,6.9-5.6,12.5-12.5,12.5h-60.75c-6.9,0-12.5-5.6-12.5-12.5h0Z"/>
  <path class="cls-1" d="M91.31,86.85h75.11v49.96c0,6.94-5.64,12.58-12.58,12.58h-49.94c-6.94,0-12.58-5.64-12.58-12.58v-49.96h0Z"/>
  <line class="cls-1" x1="128.98" y1="81.34" x2="128.98" y2="56.17"/>
  <line class="cls-1" x1="136.22" y1="81.34" x2="136.22" y2="68.67"/>
  <line class="cls-1" x1="121.74" y1="81.34" x2="121.74" y2="62.91"/>
</svg>