<?xml version="1.0" encoding="UTF-8"?>
<svg id="Icons" xmlns="http://www.w3.org/2000/svg" viewBox="0 0 200 200">
  <defs>
    <style>
      .cls-1, .cls-2 {
        fill: none;
        stroke: #fff;
        stroke-miterlimit: 10;
        stroke-width: 3px;
      }

      .cls-2 {
        stroke-linecap: round;
      }
    </style>
  </defs>
  <path class="cls-2" d="M85.39,107.84c0,5.68-4.61,10.29-10.29,10.29h-27.3c-5.68,0-10.29-4.61-10.29-10.29v-10.22c0-5.68,4.61-10.29,10.29-10.29h27.3c5.68,0,10.29,4.61,10.29,10.29"/>
  <path class="cls-1" d="M95.05,106.81h-23.43c-1.29,0-2.33-.96-2.33-2.15v-3.91c0-1.19,1.04-2.15,2.33-2.15h23.43"/>
  <path class="cls-2" d="M114.61,107.84c0,5.68,4.61,10.29,10.29,10.29h27.3c5.68,0,10.29-4.61,10.29-10.29v-10.22c0-5.68-4.61-10.29-10.29-10.29h-27.3c-5.68,0-10.29,4.61-10.29,10.29"/>
  <path class="cls-1" d="M104.95,106.81h23.43c1.29,0,2.33-.96,2.33-2.15v-3.91c0-1.19-1.04-2.15-2.33-2.15h-23.43"/>
  <path class="cls-2" d="M77.37,106.81c-.43,2.08-2.27,3.65-4.48,3.65h-22.89c-2.53,0-4.58-2.05-4.58-4.58v-6.31c0-2.53,2.05-4.58,4.58-4.58h22.89c2.19,0,4.03,1.55,4.47,3.61"/>
  <path class="cls-2" d="M122.63,106.81c.43,2.08,2.27,3.65,4.48,3.65h22.89c2.53,0,4.58-2.05,4.58-4.58v-6.31c0-2.53-2.05-4.58-4.58-4.58h-22.89c-2.2,0-4.03,1.55-4.47,3.61"/>
</svg>