<?xml version="1.0" encoding="UTF-8"?>
<svg id="Icons" xmlns="http://www.w3.org/2000/svg" viewBox="0 0 200 200">
  <defs>
    <style>
      .cls-1, .cls-2 {
        stroke-miterlimit: 10;
      }

      .cls-1, .cls-2, .cls-3, .cls-4 {
        fill: none;
        stroke: #fff;
        stroke-width: 3px;
      }

      .cls-2, .cls-3 {
        stroke-linecap: round;
      }

      .cls-3, .cls-4 {
        stroke-linejoin: round;
      }
    </style>
  </defs>
  <line class="cls-1" x1="22.86" y1="175.54" x2="161.86" y2="175.54"/>
  <polyline class="cls-1" points="72.57 169.54 72.57 87.99 112.57 87.99 112.57 124.43"/>
  <polyline class="cls-1" points="127.02 169.54 127.02 131.1 155.02 131.1 155.02 169.54"/>
  <polyline class="cls-1" points="29.69 169.54 29.69 131.1 49.69 131.1 49.69 169.54"/>
  <polyline class="cls-1" points="112.35 118.21 139.91 118.21 139.91 130.65"/>
  <polyline class="cls-1" points="112.35 106.21 129.69 106.21 129.69 117.99"/>
  <polygon class="cls-2" points="35.55 97.76 41.72 63.08 48.05 97.83 35.55 97.76"/>
  <polygon class="cls-2" points="54.8 97.76 60.97 63.08 67.31 97.83 54.8 97.76"/>
  <polyline class="cls-1" points="48.35 99.26 48.35 131.1 35.24 131.1 35.24 99.26"/>
  <polyline class="cls-1" points="67.61 99.26 67.61 131.1 54.5 131.1 54.5 99.26"/>
  <line class="cls-1" x1="49.69" y1="131.1" x2="69.6" y2="131.1"/>
  <line class="cls-1" x1="69.6" y1="131.1" x2="72.57" y2="131.1"/>
  <rect class="cls-1" x="80.24" y="75.71" width="24" height="12.28"/>
  <path class="cls-1" d="M120.8,147.51c.41,1.02.64,2.15.64,3.32,0,4.9-3.97,8.87-8.87,8.87s-8.87-3.97-8.87-8.87c0-1.17.22-2.29.64-3.32l8.23-16.65,8.23,16.65Z"/>
  <line class="cls-1" x1="112.49" y1="159.02" x2="112.49" y2="169.77"/>
  <path class="cls-1" d="M91.77,153.44c.3.75.47,1.58.47,2.43,0,3.6-2.92,6.51-6.51,6.51s-6.51-2.92-6.51-6.51c0-.86.16-1.68.47-2.43l6.04-12.22,6.04,12.22Z"/>
  <line class="cls-1" x1="85.67" y1="161.88" x2="85.67" y2="169.77"/>
  <line class="cls-1" x1="82.24" y1="109.07" x2="102.24" y2="109.07"/>
  <line class="cls-1" x1="82.24" y1="98.53" x2="102.24" y2="98.53"/>
  <line class="cls-1" x1="82.24" y1="119.71" x2="102.24" y2="119.71"/>
  <line class="cls-1" x1="82.24" y1="130.35" x2="102.24" y2="130.35"/>
  <line class="cls-1" x1="126.9" y1="141.34" x2="146.9" y2="141.34"/>
  <line class="cls-1" x1="126.9" y1="151.8" x2="146.9" y2="151.8"/>
  <line class="cls-1" x1="126.9" y1="162.26" x2="146.9" y2="162.26"/>
  <line class="cls-1" x1="39.69" y1="169.77" x2="39.69" y2="141.97"/>
  <line class="cls-1" x1="61.13" y1="143.21" x2="61.13" y2="137.37"/>
  <line class="cls-1" x1="61.13" y1="152.06" x2="61.13" y2="146.22"/>
  <line class="cls-1" x1="61.13" y1="160.92" x2="61.13" y2="155.07"/>
  <line class="cls-1" x1="61.13" y1="169.77" x2="61.13" y2="163.93"/>
  <g>
    <line class="cls-3" x1="123.4" y1="106.21" x2="128.41" y2="53.66"/>
    <line class="cls-3" x1="164.33" y1="53.66" x2="171.31" y2="126.86"/>
    <polyline class="cls-3" points="141.62 126.86 174.81 126.86 177.8 151.8 141 151.8"/>
    <line class="cls-3" x1="166.08" y1="74.09" x2="126.67" y2="74.09"/>
    <line class="cls-3" x1="168.82" y1="99.41" x2="124.38" y2="99.41"/>
    <rect class="cls-4" x="128.41" y="28.55" width="35.92" height="25.06"/>
    <polygon class="cls-3" points="146.37 14.62 168.36 28.55 124.38 28.55 146.37 14.62"/>
    <line class="cls-4" x1="155.28" y1="34.02" x2="155.28" y2="48.58"/>
    <line class="cls-4" x1="146.39" y1="34.02" x2="146.39" y2="48.58"/>
    <line class="cls-4" x1="137.57" y1="34.02" x2="137.57" y2="48.58"/>
    <line class="cls-3" x1="128.41" y1="34.02" x2="164.33" y2="34.02"/>
    <line class="cls-3" x1="128.41" y1="48.58" x2="164.33" y2="48.58"/>
  </g>
  <path class="cls-1" d="M91.4,67.76c-14.62-14.62-14.62-38.31,0-52.93"/>
  <path class="cls-1" d="M100.12,59.01c-9.75-9.75-9.75-25.57,0-35.33"/>
  <path class="cls-1" d="M108.76,49.99c-4.8-4.79-4.8-12.57,0-17.37"/>
  <circle class="cls-1" cx="117.09" cy="41.31" r="2.47"/>
</svg>