<?xml version="1.0" encoding="UTF-8"?>
<svg id="Icons" xmlns="http://www.w3.org/2000/svg" viewBox="0 0 200 200">
  <defs>
    <style>
      .cls-1, .cls-2 {
        stroke-miterlimit: 10;
      }

      .cls-1, .cls-2, .cls-3, .cls-4 {
        fill: none;
        stroke: #fff;
        stroke-width: 3px;
      }

      .cls-5 {
        fill: #fff;
      }

      .cls-2, .cls-3 {
        stroke-linecap: round;
      }

      .cls-3, .cls-4 {
        stroke-linejoin: round;
      }
    </style>
  </defs>
  <line class="cls-1" x1="35.88" y1="172.94" x2="174.88" y2="172.94"/>
  <polyline class="cls-1" points="85.59 166.94 85.59 85.38 125.59 85.38 125.59 121.83"/>
  <polyline class="cls-1" points="140.04 166.94 140.04 128.49 168.04 128.49 168.04 133.34"/>
  <polyline class="cls-1" points="125.37 115.6 152.93 115.6 152.93 128.05"/>
  <polyline class="cls-1" points="125.37 103.6 142.71 103.6 142.71 115.38"/>
  <rect class="cls-1" x="93.26" y="73.1" width="24" height="12.28"/>
  <path class="cls-1" d="M133.82,144.91c.41,1.02.64,2.15.64,3.32,0,4.9-3.97,8.87-8.87,8.87s-8.87-3.97-8.87-8.87c0-1.17.22-2.29.64-3.32l8.23-16.65,8.23,16.65Z"/>
  <line class="cls-1" x1="125.51" y1="156.42" x2="125.51" y2="167.17"/>
  <path class="cls-1" d="M104.79,150.83c.3.75.47,1.58.47,2.43,0,3.6-2.92,6.51-6.51,6.51s-6.51-2.92-6.51-6.51c0-.86.16-1.68.47-2.43l6.04-12.22,6.04,12.22Z"/>
  <line class="cls-1" x1="98.69" y1="159.28" x2="98.69" y2="167.17"/>
  <path class="cls-1" d="M174.34,150.83c.3.75.47,1.58.47,2.43,0,3.6-2.92,6.51-6.51,6.51s-6.51-2.92-6.51-6.51c0-.86.16-1.68.47-2.43l6.04-12.22,6.04,12.22Z"/>
  <line class="cls-1" x1="168.24" y1="159.28" x2="168.24" y2="167.17"/>
  <path class="cls-1" d="M78.74,150.83c.3.75.47,1.58.47,2.43,0,3.6-2.92,6.51-6.51,6.51s-6.51-2.92-6.51-6.51c0-.86.16-1.68.47-2.43l6.04-12.22,6.04,12.22Z"/>
  <line class="cls-1" x1="72.64" y1="159.28" x2="72.64" y2="167.17"/>
  <path class="cls-1" d="M42.99,150.83c.3.75.47,1.58.47,2.43,0,3.6-2.92,6.51-6.51,6.51s-6.51-2.92-6.51-6.51c0-.86.16-1.68.47-2.43l6.04-12.22,6.04,12.22Z"/>
  <line class="cls-1" x1="36.88" y1="159.28" x2="36.88" y2="167.17"/>
  <line class="cls-1" x1="95.26" y1="106.47" x2="115.26" y2="106.47"/>
  <line class="cls-1" x1="95.26" y1="95.93" x2="115.26" y2="95.93"/>
  <line class="cls-1" x1="95.26" y1="117.11" x2="115.26" y2="117.11"/>
  <line class="cls-1" x1="95.26" y1="127.74" x2="115.26" y2="127.74"/>
  <line class="cls-1" x1="139.92" y1="138.74" x2="159.92" y2="138.74"/>
  <line class="cls-1" x1="139.92" y1="149.2" x2="156.02" y2="149.2"/>
  <line class="cls-1" x1="139.92" y1="159.66" x2="157.92" y2="159.66"/>
  <g>
    <line class="cls-3" x1="136.42" y1="103.6" x2="141.43" y2="51.05"/>
    <line class="cls-3" x1="177.35" y1="51.05" x2="184.33" y2="124.26"/>
    <polyline class="cls-4" points="154.64 124.26 187.83 124.26 190.82 149.2 180.1 149.2"/>
    <line class="cls-3" x1="179.1" y1="71.49" x2="139.69" y2="71.49"/>
    <line class="cls-3" x1="181.84" y1="96.81" x2="137.4" y2="96.81"/>
    <rect class="cls-4" x="141.43" y="25.94" width="35.92" height="25.06"/>
    <polygon class="cls-3" points="159.39 12.02 181.38 25.94 137.4 25.94 159.39 12.02"/>
    <line class="cls-4" x1="168.3" y1="31.41" x2="168.3" y2="45.98"/>
    <line class="cls-4" x1="159.41" y1="31.41" x2="159.41" y2="45.98"/>
    <line class="cls-4" x1="150.59" y1="31.41" x2="150.59" y2="45.98"/>
    <line class="cls-3" x1="141.43" y1="31.41" x2="177.35" y2="31.41"/>
    <line class="cls-3" x1="141.43" y1="45.98" x2="177.35" y2="45.98"/>
  </g>
  <circle class="cls-2" cx="55.93" cy="116.84" r="7.2"/>
  <path class="cls-1" d="M32.17,120.46c-.34-1.59-.49-3.25-.49-4.94,0-9.85,5.86-18.34,14.28-22.17"/>
  <polyline class="cls-2" points="58.22 123.65 61.01 165.94 50.84 165.94 53.34 128.1"/>
  <polyline class="cls-2" points="58.47 110.12 58.47 81 54.37 81 51.43 104.06 54.94 109.71"/>
  <polyline class="cls-2" points="48.85 118.09 23.63 132.65 25.68 136.2 47.14 127.24 50.26 121.34"/>
  <polyline class="cls-2" points="60.51 122.37 85.72 136.92 87.76 133.38 69.27 119.28 62.61 119.52"/>
  <path class="cls-1" d="M79.35,120.46c.34-1.59.49-3.25.49-4.94,0-9.85-5.86-18.34-14.28-22.17"/>
  <circle class="cls-5" cx="56.05" cy="116.79" r="1.7"/>
  <g>
    <circle class="cls-3" cx="105.07" cy="38.55" r="17.55"/>
    <line class="cls-4" x1="105.07" y1="17.91" x2="105.07" y2="12.06"/>
    <line class="cls-4" x1="105.07" y1="64.88" x2="105.07" y2="59.03"/>
    <line class="cls-4" x1="84.59" y1="38.39" x2="78.74" y2="38.39"/>
    <line class="cls-4" x1="131.4" y1="38.39" x2="125.55" y2="38.39"/>
    <line class="cls-4" x1="90.59" y1="23.91" x2="86.46" y2="19.78"/>
    <line class="cls-4" x1="123.69" y1="57.01" x2="119.55" y2="52.87"/>
    <line class="cls-4" x1="90.59" y1="52.87" x2="86.45" y2="57.01"/>
    <line class="cls-4" x1="123.69" y1="19.77" x2="119.55" y2="23.91"/>
  </g>
</svg>