<?xml version="1.0" encoding="UTF-8"?>
<svg id="Icons" xmlns="http://www.w3.org/2000/svg" viewBox="0 0 200 200">
  <defs>
    <style>
      .cls-1, .cls-2 {
        stroke-miterlimit: 10;
      }

      .cls-1, .cls-2, .cls-3, .cls-4 {
        fill: none;
        stroke: #fff;
        stroke-width: 3px;
      }

      .cls-2, .cls-3 {
        stroke-linecap: round;
      }

      .cls-3, .cls-4 {
        stroke-linejoin: round;
      }
    </style>
  </defs>
  <g>
    <polyline class="cls-2" points="136.42 45.36 143.87 29.23 158.21 64.45 143.87 64.45"/>
    <path class="cls-2" d="M136.43,45.35c-10.32-7.46-22.99-11.86-36.69-11.86-22.75,0-42.67,12.13-53.65,30.27"/>
  </g>
  <g>
    <polyline class="cls-2" points="66.47 153.49 59.01 169.61 44.68 134.41 59.01 134.41"/>
    <path class="cls-2" d="M66.46,153.49c10.32,7.46,22.99,11.86,36.69,11.86,22.24,0,41.78-11.59,52.9-29.07"/>
  </g>
  <g>
    <path class="cls-1" d="M51.76,106.1h.01c2.19-3.35,3.46-7.34,3.46-11.62,0-11.72-9.5-21.22-21.22-21.22s-21.22,9.5-21.22,21.22c0,4.41,1.35,8.5,3.65,11.9h0l17.57,26.59.67-1.01,17.07-25.85Z"/>
    <circle class="cls-1" cx="34.02" cy="93.15" r="6.63"/>
  </g>
  <g>
    <path class="cls-1" d="M184.23,106.1h.01c2.19-3.35,3.46-7.34,3.46-11.62,0-11.72-9.5-21.22-21.22-21.22s-21.22,9.5-21.22,21.22c0,4.41,1.35,8.5,3.65,11.9h0l17.57,26.59.67-1.01,17.07-25.85Z"/>
    <circle class="cls-1" cx="166.48" cy="93.15" r="6.63"/>
  </g>
  <polyline class="cls-3" points="111.62 78.37 116.15 125.83 83.81 125.83 88.33 78.37"/>
  <polygon class="cls-3" points="120.35 142 79.6 142 81.54 125.83 118.41 125.83 120.35 142"/>
  <line class="cls-3" x1="112.75" y1="91.61" x2="87.2" y2="91.61"/>
  <line class="cls-3" x1="114.45" y1="108.03" x2="85.72" y2="108.03"/>
  <rect class="cls-4" x="88.33" y="62.09" width="23.28" height="16.24"/>
  <polygon class="cls-3" points="99.98 53.06 114.23 62.09 85.72 62.09 99.98 53.06"/>
  <line class="cls-3" x1="117.18" y1="70.05" x2="126.97" y2="70.05"/>
  <line class="cls-3" x1="117.18" y1="65.86" x2="121.75" y2="61.29"/>
  <line class="cls-3" x1="117.18" y1="74.23" x2="121.75" y2="78.8"/>
  <line class="cls-3" x1="82.8" y1="70.05" x2="73" y2="70.05"/>
  <line class="cls-3" x1="82.8" y1="65.86" x2="78.22" y2="61.29"/>
  <line class="cls-3" x1="82.8" y1="74.23" x2="78.22" y2="78.8"/>
</svg>