<?xml version="1.0" encoding="UTF-8"?>
<svg id="Icons" xmlns="http://www.w3.org/2000/svg" viewBox="0 0 200 200">
  <defs>
    <style>
      .cls-1 {
        fill: none;
        stroke: #fff;
        stroke-linecap: round;
        stroke-linejoin: round;
        stroke-width: 3px;
      }
    </style>
  </defs>
  <rect class="cls-1" x="50" y="50.5" width="100" height="100" rx="9" ry="9"/>
  <path class="cls-1" d="M103.29,94.02c0-1.61-.03-3.35.02-5.08.02-.81-.21-1.09-1.05-1.08-4.11.04-8.23.04-12.34,0-.93-.01-1.14.3-1.14,1.18.02,15.24.02,30.47,0,45.71,0,.89.25,1.2,1.16,1.19,4.27-.04,8.54-.04,12.81,0,.91,0,1.15-.29,1.15-1.18-.03-7.62-.04-15.24,0-22.85,0-1.61.11-3.25.38-4.83.56-3.23,2.01-5.87,5.47-6.75,1.07-.27,2.21-.33,3.32-.32,3.54.04,5.76,1.72,6.55,5.21.43,1.89.6,3.88.62,5.83.07,7.87.03,15.73.03,23.6,0,1.25.03,1.28,1.24,1.28,4.21,0,8.42-.02,12.62.02.95,0,1.2-.29,1.2-1.23-.03-9.12.07-18.23-.07-27.35-.05-3.03-.46-6.1-1.14-9.05-1.22-5.31-4.32-9.18-9.74-10.7-1.86-.52-3.84-.67-5.78-.87-4.32-.45-8.23.67-11.57,3.44-1.37,1.13-2.5,2.56-3.72,3.84ZM64.64,111.93c0,7.62.02,15.23-.02,22.85,0,.92.3,1.17,1.17,1.16,4.27-.04,8.54-.03,12.81,0,.82,0,1.14-.22,1.14-1.11-.03-15.29-.03-30.59,0-45.88,0-.91-.33-1.08-1.14-1.08-4.21.03-8.41.01-12.62.02q-1.33,0-1.34,1.3c0,7.58,0,15.17,0,22.75ZM72.12,81.46c4.84,0,8.73-3.81,8.74-8.58.01-4.87-3.83-8.8-8.62-8.8-4.87,0-8.72,3.83-8.73,8.69,0,4.84,3.81,8.69,8.61,8.69Z"/>
</svg>