<?xml version="1.0" encoding="UTF-8"?>
<svg id="Icons" xmlns="http://www.w3.org/2000/svg" viewBox="0 0 200 200">
  <defs>
    <style>
      .cls-1, .cls-2 {
        fill: none;
        stroke: #fff;
        stroke-miterlimit: 10;
        stroke-width: 3px;
      }

      .cls-2 {
        stroke-linecap: square;
      }
    </style>
  </defs>
  <rect class="cls-2" x="62.5" y="112.77" width="74.77" height="38.57"/>
  <line class="cls-1" x1="100.51" y1="72.51" x2="100.51" y2="48.66"/>
  <rect class="cls-1" x="100.51" y="48.66" width="20.02" height="12.5"/>
  <line class="cls-2" x1="37.5" y1="151.34" x2="162.5" y2="151.34"/>
  <line class="cls-2" x1="70.53" y1="95.99" x2="130.01" y2="95.99"/>
  <line class="cls-2" x1="100" y1="118.32" x2="100" y2="145.79"/>
  <line class="cls-2" x1="87.5" y1="118.32" x2="87.5" y2="145.79"/>
  <line class="cls-2" x1="75" y1="118.32" x2="75" y2="145.79"/>
  <line class="cls-2" x1="112.5" y1="118.32" x2="112.5" y2="145.79"/>
  <line class="cls-2" x1="125" y1="118.32" x2="125" y2="145.79"/>
  <line class="cls-2" x1="100.02" y1="100.87" x2="100.02" y2="108.26"/>
  <line class="cls-2" x1="87.5" y1="100.87" x2="87.5" y2="108.26"/>
  <line class="cls-2" x1="112.5" y1="100.87" x2="112.5" y2="108.26"/>
  <rect class="cls-2" x="75" y="95.99" width="50" height="16.78"/>
  <path class="cls-2" d="M75,95.99c0-13.81,11.19-25,25-25s25,11.19,25,25"/>
  <rect class="cls-2" x="50" y="125.46" width="12.5" height="25.88"/>
  <rect class="cls-2" x="137.27" y="125.46" width="12.5" height="25.88"/>
</svg>