<?xml version="1.0" encoding="UTF-8"?>
<svg id="Icons" xmlns="http://www.w3.org/2000/svg" viewBox="0 0 200 200">
  <defs>
    <style>
      .cls-1, .cls-2 {
        stroke-miterlimit: 10;
      }

      .cls-1, .cls-2, .cls-3 {
        fill: none;
        stroke: #fff;
        stroke-width: 3px;
      }

      .cls-4 {
        fill: #fff;
      }

      .cls-2 {
        stroke-linecap: round;
      }

      .cls-3 {
        stroke-linejoin: round;
      }
    </style>
  </defs>
  <circle class="cls-4" cx="133.13" cy="93.36" r="4"/>
  <path class="cls-2" d="M52.74,105.33c0,4.27-3.46,7.73-7.73,7.73s-7.73-3.46-7.73-7.73"/>
  <path class="cls-2" d="M69.68,95.71c.74-3.07,2.01-5.9,3.7-8.45,4.21-6.36,11.04-10.91,18.98-12.72,3.08-.7,6.32-.99,9.64-.82"/>
  <path class="cls-1" d="M73.38,87.27c-.95.11-1.91.17-2.89.17-4.2,0-8.15-1.03-11.62-2.86-7.95-4.18-13.37-12.53-13.37-22.13,0-13.81,11.19-25,25-25s24.57,10.77,24.98,24.21c0,.26.01.52.01.78,0,4.39-1.13,8.52-3.12,12.11"/>
  <path class="cls-3" d="M95.47,61.65c2.37-.31,4.8-.47,7.27-.47,4.7,0,9.24.59,13.56,1.68l-.04-.02,23.31-4.88-3.27,14.85-.05-.03c7.27,5.91,12.61,13.72,15.03,22.56l11.45-.02v20h-11.03c-2.26,9.84-8.09,18.5-16.22,24.84h.03s0,22.4,0,22.4h-20v-12.88h.02c-4.08.96-8.37,1.48-12.79,1.48-3.93,0-7.75-.42-11.42-1.19l.06.03v12.56h-20v-21.36c-11.36-8.25-18.64-20.87-18.64-35.03,0-7.83,2.22-15.19,6.13-21.6"/>
  <g>
    <path class="cls-1" d="M80.12,71.65c-1.9,1.77-4.48,2.85-7.32,2.85-5.81,0-10.54-2.87-10.54-8.47v-9.32c0-5.59,4.72-10.13,10.54-10.13,2.88,0,5.49,1.11,7.39,2.92"/>
    <line class="cls-1" x1="59.17" y1="56.97" x2="72.8" y2="56.97"/>
    <line class="cls-1" x1="59.17" y1="64.64" x2="72.8" y2="64.64"/>
  </g>
</svg>