<?xml version="1.0" encoding="UTF-8"?>
<svg id="Icons" xmlns="http://www.w3.org/2000/svg" viewBox="0 0 200 200">
  <defs>
    <style>
      .cls-1, .cls-2 {
        fill: none;
        stroke: #fff;
        stroke-miterlimit: 10;
        stroke-width: 3px;
      }

      .cls-2 {
        stroke-linecap: round;
      }
    </style>
  </defs>
  <path class="cls-1" d="M133.45,105.63l.02-.03h0c4.12-6.29,6.53-13.81,6.53-21.89,0-22.09-17.91-40-40-40s-40,17.91-40,40c0,8.31,2.54,16.03,6.88,22.43h0l33.12,50.13,1.26-1.91,32.19-48.74Z"/>
  <circle class="cls-1" cx="100" cy="81.22" r="12.5"/>
  <path class="cls-2" d="M120.77,145.49c17.25,1.97,29.23,6.32,29.23,11.37,0,6.9-22.39,12.5-50,12.5s-50-5.6-50-12.5c0-5.05,11.98-9.4,29.23-11.37"/>
</svg>