<?xml version="1.0" encoding="UTF-8"?>
<svg id="Icons" xmlns="http://www.w3.org/2000/svg" viewBox="0 0 200 200">
  <defs>
    <style>
      .cls-1 {
        fill: none;
        stroke: #fff;
        stroke-miterlimit: 10;
        stroke-width: 3px;
      }
    </style>
  </defs>
  <path class="cls-1" d="M137.67,87.8h3.92c8.68,0,15.72,7.04,15.72,15.72s-7.04,15.72-15.72,15.72h-3.93"/>
  <path class="cls-1" d="M57.17,137.86h85.75c0,6.9-5.6,12.5-12.5,12.5h-60.75c-6.9,0-12.5-5.6-12.5-12.5h0Z"/>
  <path class="cls-1" d="M62.55,75.32h75.11v49.96c0,6.94-5.64,12.58-12.58,12.58h-49.94c-6.94,0-12.58-5.64-12.58-12.58v-49.96h0Z"/>
  <line class="cls-1" x1="100.22" y1="69.8" x2="100.22" y2="44.64"/>
  <line class="cls-1" x1="107.46" y1="69.8" x2="107.46" y2="57.14"/>
  <line class="cls-1" x1="92.98" y1="69.8" x2="92.98" y2="51.38"/>
</svg>