<?xml version="1.0" encoding="UTF-8"?>
<svg id="Icons" xmlns="http://www.w3.org/2000/svg" viewBox="0 0 200 200">
  <defs>
    <style>
      .cls-1, .cls-2 {
        fill: none;
        stroke: #fff;
        stroke-miterlimit: 10;
        stroke-width: 3px;
      }

      .cls-2 {
        stroke-linecap: round;
      }
    </style>
  </defs>
  <g>
    <path class="cls-1" d="M68.36,146.76h8.61s11.9,3.99,11.9,3.99h37.87s6.62,0,6.62,0c4.6,0,8.33-3.73,8.33-8.33"/>
    <path class="cls-1" d="M144.05,88.58h-3.59s-27.35,0-27.35,0l7.14-15.02c5.96-8.63,0-19.94,0-19.94-7.14-9.82-12.21,0-12.21,0l-4.17,14.59c-13.39,14.28-16.07,23.52-16.07,23.52l-8.33,9h-11.11"/>
    <path class="cls-2" d="M131.26,135.43h6.62c4.6,0,8.33-3.73,8.33-8.33M133.43,120.8h6.62c4.6,0,8.33-3.73,8.33-8.33M137.3,105.27h6.62c4.6,0,8.33-3.73,8.33-8.33,0-4.6-3.73-8.33-8.33-8.33"/>
  </g>
  <polyline class="cls-1" points="47.76 96.9 68.32 96.9 68.32 150.7 47.76 150.7"/>
</svg>