<?xml version="1.0" encoding="UTF-8"?>
<svg id="Icons" xmlns="http://www.w3.org/2000/svg" viewBox="0 0 200 200">
  <defs>
    <style>
      .cls-1 {
        fill: none;
        stroke: #fff;
        stroke-linecap: round;
        stroke-linejoin: round;
        stroke-width: 3px;
      }
    </style>
  </defs>
  <path class="cls-1" d="M168.15,65.65c-1.64-6.17-6.46-11.02-12.58-12.66-11.09-2.99-55.57-2.99-55.57-2.99,0,0-44.48,0-55.57,2.99-6.12,1.64-10.94,6.48-12.58,12.66-2.97,11.17-2.97,34.45-2.97,34.45,0,0,0,23.28,2.97,34.45,1.64,6.15,6.46,10.81,12.58,12.45,11.09,2.99,55.57,2.99,55.57,2.99,0,0,44.48,0,55.57-2.99,6.12-1.64,10.94-6.3,12.58-12.45,2.97-11.17,2.97-34.45,2.97-34.45,0,0,0-23.31-2.97-34.45ZM85.44,121.25v-42.29l37.16,21.15-37.16,21.15h0Z"/>
</svg>